<?xml version="1.0" encoding="utf-8"?>
<!-- Generator: Adobe Illustrator 19.2.1, SVG Export Plug-In . SVG Version: 6.00 Build 0)  -->
<!DOCTYPE svg PUBLIC "-//W3C//DTD SVG 1.1//EN" "http://www.w3.org/Graphics/SVG/1.1/DTD/svg11.dtd">
<svg version="1.1" id="Layer_1" xmlns="http://www.w3.org/2000/svg" xmlns:xlink="http://www.w3.org/1999/xlink" x="0px" y="0px"
	 viewBox="0 0 1920 1020" style="enable-background:new 0 0 1920 1020;" xml:space="preserve">
<style type="text/css">
	.st0{fill:none;}
	.st1{fill:url(#SVGID_1_);}
	.st2{fill:url(#SVGID_2_);}
</style>
<g>
	<path class="st0" d="M294.6,1.3c0.4-0.1,0.9-0.2,1.3-0.3h-1.5C294.4,1.1,294.5,1.2,294.6,1.3z"/>
	<linearGradient id="SVGID_1_" gradientUnits="userSpaceOnUse" x1="-108.6783" y1="564.9279" x2="610.6082" y2="149.6476">
		<stop  offset="0" style="stop-color:#FFFFFF"/>
		<stop  offset="1" style="stop-color:#247A93"/>
	</linearGradient>
	<path class="st1" d="M652.4,290.5c3.5-10.2,5.4-21.1,5.4-32.3c0-63.5-60.6-115-135.4-115c-18.4,0-36,3.1-52.1,8.8
		c-18.9-24.3-48.1-42.4-82.3-49.8c7.6-10.4,11.9-22.7,11.9-35.8c0-30.8-24-56.8-56.9-65.4h-47.2c-0.4,0.1-0.9,0.2-1.3,0.3
		c-0.1-0.1-0.1-0.2-0.2-0.3H0v679.1C31.5,695.3,67.9,704,106.7,704c86.1,0,160.5-42.7,195.4-104.5c46.5,45.3,114.9,73.9,191.2,73.9
		c140,0,253.5-96.4,253.5-215.3C746.9,390.4,710,330,652.4,290.5z"/>
</g>
<g>
	<linearGradient id="SVGID_2_" gradientUnits="userSpaceOnUse" x1="2140.7681" y1="371.4357" x2="1128.0258" y2="371.4357">
		<stop  offset="0" style="stop-color:#FFFFFF"/>
		<stop  offset="9.580974e-002" style="stop-color:#F5F9FA"/>
		<stop  offset="0.26" style="stop-color:#D9E8EC"/>
		<stop  offset="0.4727" style="stop-color:#ADCDD6"/>
		<stop  offset="0.7256" style="stop-color:#6FA8B8"/>
		<stop  offset="1" style="stop-color:#247A93"/>
	</linearGradient>
	<path class="st2" d="M1552.8,28c-4.7,17.3-5.7,34.8-3.5,51.5c-29.9,9.9-56,30-73,57.3c-8.3-6.9-18.2-12.1-29.3-15.1
		c-41.8-11.3-84.9,13.4-96.2,55.1c-1.9,7.2-2.8,14.4-2.7,21.4c-65.5,5.1-123.7,50.5-141.8,117.5c-2.6,9.8-4.3,19.6-5.1,29.3
		c-32.5,2.2-61.4,24.5-70.4,57.7c-11.3,41.8,13.4,84.8,55.2,96.1c26.8,7.3,54.2-0.3,73.3-17.7c13.8,11.3,29.6,20.4,47.1,26.7
		c-10.5,57.4,24.7,114.2,82.1,129.8c53.2,14.4,107.9-11.5,131.5-59.1c18,13.8,39,24.3,62.2,30.6c29.3,7.9,59,8.2,86.7,1.9
		c24.1,58.6,74.2,105.7,140.1,123.5c37.8,10.2,75.9,9.5,111-0.2V1h-356.6C1559,9.4,1555.4,18.4,1552.8,28z"/>
</g>
</svg>
