<?xml version="1.0" encoding="utf-8"?>
<!-- Generator: Adobe Illustrator 19.2.1, SVG Export Plug-In . SVG Version: 6.00 Build 0)  -->
<!DOCTYPE svg PUBLIC "-//W3C//DTD SVG 1.1//EN" "http://www.w3.org/Graphics/SVG/1.1/DTD/svg11.dtd">
<svg version="1.1" id="Layer_1" xmlns="http://www.w3.org/2000/svg" xmlns:xlink="http://www.w3.org/1999/xlink" x="0px" y="0px"
	 viewBox="0 0 1920 1020" style="enable-background:new 0 0 1920 1020;" xml:space="preserve">
<style type="text/css">
	.st0{fill:#521223;}
</style>
<g>
	<g>
		<path class="st0" d="M1131,286.9c0.1,0,0.1,0.1,0.2,0c0.1,0,0.1,0,0.2-0.1c0.4-0.2,0.7-0.6,1-0.8c0.4-0.4,0.8-0.9,1.1-1.4
			c0.7-1,1.2-2.2,1.8-3.3c0.8-1.6,1.9-3.3,3.7-3.9c0.3-0.1,0.7-0.2,1-0.1c0.3,0,0.7,0.2,0.9,0.5c0.2,0.3,0.3,0.6,0.3,1
			c0,0.7-0.4,1.4-0.7,2c-0.2,0.5-0.4,0.9-0.6,1.3c-0.4,0.9-0.8,1.7-1.3,2.6c-1,1.7-2.1,3.3-3.3,4.8c-0.4,0.5-0.8,0.9-1.2,1.4
			c-1.5,1.6-3.8,3.2-5.8,2.2c-0.7-0.4-1.2-1.1-1.7-1.8c-1.7-2.5-3.3-5.1-4.8-7.7c-0.3-0.5-1-0.6-1.4-0.2c-2.5,2.4-6.1,5.2-9.5,5.3
			c-1.8,0.1-3.6,0.3-5.3,0.1c-3.8-0.3-7.5-0.7-10.8-3c-2.4-1.7-3.7-3.3-5-5.6c-0.3-0.6-1.2-0.6-1.5,0c-1.5,2.3-3.3,4.5-5.2,6.4
			c-0.6,0.6-1.2,1.2-1.9,1.4c-0.8,0.3-1.7,0.2-2.5,0.1c-2.2-0.4-4.4-1.1-6.3-2.2c-0.7-0.4-2.2-1.9-3-2c-1.1-0.1-1.5,1.2-2.2,1.9
			c-5.1,5.7-14.8,7.8-21.7,4.2c-4.4-2.3-6.4-7-7.6-11.6c-0.2-0.7-0.4-1.5-0.7-2.1c-0.4-0.7-1.5-0.6-1.7,0.2c-0.4,1.5-0.8,3-1.3,4.4
			c-1.9,5.8-5.9,11.4-12.5,11.7c-3.3,0.2-6.6-1.1-9.4-2.7c-8-4.6-13.8-12.8-16.5-21.7c-2.7-8.9-2.5-18.5-0.6-27.5
			c2.2-10.3,6.8-20.3,14.3-27.8c3.1-3.1,7.3-5.9,11.5-4.9c2,0.5,3.7,1.7,5.2,3.1c6.6,6,10.7,14.7,11,23.7c0.1,1.9,0,3.8-0.8,5.5
			c-1,2-2.9,3.4-4.7,4.6c-7.5,5-15.6,9.2-24.1,12.3c-0.4,0.1-0.6,0.5-0.6,0.9c0.6,4.9,1.4,9.8,3.2,14.4c1.8,4.8,4.6,9.4,8.5,12.7
			c1.6,1.3,3.6,2.5,5.6,2c1.7-0.4,2.9-1.7,4-3.1c6.6-8.8,7.5-19.7,8.8-30.3c1.3-11.1,3.4-22.2,8.3-32.2c1.7-3.3,3.7-6.6,6.7-8.7
			s7.2-3.1,10.5-1.4c2.3,1.1,4,3.3,6.1,4.8c0.2,0.1,0.4,0.2,0.6,0.3c1.4,0.4,1.9-1,2.4-2c1.6-4,4.9-7.3,8.9-8.9
			c0.4-0.1,0.7-0.2,1.1-0.1c1.6,0.3,1.6,1.6,1.5,2.6c-1.1,19.3-2.3,38.5-3.4,57.8c-0.2,3.4-1.2,7.2,0.4,10.4
			c0.6,1.3,1.6,2.3,2.5,3.4c0.3,0.4,0.8,0.7,1.2,0.9c0.2,0.1,0.4,0.2,0.6,0.1c0.2,0,0.3-0.2,0.4-0.3c2.9-3.2,2.4-7.5,2.1-11.5
			c-0.4-4.4-0.6-8.9-0.5-13.3c0.3-8.8,2.2-30,7.1-37.4c2.1-3.2,4.9-6.1,8.5-7.1c3.3-0.8,6.7,0,9.9,1c0.5,0.2,1.1-0.2,1.2-0.8
			c1.8-16.5,4.6-33,8.3-49.2c0.1-0.3,0.2-0.7,0.4-1c1.1-1.5,2.5-0.8,3.6-0.1c3.5,2,6.9,4,10.4,6c0.7,0.4,1.4,0.9,1.5,1.6
			c0.1,0.5-0.2,1-0.5,1.5c-7.2,12.3-9.3,26.8-10.4,40.9c-1,12.4-1.2,24.9-0.6,37.3c0.2,3.8,0.4,19.9,1,23.7
			c0.6,3.8,1.4,7.5,2.7,11.1c0.2,0.5,0.4,1.1,0.6,1.6c0.2,0.5,0.4,1,0.6,1.5c0.1,0.1,0.1,0.3,0.2,0.4
			C1130.8,286.7,1130.9,286.8,1131,286.9z M1061.7,217.2c-0.5,0.2-0.9,0.7-1.2,1.1c-8.8,13.1-10.6,29-12.2,44.3
			c-0.5,4.6-0.8,9.3,0.1,13.9c0.7,3.7,2.3,7.9,5.1,10.5c0.5,0.5,1.2,1,1.9,1.1c1.4,0.2,2.5-0.9,3.4-2c5.1-6.4,7.2-13.8,8.1-21.8
			c0.9-8.1,1.1-16.3,0.7-24.5c-0.2-4.4-0.8-8.8-1.3-13.1C1066,225.2,1064.9,216,1061.7,217.2z M1107.1,216.4
			c-0.4,0.1-0.8,0.4-1.1,0.9c-6.7,11.1-9.5,36.7-7.7,49.5c0.7,5,2.1,10.1,5.1,14.2c1.3,1.9,3.1,4.8,5.4,3.1c2.1-1.5,3.6-4.1,4.6-6.5
			c2.8-7,2.6-27.6,2.2-35.1c-0.4-7.9-1.9-15.8-5-23.1c-0.3-0.8-0.7-1.7-1.4-2.3C1108.5,216.5,1107.7,216.2,1107.1,216.4z
			 M1006.7,252.5c0.1,0.1,0.1,0.2,0.3,0.2c0.2,0.1,0.5,0.1,0.8,0c4.3-2.3,8.2-5.2,11.7-8.6c1.4-1.4,2.8-2.9,3.7-4.7
			c2.9-6,0.3-14.6-1.5-20.7c-0.3-1-0.8-2.1-1.5-3c-0.3-0.4-0.9-0.5-1.3-0.1c-9.2,8.3-11.3,24.8-12.2,36.3
			C1006.7,252,1006.6,252.3,1006.7,252.5z"/>
		<path class="st0" d="M834.3,268.1c0.3-2.7,0.5-5.5,0.8-8.3c0.2-2.3,0.4-4.6,0.5-6.9c0.1-5.4,0.3-10.7,0.4-16.1
			c0.2-7.6,0.3-15.2,0.4-22.8c0-0.3-0.1-0.8-0.5-0.7c-0.2,0-0.3,0.2-0.3,0.4c-1.1,2.1-2.1,4.2-3.2,6.4c-2,4-2.1,7-2.2,11.3
			c0,3.5-0.1,7-0.4,10.5c-0.9,10.7-4.3,22.5-13.2,29.3c-7.1,5.5-19.2,3.9-26.5-0.7c-9.4-5.9-13.3-20-14.3-30.3
			c-1.1-12.4,1.1-25.2,5.8-36.6c3.3-8.1,8.1-15.2,15.8-19.5c2.9-1.6,6.1-2.8,9.4-2.8c2.9,0,5.8,0.8,8.3,2.3c4,2.4,7.5,6.7,7.3,11.6
			c0,1.3-1.9,1.6-3.4,0.5c-3.8-2.8-6.9-6.6-12.7-5.5c-2.6,0.5-4.8,2-6.4,4.1c-4.7,6.2-5.1,14.3-5.9,21.7c-1,8.7-1,17.7-0.8,26.4
			c0.2,7.7,1.3,15.9,5.7,22.4c2.4,3.5,7.4,2.1,9.8-0.5c1.9-2.1,2.9-4.9,3.5-7.7c1.2-5,1.8-10.2,2.1-15.3c0.1-1.3,1.2-13.6,0.5-13.9
			c-6.9-2.8-11.9-5.1-13.9-13.7c-0.9-4-0.8-8.9,0.6-12.8c0.8-2.2,2.7-4.3,4.6-5.6c1.5-1,3.4-1.4,5.2-1c5.6,1.2,10.2,5.1,13.1,9.9
			c1.3,2.2,2.1,4.6,2.7,7.1c0.3,1.2,0.6,2.4,1,3.6c0.2,0.6,0.4,1.2,0.6,1.8c0.1,0.2,0.2,1.1,0.6,1c0.2,0,0.3-0.2,0.4-0.3
			c0.8-1.1,1.2-2.5,1.5-3.9c0.9-3.7,1.8-7.5,2-11.3c0.1-2.3-0.1-4.5,0.1-6.8c0.1-1.6,0.2-3.4,1.2-4.7c0.4-0.6,1.1-1,1.8-1.1
			c0.7-0.1,1.5,0.1,2.2,0.4c3.8,1.5,5.8,4,8.3,7.2c0.3,0.4,0.6,0.8,1,1.1c1.4,0.9,3.5-0.7,4.5-1.5c1.3-1,2.7-1.9,4.2-2.6
			c3-1.4,6.2-2.2,9.5-2.2c1.7,0,3.5,0.2,5.1,0.9c1.7,0.7,3.2,2,4.4,3.6c6.4,8.5,2.6,20.5,0,29.6c-0.3,1.1-0.6,2.2-0.9,3.2
			c-1.7,6.2-3.1,12.5-2.6,18.9c0.2,1.9,0.5,3.9,1.5,5.5c0.6,0.9,1.3,1.6,2.4,1.9c1.4,0.3,2.8-0.6,3.8-1.7c1.6-1.7,2.5-3.9,3.4-6.1
			c0.3-0.7,0.6-1.6,0.6-2.4c0-0.9-0.4-1.9-0.6-2.7c-0.3-1.9-0.5-3.7-0.8-5.6c-0.5-3.5-0.7-7.1-0.7-10.6c-0.1-4.2,0.3-8.3,1.3-12.3
			c1-3.9,2.2-7.7,3.9-11.4c0.4-0.8,0.8-1.7,1.3-2.5c2.5-4.4,5.8-8.4,10.1-11.2c2.2-1.4,4.8-2.5,7.3-1.9c1.7,0.4,3.1,1.5,4.4,2.7
			c2.7,2.5,4.9,5.5,7,8.6c3.8,5.5,6.6,12.2,5.1,19c-0.7,3.2-2.4,6.2-4.8,8.4c-2.3,2-5.5,3.6-8.4,4.5c-3.5,1.1-6.9,2.1-10.4,3.2
			c-0.4,0.1-0.8,0.2-1,0.5c-0.3,0.3-0.3,0.8-0.3,1.2c-0.1,5.6,1,11.2,3.5,16.3c0.8,1.7,1.9,3.5,3.5,4.5c2.1,1.3,4.9,1.2,7.1,0.3
			c2.3-1,4.1-2.7,5.7-4.6c1.3-1.6,2.5-3.3,3-5.3c0.4-1.3,0.6-2.7,2-3.3c0.1-0.1,0.3-0.1,0.5-0.1c1.2-0.1,1.5,0.6,1.6,1.3
			c0.2,1.7-1,3.4-1.8,4.8c-0.9,1.6-1.9,3.1-3,4.6c-1.1,1.5-2.4,2.8-3.7,4.1c-0.3,0.3-0.6,0.5-0.9,0.8c-3,2.5-6.6,3.9-10.6,4.2
			c-7.3,0.5-12.4-4.7-16.7-9.9c-0.6-0.7-1.7-0.7-2.1,0.1c-0.3,0.5-0.6,1.1-1,1.6c-1.3,2-2.7,4.1-4.5,5.8c-1.8,1.7-4,3-6.4,3.2
			c-3.3,0.3-6.5-1.6-8.6-4.2c-2.1-2.6-3.1-5.8-3.8-9.1c-1.5-7.4-1.2-15.1,0.1-22.6c1-5.5,2.4-10.8,4-16.2c0.7-2.5,4.1-11.1-1.9-10.2
			c-1.2,0.2-2.2,0.8-3,1.6c-6.9,7.1-10.3,16.9-11.5,26.7c-0.7,5.9-0.7,11.9-0.5,17.9c0.1,2.6,0.3,5.3,0.5,7.9
			c0.2,2.5,0.9,5.3-0.3,7.7c-1.4,2.8-4.9,3.7-7.6,4.6l-5.6,1.2C834.7,268.9,834.3,268.5,834.3,268.1z M904.9,195.8
			c-0.4-0.1-0.8,0.7-1.1,1c-3.3,4-5,9.1-5.9,14.1c-0.7,4.5-0.8,9.1-0.7,13.7c0,0.6-0.2,3.2,0.6,3.2c0.3,0,0.5-0.1,0.7-0.3
			c2.8-1.8,5.4-3.9,7.4-6.5c2.1-2.6,3.5-5.7,3.9-9c0.4-3-0.1-6-1-8.9c-0.8-2.7-1.9-5.4-3.9-7.4C905,195.8,905,195.8,904.9,195.8z
			 M813.8,222.7c0.8,0.1,1.4-0.4,1.5-1.2c1.5-11.7-2.6-19-6.2-20.9c-0.5-0.2-1-0.2-1.5,0l0,0c-1.6,0.9-2.6,2.5-2.8,4.3
			c-0.3,4.2-0.4,8.8,1.7,12.6C808.1,220.3,810.8,222.2,813.8,222.7z"/>
		<path class="st0" d="M1038.8,379.5c-1.1,5.9-1.6,11.9-0.7,17.8c1.1,7.1,4.4,14.1,10.1,18.4c2.6,2,5.9,3.5,9.2,3
			c3.3-0.5,6.3-3.5,5.9-6.8c-0.3-3.3-5-5.5-7.3-3.2c-1.5-2.3-0.5-5.6,1.8-7c2.3-1.4,5.4-1,7.6,0.6s3.4,4.3,3.8,6.9
			c1,7.6-5.2,15.1-12.7,16.7c-7.5,1.6-15.6-2-20.4-8c-4.9-5.9-6.9-13.8-6.9-21.5c0-7.7,1.8-15.3,4-22.6c0.7-2.4,1.6-5.1,1.6-7.7
			c0-2.6-1.5-3.3-3-5.2c-1.8-2.2-19.8-19.6-21.5-21.7c-3.8-4.5-7.6-9-11.4-13.5c-3.9-4.5-7.8-8.9-11.6-13.4
			c-3.2-3.7-6.6-7.2-10.1-10.8c-0.6-0.6-1.5-0.3-1.7,0.5c-2,9.7-6.9,18.9-14.8,24.9c-15.9,12.1-35.9,7.9-49-5.8
			c-2.6-2.7-5-5.7-6.8-9c-5.3-9.6-5.4-21.3,1.3-30.3c4.4-6,11-10.1,18.1-12.4c10.1-3.4,22-4.6,31.8,0.3c2,1,3.5,0.8,3.8-1.7
			c1.2-10.4,2.2-20.9,2.9-31.3c0.2-2.5,0.3-5.1,0.5-7.6c0.1-2.4,1-5.8,0.4-8.1c-0.8-3.5-4.9-1.9-7.8-2.1
			c-11.8-0.7-22.9-7.7-29.2-17.6c-6.8-10.7-5.9-25.3,1.3-35.6c2.6-3.7,6.6-7,11.1-6.4c1.8,0.3,3.5,1.2,5.1,2c0.7,0.4,1.2,1,1.5,1.7
			c0.8,2.5-2.9,1.9-4.1,2.5c-0.9,0.4-1.6,1.1-2.3,1.8c-5.1,5.3-7.7,13.4-4.9,20.2c2.1,5.2,7.1,8.9,12.4,10.9
			c5,1.8,10.3,3.5,15.7,3.1c1-0.1,2-0.2,2.7-0.9c1.2-1.3,1-4.3,1.3-5.9c1.5-10.9,4.5-22,8.5-32.2c3.8-9.8,9.3-20.6,18.3-26.5
			c4.4-2.9,9.5-5.8,14.9-5.1c5.3,0.7,10.1,3.6,12.7,8.3c2.8,5.1,2.6,11.3,1.7,16.9c-0.8,5.2-1.6,10.4-3.2,15.5
			c-3.7,12-10.6,22.8-20,31.1c-2.9,2.6-6,4.9-9.2,7.1c-3.8,2.7-8.8,3.6-9.2,8.9c-0.4,6.7-0.7,13.4-1,20.1c-0.6,13.2-1,26.5-1.3,39.7
			c0,1.7-0.1,3.5,0.5,5.1c1,3,3.5,5,5.7,7.1c2.9,2.9,5.7,6,8.5,9c5.7,6.1,11.2,12.7,17.2,18.5c1.5,1.5,34.6,31.5,34.6,31.6
			c7.6-13.2,19-24.1,32.5-31.1c10.9-5.7,23.6-8.8,35.6-6.1c11.3,2.5,22.8,11.7,25.2,23.4c1.3,6.4-0.2,13.1-2.3,19.3
			c-4,11.8-10.4,23.2-20.6,30.2c-10.7,7.4-24.7,9.1-37.4,6.4c-12.9-2.7-24.6-9.6-34.7-18c-0.3-0.2-0.6-0.4-0.9-0.5
			c-1.7-0.4-2.4,1.4-2.8,2.9C1039.2,377.2,1039,378.3,1038.8,379.5z M1094.1,368.7c3.4-0.3,6.8-1,10.2-2c14-4.2,27.6-24.4,19-38.5
			c-2.7-4.3-7.2-7.5-12.2-8.5c-7-1.5-14.2,1.1-20.7,3.5c-6.5,2.4-12.6,5.8-18.2,9.7c-7.7,5.5-14.4,12.4-20.1,19.9
			c-0.4,0.5-0.8,1.2-0.7,1.8c0.1,0.5,0.5,0.8,0.8,1.1C1063.7,365.6,1079.2,370.2,1094.1,368.7z M934.9,316.8c0.6,0,1.2-0.1,1.9-0.1
			c6.9-0.9,13.6-4.3,17.4-10.4c2-3.2,3.2-6.9,3.9-10.6c0.9-4.4,2.1-11.3-1.1-15.1c-5.5-6.5-16.4-9.4-24.6-8.5
			c-4.1,0.4-8.1,1.8-11.7,3.9c-6.3,3.6-10.8,8.8-10.7,16.4c0.1,7.5,3.8,14.2,9.7,18.6C924.1,314.3,929.4,316.9,934.9,316.8z
			 M1018.1,149.4c-0.1-5.2-1.7-10.3-6-12.9c-4.9-3-11.6-1.4-15.9,2.3c-4.3,3.8-6.7,9.2-8.6,14.7c-3.1,9-4.9,18.5-5.5,28
			c-0.1,2.2-1.6,12.5,0.2,13.9c1.8,1.4,7.8-3.2,9.4-4.2c12.6-8.2,22.7-20.9,25.7-35.8C1017.9,153.5,1018.2,151.5,1018.1,149.4z"/>
		<path class="st0" d="M1017,406.9c-0.1-0.6-0.3-1.1-1.3-1.1c-0.1,0-0.3,0-0.4,0.1c-1.2,0.5-1.3,1.6-1.6,2.7
			c-0.5,1.6-1.4,3.1-2.5,4.4c-1.3,1.6-2.8,3-4.7,3.8c-1.9,0.8-4.1,0.9-5.9-0.2c-1.3-0.8-2.2-2.3-2.9-3.7c-2-4.2-3-8.8-2.9-13.4
			c0-0.3,0-0.7,0.2-1c0.2-0.2,0.5-0.4,0.8-0.4c2.8-0.9,5.7-1.8,8.6-2.6c2.4-0.7,5-2,6.9-3.7c2-1.8,3.4-4.3,4-6.9
			c1.2-5.6-1.1-11.1-4.2-15.6c-1.7-2.5-3.6-5-5.8-7.1c-1-1-2.2-1.9-3.6-2.2c-2.1-0.5-4.2,0.4-6,1.6c-3.5,2.3-6.3,5.6-8.3,9.2
			c-0.4,0.7-0.7,1.3-1,2c-1.4,3-2.4,6.2-3.2,9.4c-0.8,3.3-1.1,6.7-1.1,10.1c0,4,0.4,8.1-0.4,12.1c-0.6,3-2.4,8.2-4.9,10.2
			c-0.4,0.4-1,0.6-1.5,0.6c-1.9,0-2.3-2.5-2.1-4.3c1.1-13.7,2.8-27.4,5.1-41c0.5-3.2,1-6.9-1.9-9c-1.6-1.2-3.6-1.4-5.5-0.8
			c-3.8,1.2-6,4.6-7.7,8c-5,10.3-7,22.5-14.9,30.9c-0.2-8.9,0.7-17.9,2.6-26.6c1.1-4.8,1.8-11.4-2.9-13.3c-1.8-0.8-3.9-0.5-5.6,0.5
			c-3.2,2-4.6,5.4-6,8.7c-5.6,13.5-10.6,27.4-18.3,39.9c-1.5,2.5-3.2,4.9-5.6,6.5c-0.6,0.4-1.3,0.5-1.9,0.2
			c-1.7-0.7-0.9-3.4-0.8-4.8c1.1-9.8,2.9-19.5,5.5-29c0.9-3.5,1.8-7.8-1.2-10.2c-1.9-1.5-4.5-1.6-6.6-0.3c-4.2,2.5-5.3,7.1-6.2,11.5
			c-2.6,12.8-5.5,26.4-14.6,35.7c-0.9,0.9-1.9,1.8-3.2,2c-1.6,0.2-3.1-0.7-4.2-1.9c-3.1-3.5-3.4-8.5-3.4-13.2
			c0.1-18.8,3.2-37.6,9.2-55.5c0.3-1,0.7-2.1,1.6-2.7c0.9-0.7,2.1-0.7,3.3-0.7c8.8-0.3,17.5-3,25-7.7c3.9-2.5,7.7-5.8,8.6-10.4
			c1-5-3.4-11.1-8.7-9c-1.2,0.5-1.8,1.8-1.3,2.9c0.5,1.1,1.9,1.1,2.8,1.6c1.7,1,1.6,3.8,0.3,5.2c-1.4,1.5-3.5,2-5.4,2.3
			c-6.8,1.2-13.8,1.5-20.7,0.9c1.3-5.1,1.6-6,2.9-11.1c0.4-1.5,0.8-3.1,0.4-4.7c-0.7-3.2-4.2-4.8-7.2-6c-2.2-0.9-5-1.7-6.9-0.1
			c-0.9,0.8-1.3,1.9-1.7,3.1c-2,5.7-2.9,7.1-4.9,12.7c-0.5,1.3-0.9,2.7-1.9,3.7c-1.6,1.7-4.2,1.9-6.5,2c-10.4,0.7-21.2,1.9-30.2,7.2
			c-9,5.3-15.8,15.7-13.8,25.9c10.1-13.6,28.2-20.9,44.9-17.9c-5.4,19.8-10.7,40.5-6.8,60.7c1.9,9.3,7.3,19.9,18.1,20.2
			c1.9,0,3.8-0.3,5.6-1.1c1.9-0.9,3.7-1.6,5.4-2.7c2.9-1.8,4.9-3.4,7-4.8c0.1-0.1,0.2-0.2,0.4-0.3c2.5-1.9,6-1.5,7.9,0.9
			c1.8,2.3,3.9,3.7,6.6,4c5.1,0.6,10.2-2.3,13.8-5.7c9.6-9.1,12.4-22.9,19.8-33.5c-1.3,10.2-2.6,20.3-3.8,30.5
			c-0.4,3.6-0.4,8.2,3,9.7c1.5,0.7,3.3,0.5,4.8-0.4c2.5-1.4,3.9-4,5.2-6.4c5.2-9.9,10.4-19.8,15.6-29.7c0,7.3,0,14.5,0,21.8
			c0,4.3,0.8,9.7,4.9,10.8c3.4,0.9,6.7-2.1,8.3-5.2c0.2-0.5,0.5-0.9,0.7-1.4c0.2-0.5,0.5-1.1,0.7-1.7c1.3-2.6,2.6,0,3.5,1.3
			c1.5,2.4,3.8,4.6,6.1,6.2c2.3,1.6,5,2.5,7.8,2.3c3.3-0.2,6.3-1.4,8.8-3.5c0.2-0.2,0.5-0.4,0.7-0.6c1.1-1,2.1-2.2,3.1-3.4
			c0.9-1.2,1.7-2.5,2.5-3.8C1016.2,409.7,1017.1,408.3,1017,406.9z M994.2,393.1c-0.1-3.8,0-7.6,0.6-11.3c0.7-4.2,2.1-8.3,4.8-11.6
			c0.2-0.2,0.5-0.9,0.9-0.9c0.1,0,0.1,0,0.2,0.1c1.7,1.6,2.6,3.9,3.2,6.1c0.7,2.4,1.1,4.8,0.8,7.3c-0.3,2.7-1.6,5.2-3.2,7.4
			c-1.7,2.1-3.8,3.9-6.1,5.3c-0.2,0.1-0.4,0.2-0.6,0.2C994,395.7,994.2,393.5,994.2,393.1z"/>
		<path class="st0" d="M801.5,314.5c0.6-4.1,1.3-8.2,1.9-12.3c0.1-0.9,0.2-1.9-0.5-2.4c-0.3-0.3-0.8-0.4-1.2-0.4
			c-5.3-1-10.9-1.4-15.9,0.3c-5.7,1.9-10.4,6.6-12.6,12.3c-0.4,0.9-0.7,1.9-1.2,2.7c-0.6,0.8-1.4,1.5-2.4,1.5c-2,0-2.2-2.4-2-3.9
			c0.8-6.3,4.3-12.1,9.4-15.9s11.6-5.5,17.9-5.1c2.3,0.2,4.7,0.6,7,0.6c0.6,0,1.2-0.1,1.7-0.3c1.1-0.6,1.5-2,1.4-3.2
			c0-1.2-0.4-2.5-0.2-3.7s1-2.5,2.3-2.6c0.5,0,1,0.2,1.4,0.4c2.2,0.9,4.1,2.1,4,4.7c0,1.2-0.9,5.1,1.4,4.8c1.6-0.2,3.2-0.4,4.8-0.7
			c1.1-0.1,2.2-0.3,3-1.1c0.4-0.4,0.7-1,0.6-1.6c-0.1-1-1.1-1.7-2.1-1.8c-1.6-0.2-3.3,1.2-4.8,0.1c-0.2-0.1-0.3-0.3-0.3-0.5
			c-0.1-0.3-0.1-0.5,0-0.8c1.1-2.2,3.5-3.5,5.9-3.7c2.6-0.2,4.9,1,6.3,3.1c0.1,0.1,0.2,0.3,0.2,0.4c0.5,0.9,0.9,1.9,1.1,2.9
			c0.2,1.1,0.2,2.3,0,3.4c-0.2,1.2-0.7,2.5-1.4,3.5c-1,1.2-2.4,2-3.8,2.6c-2.9,1.1-6,1.5-9,2.1c-2,0.4-2.9,0.4-2.8,2.6
			c0,4.2-0.4,8.3-0.8,12.5c-0.3,3.1-0.1,6.9,1.8,9.5c0.4,0.6,0.9,1.1,1.5,1.3c1.6,0.6,3.5-0.5,4.3-1.9c1-1.8,0.6-3.8,0.3-5.7
			c0-0.3-0.1-0.6,0-0.8c0.1-0.3,0.3-0.6,0.6-0.8c0.6-0.4,1.3-0.4,1.9-0.3c1.5,0.5,1.9,2.4,2.2,3.8c0.3,1.6,0.4,3.3,0.1,4.9
			c-1.4,6.3-9.4,8.3-14.1,4.3c-0.6-0.5-1.1-1-1.8-1.1c-0.8-0.1-1.6,0.5-2.1,1.2c-0.5,0.7-0.7,1.5-1,2.3c-0.8,2-2.2,3.7-4.1,4.7
			c-1.6,0.9-3.5,1.2-5.2,0.5c-1.7-0.6-3-2.7-5-2.5c-2.2,0.2-4.6,2.5-6.8,3.2c-2.3,0.7-4.8,0.8-7,0c-3.8-1.5-4.6-4.9-4.9-8.6
			c-0.1-1.7-0.1-3.4,0.1-5c0.4-3.3,1.5-6.5,3.2-9.4c1.5-2.5,3.5-4.7,5.8-6.4c2.8-2.1,5.9-2.6,9.3-3c2.2-0.2,4.5,0.1,6,1.8
			c1.7,2,1.6,4.9,1.4,7.5c-0.2,2.8-0.5,5.7-0.7,8.5c-0.1,1.5-1.4,6.4,0,7.5c0.5,0.3,1.1,0.1,1.5-0.3c0.4-0.4,0.5-1,0.7-1.5
			C800.3,323.7,800.8,319,801.5,314.5z M788.2,327.5c0.1-0.1,0.1-0.2,0.2-0.3c1.4-2.5,2.1-5.3,2.5-8.2c0.3-2.2,0.6-7.2-2.8-7.2
			c-1.4,0-2.9,0.8-4,1.6c-2,1.5-3.3,3.8-4.4,6c-0.7,1.5-1.4,3-1.8,4.7c-0.4,1.6-0.5,3.3-0.2,5c0.1,0.7,0.4,1.4,0.8,1.9
			c1.5,2,4.7,1.2,6.5,0.1C786.3,330.1,787.4,328.9,788.2,327.5z"/>
		<path class="st0" d="M854.9,318.6C854.9,318.5,854.9,318.5,854.9,318.6c-2.4,2.3-4.2,4.5-7.8,5.2c-2.6,0.5-5.5-0.1-7.3-2
			c-1-1-1.6-2.3-2.1-3.7c-2.9-7.8-1.6-18.6,5.6-23.6c2.2-1.5,4.7-2.4,7.2-2.9c2.1-0.4,5.4,0.3,6.6-1.8c0.1-0.2,0.2-0.5,0.5-0.6
			c0.3-0.1,0.6-0.1,0.8,0c2.4,1,2.4,3.6,2.4,5.7c0,5.1,0.2,10.2,0.7,15.2c0.1,1.3,0,6.6,0.9,7.4c1.6,1.4,2.8-4.3,4.7-1.9
			c0.4,0.5,0.4,1.2,0.2,1.7c-0.6,2-2.3,4.4-4.2,5.2c-1.5,0.7-3.4,0.4-4.9-0.4C856.8,321.2,856.2,319.5,854.9,318.6z M844.3,316.9
			c0.2,0.7,0.4,1.4,0.7,2c2.3,5.2,6.7-6.4,7.2-8.3c0.7-3.2,1-6.5,0.9-9.8c0-1.2-0.3-5.7-2.4-4.3c-3,1.9-4.4,5.5-5.5,8.9
			c-0.6,1.7-1.1,3.4-1.3,5.1C843.5,312.6,843.7,314.8,844.3,316.9z"/>
		<path class="st0" d="M922,353.4c-1.2,3.1-2.4,6.2-3.5,9.3c-0.4,0.9-0.9,3.7-1.7,4.3c-0.8,0.6-2.6,0-3.5,0
			c-2.8-0.4-5.6-0.8-8.4-1.4c-0.4-0.1-0.9-0.8-0.9-1.2c-0.1-3.6-0.1-7.1,0-10.7c0-2,0.8-2.8,2.8-3c3-0.3,5.9,0.1,8.8,0.9
			C917.7,352.1,920.1,352.4,922,353.4z"/>
	</g>
	<g>
		<g>
			<path class="st0" d="M727.4,91.6h5.7v20.6h12.9v5.2h-18.5V91.6z"/>
			<path class="st0" d="M752.9,91.6h19.5v5.1h-13.8v5.2h12.2v5.1h-12.2v5.4h14v5.1h-19.6V91.6z"/>
			<path class="st0" d="M789.3,91.4h5.2l11.1,26h-5.9l-2.4-5.8h-10.9l-2.4,5.8h-5.8L789.3,91.4z M795.2,106.6l-3.4-8.4l-3.4,8.4
				H795.2z"/>
			<path class="st0" d="M812.3,91.6h10.1c8.1,0,13.7,5.6,13.7,12.8v0.1c0,7.3-5.6,12.9-13.7,12.9h-10.1V91.6z M818,96.7v15.6h4.4
				c4.6,0,7.8-3.1,7.8-7.7v-0.1c0-4.6-3.1-7.8-7.8-7.8H818z"/>
			<path class="st0" d="M844.2,91.6h5.7v25.8h-5.7V91.6z"/>
			<path class="st0" d="M859.1,91.6h5.2l12.1,15.9V91.6h5.6v25.8h-4.8L864.7,101v16.4h-5.6V91.6z"/>
			<path class="st0" d="M889.8,104.5L889.8,104.5c0-7.4,5.7-13.4,13.5-13.4c4.6,0,7.4,1.3,10.1,3.5l-3.6,4.3c-2-1.7-3.8-2.6-6.7-2.6
				c-4.1,0-7.4,3.6-7.4,8v0.1c0,4.7,3.2,8.2,7.8,8.2c2.1,0,3.9-0.5,5.3-1.5v-3.7h-5.7v-4.9h11.2v11.2c-2.7,2.2-6.3,4.1-11,4.1
				C895.3,117.8,889.8,112.2,889.8,104.5z"/>
			<path class="st0" d="M942.4,96.8h-7.9v-5.2H956v5.2h-7.9v20.6h-5.7V96.8z"/>
			<path class="st0" d="M963.1,91.6h5.7v10.2h10.5V91.6h5.7v25.8h-5.7V107h-10.5v10.4h-5.7V91.6z"/>
			<path class="st0" d="M993.9,91.6h19.5v5.1h-13.8v5.2h12.2v5.1h-12.2v5.4h14v5.1h-19.6V91.6z"/>
			<path class="st0" d="M1035.2,91.6h5.2l12.1,15.9V91.6h5.6v25.8h-4.8l-12.5-16.4v16.4h-5.6V91.6z"/>
			<path class="st0" d="M1075.9,91.4h5.2l11.1,26h-5.9l-2.4-5.8H1073l-2.4,5.8h-5.8L1075.9,91.4z M1081.9,106.6l-3.4-8.4l-3.4,8.4
				H1081.9z"/>
			<path class="st0" d="M1101.6,96.8h-7.9v-5.2h21.4v5.2h-7.9v20.6h-5.7V96.8z"/>
			<path class="st0" d="M1122.6,91.6h5.7v25.8h-5.7V91.6z"/>
			<path class="st0" d="M1136.3,104.5L1136.3,104.5c0-7.4,5.8-13.4,13.7-13.4c8,0,13.7,5.9,13.7,13.3v0.1c0,7.3-5.8,13.3-13.8,13.3
				C1142,117.8,1136.3,111.9,1136.3,104.5z M1157.8,104.5L1157.8,104.5c0-4.5-3.2-8.2-7.8-8.2c-4.6,0-7.7,3.6-7.7,8v0.1
				c0,4.4,3.2,8.1,7.8,8.1C1154.6,112.6,1157.8,109,1157.8,104.5z"/>
			<path class="st0" d="M1171.5,91.6h5.2l12.1,15.9V91.6h5.6v25.8h-4.8l-12.5-16.4v16.4h-5.6V91.6z"/>
		</g>
		<rect x="1214.8" y="101.8" class="st0" width="35.8" height="5.2"/>
		<rect x="670.6" y="101.7" class="st0" width="35.8" height="5.2"/>
	</g>
</g>
</svg>
