<?xml version="1.0" encoding="utf-8"?>
<!-- Generator: Adobe Illustrator 19.2.1, SVG Export Plug-In . SVG Version: 6.00 Build 0)  -->
<!DOCTYPE svg PUBLIC "-//W3C//DTD SVG 1.1//EN" "http://www.w3.org/Graphics/SVG/1.1/DTD/svg11.dtd">
<svg version="1.1" id="Layer_1" xmlns="http://www.w3.org/2000/svg" xmlns:xlink="http://www.w3.org/1999/xlink" x="0px" y="0px"
	 viewBox="0 0 1920 1020" style="enable-background:new 0 0 1920 1020;" xml:space="preserve">
<style type="text/css">
	.st0{fill:url(#SVGID_1_);}
	.st1{fill:url(#SVGID_2_);}
	.st2{fill:url(#SVGID_3_);}
	.st3{fill:url(#SVGID_4_);}
	.st4{fill:url(#SVGID_5_);}
	.st5{fill:url(#SVGID_6_);}
	.st6{fill:url(#SVGID_7_);}
	.st7{fill:url(#SVGID_8_);}
	.st8{fill:url(#SVGID_9_);}
	.st9{fill:url(#SVGID_10_);}
	.st10{fill:url(#SVGID_11_);}
	.st11{fill:url(#SVGID_12_);}
	.st12{fill:url(#SVGID_13_);}
	.st13{fill:url(#SVGID_14_);}
	.st14{fill:url(#SVGID_15_);}
	.st15{fill:url(#SVGID_16_);}
	.st16{fill:url(#SVGID_17_);}
	.st17{fill:url(#SVGID_18_);}
	.st18{fill:url(#SVGID_19_);}
	.st19{fill:url(#SVGID_20_);}
	.st20{fill:url(#SVGID_21_);}
	.st21{fill:url(#SVGID_22_);}
	.st22{fill:#FFFFFF;stroke:#FFFFFF;stroke-miterlimit:10;}
</style>
<g>
	<linearGradient id="SVGID_1_" gradientUnits="userSpaceOnUse" x1="1625.649" y1="1071.0221" x2="1625.6492" y2="81.6433">
		<stop  offset="0" style="stop-color:#2C3945"/>
		<stop  offset="0.45" style="stop-color:#445257"/>
		<stop  offset="1" style="stop-color:#5E6D6A"/>
	</linearGradient>
	<path class="st0" d="M1625.3,82.8c0.2-0.1,0.4-0.2,0.7-0.3C1625.8,82.6,1625.5,82.7,1625.3,82.8z"/>
	<linearGradient id="SVGID_2_" gradientUnits="userSpaceOnUse" x1="1627.9612" y1="1071.0221" x2="1627.9612" y2="81.6433">
		<stop  offset="0" style="stop-color:#2C3945"/>
		<stop  offset="0.45" style="stop-color:#445257"/>
		<stop  offset="1" style="stop-color:#5E6D6A"/>
	</linearGradient>
	<path class="st1" d="M1627.7,82c0.2-0.1,0.4-0.1,0.6-0.1C1628.1,81.9,1627.9,81.9,1627.7,82z"/>
	<linearGradient id="SVGID_3_" gradientUnits="userSpaceOnUse" x1="963.9827" y1="1071.0221" x2="963.9827" y2="81.6433">
		<stop  offset="0" style="stop-color:#2C3945"/>
		<stop  offset="0.45" style="stop-color:#445257"/>
		<stop  offset="1" style="stop-color:#5E6D6A"/>
	</linearGradient>
	<path class="st2" d="M963.7,433.2c0.2-0.1,0.4-0.2,0.6-0.3C964.1,433,963.9,433.1,963.7,433.2z"/>
	<linearGradient id="SVGID_4_" gradientUnits="userSpaceOnUse" x1="1626.8225" y1="1071.0221" x2="1626.8225" y2="81.6433">
		<stop  offset="0" style="stop-color:#2C3945"/>
		<stop  offset="0.45" style="stop-color:#445257"/>
		<stop  offset="1" style="stop-color:#5E6D6A"/>
	</linearGradient>
	<path class="st3" d="M1626.5,82.3c0.2-0.1,0.4-0.2,0.6-0.2C1626.9,82.2,1626.7,82.3,1626.5,82.3z"/>
	<linearGradient id="SVGID_5_" gradientUnits="userSpaceOnUse" x1="962.4764" y1="1071.0221" x2="962.4764" y2="81.6433">
		<stop  offset="0" style="stop-color:#2C3945"/>
		<stop  offset="0.45" style="stop-color:#445257"/>
		<stop  offset="1" style="stop-color:#5E6D6A"/>
	</linearGradient>
	<path class="st4" d="M962.2,434c0.2-0.1,0.4-0.2,0.6-0.3C962.6,433.8,962.4,433.9,962.2,434z"/>
	<linearGradient id="SVGID_6_" gradientUnits="userSpaceOnUse" x1="1800.8127" y1="1071.0221" x2="1800.8129" y2="81.6433">
		<stop  offset="0" style="stop-color:#2C3945"/>
		<stop  offset="0.45" style="stop-color:#445257"/>
		<stop  offset="1" style="stop-color:#5E6D6A"/>
	</linearGradient>
	<path class="st5" d="M1800.2,200c0.4-0.2,0.9-0.4,1.3-0.6C1801,199.6,1800.6,199.8,1800.2,200z"/>
	<linearGradient id="SVGID_7_" gradientUnits="userSpaceOnUse" x1="1808.1561" y1="1071.0221" x2="1808.1561" y2="81.6433">
		<stop  offset="0" style="stop-color:#2C3945"/>
		<stop  offset="0.45" style="stop-color:#445257"/>
		<stop  offset="1" style="stop-color:#5E6D6A"/>
	</linearGradient>
	<path class="st6" d="M1807.2,197.3c0.7-0.2,1.3-0.3,2-0.4C1808.5,196.9,1807.8,197.1,1807.2,197.3z"/>
	<linearGradient id="SVGID_8_" gradientUnits="userSpaceOnUse" x1="1629.0663" y1="356.6618" x2="1629.0663" y2="-193.1429">
		<stop  offset="0" style="stop-color:#2C3945"/>
		<stop  offset="0.45" style="stop-color:#445257"/>
		<stop  offset="1" style="stop-color:#5E6D6A"/>
	</linearGradient>
	<path class="st7" d="M1628.8,81.8c0.2,0,0.4-0.1,0.6-0.1C1629.2,81.7,1629,81.7,1628.8,81.8z"/>
	<linearGradient id="SVGID_9_" gradientUnits="userSpaceOnUse" x1="1554.7535" y1="1071.0221" x2="1554.7537" y2="81.6433">
		<stop  offset="0" style="stop-color:#2C3945"/>
		<stop  offset="0.45" style="stop-color:#445257"/>
		<stop  offset="1" style="stop-color:#5E6D6A"/>
	</linearGradient>
	<path class="st8" d="M1549.1,149.9c3.8-3.3,7.6-6.5,11.4-9.8C1556.7,143.4,1552.9,146.7,1549.1,149.9z"/>
	<linearGradient id="SVGID_10_" gradientUnits="userSpaceOnUse" x1="1620.3203" y1="1071.0221" x2="1620.3204" y2="81.6433">
		<stop  offset="0" style="stop-color:#2C3945"/>
		<stop  offset="0.45" style="stop-color:#445257"/>
		<stop  offset="1" style="stop-color:#5E6D6A"/>
	</linearGradient>
	<path class="st9" d="M1619.7,86.7c0.5-0.4,0.9-0.8,1.3-1.1C1620.5,85.9,1620.1,86.3,1619.7,86.7z"/>
	<linearGradient id="SVGID_11_" gradientUnits="userSpaceOnUse" x1="968.4437" y1="1071.0221" x2="968.4437" y2="81.6433">
		<stop  offset="0" style="stop-color:#2C3945"/>
		<stop  offset="0.45" style="stop-color:#445257"/>
		<stop  offset="1" style="stop-color:#5E6D6A"/>
	</linearGradient>
	<path class="st10" d="M968.2,431.1c0.2-0.1,0.4-0.1,0.6-0.2C968.5,431,968.4,431.1,968.2,431.1z"/>
	<linearGradient id="SVGID_12_" gradientUnits="userSpaceOnUse" x1="966.9531" y1="1071.0221" x2="966.9531" y2="81.6433">
		<stop  offset="0" style="stop-color:#2C3945"/>
		<stop  offset="0.45" style="stop-color:#445257"/>
		<stop  offset="1" style="stop-color:#5E6D6A"/>
	</linearGradient>
	<path class="st11" d="M966.7,431.7c0.2-0.1,0.4-0.2,0.6-0.3C967.1,431.6,966.9,431.7,966.7,431.7z"/>
	<linearGradient id="SVGID_13_" gradientUnits="userSpaceOnUse" x1="1621.8583" y1="1071.0221" x2="1621.8584" y2="81.6433">
		<stop  offset="0" style="stop-color:#2C3945"/>
		<stop  offset="0.45" style="stop-color:#445257"/>
		<stop  offset="1" style="stop-color:#5E6D6A"/>
	</linearGradient>
	<path class="st12" d="M1621.4,85.2c0.3-0.2,0.6-0.4,0.9-0.6C1622,84.8,1621.7,85,1621.4,85.2z"/>
	<linearGradient id="SVGID_14_" gradientUnits="userSpaceOnUse" x1="965.4714" y1="1071.0221" x2="965.4714" y2="81.6433">
		<stop  offset="0" style="stop-color:#2C3945"/>
		<stop  offset="0.45" style="stop-color:#445257"/>
		<stop  offset="1" style="stop-color:#5E6D6A"/>
	</linearGradient>
	<path class="st13" d="M965.2,432.4c0.2-0.1,0.4-0.2,0.6-0.3C965.6,432.2,965.4,432.3,965.2,432.4z"/>
	<linearGradient id="SVGID_15_" gradientUnits="userSpaceOnUse" x1="1623.1799" y1="1071.0221" x2="1623.1799" y2="81.6433">
		<stop  offset="0" style="stop-color:#2C3945"/>
		<stop  offset="0.45" style="stop-color:#445257"/>
		<stop  offset="1" style="stop-color:#5E6D6A"/>
	</linearGradient>
	<path class="st14" d="M1622.8,84.3c0.3-0.2,0.5-0.3,0.8-0.5C1623.3,83.9,1623.1,84.1,1622.8,84.3z"/>
	<linearGradient id="SVGID_16_" gradientUnits="userSpaceOnUse" x1="1624.4363" y1="1071.0221" x2="1624.4363" y2="81.6433">
		<stop  offset="0" style="stop-color:#2C3945"/>
		<stop  offset="0.45" style="stop-color:#445257"/>
		<stop  offset="1" style="stop-color:#5E6D6A"/>
	</linearGradient>
	<path class="st15" d="M1624.1,83.5c0.2-0.1,0.5-0.3,0.7-0.4C1624.6,83.2,1624.3,83.3,1624.1,83.5z"/>
	<linearGradient id="SVGID_17_" gradientUnits="userSpaceOnUse" x1="79.0749" y1="1071.0221" x2="79.0749" y2="81.6433">
		<stop  offset="0" style="stop-color:#2C3945"/>
		<stop  offset="0.45" style="stop-color:#445257"/>
		<stop  offset="1" style="stop-color:#5E6D6A"/>
	</linearGradient>
	<path class="st16" d="M158.1,256.6C105.4,287.2,52.7,317.7,0,348.3l0,0C52.7,317.7,105.4,287.2,158.1,256.6z"/>
	<linearGradient id="SVGID_18_" gradientUnits="userSpaceOnUse" x1="647.756" y1="1071.0221" x2="647.756" y2="81.6433">
		<stop  offset="0" style="stop-color:#2C3945"/>
		<stop  offset="0.45" style="stop-color:#445257"/>
		<stop  offset="1" style="stop-color:#5E6D6A"/>
	</linearGradient>
	<path class="st17" d="M621.1,432.3c17.8-7.1,35.5-14.1,53.3-21.2C656.6,418.1,638.8,425.1,621.1,432.3z"/>
	<linearGradient id="SVGID_19_" gradientUnits="userSpaceOnUse" x1="959.3369" y1="1071.0221" x2="959.3369" y2="81.6433">
		<stop  offset="0" style="stop-color:#2C3945"/>
		<stop  offset="0.45" style="stop-color:#445257"/>
		<stop  offset="1" style="stop-color:#5E6D6A"/>
	</linearGradient>
	<path class="st18" d="M959.1,435.8c0.2-0.1,0.3-0.2,0.5-0.3C959.4,435.6,959.3,435.7,959.1,435.8z"/>
	<linearGradient id="SVGID_20_" gradientUnits="userSpaceOnUse" x1="960.5898" y1="1071.0221" x2="960.5898" y2="81.6433">
		<stop  offset="0" style="stop-color:#2C3945"/>
		<stop  offset="0.45" style="stop-color:#445257"/>
		<stop  offset="1" style="stop-color:#5E6D6A"/>
	</linearGradient>
	<path class="st19" d="M1876.5,259.5c-15.5-17.7-28.2-37.9-45.8-53.4c-4.6-4.1-9.7-7.9-15.7-9.2c-1.1-0.2-2.2-0.3-3.4-0.3
		c1.2,0,2.3,0.1,3.4,0.3l8,66.9l-49-8.7l-16,36l-33,5.5l-158,112.6l50.5-84.8l67.7-62.4l51.2-26.6c-1.6,0.1-3.1-0.2-4.4-0.7
		c-6.5-2.9-10.6-9.3-14.4-15.3c-23.9-38.9-47.9-77.8-69.2-118.2c-5.4-10.3-10.8-19.9-18.9-19.4l1.3,3.5l-1,14.8l-60,121.2l-51,149.4
		l-57-18.7l-112,99l-23-11l-182,71.3l56.5-51.7c-7.7,0.9-16.5-4.9-23.7-7.9c-12.5-5.3-24.5-13.8-38.2-13.3l-14.8,44.3l-34.3,1.3
		l-44.8,43l-16.2-9.7l-61.1,23.3l56.8-44c13.4-10.7,65-40.7,65-40.7c-21.6-5.3-43.2-10.6-64.8-15.9c-13.6-3.3-27.6-8.1-41.4-10.3
		c-5.7-0.9-10.4-0.5-14.9,1.1l-9.9,26.4l9.9,16.7l-34.7,19.1l-26.7,10l-27.4,30l-46.6,7.6l-3.7,1.5l-34,3.7L749,570.5l57.3-49.9
		C827.7,498,937.8,452,937.8,452c-22-10.4-43.9-20.7-65.9-31.1c-18-8.5-36-17-54-25.5c-9.5-4.5-34-21.6-43.1-20.6L735,412l-5.2,26.4
		l-60,66.6l-64.8-6l-71,41.7L501.1,522L426,535.2l35-21.2c24-13,148.5-77.1,148.5-77.1c2.6-1,5.1-2,7.7-3.1c-6.4,2.5-9,2.6-16.1-2.1
		c-6-4-11.3-8.9-16.7-13.6c-16.2-14.3-32.3-28.5-48.5-42.8c-8.5-7.5-30.6-30.3-42.6-28.4l-13.3,28l-4.3,29.1l-31.4,12.3L423.1,446
		l-26-7.6l-34.3,7.6l55.5-43.6c-17.3-15.8-34.7-31.7-52-47.5c-32.9-30.1-65.9-60.2-98.8-90.4c-12.1-11-24.2-22-36.2-33.1
		c-6.3-5.8-10.5-7.2-16.1-5.9l-28.9,71l-14.8-8.1l-33,37.1l-39.9,40l-35.3-18.1L0,360.7v158.5V1022h1921.2V303.4
		C1906,289,1890.2,275.2,1876.5,259.5z"/>
	<linearGradient id="SVGID_21_" gradientUnits="userSpaceOnUse" x1="1588.0724" y1="1071.0221" x2="1588.0725" y2="81.6433">
		<stop  offset="0" style="stop-color:#2C3945"/>
		<stop  offset="0.45" style="stop-color:#445257"/>
		<stop  offset="1" style="stop-color:#5E6D6A"/>
	</linearGradient>
	<path class="st20" d="M1610,95.5c-9.1,8.3-18.2,16.7-27.3,25c-5.4,5-11,9.9-16.6,14.8c5.6-4.9,11.2-9.8,16.6-14.8
		C1591.8,112.2,1600.9,103.8,1610,95.5z"/>
	<linearGradient id="SVGID_22_" gradientUnits="userSpaceOnUse" x1="960.9374" y1="1071.0221" x2="960.9374" y2="81.6433">
		<stop  offset="0" style="stop-color:#2C3945"/>
		<stop  offset="0.45" style="stop-color:#445257"/>
		<stop  offset="1" style="stop-color:#5E6D6A"/>
	</linearGradient>
	<path class="st21" d="M960.6,434.9c0.2-0.1,0.4-0.2,0.6-0.3C961,434.6,960.8,434.8,960.6,434.9z"/>
	<path class="st22" d="M0,360.7l63.2-13.2l35.3,18.1l39.9-40l33-37.1l14.8,8.1l28.9-71c-3,0.7-6.5,2.2-10.9,4.3
		c-16.2,7.5-30.8,17.9-46.2,26.9C105.4,287.2,52.7,317.7,0,348.3V360.7z"/>
	<path class="st22" d="M397.1,438.4l26,7.6l21.2-29.7l31.4-12.3l4.3-29.1l13.3-28c-8.5,1.3-19.2,11.6-25.9,16.6
		c-16.8,12.4-32.3,26.6-49.2,39L362.9,446L397.1,438.4z"/>
	<path class="st22" d="M1809.1,196.8c0.9-0.1,1.7-0.2,2.5-0.3C1810.8,196.6,1810,196.7,1809.1,196.8z"/>
	<path class="st22" d="M1800.2,200c-8.1,4-16.2,10.6-22.3,13.8l-41.5,21.5c12.3-0.4,32.4-16.7,41.5-21.5
		C1784,210.6,1792.1,204.1,1800.2,200z"/>
	<path class="st22" d="M1801.5,199.4c1.9-0.9,3.8-1.6,5.7-2.1C1805.3,197.8,1803.4,198.5,1801.5,199.4z"/>
	<path class="st22" d="M1617.6,324.3l-50.5,84.8l158-112.6l33-5.5l16-36l49,8.7l-8-66.9c-1.1-0.2-2.2-0.3-3.4-0.3
		c-0.8,0-1.7,0.1-2.5,0.3c-0.6,0.1-1.3,0.3-2,0.4c-1.9,0.5-3.8,1.2-5.7,2.1c-0.4,0.2-0.9,0.4-1.3,0.6c-8.1,4-16.2,10.6-22.3,13.8
		c-9.1,4.8-29.2,21.2-41.5,21.5l-51.2,26.6L1617.6,324.3z"/>
	<path class="st22" d="M621.1,432.3c-1.3,0.5-2.6,1-3.9,1.6C618.3,433.4,619.6,432.8,621.1,432.3
		C621.1,432.3,621.1,432.3,621.1,432.3z"/>
	<path class="st22" d="M461,514l-35,21.2l75.1-13.2l32.9,18.7l71-41.7l64.8,6l60-66.6L735,412l39.8-37.1
		c-33.9,4-68.7,23.5-100.4,36.2c-17.8,7.1-35.5,14.1-53.3,21.2c0,0,0,0,0,0c-1.5,0.6-2.8,1.1-3.9,1.6c-2.6,1-5.1,2-7.7,3.1
		C609.5,436.9,485,501,461,514z"/>
	<path class="st22" d="M965.8,432.1c0.3-0.1,0.6-0.3,0.9-0.4C966.4,431.9,966.1,432,965.8,432.1z"/>
	<path class="st22" d="M968.9,430.9c0,0-0.1,0-0.1,0.1C968.8,430.9,968.8,430.9,968.9,430.9L968.9,430.9z"/>
	<path class="st22" d="M957.5,436.9c0.5-0.4,1.1-0.7,1.6-1C958.6,436.2,958,436.5,957.5,436.9z"/>
	<path class="st22" d="M967.3,431.5c0.3-0.1,0.6-0.2,0.9-0.3C967.9,431.3,967.6,431.4,967.3,431.5z"/>
	<path class="st22" d="M964.3,432.8c0.3-0.1,0.6-0.3,0.9-0.4C964.9,432.6,964.6,432.7,964.3,432.8z"/>
	<path class="st22" d="M962.8,433.6c0.3-0.2,0.6-0.3,0.9-0.5C963.4,433.3,963.1,433.5,962.8,433.6z"/>
	<path class="st22" d="M961.2,434.5c0.3-0.2,0.6-0.4,0.9-0.5C961.9,434.2,961.5,434.3,961.2,434.5z"/>
	<path class="st22" d="M959.6,435.5c0.4-0.2,0.7-0.4,1.1-0.7C960.3,435.1,959.9,435.3,959.6,435.5z"/>
	<path class="st22" d="M806.3,520.7L749,570.5l46.6-24.7l34-3.7l3.7-1.5l46.6-7.6l27.4-30l26.7-10l34.7-19.1l-9.9-16.7l9.9-26.4
		c0,0-0.1,0-0.1,0c-0.2,0.1-0.4,0.1-0.6,0.2c-0.3,0.1-0.6,0.2-0.9,0.3c-0.2,0.1-0.4,0.2-0.6,0.3c-0.3,0.1-0.6,0.3-0.9,0.4
		c-0.2,0.1-0.4,0.2-0.6,0.3c-0.3,0.1-0.6,0.3-0.9,0.4c-0.2,0.1-0.4,0.2-0.6,0.3c-0.3,0.2-0.6,0.3-0.9,0.5c-0.2,0.1-0.4,0.2-0.6,0.3
		c-0.3,0.2-0.6,0.4-0.9,0.5c-0.2,0.1-0.4,0.2-0.6,0.3c-0.4,0.2-0.7,0.4-1.1,0.7c-0.2,0.1-0.3,0.2-0.5,0.3c-0.5,0.3-1.1,0.7-1.6,1
		c-2.6,1.7-18,15.9-19.7,15.1C937.8,452,827.7,498,806.3,520.7z"/>
	<path class="st22" d="M1092.7,455c1.8-0.7,3.6-1.4,5.4-2.2C1096.3,453.6,1094.5,454.3,1092.7,455z"/>
	<path class="st22" d="M1106.2,449.3c3.6-1.6,7.3-3.2,10.9-4.7C1113.5,446.1,1109.9,447.7,1106.2,449.3z"/>
	<path class="st22" d="M1139.5,438.4L1139.5,438.4c-2,0.1-3.9,0.3-6,0.8c-4.5,1.1-9.1,2.6-13.7,4.3c4.6-1.8,9.1-3.3,13.7-4.3
		C1135.6,438.7,1137.6,438.5,1139.5,438.4z"/>
	<path class="st22" d="M968.3,540.7l61.1-23.3l16.2,9.7l44.8-43l34.3-1.3l14.8-44.3c-2,0.1-3.9,0.3-6,0.8c-4.5,1.1-9.1,2.6-13.7,4.3
		c-0.9,0.4-1.8,0.7-2.7,1.1c-3.6,1.5-7.3,3.1-10.9,4.7c-2.7,1.2-5.4,2.4-8.1,3.5c-1.8,0.8-3.6,1.5-5.4,2.2c-0.9,0.3-1.8,0.7-2.7,1
		c0,0-51.5,30-65,40.7L968.3,540.7z"/>
	<path class="st22" d="M1431.6,260c-7.5,6.1-15,12.2-22.4,18.2c-4,3.2-8,6.5-11.9,9.8c4-3.3,7.9-6.5,11.9-9.8
		C1416.7,272.2,1424.1,266.2,1431.6,260z"/>
	<path class="st22" d="M1510.2,185.2c7-7,14.3-13.7,21.8-20.4C1524.6,171.4,1517.2,178.2,1510.2,185.2z"/>
	<path class="st22" d="M1627.1,82.1c0.2-0.1,0.3-0.1,0.5-0.1C1627.5,82,1627.3,82.1,1627.1,82.1z"/>
	<path class="st22" d="M1629.7,81.7c-0.1,0-0.2,0-0.3,0C1629.5,81.7,1629.6,81.7,1629.7,81.7L1629.7,81.7z"/>
	<path class="st22" d="M1626,82.5c0.2-0.1,0.3-0.1,0.5-0.2C1626.3,82.4,1626.2,82.5,1626,82.5z"/>
	<path class="st22" d="M1619.7,86.7C1619.7,86.7,1619.6,86.7,1619.7,86.7c-1.6,1.5-3.2,2.9-4.8,4.4
		C1616.4,89.6,1618,88.2,1619.7,86.7C1619.6,86.7,1619.7,86.7,1619.7,86.7z"/>
	<path class="st22" d="M1225.6,442.6l-24.1,17C1210.6,458.5,1219.5,448.6,1225.6,442.6z"/>
	<path class="st22" d="M1628.3,81.8c0.2,0,0.3-0.1,0.5-0.1C1628.6,81.8,1628.4,81.8,1628.3,81.8z"/>
	<path class="st22" d="M1532.1,164.8c3.7-3.3,7.5-6.6,11.3-9.9C1539.6,158.1,1535.8,161.4,1532.1,164.8z"/>
	<path class="st22" d="M1621,85.6c0.1-0.1,0.3-0.2,0.4-0.3C1621.3,85.4,1621.1,85.5,1621,85.6z"/>
	<path class="st22" d="M1624.8,83.1c0.2-0.1,0.4-0.2,0.5-0.3C1625.1,82.9,1625,83,1624.8,83.1z"/>
	<path class="st22" d="M1622.3,84.6c0.2-0.1,0.3-0.2,0.5-0.3C1622.6,84.4,1622.5,84.5,1622.3,84.6z"/>
	<path class="st22" d="M1623.6,83.8c0.2-0.1,0.4-0.2,0.5-0.3C1623.9,83.6,1623.7,83.7,1623.6,83.8z"/>
	<path class="st22" d="M1327,440l23,11l112-99l57,18.7l51-149.4l60-121.2l1-14.8l-1.3-3.5c-0.1,0-0.2,0-0.3,0c-0.2,0-0.4,0-0.6,0.1
		c-0.2,0-0.3,0.1-0.5,0.1c-0.2,0-0.4,0.1-0.6,0.1c-0.2,0-0.3,0.1-0.5,0.1c-0.2,0.1-0.4,0.1-0.6,0.2c-0.2,0.1-0.3,0.1-0.5,0.2
		c-0.2,0.1-0.4,0.2-0.7,0.3c-0.2,0.1-0.3,0.2-0.5,0.3c-0.2,0.1-0.5,0.3-0.7,0.4c-0.2,0.1-0.3,0.2-0.5,0.3c-0.2,0.2-0.5,0.3-0.8,0.5
		c-0.2,0.1-0.3,0.2-0.5,0.3c-0.3,0.2-0.6,0.4-0.9,0.6c-0.1,0.1-0.3,0.2-0.4,0.3c-0.4,0.3-0.9,0.7-1.3,1.1c0,0,0,0,0,0
		c-1.6,1.4-3.2,2.9-4.8,4.4c-1.6,1.5-3.2,2.9-4.8,4.4c-9.1,8.3-18.2,16.7-27.3,25c-5.4,5-11,9.9-16.6,14.8c-1.9,1.6-3.8,3.3-5.7,4.9
		c-3.8,3.3-7.6,6.5-11.4,9.8c-1.9,1.6-3.8,3.3-5.7,4.9c-3.8,3.3-7.6,6.6-11.3,9.9c-7.5,6.7-14.8,13.4-21.8,20.4
		c-5.3,5.2-10.3,10.5-15.1,16c-19.1,21.7-41.1,40.6-63.5,58.9c-7.5,6.1-15,12.2-22.4,18.2c-4,3.2-8,6.5-11.9,9.8
		c-59.4,49-116.7,100.6-171.7,154.6c-6.1,6-15,15.9-24.1,17l-56.5,51.7L1327,440z"/>
</g>
</svg>
