<?xml version="1.0" encoding="utf-8"?>
<!-- Generator: Adobe Illustrator 19.2.1, SVG Export Plug-In . SVG Version: 6.00 Build 0)  -->
<!DOCTYPE svg PUBLIC "-//W3C//DTD SVG 1.1//EN" "http://www.w3.org/Graphics/SVG/1.1/DTD/svg11.dtd">
<svg version="1.1" id="Layer_1" xmlns="http://www.w3.org/2000/svg" xmlns:xlink="http://www.w3.org/1999/xlink" x="0px" y="0px"
	 viewBox="0 0 1920 1020" style="enable-background:new 0 0 1920 1020;" xml:space="preserve">
<style type="text/css">
	.st0{fill:none;}
	.st1{fill:#E58352;}
</style>
<g>
	<path class="st0" d="M1750.8,498.3c-0.2-0.3-0.3-0.8-0.9-0.8c-0.7,0-0.5,0.7-0.8,1c-0.4,0.4-1.1,0.4-1.6,0.3
		c-0.4-0.1-0.3-0.5-0.3-0.9c-0.7,0-1.3,0.2-2,0.3c0,0.1,0,0.1,0,0.2c0.1,0.3,0.1,0.6,0.2,0.8c-0.1,0.1-0.2,0.2-0.3,0.3
		c1.5,0,3-0.3,4.3-1.1C1750,498.2,1750.5,497.8,1750.8,498.3z"/>
	<path class="st0" d="M1734.9,502.7c-0.1,0.1-0.1,0.1-0.2,0.2c-0.2,0.2-0.5,0.3-0.8,0.4c0.4,0.1,0.8,0.3,1.1,0.6
		c0-0.1,0.1-0.2,0.4-0.2C1735.4,503.3,1735.2,502.9,1734.9,502.7z"/>
	<path class="st0" d="M1746.5,490.8c0.1,0.5,0.6,0.4,1,0.2c0.3-0.2,0.7-0.6,1,0c0.3,0.5-0.1,0.9-0.5,1.1c-0.3,0.2-0.8,0.3-1,0.8
		c0.7,0,1.3,0,2,0c0.5,0,1.2,0.1,1.2-0.6c0-0.5,0.6-1.2,0-1.6c-0.6-0.3-1.4-0.6-2.1-0.2c-0.1,0.1-0.2,0.2-0.3,0.2
		c-0.3,0.2-0.7,0.4-1.1,0.2c-0.3-0.2-0.1-0.6,0-0.9c0.1-0.4,0.1-0.6-0.4-0.5c-0.5,0.1-0.6,0-0.5-0.5c0,0,0,0-0.1,0
		c-0.7,0.2-1.5,0.2-2.1,1C1745,489.8,1746.1,489.2,1746.5,490.8z"/>
	<path class="st0" d="M1724.9,500.2c0,0-0.1,0.1-0.1,0.1c-0.6,0.5-0.3,0.8,0.2,1.1c0,0,0,0,0,0c0.3-0.2,0.7-0.4,0.6-0.8
		C1725.5,500.3,1725.2,500.2,1724.9,500.2z"/>
	<path class="st0" d="M1730.5,500.9c0.7-0.2,1.4-0.5,1.9-0.3c0-0.2-0.1-0.4-0.2-0.6C1731.7,500.1,1731.1,500.2,1730.5,500.9z"/>
	<path class="st0" d="M1726.7,506.3c0.2,0,0.4,0,0.6-0.1c-0.1-0.1-0.1-0.1-0.2-0.2C1727,506.1,1726.9,506.2,1726.7,506.3z"/>
	<path class="st0" d="M1764.4,491c-0.3-0.2-0.5-0.4-0.7-0.7c-0.6-0.1-1.3-0.1-1.6-0.7c-0.2-0.3-0.4-0.4-0.5,0.1
		c0,0.5-0.2,0.6-0.7,0.6c-0.5,0-0.6,0.6-0.5,1.1c0.1,0.6,0.6,0.4,0.9,0.4c0.4-0.1,0.7-0.6,1-0.3c0.1,0.1,0.3,0.2,0.5,0.3
		c0-0.2-0.1-0.5,0.1-0.6c0.3-0.2,0.4,0.1,0.5,0.3c0.6,1,1.5,1.2,2.6,1.1C1765.8,491.6,1765,491.4,1764.4,491z"/>
	<path class="st0" d="M1781.6,482.6c-0.2,0.2-0.5,0.4-0.3,0.7c0.3,0.4,0.5,0,0.8-0.1c-0.1-0.3-0.1-0.6-0.2-0.9
		C1781.8,482.4,1781.7,482.5,1781.6,482.6z"/>
	<path class="st0" d="M1751.2,498.6c-0.1,0-0.1-0.1-0.2-0.1c0,0-0.1-0.1-0.1-0.1c0.3,0.5-0.2,0.8-0.6,1c-0.1,0.1-0.1,0.1-0.2,0.2
		c0.5-0.2,1-0.4,1.5-0.5C1751.5,498.9,1751.4,498.7,1751.2,498.6z"/>
	<path class="st0" d="M1775,488.1c0,0-0.1,0.1-0.1,0.1c0.2-0.1,0.3-0.2,0.5-0.3c0,0,0,0,0-0.1C1775.3,487.9,1775.2,488,1775,488.1z"
		/>
	<path class="st0" d="M1775,487.3c-0.1-0.1-0.1-0.2-0.2-0.2C1774.8,487.1,1774.8,487.2,1775,487.3C1775,487.2,1775,487.3,1775,487.3
		z"/>
	<path class="st0" d="M1784.6,480.2c-0.7-0.1-1.2-0.7-1.7-1c-0.1-0.1-0.2-0.2-0.3-0.3c0,0,0,0,0,0c-0.7,0.3-0.9,1.1-1.6,1.4
		c0.6-0.3,1.2-0.1,1.8-0.4c0.3-0.2,0.7,0.1,0.9,0.4c0.1,0.1,0.1,0.3,0,0.4c0.1,0,0.1,0.1,0.1,0.1c0.2,0.2,0.4,0.4,0.8,0.3
		c0.2-0.1,0.4-0.2,0.4-0.4C1785,480.3,1784.8,480.2,1784.6,480.2z"/>
	<path class="st0" d="M1701,512.4c0.3,0.5,0.8,0.2,1.2,0c0.1-0.1,0.3-0.1,0.4-0.2c-0.4-0.2-0.8-0.5-1.1-0.7
		C1701.1,511.7,1700.7,511.9,1701,512.4z"/>
	<path class="st0" d="M1464,624.6c-0.1-0.2-0.3-0.3-0.5-0.5c-0.1,0.4-0.5,1-0.4,1.5c0.5,0.9,1.4-1,1.8,0.3c0.3,1.1,0.8,0.7,1.4,0.5
		C1465.4,625.9,1464.5,625.5,1464,624.6z"/>
	<path class="st0" d="M1235.3,694.7c0,0,0.1,0,0.1,0c0-0.1,0-0.1,0-0.2C1235.4,694.6,1235.4,694.7,1235.3,694.7z"/>
	<path class="st0" d="M1275.3,677.8C1275.3,677.8,1275.3,677.8,1275.3,677.8c0-0.1,0-0.1,0-0.2
		C1275.3,677.7,1275.3,677.8,1275.3,677.8z"/>
	<path class="st0" d="M1175.4,714.4c-0.1,0.2-0.2,0.4-0.3,0.6c0.1,0,0.2-0.1,0.4-0.1c0-0.1,0-0.1,0-0.2
		C1175.4,714.6,1175.4,714.5,1175.4,714.4z"/>
	<path class="st0" d="M1101.9,734.2c0,0.1,0,0.3,0,0.4c0.3,0,0.6-0.1,0.9-0.2c-0.3-0.3-0.6-0.6-0.9-0.9
		C1101.9,733.7,1101.9,733.9,1101.9,734.2z"/>
	<path class="st0" d="M1298.2,680.7c-0.7,0.2-1.1,0.8-1.6,1.2c0.9-0.1,1.9-0.3,2.8-0.4c-0.4-0.3-0.7-0.5-1-0.9
		C1298.3,680.6,1298.2,680.6,1298.2,680.7z"/>
	<path class="st0" d="M1270.8,681.5c0,0.5,0.3,0.4,0.6,0.4c0,0,0,0,0,0c-0.2-0.2-0.4-0.4-0.6-0.7
		C1270.8,681.3,1270.8,681.4,1270.8,681.5z"/>
	<path class="st0" d="M1460.4,625.1C1460.4,625.1,1460.4,625.1,1460.4,625.1c0-0.1,0-0.2,0-0.3
		C1460.4,624.9,1460.4,625,1460.4,625.1z"/>
	<path class="st0" d="M1313.8,679.4c0.1,0,0.1,0,0.2,0c-0.1-0.1-0.2-0.1-0.3-0.2C1313.7,679.2,1313.8,679.3,1313.8,679.4z"/>
	<path class="st0" d="M1407.3,653.2c0.1,0.1,0.2,0.2,0.3,0.2c0,0,0.1,0,0.1,0c0-0.2-0.1-0.4-0.1-0.7
		C1407.5,652.9,1407.4,653,1407.3,653.2z"/>
	<path class="st0" d="M1396.9,665.2c0.2,0,0.5,0,0.7,0.1c0-0.1,0-0.3,0-0.4C1397.3,664.9,1397,665,1396.9,665.2z"/>
	<path class="st0" d="M1386.1,668.9c-0.3-0.2-1-0.2-1.3-0.4c-0.3,0.8-0.8,1.6-1.2,2.5c0.1,0,0.1,0,0.2-0.1c0.9-0.2,1.7-0.2,2.6-0.3
		c1-0.1,1.8-0.4,3-1.2C1388,669.8,1387,669.4,1386.1,668.9z"/>
	<path class="st0" d="M1819.3,442.9c-0.1-0.6-0.1-1.3-0.6-1.8c0,0,0,0,0,0c-0.1,0.2-0.2,0.4-0.4,0.5c-0.7,0.3-0.9,1.1-1.6,1.4
		c0.6-0.3,1.2-0.1,1.8-0.4C1818.7,442.5,1819.1,442.7,1819.3,442.9C1819.3,443,1819.3,443,1819.3,442.9z"/>
	<path class="st0" d="M1819.2,443.7c0,0.1,0,0.1-0.1,0.2c0.1,0,0.1,0,0.2,0.1c0.1-0.2,0.3-0.3,0.4-0.5c-0.1-0.1-0.2-0.1-0.2-0.2
		C1819.4,443.4,1819.2,443.6,1819.2,443.7z"/>
	<path class="st0" d="M1817.4,445.4c-0.2,0.2-0.5,0.4-0.3,0.7c0.2,0.2,0.3,0.2,0.5,0.1c0.3-0.4,0.6-0.8,0.9-1.2
		c-0.1-0.1-0.1-0.1-0.2-0.2C1817.9,444.9,1817.6,445.1,1817.4,445.4z"/>
	<path class="st0" d="M1790.5,471.5c-0.1-0.1-0.2-0.3-0.3-0.4c0,0,0-0.1,0-0.1c-0.1,0.1-0.1,0.1-0.2,0.2c-0.2,0.2-0.5,0.3-0.5,0.7
		c0.3,0.1,0.6-0.1,0.8-0.3C1790.4,471.5,1790.4,471.5,1790.5,471.5z"/>
	<path class="st0" d="M1828.4,429C1828.4,429,1828.4,429,1828.4,429c-0.4,0.6-1.2,0.8-1.5,1.5c0.7,0.1,1.3-0.7,2-0.3
		c0.4,0.2,1,0,1,0.6c0,0.2,0,0.5-0.1,0.7c0.4-0.1,0.8-0.3,1.1-0.5C1830,430.3,1829,430,1828.4,429z"/>
	<path class="st0" d="M1827.5,433.2c0.2-0.1,0.3-0.1,0.5-0.2c0-0.1,0-0.2-0.1-0.3C1827.8,432.9,1827.7,433,1827.5,433.2z"/>
	<path class="st0" d="M1790.7,477.2c0.2-0.1,0.3-0.3,0.5-0.4c-0.2-0.7,0.3-0.5,0.7-0.6c0.1-0.1,0.2-0.1,0.2-0.2
		c-0.3-0.1-0.5-0.2-0.8-0.3C1791,476.2,1790.8,476.7,1790.7,477.2z"/>
	<path class="st0" d="M1801.3,462c0-0.1-0.1-0.1-0.2-0.2c-0.1,0.1-0.3,0.3-0.5,0.4c-0.5,0.2-1.1,0.2-1.6,0.9
		c0.9-0.3,1.7-0.8,2.1,0.4c0.1,0.4,0.5,0.3,0.8,0.1c0.3-0.1,0.6-0.5,0.8-0.1c0.2,0.4,0,0.7-0.4,0.9c-0.1,0.1-0.2,0.1-0.3,0.2
		c0.5,0,1-0.2,1.6-0.6c0,0,0,0,0,0C1802.9,463.4,1801.8,463,1801.3,462z"/>
	<path class="st0" d="M1790.6,472c-0.2,0.3-0.2,0.6-0.4,1c0.2-0.1,0.4-0.2,0.6-0.3C1790.7,472.4,1790.7,472.2,1790.6,472z"/>
	<path class="st0" d="M1791.7,473.5c-0.1,0-0.2,0-0.4,0c0.2,0.1,0.1,0.2-0.2,0.4c0,0,0,0,0,0c0.8,0.1,1.7,0,2.2,1.1c0,0,0,0,0,0
		C1793.2,473.8,1792.9,473.1,1791.7,473.5z"/>
	<path class="st1" d="M1920.2,378.3c0.1,0.1,0.1,0.3,0.2,0.4v-0.3C1920.4,378.4,1920.3,378.3,1920.2,378.3z"/>
	<path class="st1" d="M1920.7,388.6c0,0,0.3-0.1,0.4-0.3c0.2-0.3,0.1-0.6-0.2-0.8c-0.1-0.1-0.3-0.2-0.5-0.2v1
		C1920.5,388.4,1920.6,388.4,1920.7,388.6z"/>
	<g>
		<path class="st0" d="M1701,512.4c0.3,0.5,0.8,0.2,1.2,0c0.1-0.1,0.3-0.1,0.4-0.2c-0.4-0.2-0.8-0.5-1.1-0.7
			C1701.1,511.7,1700.7,511.9,1701,512.4z"/>
		<path class="st0" d="M1724.9,500.2c0,0-0.1,0.1-0.1,0.1c-0.6,0.5-0.3,0.8,0.2,1.1c0,0,0,0,0,0c0.3-0.2,0.7-0.4,0.6-0.8
			C1725.5,500.3,1725.2,500.2,1724.9,500.2z"/>
		<path class="st0" d="M1464,624.6c-0.1-0.2-0.3-0.3-0.5-0.5c-0.1,0.4-0.5,1-0.4,1.5c0.5,0.9,1.4-1,1.8,0.3c0.3,1.1,0.8,0.7,1.4,0.5
			C1465.4,625.9,1464.5,625.5,1464,624.6z"/>
		<path class="st0" d="M1460.4,625.1C1460.4,625.1,1460.4,625.1,1460.4,625.1c0-0.1,0-0.2,0-0.3
			C1460.4,624.9,1460.4,625,1460.4,625.1z"/>
		<path class="st0" d="M1746.5,490.8c0.1,0.5,0.6,0.4,1,0.2c0.3-0.2,0.7-0.6,1,0c0.3,0.5-0.1,0.9-0.5,1.1c-0.3,0.2-0.8,0.3-1,0.8
			c0.7,0,1.3,0,2,0c0.5,0,1.2,0.1,1.2-0.6c0-0.5,0.6-1.2,0-1.6c-0.6-0.3-1.4-0.6-2.1-0.2c-0.1,0.1-0.2,0.2-0.3,0.2
			c-0.3,0.2-0.7,0.4-1.1,0.2c-0.3-0.2-0.1-0.6,0-0.9c0.1-0.4,0.1-0.6-0.4-0.5c-0.5,0.1-0.6,0-0.5-0.5c0,0,0,0-0.1,0
			c-0.7,0.2-1.5,0.2-2.1,1C1745,489.8,1746.1,489.2,1746.5,490.8z"/>
		<path class="st0" d="M1726.7,506.3c0.2,0,0.4,0,0.6-0.1c-0.1-0.1-0.1-0.1-0.2-0.2C1727,506.1,1726.9,506.2,1726.7,506.3z"/>
		<path class="st0" d="M1734.9,502.7c-0.1,0.1-0.1,0.1-0.2,0.2c-0.2,0.2-0.5,0.3-0.8,0.4c0.4,0.1,0.8,0.3,1.1,0.6
			c0-0.1,0.1-0.2,0.4-0.2C1735.4,503.3,1735.2,502.9,1734.9,502.7z"/>
		<path class="st0" d="M1407.3,653.2c0.1,0.1,0.2,0.2,0.3,0.2c0,0,0.1,0,0.1,0c0-0.2-0.1-0.4-0.1-0.7
			C1407.5,652.9,1407.4,653,1407.3,653.2z"/>
		<path class="st0" d="M1730.5,500.9c0.7-0.2,1.4-0.5,1.9-0.3c0-0.2-0.1-0.4-0.2-0.6C1731.7,500.1,1731.1,500.2,1730.5,500.9z"/>
		<path class="st0" d="M1270.8,681.5c0,0.5,0.3,0.4,0.6,0.4c0,0,0,0,0,0c-0.2-0.2-0.4-0.4-0.6-0.7
			C1270.8,681.3,1270.8,681.4,1270.8,681.5z"/>
		<path class="st0" d="M1750.8,498.3c-0.2-0.3-0.3-0.8-0.9-0.8c-0.7,0-0.5,0.7-0.8,1c-0.4,0.4-1.1,0.4-1.6,0.3
			c-0.4-0.1-0.3-0.5-0.3-0.9c-0.7,0-1.3,0.2-2,0.3c0,0.1,0,0.1,0,0.2c0.1,0.3,0.1,0.6,0.2,0.8c-0.1,0.1-0.2,0.2-0.3,0.3
			c1.5,0,3-0.3,4.3-1.1C1750,498.2,1750.5,497.8,1750.8,498.3z"/>
		<path class="st0" d="M1235.3,694.7c0,0,0.1,0,0.1,0c0-0.1,0-0.1,0-0.2C1235.4,694.6,1235.4,694.7,1235.3,694.7z"/>
		<path class="st0" d="M1175.4,714.4c-0.1,0.2-0.2,0.4-0.3,0.6c0.1,0,0.2-0.1,0.4-0.1c0-0.1,0-0.1,0-0.2
			C1175.4,714.6,1175.4,714.5,1175.4,714.4z"/>
		<path class="st0" d="M1101.9,734.2c0,0.1,0,0.3,0,0.4c0.3,0,0.6-0.1,0.9-0.2c-0.3-0.3-0.6-0.6-0.9-0.9
			C1101.9,733.7,1101.9,733.9,1101.9,734.2z"/>
		<path class="st0" d="M1396.9,665.2c0.2,0,0.5,0,0.7,0.1c0-0.1,0-0.3,0-0.4C1397.3,664.9,1397,665,1396.9,665.2z"/>
		<path class="st0" d="M1275.3,677.8C1275.3,677.8,1275.3,677.8,1275.3,677.8c0-0.1,0-0.1,0-0.2
			C1275.3,677.7,1275.3,677.8,1275.3,677.8z"/>
		<path class="st0" d="M1386.1,668.9c-0.3-0.2-1-0.2-1.3-0.4c-0.3,0.8-0.8,1.6-1.2,2.5c0.1,0,0.1,0,0.2-0.1c0.9-0.2,1.7-0.2,2.6-0.3
			c1-0.1,1.8-0.4,3-1.2C1388,669.8,1387,669.4,1386.1,668.9z"/>
		<path class="st0" d="M1313.8,679.4c0.1,0,0.1,0,0.2,0c-0.1-0.1-0.2-0.1-0.3-0.2C1313.7,679.2,1313.8,679.3,1313.8,679.4z"/>
		<path class="st0" d="M1298.2,680.7c-0.7,0.2-1.1,0.8-1.6,1.2c0.9-0.1,1.9-0.3,2.8-0.4c-0.4-0.3-0.7-0.5-1-0.9
			C1298.3,680.6,1298.2,680.6,1298.2,680.7z"/>
		<path class="st0" d="M1819.2,443.7c0,0.1,0,0.1-0.1,0.2c0.1,0,0.1,0,0.2,0.1c0.1-0.2,0.3-0.3,0.4-0.5c-0.1-0.1-0.2-0.1-0.2-0.2
			C1819.4,443.4,1819.2,443.6,1819.2,443.7z"/>
		<path class="st0" d="M1817.4,445.4c-0.2,0.2-0.5,0.4-0.3,0.7c0.2,0.2,0.3,0.2,0.5,0.1c0.3-0.4,0.6-0.8,0.9-1.2
			c-0.1-0.1-0.1-0.1-0.2-0.2C1817.9,444.9,1817.6,445.1,1817.4,445.4z"/>
		<path class="st0" d="M1819.3,442.9c-0.1-0.6-0.1-1.3-0.6-1.8c0,0,0,0,0,0c-0.1,0.2-0.2,0.4-0.4,0.5c-0.7,0.3-0.9,1.1-1.6,1.4
			c0.6-0.3,1.2-0.1,1.8-0.4C1818.7,442.5,1819.1,442.7,1819.3,442.9C1819.3,443,1819.3,443,1819.3,442.9z"/>
		<path class="st0" d="M1751.2,498.6c-0.1,0-0.1-0.1-0.2-0.1c0,0-0.1-0.1-0.1-0.1c0.3,0.5-0.2,0.8-0.6,1c-0.1,0.1-0.1,0.1-0.2,0.2
			c0.5-0.2,1-0.4,1.5-0.5C1751.5,498.9,1751.4,498.7,1751.2,498.6z"/>
		<path class="st0" d="M1791.7,473.5c-0.1,0-0.2,0-0.4,0c0.2,0.1,0.1,0.2-0.2,0.4c0,0,0,0,0,0c0.8,0.1,1.7,0,2.2,1.1c0,0,0,0,0,0
			C1793.2,473.8,1792.9,473.1,1791.7,473.5z"/>
		<path class="st0" d="M1827.5,433.2c0.2-0.1,0.3-0.1,0.5-0.2c0-0.1,0-0.2-0.1-0.3C1827.8,432.9,1827.7,433,1827.5,433.2z"/>
		<path class="st0" d="M1790.7,477.2c0.2-0.1,0.3-0.3,0.5-0.4c-0.2-0.7,0.3-0.5,0.7-0.6c0.1-0.1,0.2-0.1,0.2-0.2
			c-0.3-0.1-0.5-0.2-0.8-0.3C1791,476.2,1790.8,476.7,1790.7,477.2z"/>
		<path class="st0" d="M1828.4,429C1828.4,429,1828.4,429,1828.4,429c-0.4,0.6-1.2,0.8-1.5,1.5c0.7,0.1,1.3-0.7,2-0.3
			c0.4,0.2,1,0,1,0.6c0,0.2,0,0.5-0.1,0.7c0.4-0.1,0.8-0.3,1.1-0.5C1830,430.3,1829,430,1828.4,429z"/>
		<path class="st0" d="M1801.3,462c0-0.1-0.1-0.1-0.2-0.2c-0.1,0.1-0.3,0.3-0.5,0.4c-0.5,0.2-1.1,0.2-1.6,0.9
			c0.9-0.3,1.7-0.8,2.1,0.4c0.1,0.4,0.5,0.3,0.8,0.1c0.3-0.1,0.6-0.5,0.8-0.1c0.2,0.4,0,0.7-0.4,0.9c-0.1,0.1-0.2,0.1-0.3,0.2
			c0.5,0,1-0.2,1.6-0.6c0,0,0,0,0,0C1802.9,463.4,1801.8,463,1801.3,462z"/>
		<path class="st0" d="M1775,487.3c-0.1-0.1-0.1-0.2-0.2-0.2C1774.8,487.1,1774.8,487.2,1775,487.3
			C1775,487.2,1775,487.3,1775,487.3z"/>
		<path class="st0" d="M1790.6,472c-0.2,0.3-0.2,0.6-0.4,1c0.2-0.1,0.4-0.2,0.6-0.3C1790.7,472.4,1790.7,472.2,1790.6,472z"/>
		<path class="st0" d="M1764.4,491c-0.3-0.2-0.5-0.4-0.7-0.7c-0.6-0.1-1.3-0.1-1.6-0.7c-0.2-0.3-0.4-0.4-0.5,0.1
			c0,0.5-0.2,0.6-0.7,0.6c-0.5,0-0.6,0.6-0.5,1.1c0.1,0.6,0.6,0.4,0.9,0.4c0.4-0.1,0.7-0.6,1-0.3c0.1,0.1,0.3,0.2,0.5,0.3
			c0-0.2-0.1-0.5,0.1-0.6c0.3-0.2,0.4,0.1,0.5,0.3c0.6,1,1.5,1.2,2.6,1.1C1765.8,491.6,1765,491.4,1764.4,491z"/>
		<path class="st0" d="M1775,488.1c0,0-0.1,0.1-0.1,0.1c0.2-0.1,0.3-0.2,0.5-0.3c0,0,0,0,0-0.1C1775.3,487.9,1775.2,488,1775,488.1z
			"/>
		<path class="st0" d="M1781.6,482.6c-0.2,0.2-0.5,0.4-0.3,0.7c0.3,0.4,0.5,0,0.8-0.1c-0.1-0.3-0.1-0.6-0.2-0.9
			C1781.8,482.4,1781.7,482.5,1781.6,482.6z"/>
		<path class="st0" d="M1790.5,471.5c-0.1-0.1-0.2-0.3-0.3-0.4c0,0,0-0.1,0-0.1c-0.1,0.1-0.1,0.1-0.2,0.2c-0.2,0.2-0.5,0.3-0.5,0.7
			c0.3,0.1,0.6-0.1,0.8-0.3C1790.4,471.5,1790.4,471.5,1790.5,471.5z"/>
		<path class="st0" d="M1784.6,480.2c-0.7-0.1-1.2-0.7-1.7-1c-0.1-0.1-0.2-0.2-0.3-0.3c0,0,0,0,0,0c-0.7,0.3-0.9,1.1-1.6,1.4
			c0.6-0.3,1.2-0.1,1.8-0.4c0.3-0.2,0.7,0.1,0.9,0.4c0.1,0.1,0.1,0.3,0,0.4c0.1,0,0.1,0.1,0.1,0.1c0.2,0.2,0.4,0.4,0.8,0.3
			c0.2-0.1,0.4-0.2,0.4-0.4C1785,480.3,1784.8,480.2,1784.6,480.2z"/>
		<path class="st1" d="M1920.4,388.3c-0.6-0.5-1.6,0-2.1-0.4c-0.8-0.5-1.3-2.2-1.3-2.4c0.5-2,0-2.9-2.1-2.6
			c-0.1-0.8,0.9-1.5,0.3-1.8c-2-1-1.8-2.9-2.2-4.5c-0.3-1.1-0.8-2.2-1.2-3.3c-0.1-0.2-0.4-0.4-0.6-0.4c-0.3,0-0.5,0.3-0.4,0.5
			c0.3,1.6-0.4,3-0.4,4.6c0,1.2,1,3.2-1.5,3.3c0.1,0.8,1.1,0.8,0.9,1.4c-0.5,0.8-1.4-0.1-1.7,0.6c0,0.7,1.2,0.8,0.9,1
			c-1.4,0.9-0.1,1.5,0.2,2.2c-0.8,0.4-1.8-0.4-2.4,0.6c0.3,0.6,1.2,0.5,1.2,1.4c-0.5,0.3-1.1-0.4-1.6,0.4c0.3,0.5,1.2,1,0.7,1.6
			c-0.4,0.5-1.3,0.1-2,0.1c-0.3,0-0.6,0.1-0.6-0.4c0-1.2-0.9-2.1-1.1-3.3c-0.2-1.3-0.8-2.6-1.3-3.9c-0.1-0.2-0.3-0.4-0.5-0.4
			c-0.1,0-0.5,0.3-0.5,0.5c0.2,1.6-0.9,3-0.7,4.7c0.1,1.2,0.6,3-1.5,3.3c-0.1,0.7,1.3,0.7,0.5,1.4c-0.5,0.4-1.1-0.1-1.4-0.6
			c-0.3-0.5-0.4-1-0.5-1.6c-0.2-0.6-0.3-1.2-0.5-1.8c-0.1-0.3-0.4-0.6-0.7-0.5c-0.2,0.1-0.4,0.4-0.4,0.5c0.4,1.8-0.8,3.3-0.6,5.1
			c0.1,0.8,0.6,2.8-1.5,2.8c-0.1,0.8,1,0.8,0.8,1.6c-0.4,0.4-1.2-0.1-1.5,0.8c-0.4,0.3,2.1,0.4,0.3,1.1c-0.6,0.2-0.2,0.6,0.1,0.9
			c0.2,0.3,0.7,0.5,0.2,0.9c-0.4,0.3-0.6-0.2-1-0.3c-1.6-0.6-1.5-3.6-4.1-2.8c-0.1,0-0.2-0.1-0.3-0.2c-0.4-1.3-1.1-0.7-1.9-0.3
			c-0.4,0.2-0.9,0.4-1.2,0c-0.4-0.5,0.2-0.7,0.4-1c0.3-0.4,0.7-1.4,0-1.2c-2.1,0.7-2.2-0.9-2.6-2c-0.1-0.2-0.1-0.5-0.4-0.6
			c-0.4-0.1-0.6,0.2-0.6,0.5c-0.1,1.5-2,2.8-0.4,4.6c-1.3-1.1-3-0.8-4.4-1.8c0.4,2.2,1,4.1,2.4,5.8c0.2,0.3,1,0.4,0.7,0.9
			c-0.3,0.4-0.9,0.6-1.3,0.2c-0.2-0.2-0.4-0.2-0.6-0.3c0.2-0.4,0.3-0.7,0.1-0.7c-1.9,0.2-1.2-1.8-2.3-2.5c-0.3,1.1-0.7,2-0.8,3
			c-0.1,0.1-0.2,0.2-0.3,0.3c-0.4,0.6,0.1,0.7,0.4,1c0,0.1,0,0.1,0.1,0.2c-0.7-0.8-1.7-0.9-2.8-1.3c0.5,0.9,0.4,1.6,0.9,2.1
			c0.1,0.1,0.2,0.2,0.4,0.3c-0.3,0.1-0.4,0.2-0.6,0.2c0-0.2,0-0.3,0.1-0.5c0.1-0.3-0.3-0.3-0.6-0.3c0,0.4,0,0.7,0,1.1
			c0.3,1.1,0.5,2.3,0.8,3.4c-0.9-0.3-1.8-0.7-2.7,0.2c0.4,0.5,0.8,0.9,1,1.4c-0.7,0.2-1.3,0.4-1.9,0.6c-0.3-0.6-0.5-1.3-0.5-1.4
			c0.5-2,0-2.9-2.1-2.6c-0.1-0.8,0.9-1.5,0.3-1.8c-2-1-1.8-2.9-2.2-4.5c-0.3-1.1-0.8-2.2-1.2-3.3c-0.1-0.2-0.4-0.4-0.6-0.4
			c-0.3,0-0.5,0.3-0.4,0.5c0.3,1.6-0.4,3-0.4,4.6c0,1.2,1,3.2-1.5,3.3c0.1,0.8,1.1,0.8,0.9,1.4c-0.5,0.8-1.4-0.1-1.7,0.6
			c0,0.7,1.2,0.8,0.9,1c-1.4,0.9-0.1,1.5,0.2,2.2c-0.8,0.4-1.8-0.4-2.4,0.6c0.3,0.6,1.2,0.5,1.2,1.4c-0.5,0.3-1.1-0.4-1.6,0.4
			c0.3,0.4,1,0.9,0.8,1.4c-0.4,0.1-0.8,0.3-1.1,0.4c-0.3,0-0.6-0.1-0.9-0.1c-0.3,0-0.6,0.1-0.6-0.4c0-1.2-0.9-2.1-1.1-3.3
			c-0.2-1.3-0.8-2.6-1.3-3.9c-0.1-0.2-0.3-0.4-0.5-0.4c-0.1,0-0.5,0.3-0.5,0.5c0.2,1.6-0.9,3-0.7,4.7c0.1,1.2,0.6,3-1.5,3.3
			c-0.1,0.7,1.3,0.7,0.5,1.4c-0.5,0.4-1.1-0.1-1.4-0.6c-0.3-0.5-0.4-1-0.5-1.6c-0.2-0.6-0.3-1.2-0.5-1.8c-0.1-0.3-0.4-0.6-0.7-0.5
			c-0.2,0.1-0.4,0.4-0.4,0.5c0.4,1.8-0.8,3.3-0.6,5.1c0,0.4,0.2,1.2,0,1.8c-1,0.5-2.1,1-3.1,1.6c0.4-0.6,1-0.6,1.5-0.8
			c0.7-0.3,0.8-0.9,0.8-1.4c0-0.6-0.7-0.4-1-0.6c-0.7-0.4-1.3,0.4-2,0.3c0.4-0.8,1.3-0.9,1.6-1.7c0.6-1.3-0.4-1.3-1.1-1.6
			c0.8-1.1,0.8-1.4-0.5-1.7c-0.4-0.1-0.5-0.3-0.5-0.6c0-0.3,0.2-0.6-0.3-0.7c-0.3,0-0.5,0.2-0.6,0.5c-0.2,0.6-0.4,1-1.2,1
			c-0.6,0-0.7,0.6-0.2,1.2c0.2,0.2,0.7,0.3,0.5,0.7c-0.2,0.3-0.6,0.2-0.9,0.2c-0.4,0.1-1.2-0.2-1.1,0.5c0,0.5,0.2,1.2,0.9,1.3
			c0.6,0.1,0.9,0.6,1.4,0.9c0.4,0.3,0.2,0.4-0.1,0.6c-0.3,0.2-0.6,0.2-0.8,0c-0.2-0.1-0.3-0.2-0.5-0.3c-0.5-0.3-0.9-0.2-1.3,0
			c-0.7,0.4-0.1,0.9-0.1,1.4c-0.1,0.6,0.4,0.5,0.7,0.6c0.3,0.1,0.9,0,1,0.3c0.1,0.2-0.1,0.4-0.3,0.5c-0.4-0.4-0.9,0-1.5,0.3
			c-0.2,0.1-0.5,0.3-0.8,0.2c-0.1,0-0.1,0-0.2,0c-0.1,0-0.2-0.1-0.2-0.2c-0.4-0.5,0.2-0.7,0.4-1c0.3-0.4,0.7-1.4,0-1.2
			c-2.1,0.7-2.2-0.9-2.6-2c-0.1-0.2-0.1-0.5-0.4-0.6c-0.4-0.1-0.6,0.2-0.6,0.5c-0.1,1.5-2,2.8-0.4,4.6c-1.3-1.1-3-0.8-4.4-1.8
			c0.4,2.2,1,4.1,2.4,5.8c0.2,0.3,1,0.4,0.7,0.9c-0.3,0.4-0.9,0.6-1.3,0.2c-0.7-0.7-1.7-0.2-2.5-0.6c-0.3-0.2-0.7-0.1-1,0.1
			c-0.3-0.1-0.6-0.2-0.9-0.3c0.8-1.1,0.8-1.4-0.5-1.7c-0.4-0.1-0.5-0.3-0.5-0.6c0-0.3,0.2-0.6-0.3-0.7c-0.3,0-0.5,0.2-0.6,0.5
			c-0.2,0.6-0.4,1-1.2,1c-0.6,0-0.7,0.6-0.2,1.2c0.2,0.2,0.7,0.3,0.5,0.7c-0.2,0.3-0.6,0.2-0.9,0.2c-0.4,0.1-1.2-0.2-1.1,0.5
			c0,0.5,0.2,1.2,0.9,1.3c0.6,0.1,0.9,0.6,1.4,0.9c0.4,0.3,0.2,0.4-0.1,0.6c-0.3,0.2-0.6,0.2-0.8,0c-0.2-0.1-0.3-0.2-0.5-0.3
			c-0.5-0.3-0.9-0.2-1.3,0c-0.7,0.4-0.1,0.9-0.1,1.4c-0.1,0.6,0.4,0.5,0.7,0.6c0.3,0.1,0.9,0,1,0.3c0.1,0.4-0.5,0.6-0.7,0.9
			c-0.6,0.8-1.3,0.5-1.9,0.2c-0.2-0.1-0.5-0.1-0.7,0.1c-0.1,0.2-0.1,0.4,0.1,0.5c0.7,0.3,1.1,1,1.9,1.2c0.9,0.2,1.8,0.6,2.6,1.3
			c-0.1,0.1-0.3,0.3-0.4,0.4c-0.8,0.1-1.5,0-2.1-0.7c-0.4-0.4-1.5-0.2-1.4,0.3c0.1,0.8-0.2,0.7-0.7,0.5c-0.3-0.1-0.6-0.2-0.7,0.2
			c-0.1,0.4,0.1,0.5,0.4,0.7c0.7,0.4,1.3,0.9,2.2,0.9c0.2,0,0.4,0.1,0.5,0.2c-0.4,0.5-0.9,1-1.3,1.6c-0.6,0-1.3-0.1-1.8-0.6
			c-0.2-0.2-0.4-0.3-0.7-0.1c0-0.1,0-0.2,0-0.3c0-0.4-0.5-0.4-0.8-0.6c-0.4-0.2-0.6,0.4-1.1,0.3c0.1-0.5,0.5-0.8,0.8-1.1
			c0.6-0.4,0.8-1,0.4-1.7c-0.3-0.5-0.8,0.1-1.2-0.2c0.8-0.7,1-1.3-0.2-1.8c-0.4-0.2-0.4-0.7-0.4-1c0-0.3,0.2-0.8-0.3-0.8
			c-0.4,0-0.7,0.3-0.7,0.8c0,0.4,0.1,0.9-0.3,1.1c-1.1,0.4-1,1-0.4,1.7c-0.5,0.2-1.1-0.2-1.3,0.4c-0.2,0.6,0,1.1,0.5,1.5
			c0.2,0.2,0.4,0.4,0.2,0.7c-0.1,0.3-0.3,0.2-0.6,0.2c-0.7-0.1-0.7,0.3-0.7,0.9c0.1,0.9,1.1,1,1.4,1.7c0.1,0.2,0.6,0.3,0.2,0.7
			c-0.3,0.3-0.6,0.4-0.9,0.1c-0.2-0.2-0.4-0.4-0.7-0.4c-0.7,0-1,0.3-0.7,1c0.2,0.5,0.4,1,1,1.1c0.3,0.1,0.5,0.3,0.6,0.9
			c-0.7-0.8-0.8,0.3-1.1,0.2c-0.7-0.3-1.1,0-1.3,0.6c-0.3,0.7,0.5,0.7,0.7,1c0.2,0.2,0.4,0.3,0.3,0.7c-0.1,0.2-0.2,0.5-0.6,0.4
			c-0.3-0.1-0.6-0.2-0.8-0.3c-0.3-0.1-0.6-0.6-0.8-0.2c-0.2,0.4-0.5,0.9-0.1,1.4c0.7,0.7,0.9,1.7,1.2,2.6c-0.5,0-0.9-0.2-1.4-0.4
			c-0.3-0.1-0.7-0.1-0.9,0.2c-0.2,0.3,0.1,0.7,0.3,0.8c0.4,0.2,0.7,0.5,1.1,0.7c-1.5,0.2-1.6-1.1-2-2.2c-0.1-0.2-0.1-0.5-0.4-0.6
			c-0.4-0.1-0.6,0.2-0.6,0.5c-0.1,1.5-2,2.8-0.4,4.6c-1.3-1.1-3-0.8-4.4-1.8c0.4,2.2,1,4.1,2.4,5.8c0.2,0.3,1,0.4,0.7,0.9
			c-0.3,0.4-0.9,0.6-1.3,0.2c-0.7-0.7-1.7-0.2-2.5-0.6c-0.3-0.2-0.6-0.1-0.8,0c-0.2-0.2-0.6-0.2-0.9-0.3c-0.7-0.4-1.3,0.4-2,0.3
			c0.4-0.8,1.3-0.9,1.6-1.7c0.6-1.3-0.4-1.3-1.1-1.6c0.8-1.1,0.8-1.4-0.5-1.7c-0.4-0.1-0.5-0.3-0.5-0.6c0-0.3,0.2-0.6-0.3-0.7
			c-0.3,0-0.5,0.2-0.6,0.5c-0.2,0.6-0.4,1-1.2,1c-0.6,0-0.7,0.6-0.2,1.2c0.2,0.2,0.7,0.3,0.5,0.7c-0.2,0.3-0.6,0.2-0.9,0.2
			c-0.4,0.1-1.2-0.2-1.1,0.5c0,0.5,0.2,1.2,0.9,1.3c0.6,0.1,0.9,0.6,1.4,0.9c0.4,0.3,0.2,0.4-0.1,0.6c-0.3,0.2-0.6,0.2-0.8,0
			c-0.2-0.1-0.3-0.2-0.5-0.3c-0.5-0.3-0.9-0.2-1.3,0c-0.7,0.4-0.1,0.9-0.1,1.4c-0.1,0.6,0.4,0.5,0.7,0.6c0.3,0.1,0.9,0,1,0.3
			c0.1,0.4-0.5,0.6-0.7,0.9c-0.6,0.8-1.3,0.5-1.9,0.2c-0.2-0.1-0.5-0.1-0.7,0.1c-0.1,0.2-0.1,0.4,0.1,0.5c0.7,0.3,1.1,1,1.9,1.2
			c1,0.3,2.1,0.6,3,1.6c-1.2,0.3-2.1,0.3-2.9-0.5c-0.4-0.4-1.5-0.2-1.4,0.3c0.1,0.8-0.2,0.7-0.7,0.5c-0.3-0.1-0.6-0.2-0.7,0.2
			c-0.1,0.4,0.1,0.5,0.4,0.7c0.7,0.4,1.3,0.9,2.2,0.9c0.5,0,0.9,0.2,0.8,0.8c-0.1,0.5-0.3,0.8-0.8,0.8c-0.9,0.1-1.8,0.1-2.6-0.5
			c-0.2-0.2-0.4-0.3-0.7-0.1c0,0-0.1,0.1-0.1,0.1c0-0.1-0.1-0.1-0.4-0.1c-0.1,0-0.2-0.1-0.2-0.1c0.3-0.5-0.3-1.1,0.1-1.6
			c0.2-0.3,0.3-0.6-0.3-0.5c-0.4,0-0.9-0.3-1.3-0.4c-0.3-0.1-0.2-0.5-0.2-0.9c0-0.1,0-0.3-0.1-0.3c-0.2,0-0.2,0.2-0.3,0.3
			c-0.2,0.9-0.6,1.2-1.6,1.1c-0.2,0-0.4,0.1-0.3,0.2c0.2,0.4,0.2,0.9,0.4,1.3c0.1,0.3,0.3,0.4,0,0.5c-0.2,0.1,0.1,0.6-0.3,0.6
			c-0.8,0.1-0.3,0.4-0.1,0.6c0.2,0.1,0.4,0.2,0.6,0.4c-0.6,0.2-1-0.8-1.5-0.2c-0.3,0.4,0,1,0.1,1.4c-0.5-0.1-0.4-0.6-0.9-0.7
			c-0.1,1,0.3,1.9,0.6,2.8c-0.4,0.1-0.6-0.2-0.8-0.3c-0.2-0.1-0.3-0.4-0.5-0.2c-0.2,0.2,0,0.4,0.1,0.5c0.2,0.3,0.4,0.5,0.7,0.7
			c0.4,0.3,0.9,0.4,1,0.9c-0.7,0.1-1.3,0-1.7-0.7c-0.1-0.1-0.2-0.3-0.4-0.2c-0.2,0.1-0.1,0.3-0.1,0.4c0,0.7,0.5,1.1,0.9,1.5
			c0.5,0.5,0.2,0.7-0.3,0.8c-0.4,0.1-0.5-0.1-0.7-0.4c0.1-0.2,0.1-0.4,0.1-0.6c0-0.4-0.5-0.4-0.8-0.6c-0.4-0.2-0.6,0.4-1.1,0.3
			c0.1-0.5,0.5-0.8,0.8-1.1c0.6-0.4,0.8-1,0.4-1.7c-0.3-0.5-0.8,0.1-1.2-0.2c0.8-0.7,1-1.3-0.2-1.8c-0.4-0.2-0.4-0.7-0.4-1
			c0-0.3,0.2-0.8-0.3-0.8c-0.4,0-0.7,0.3-0.7,0.8c0,0.4,0.1,0.9-0.3,1.1c-1.1,0.4-1,1-0.4,1.7c-0.5,0.2-1.1-0.2-1.3,0.4
			c-0.2,0.6,0,1.1,0.5,1.5c0.2,0.2,0.4,0.4,0.2,0.7c-0.1,0.3-0.3,0.2-0.6,0.2c-0.7-0.1-0.7,0.3-0.7,0.9c0.1,0.9,1.1,1,1.4,1.7
			c0.1,0.2,0.6,0.3,0.2,0.7c-0.3,0.3-0.6,0.4-0.9,0.1c-0.2-0.2-0.4-0.4-0.7-0.4c-0.7,0-1,0.3-0.7,1c0.2,0.5,0.4,1,1,1.1
			c0.3,0.1,0.5,0.3,0.6,0.9c-0.7-0.8-0.8,0.3-1.1,0.2c-0.7-0.3-1.1,0-1.3,0.6c-0.3,0.7,0.5,0.7,0.7,1c0.2,0.2,0.4,0.3,0.3,0.7
			c-0.1,0.2-0.2,0.5-0.6,0.4c-0.3-0.1-0.6-0.2-0.8-0.3c-0.3-0.1-0.6-0.6-0.8-0.2c-0.1,0.2-0.3,0.6-0.3,0.9c-0.2,0.1-0.5,0.3-0.8,0.4
			c0.5-0.6,0.4-1.2,0.8-1.6c0.1-0.1,0.2-0.4,0-0.5c-0.2-0.2-0.4-0.1-0.5,0c-0.4,0.2-0.7,0.6-1.2,0.4c0-0.6,0.4-0.8,0.7-1.1
			c0.4-0.3,0.8-0.8-0.2-0.8c-0.1,0-0.3-0.1-0.3-0.1c0.4-0.8-0.5-1.7,0.1-2.5c0.4-0.5,0.4-0.9-0.5-0.8c-0.7,0.1-1.3-0.5-2-0.7
			c-0.5-0.1-0.3-0.8-0.3-1.3c0-0.2,0.1-0.4-0.2-0.5c-0.3,0-0.4,0.2-0.4,0.5c-0.3,1.4-1,1.8-2.4,1.7c-0.3,0-0.6,0.2-0.5,0.4
			c0.3,0.6,0.3,1.4,0.6,2c0.2,0.4,0.4,0.5,0,0.8c-0.4,0.2,0.2,0.9-0.4,0.9c-1.2,0.1-0.5,0.6-0.1,0.9c0.3,0.2,0.6,0.4,0.9,0.6
			c-0.9,0.3-1.5-1.2-2.2-0.3c-0.5,0.6,0,1.5,0.1,2.2c-0.7-0.1-0.6-1-1.3-1.1c-0.2,1.6,0.5,2.9,0.9,4.3c-0.3,0.1-0.5,0-0.6-0.1
			c0.2-0.6-0.3-1.7-1-1.7c-0.6,0-1.1-0.2-1.1-0.9c0-0.3-0.2-0.4-0.4-0.5c-0.9-0.4-1.8-0.8-2.8-0.4c-0.2,0.1-0.3,0.1-0.4,0
			c-0.1-0.2,0-0.4,0.1-0.5c0.2-0.3,0.6-0.3,0.9-0.2c0.8,0.1,1.5-0.2,2.1-0.8c0.2-0.2,0.5-0.3,0.3-0.7c-0.2-0.3-0.4-0.5-0.8-0.4
			c-1.2,0.3-2.2,0.1-3.1-0.9c-0.1-0.2-0.6-0.1-0.5-0.5c0.1-0.3,0.4-0.2,0.6-0.2c0.9,0,0.8-0.8,0.9-1.3c0.1-0.6-0.5-0.6-0.9-0.6
			c-0.1,0-0.1,0-0.2,0c-0.6-0.3-1.3-0.5-1.7-1c-0.3-0.3,0.3-0.9,0.6-1.3c0.3-0.5,0.1-0.7-0.4-0.7c-0.4,0-0.8,0.2-1.2-0.2
			c0.2-0.3,0.5-0.7,0.7-1c0.1-0.2,0.3-0.3,0.2-0.5c-0.1-0.2-0.3-0.1-0.5-0.1c-0.3,0-0.7,0.3-0.6-0.2c0.2-1.1-0.5-0.7-1-0.6
			c0-0.7,0.5-1.1,0.5-1.8c0-0.2,0-0.5-0.3-0.6c-0.2-0.1-0.4,0-0.5,0.2c-0.2,0.8-1.5,1.4-0.4,2.6c-0.8-0.2-1.1-0.3-1.2-0.1
			c-0.2,0.3,0,0.6,0.2,0.8c0.5,1.1,0.5,1.1-0.7,1.1c-0.1,0-0.2,0-0.3,0c-0.8,0-0.8,0.4-0.4,0.9c0.2,0.3,0.4,0.5,0.7,0.6
			c0.3,0,0.7,0,0.7,0.5c0,0.4-0.4,0.5-0.7,0.6c-0.1,0.1-0.4,0.1-0.6,0.1c-0.4,0-0.8-0.3-1,0.3c-0.2,0.4,0,0.7,0.5,0.9
			c0.1,0.1,0.3,0.2,0.2,0.4c-0.3,0.8,0.1,1.2,0.8,1.6c0.2,0.1,0.3,0.5,0.2,0.7c-0.1,0.3-0.4,0.1-0.6,0c-0.3,0-0.7-0.3-0.8-0.1
			c-0.9,0.8-2.1,0.2-3.1,0.5c-0.2,0.1-0.4-0.1-0.4,0.2c0,0.2,0.1,0.4,0.4,0.5c0.3,0.1,0.6,0.1,1,0.2c1.2,0.4,1.3,0.6,0.7,1.7
			c0.7,0.2,1.4,0,2.1,0.1c0.3,0,0.7,0,0.7,0.5c0,0.4-0.2,0.6-0.6,0.6c-0.8,0.1-1.6,0.3-2.4,0.3c-0.7,0-1.4,0.4-2.1,0
			c0.1-0.2,0.1-0.4,0.1-0.6c0-0.7-0.8-0.6-1.2-0.9c-0.9-0.6-1.7,0.3-2.6,0.2c0.5-1,1.7-1,2.2-2.1c0.8-1.6-0.4-1.7-1.3-2.1
			c1.2-1.3,1.1-1.7-0.5-2.2c-0.5-0.2-0.7-0.4-0.6-0.9c0-0.3,0.3-0.8-0.3-0.9c-0.4-0.1-0.7,0.2-0.8,0.6c-0.3,0.8-0.6,1.2-1.6,1.2
			c-0.8,0-1,0.8-0.4,1.5c0.2,0.3,0.9,0.4,0.6,0.9c-0.2,0.4-0.8,0.2-1.2,0.2c-0.6,0-1.5-0.3-1.5,0.5c0,0.6,0.2,1.6,1,1.8
			c0.8,0.2,1.1,0.9,1.6,1.3c0.5,0.4,0.3,0.6-0.2,0.8c-0.4,0.2-0.7,0.2-1.1-0.1c-0.2-0.1-0.4-0.3-0.5-0.4c-0.5-0.5-1.1-0.3-1.7-0.1
			c-0.9,0.4-0.2,1.2-0.3,1.8c-0.1,0.7,0.5,0.6,0.9,0.8c0.4,0.1,1.1,0.1,1.2,0.5c0.1,0.5-0.6,0.7-0.9,1c-0.8,1-1.6,0.5-2.5,0.1
			c-0.3-0.1-0.6-0.2-0.9,0c-0.2,0.2-0.1,0.5,0.1,0.6c0.9,0.4,1.4,1.3,2.4,1.6c0.4,0.1,0.8,0.3,1.2,0.4c-0.3,0.3-0.9,0.3-2-0.3
			c0.9,0.9,1.3,1.4,1.5,1.8c-0.2-0.1-0.5-0.3-0.7-0.6c-0.5-0.6-1.8-0.3-1.8,0.2c0.1,1-0.3,0.9-0.9,0.6c-0.3-0.2-0.7-0.4-0.9,0.2
			c-0.2,0.5,0.1,0.7,0.4,0.9c0.8,0.5,1.6,1.3,2.7,1.4c0.4,0,0.7,0.2,0.8,0.5c-0.1,0-0.2,0-0.3,0c-0.6,0-0.4,0.4-0.2,0.8
			c0.1,0.2,0.2,0.4,0.2,0.6c-0.2,0.1-0.4,0.2-0.7,0.2c-1.1,0.1-2.1,0-2.9-0.7c0.3-0.3,0.3-0.8,0.4-1.2c0-0.7-0.8-0.6-1.2-0.9
			c-0.9-0.6-1.7,0.3-2.6,0.2c0.5-1,1.7-1,2.2-2.1c0.8-1.6-0.4-1.7-1.3-2.1c1.2-1.3,1.1-1.7-0.5-2.2c-0.5-0.2-0.7-0.4-0.6-0.9
			c0-0.3,0.3-0.8-0.3-0.9c-0.4-0.1-0.7,0.2-0.8,0.6c-0.3,0.8-0.6,1.2-1.6,1.2c-0.8,0-1,0.8-0.4,1.5c0.2,0.3,0.9,0.4,0.6,0.9
			c-0.2,0.4-0.8,0.2-1.2,0.2c-0.6,0-1.5-0.3-1.5,0.5c0,0.6,0.2,1.6,1,1.8c0.8,0.2,1.1,0.9,1.6,1.3c0.5,0.4,0.3,0.6-0.2,0.8
			c-0.4,0.2-0.7,0.2-1.1-0.1c-0.2-0.1-0.4-0.3-0.5-0.4c-0.5-0.5-1.1-0.3-1.7-0.1c-0.2,0.1-0.4,0.3-0.4,0.4c-0.2-0.2-0.4-0.5-0.6-0.8
			c-0.1-0.2-0.4-0.5,0-0.8c1.4-0.9,1.5-1.2,0.4-2.3c-0.9-0.9-1.3-2-1.3-3.3c0-0.8,0.2-1.7-0.2-2.5c-0.2,0.1-0.3,0.1-0.3,0.2
			c-0.1,0.3-0.1,0.5-0.1,0.8c0,2,0.2,4.1-1.5,5.7c-0.5,0.5-0.3,1.3,0.5,1.4c0.8,0.1,0.6,0.5,0.4,0.9c-0.4,0.8-1,1.4-1.7,1.9
			c-0.5,0.4-0.7,0.8,0,1.3c0.9,0.7,0.5,1.1-0.2,1.6c-1.8,1.2-1.5,1.5-2.6,2.8c-1.3,1.6,0.2,1.3,0.8,1.6c0.7,0.4,1.5,0.7,2.8,0.4
			c-0.5,0.3-0.9,0.6-1.3,0.7c0,0,0-0.1,0-0.1c0-0.4-0.7-0.5-0.8,0c0,0.1,0,0.2-0.1,0.4c-0.1,0-0.2,0-0.3,0c-0.7,0-1.4,0.1-2.2,0.2
			c-0.5,0.1-0.7,0.3-0.3,0.9c0,0,0.1,0.1,0.2,0.1c-0.4,0.2-0.9,0.3-1.1-0.2c-0.6-1.8-1.8-1-3-0.6c0.6-1,1.6-1,2.3-1.3
			c0.9-0.4,1.2-1.3,1.1-2.1c0-0.8-1-0.6-1.5-0.9c-1.1-0.6-1.9,0.5-2.9,0.4c0.5-1.2,1.8-1.3,2.3-2.5c0.8-1.9-0.6-1.9-1.6-2.3
			c1.2-1.5,1.1-2-0.7-2.5c-0.6-0.2-0.8-0.4-0.8-0.9c0-0.4,0.3-0.9-0.4-1c-0.5,0-0.8,0.3-0.9,0.7c-0.2,0.9-0.7,1.4-1.7,1.4
			c-0.9,0-1,0.9-0.3,1.8c0.3,0.3,1,0.4,0.7,1c-0.2,0.5-0.9,0.2-1.3,0.3c-0.6,0.1-1.7-0.2-1.6,0.7c0,0.7,0.3,1.8,1.3,1.9
			c0.9,0.2,1.3,0.9,2,1.4c0.6,0.4,0.4,0.6-0.1,0.9c-0.4,0.2-0.8,0.2-1.2,0c-0.2-0.1-0.4-0.3-0.7-0.4c-0.7-0.5-1.3-0.3-1.9,0.1
			c-1,0.6-0.1,1.4-0.2,2c-0.1,0.8,0.6,0.7,1.1,0.8c0.5,0.1,1.3,0,1.4,0.5c0.1,0.6-0.7,0.8-1,1.3c-0.4,0.5-0.8,0.7-1.3,0.7
			c0.1-0.1,0.3-0.2,0.5-0.2c0.6-0.2,0.8-0.7,0.5-1.3c-0.9,0.3-1.7,0.7-2.6,1c0,0-0.1,0-0.2,0.1c-0.3-0.1-0.6-0.1-0.8,0.2
			c0,0,0,0,0,0c-0.2,0-0.4-0.1-0.5-0.4c-0.3-0.6,0.4-0.8,0.7-1.2c0.7-0.8,1.6-4.7,1-5c-1.1-0.7-1.1-1.6-0.9-2.6
			c-0.8,0.1-1.6,1-1.9-0.4c-0.3-1.4-1.3,0.6-1.8-0.3c-0.2-0.6,0.7-1.8,0.3-1.8c-1.9,0.2-1.2-1.8-2.3-2.5c-0.4,1.6-1.1,2.9-0.6,4.5
			c-0.7-0.8-1.7-0.9-2.8-1.3c0.5,0.9,0.4,1.6,0.9,2.1c0.1,0.1,0.2,0.2,0.4,0.3c-2.4,0.8,0.5,1.3,0.2,2.2c-0.2,0.4,0.6,1.1,0.6,1.9
			c-1.3,0.1-2.6-1.2-3.9,0.1c0.4,0.5,0.9,0.9,1.1,1.5c0.2,0.8,0.9,0.7,1.4,1.1c0.3,0.2,0.4,0.5,0.2,0.8c-0.1,0.1-0.4,0.3-0.4,0.3
			c-0.6-0.9-1.8-0.2-2.4-0.7c-0.8-0.5-1.3-2.2-1.3-2.4c0.5-2,0-2.9-2.1-2.6c-0.1-0.8,0.9-1.5,0.3-1.8c-2-1-1.8-2.9-2.2-4.5
			c-0.3-1.1-0.8-2.2-1.2-3.3c-0.1-0.2-0.4-0.4-0.6-0.4c-0.3,0-0.5,0.3-0.4,0.5c0.3,1.6-0.4,3-0.4,4.6c0,1.2,1,3.2-1.5,3.3
			c0.1,0.8,1.1,0.8,0.9,1.4c-0.5,0.8-1.4-0.1-1.7,0.6c0,0.7,1.2,0.8,0.9,1c-1.4,0.9-0.1,1.5,0.2,2.2c-0.8,0.4-1.8-0.4-2.4,0.6
			c0.3,0.6,1.2,0.5,1.2,1.4c-0.5,0.3-1.1-0.4-1.6,0.4c0.3,0.5,1.2,1,0.7,1.6c-0.4,0.5-1.3,0.1-2,0.1c-0.3,0-0.6,0.1-0.6-0.4
			c0-1.2-0.9-2.1-1.1-3.3c-0.2-1.3-0.8-2.6-1.3-3.9c-0.1-0.2-0.3-0.4-0.5-0.4c-0.1,0-0.5,0.3-0.5,0.5c0.2,1.6-0.9,3-0.7,4.7
			c0.1,1.2,0.6,3-1.5,3.3c-0.1,0.7,1.3,0.7,0.5,1.4c-0.5,0.4-1.1-0.1-1.4-0.6c-0.3-0.5-0.4-1-0.5-1.6c-0.2-0.6-0.3-1.2-0.5-1.8
			c-0.1-0.3-0.4-0.6-0.7-0.5c-0.2,0.1-0.4,0.4-0.4,0.5c0.4,1.8-0.8,3.3-0.6,5.1c0.1,0.8,0.6,2.8-1.5,2.8c-0.1,0.8,1,0.8,0.8,1.6
			c-0.4,0.4-1.2-0.1-1.5,0.8c-0.4,0.3,2.1,0.4,0.3,1.1c-0.6,0.2-0.2,0.6,0.1,0.9c0.1,0.1,0.2,0.2,0.2,0.2c-0.4,0.1-0.8,0.2-1.1,0.3
			c-1.5-0.7-1.5-3.6-4-2.7c-0.1,0-0.2-0.1-0.3-0.2c-0.4-1.3-1.1-0.7-1.9-0.3c-0.4,0.2-0.9,0.4-1.2,0c-0.4-0.5,0.2-0.7,0.4-1
			c0.3-0.4,0.7-1.4,0-1.2c-2.1,0.7-2.2-0.9-2.6-2c-0.1-0.2-0.1-0.5-0.4-0.6c-0.4-0.1-0.6,0.2-0.6,0.5c-0.1,1.5-2,2.8-0.4,4.6
			c-1.3-1.1-3-0.8-4.4-1.8c0.4,2.2,1,4.1,2.4,5.8c0.2,0.3,1,0.4,0.7,0.9c-0.3,0.4-0.9,0.6-1.3,0.2c-0.7-0.7-1.7-0.2-2.5-0.6
			c-0.5-0.3-1,0-1.3,0.4c-0.1,0.1-0.1,0.2-0.1,0.3c-0.3,0.1-0.6,0.2-0.9,0.2c0.5-1.1,1.8-1.3,2.3-2.5c0.8-1.9-0.6-1.9-1.6-2.3
			c1.2-1.5,1.1-2-0.7-2.5c-0.6-0.2-0.8-0.4-0.7-0.9c0-0.4,0.3-0.9-0.4-1c-0.5,0-0.8,0.3-0.9,0.7c-0.2,0.9-0.6,1.4-1.7,1.4
			c-0.9,0-1,0.9-0.3,1.8c0.3,0.3,1,0.4,0.7,1c-0.2,0.5-0.9,0.2-1.3,0.3c-0.6,0.1-1.7-0.2-1.6,0.7c0,0.7,0.3,1.8,1.3,1.9
			c0.9,0.2,1.3,0.9,2,1.4c0.6,0.4,0.3,0.6-0.1,0.9c-0.4,0.2-0.8,0.2-1.2,0c-0.2-0.1-0.4-0.3-0.6-0.4c-0.6-0.4-1.2-0.3-1.8,0
			c0.1-0.2,0.1-0.4,0-0.4c-1.9,0.2-1.2-1.8-2.3-2.5c-0.4,1.6-1.1,2.9-0.6,4.5c-0.7-0.8-1.7-0.9-2.8-1.3c0.5,0.9,0.4,1.6,0.9,2.1
			c0.1,0.1,0.2,0.2,0.4,0.3c-2.4,0.8,0.5,1.3,0.2,2.2c-0.2,0.4,0.6,1.1,0.6,1.9c-1.3,0.1-2.6-1.2-3.9,0.1c0.3,0.4,0.7,0.8,1,1.2
			c-0.6,0.3-1.2,0.5-1.8,0.8c-0.3-0.6-0.5-1.3-0.5-1.4c0.5-2,0-2.9-2.1-2.6c-0.1-0.8,0.9-1.5,0.3-1.8c-2-1-1.8-2.9-2.2-4.5
			c-0.3-1.1-0.8-2.2-1.2-3.3c-0.1-0.2-0.4-0.4-0.6-0.4c-0.3,0-0.5,0.3-0.4,0.5c0.3,1.6-0.4,3-0.4,4.6c0,1.2,1,3.2-1.5,3.3
			c0.1,0.8,1.1,0.8,0.9,1.4c-0.5,0.8-1.4-0.1-1.7,0.6c0,0.7,1.2,0.8,0.9,1c-1.4,0.9-0.1,1.5,0.2,2.2c-0.8,0.4-1.8-0.4-2.4,0.6
			c0.3,0.6,1.2,0.5,1.2,1.4c-0.5,0.3-1.1-0.4-1.6,0.4c0.3,0.5,1.2,1,0.7,1.6c-0.4,0.5-1.3,0.1-2,0.1c-0.3,0-0.6,0.1-0.6-0.4
			c0-1.2-0.9-2.1-1.1-3.3c-0.2-1.3-0.8-2.6-1.3-3.9c-0.1-0.2-0.3-0.4-0.5-0.4c-0.1,0-0.5,0.3-0.5,0.5c0.2,1.6-0.9,3-0.7,4.7
			c0.1,1.2,0.6,3-1.5,3.3c-0.1,0.7,1.3,0.7,0.5,1.4c-0.5,0.4-1.1-0.1-1.4-0.6c-0.3-0.5-0.4-1-0.5-1.6c-0.2-0.6-0.3-1.2-0.5-1.8
			c-0.1-0.3-0.4-0.6-0.7-0.5c-0.2,0.1-0.4,0.4-0.4,0.5c0.4,1.8-0.8,3.3-0.6,5.1c0.1,0.8,0.6,2.8-1.5,2.8c-0.1,0.8,1,0.8,0.8,1.6
			c-0.4,0.4-1.2-0.1-1.5,0.8c-0.1,0.1-0.1,0.1,0,0.1c-0.6,0.3-1.2,0.6-1.8,1c-0.6-0.9-1.2-1.8-2.7-1.3c-0.1,0-0.2-0.1-0.3-0.2
			c-0.4-1.3-1.1-0.7-1.9-0.3c-0.4,0.2-0.9,0.4-1.2,0c-0.4-0.5,0.2-0.7,0.4-1c0.3-0.4,0.7-1.4,0-1.2c-2.1,0.7-2.2-0.9-2.6-2
			c-0.1-0.2-0.1-0.5-0.4-0.6c-0.4-0.1-0.6,0.2-0.6,0.5c-0.1,1.5-2,2.8-0.4,4.6c-1.3-1.1-3-0.8-4.4-1.8c0.4,2.2,1,4.1,2.4,5.8
			c0.2,0.3,1,0.4,0.7,0.9c-0.3,0.4-0.9,0.6-1.3,0.2c-0.7-0.7-1.7-0.2-2.5-0.6c-0.5-0.3-1,0-1.3,0.4c-0.5,0.6,0.3,0.8,0.5,1.2
			c0.6,1,1.6,1.3,2.6,2c-0.4,0.3-0.8,0.5-1.2,0.6c0.1-0.2,0.1-0.3-0.1-0.4c-2-1-1.8-2.9-2.2-4.5c-0.3-1.1-0.8-2.2-1.2-3.3
			c-0.1-0.2-0.4-0.4-0.6-0.4c-0.3,0-0.5,0.3-0.4,0.5c0.3,1.6-0.4,3-0.4,4.6c0,1.2,1,3.2-1.5,3.3c0.1,0.8,1.1,0.8,0.9,1.4
			c-0.5,0.8-1.4-0.1-1.7,0.6c0,0.7,1.2,0.8,0.9,1c-1.4,0.9-0.1,1.5,0.2,2.2c-0.8,0.4-1.8-0.4-2.4,0.6c0.2,0.4,0.8,0.5,1.1,0.9
			c-0.2,0.2-0.5,0.3-0.7,0.5c-0.2,0-0.5,0-0.7,0.4c0,0,0,0,0,0c-0.6,0.4-1.3,0.9-1.9,1.3c0,0,0,0,0-0.1c0-1.2-0.9-2.1-1.1-3.3
			c-0.2-1.3-0.8-2.6-1.3-3.9c-0.1-0.2-0.3-0.4-0.5-0.4c-0.1,0-0.5,0.3-0.5,0.5c0.2,1.6-0.9,3-0.7,4.7c0.1,1.2,0.6,3-1.5,3.3
			c-0.1,0.7,1.3,0.7,0.5,1.4c-0.5,0.4-1.1-0.1-1.4-0.6c-0.3-0.5-0.4-1-0.5-1.6c-0.2-0.6-0.3-1.2-0.5-1.8c-0.1-0.3-0.4-0.6-0.7-0.5
			c-0.2,0.1-0.4,0.4-0.4,0.5c0.4,1.8-0.8,3.3-0.6,5.1c0.1,0.8,0.6,2.8-1.5,2.8c-0.1,0.7,0.6,0.8,0.8,1.3c-0.2,0.2-0.5,0.4-0.7,0.5
			c-0.3,0-0.6,0.1-0.8,0.6c0,0,0,0.1,0,0.1c-0.5,0.4-1.1,0.8-1.6,1.3c-0.6-1-1.2-2.1-2.8-1.5c-0.1,0-0.2-0.1-0.3-0.2
			c-0.4-1.3-1.1-0.7-1.9-0.3c-0.4,0.2-0.9,0.4-1.2,0c-0.4-0.5,0.2-0.7,0.4-1c0.3-0.4,0.7-1.4,0-1.2c-2.1,0.7-2.2-0.9-2.6-2
			c-0.1-0.2-0.1-0.5-0.4-0.6c-0.4-0.1-0.6,0.2-0.6,0.5c0,0.3-0.1,0.5-0.2,0.8c-0.1-0.2-0.2-0.4-0.6-0.4c-0.8,0-1.2,0.7-1.3,1.5
			c0,0.6,0.2,1.4-0.2,1.8c-0.9-0.2-1.8-0.3-2.5-0.9c0.2,1,0.4,2,0.8,2.9c0,0.3,0.2,0.6,0.3,0.8c0.1,0.3,0.3,0.5,0.4,0.8
			c-0.8,0.3-1.9-0.3-2.2,0.8c-0.1,0.3-0.1,0.7-0.1,1c-0.5-0.3-1,0-1.3,0.4c-0.5,0.6,0.3,0.8,0.5,1.2c0.5,0.9,1.4,1.2,2.2,1.7
			c-0.2,0.2-0.6,0.1-0.9,0.1c-0.9-0.1-1.2,0.2-1.3,0.7c-1,0.1-2.5,0.7-2.1-1.5c0.1-0.3-0.4-0.3-0.8-0.3c-0.3,0-0.8,0.2-0.8-0.2
			c0.2-1.5-1.3-2.3-1.3-3.8c0-1.3-0.3-2.8-1.2-4c-0.2-0.2-0.5-0.5-0.7-0.5c-0.4-0.1-0.6,0.4-0.5,0.6c0,0.2,0.1,0.4,0.1,0.6
			c-0.1,0.1-0.1,0.2-0.1,0.4c0,0.1,0,0.2,0,0.2c-0.1,0.4-0.2,0.7-0.4,1.1c0.1,0.2,0.2,0.5,0.3,0.7c-0.2,0.9-0.4,1.7-0.4,2.6
			c0,1.2,1,3.2-1.5,3.3c0.1,0.8,1.1,0.8,0.9,1.4c-0.5,0.8-1.4-0.1-1.7,0.6c0,0.7,1.2,0.8,0.9,1c-1.4,0.9-0.1,1.5,0.2,2.2
			c-0.8,0.4-1.8-0.4-2.4,0.6c0.3,0.6,1.2,0.5,1.2,1.4c-0.5,0.3-1.1-0.4-1.6,0.4c0.3,0.5,1.2,1,0.7,1.6c-0.4,0.5-1.3,0.1-2,0.1
			c-0.3,0-0.6,0.1-0.6-0.4c0-1.2-0.9-2.1-1.1-3.3c-0.2-1.3-0.8-2.6-1.3-3.9c-0.1-0.2-0.3-0.4-0.5-0.4c-0.1,0-0.5,0.3-0.5,0.5
			c0.2,1.6-0.9,3-0.7,4.7c0.1,1.2,0.6,3-1.5,3.3c-0.1,0.7,1.3,0.7,0.5,1.4c-0.5,0.4-1.1-0.1-1.4-0.6c-0.3-0.5-0.4-1-0.5-1.6
			c-0.2-0.6-0.3-1.2-0.5-1.8c-0.1-0.3-0.4-0.6-0.7-0.5c-0.2,0.1-0.4,0.4-0.4,0.5c0.4,1.8-0.8,3.3-0.6,5.1c0.1,0.8,0.6,2.8-1.5,2.8
			c-0.1,0.8,1,0.8,0.8,1.6c-0.4,0.4-1.2-0.1-1.5,0.8c-0.2,0.2,0.4,0.3,0.7,0.4c-0.8,0.3-1.5,0.7-2.3,1c-0.7-1-1.2-2.2-2.9-1.7
			c-0.1,0-0.2-0.1-0.3-0.2c-0.4-1.3-1.1-0.7-1.9-0.3c-0.4,0.2-0.9,0.4-1.2,0c-0.4-0.5,0.2-0.7,0.4-1c0.3-0.4,0.7-1.4,0-1.2
			c-2.1,0.7-2.2-0.9-2.6-2c-0.1-0.2-0.1-0.5-0.4-0.6c-0.4-0.1-0.6,0.2-0.6,0.5c-0.1,1.5-2,2.8-0.4,4.6c-1.3-1.1-3-0.8-4.4-1.8
			c0.4,1.9,0.9,3.6,1.9,5.1c0,0.5,0,1,0.2,1.6c-0.7-0.8-1.7-0.9-2.8-1.3c0.2,0.4,0.3,0.7,0.4,1.1c-0.2,0-0.3-0.1-0.5-0.2
			c-0.5-0.3-1,0-1.3,0.4c-0.5,0.6,0.3,0.8,0.5,1.2c0.5,0.9,1.5,1.3,2.3,1.8c0,0.1,0,0.2,0,0.2c-0.7,0.4-1.3,0.6-1.9,0.5
			c-0.9-0.3-3,1.1-2.6-1.6c0.1-0.3-0.4-0.3-0.8-0.3c-0.3,0-0.8,0.2-0.8-0.2c0.2-1.5-1.3-2.3-1.3-3.8c0-1.3-0.3-2.8-1.2-4
			c-0.2-0.2-0.5-0.5-0.7-0.5c-0.4-0.1-0.6,0.4-0.5,0.6c0,0.1,0,0.1,0,0.2c-0.1-0.2-0.1-0.3-0.2-0.5c-0.1-0.2-0.4-0.4-0.6-0.4
			c-0.3,0-0.5,0.3-0.4,0.5c0.3,1.6-0.4,3-0.4,4.6c0,1.2,1,3.2-1.5,3.3c0.1,0.8,1.1,0.8,0.9,1.4c-0.5,0.8-1.4-0.1-1.7,0.6
			c0,0.7,1.2,0.8,0.9,1c-1.4,0.9-0.1,1.5,0.2,2.2c-0.8,0.4-1.8-0.4-2.4,0.6c0.3,0.6,1.2,0.5,1.2,1.4c-0.5,0.3-1.1-0.4-1.6,0.4
			c0.3,0.5,1.2,1,0.7,1.6c-0.4,0.5-1.3,0.1-2,0.1c-0.3,0-0.6,0.1-0.6-0.4c0-1.2-0.9-2.1-1.1-3.3c-0.2-1.3-0.8-2.6-1.3-3.9
			c-0.1-0.2-0.3-0.4-0.5-0.4c-0.1,0-0.5,0.3-0.5,0.5c0.2,1.6-0.9,3-0.7,4.7c0.1,1.2,0.6,3-1.5,3.3c-0.1,0.7,1.3,0.7,0.5,1.4
			c-0.5,0.4-1.1-0.1-1.4-0.6c-0.3-0.5-0.4-1-0.5-1.6c-0.2-0.6-0.3-1.2-0.5-1.8c-0.1-0.3-0.4-0.6-0.7-0.5c-0.2,0.1-0.4,0.4-0.4,0.5
			c0.4,1.8-0.8,3.3-0.6,5.1c0.1,0.8,0.6,2.8-1.5,2.8c-0.1,0.8,1,0.8,0.8,1.6c0,0,0,0,0,0c-0.1,0-0.1,0.1-0.2,0.1
			c-0.4,0.2-1-0.1-1.3,0.7c-0.1,0-0.1,0.1,0,0.1c-0.6,0.4-1.2,0.7-1.7,1.1c-0.6-0.9-1.2-1.9-2.7-1.4c-0.1,0-0.2-0.1-0.3-0.2
			c-0.4-1.3-1.1-0.7-1.9-0.3c-0.4,0.2-0.9,0.4-1.2,0c-0.4-0.5,0.2-0.7,0.4-1c0.3-0.4,0.7-1.4,0-1.2c-2.1,0.7-2.2-0.9-2.6-2
			c-0.1-0.2-0.1-0.5-0.4-0.6c-0.4-0.1-0.6,0.2-0.6,0.5c-0.1,1.5-2,2.8-0.4,4.6c-1.3-1.1-3-0.8-4.4-1.8c0.4,2.2,1,4.1,2.4,5.8
			c0.2,0.3,1,0.4,0.7,0.9c-0.3,0.4-0.9,0.6-1.3,0.2c-0.7-0.7-1.7-0.2-2.5-0.6c-0.5-0.3-1,0-1.3,0.4c-0.1,0.2-0.2,0.3-0.2,0.4
			c-1.8,0.1-1.1-1.8-2.2-2.5c-0.3,1.2-0.8,2.2-0.8,3.3c-0.1-1.2-1.3-2-1.3-3.4c0-1.3-0.3-2.8-1.2-4c-0.2-0.2-0.5-0.5-0.7-0.5
			c-0.4-0.1-0.6,0.4-0.5,0.6c0.2,0.8-0.1,1.5-0.4,2.2c0.7,1.6,1.2,3.3,1.6,5c0,0-0.1,0-0.1,0c0.1,0.1,0.1,0.2,0.2,0.4
			c0.1,0.5,0.2,1.1,0.3,1.6c0,0.3,0.1,0.5,0.1,0.8c-0.6,0.3-0.3,0.6,0.1,0.9c0.1,0.9,0.2,1.7,0.3,2.6c-0.1,0-0.2,0.1-0.2,0.1
			c-0.9-0.3-1.8-0.6-2.7,0.3c0.1,0.2,0.3,0.3,0.4,0.5c-0.6,0.2-1.1,0.4-1.7,0.6c-0.1-0.3-0.1-0.4-0.1-0.5c0.5-2,0-2.9-2.1-2.6
			c-0.1-0.8,0.9-1.5,0.3-1.8c-2-1-1.8-2.9-2.2-4.5c-0.3-1.1-0.8-2.2-1.2-3.3c-0.1-0.2-0.4-0.4-0.6-0.4c-0.3,0-0.5,0.3-0.4,0.5
			c0.3,1.6-0.4,3-0.4,4.6c0,1.2,1,3.2-1.5,3.3c0.1,0.8,1.1,0.8,0.9,1.4c-0.5,0.8-1.4-0.1-1.7,0.6c0,0.7,1.2,0.8,0.9,1
			c-1.4,0.9-0.1,1.5,0.2,2.2c-0.8,0.4-1.8-0.4-2.4,0.6c0.3,0.6,1.2,0.5,1.2,1.4c-0.5,0.3-1.1-0.4-1.6,0.4c0.1,0.2,0.3,0.3,0.4,0.5
			c-0.8,0.3-1.5,0.6-2.3,0.9c0,0,0,0,0,0c0-1.2-0.9-2.1-1.1-3.3c-0.2-1.3-0.8-2.6-1.3-3.9c-0.1-0.2-0.3-0.4-0.5-0.4
			c-0.1,0-0.5,0.3-0.5,0.5c0.2,1.6-0.9,3-0.7,4.7c0.1,1.2,0.6,3-1.5,3.3c-0.1,0.7,1.3,0.7,0.5,1.4c-0.5,0.4-1.1-0.1-1.4-0.6
			c-0.3-0.5-0.4-1-0.5-1.6c-0.2-0.6-0.3-1.2-0.5-1.8c-0.1-0.3-0.4-0.6-0.7-0.5c-0.2,0.1-0.4,0.4-0.4,0.5c0.4,1.8-0.8,3.3-0.6,5.1
			c0,0.4,0.2,1,0.1,1.5c-1.7,1.1-3.4,2.4-5,3.6c-0.4-0.3-1-0.5-1.8-0.2c-0.1,0-0.2-0.1-0.3-0.2c-0.4-1.3-1.1-0.7-1.9-0.3
			c-0.4,0.2-0.9,0.4-1.2,0c-0.4-0.5,0.2-0.7,0.4-1c0.3-0.4,0.7-1.4,0-1.2c-2.1,0.7-2.2-0.9-2.6-2c-0.1-0.2-0.1-0.5-0.4-0.6
			c-0.4-0.1-0.6,0.2-0.6,0.5c-0.1,1.5-2,2.8-0.4,4.6c-1.3-1.1-3-0.8-4.4-1.8c0.4,2.2,1,4.1,2.4,5.8c0.2,0.3,1,0.4,0.7,0.9
			c-0.3,0.4-0.9,0.6-1.3,0.2c-0.7-0.7-1.7-0.2-2.5-0.6c-0.5-0.3-1,0-1.3,0.4c-0.5,0.6,0.3,0.8,0.5,1.2c0.6,1,1.6,1.3,2.6,2
			c-0.7,0.5-1.5,0.8-2,0.6c-0.9-0.3-3,1.1-2.6-1.6c0.1-0.3-0.4-0.3-0.8-0.3c-0.3,0-0.8,0.2-0.8-0.2c0.2-1.5-1.3-2.3-1.3-3.8
			c0-1.3-0.3-2.8-1.2-4c-0.2-0.2-0.5-0.5-0.7-0.5c-0.4-0.1-0.6,0.4-0.5,0.6c0.2,0.8-0.1,1.5-0.4,2.2c0.7,1.6,1.2,3.3,1.6,5
			c-0.2-0.1-0.5-0.2-0.8-0.2c-0.8-0.2-0.9-0.5-0.9-1.1c0-0.5,0.4-1.1-0.5-1.2c-0.5,0-0.8,0.2-1,0.5c0-0.1-0.1-0.2-0.1-0.3
			c-0.2-1.2-0.1-2.5-1-3.5c-0.2-0.2-0.4-0.4-0.7-0.5c-0.1,0-0.5,0.3-0.4,0.5c0.4,1.4-0.7,2.5-0.7,3.8c0.1,1.6-0.4,2-2.2,1
			c1.8,1.9,1.8,1.8,1.1,3.2c-0.1,0.2,0,0.5,0.2,0.6c0.5,0.6,0.5,0.9,0.1,1c-0.7,0-1.7-0.2-1.7,0.8c0,0.7,0.3,1.7,1,2.2
			c-0.2,0.5-0.8,0.8-1.6,1.1c0,0.6,0.8,0.6,1,1c-0.4,0-0.8,0.2-1.2,0.4c-1.1,0.6-0.3,1.5-0.3,2.3c-0.4,0-0.7,0.1-1.1,0.3
			c1,0.5,1.9,0.9,2.4,1.8c-0.2,0.1-0.5,0.2-0.8,0.2c-0.1-0.6-0.7-0.8-1.2-1.1c-0.3-0.2-0.7-0.4-1-0.5c-0.7-0.3-1-0.7-0.3-1.3
			c0.9-0.7,0.5-1.2-0.2-1.6c-0.8-0.6-1.6-1.2-2.1-2.1c-0.1-0.2-0.2-0.5-0.3-0.7c0-0.1,0.1-0.3,0.3-0.4c1.7-1.1,1.8-1.5,0.5-2.8
			c-1.1-1.1-1.6-2.4-1.5-4c0-1,0.3-2-0.3-3c-0.2,0.1-0.3,0.1-0.4,0.2c-0.1,0.3-0.2,0.6-0.2,1c0,2.4,0.2,4.9-1.8,6.9
			c-0.6,0.6-0.4,1.6,0.6,1.7c1,0.1,0.7,0.6,0.5,1.1c-0.4,1-1.2,1.6-2,2.3c-0.6,0.5-0.8,1-0.1,1.6c1,0.8,0.6,1.3-0.3,2
			c-2.2,1.5-1.8,1.8-3.2,3.4c-0.1,0.1-0.1,0.1-0.1,0.2c0-0.5-0.1-1.1-0.4-1.7c-0.7,0.8-1.8,0.5-2.6,1.3c0.4-1.4-0.9-2.1-1-3.2
			c0-0.4-0.7-0.5-0.8,0c-0.1,1.1-0.6,1.7-1.7,1.8c-0.3,0-0.5,0.3-0.3,0.5c1.6,2.1,0.4,1.7-1,1c-0.1-0.1-0.5,0.1-0.5,0.1
			c0,0.3-0.1,0.5-0.2,0.7c-0.4-0.1-0.8-0.3-1.2-0.5c-0.5-0.2-0.9-1.5-0.5-1.5c0.9-0.2,1.2-1.3,2.1-1.4c0.4,0,0.7-0.3,0.9-0.6
			c0.2-0.3,0.5-0.5,0.9-0.4c0.2,0,0.4,0,0.5-0.2c0.1-0.3,0-0.4-0.2-0.6c-0.3-0.4-0.6-0.6-1.1-0.5c-0.4,0.1-0.9,0.1-1.3,0.2
			c-1,0.1-1.1,0-0.9-1c0.1-0.4,0.1-0.7-0.4-0.7c-1,0-0.9-0.6-0.7-1.3c0.1-0.4,0.2-0.7,0-1.1c-0.3-0.5-0.1-0.9,0.4-1.1
			c0.6-0.3,0.6-0.9-0.1-1.2c-0.2-0.1-0.4-0.2-0.7-0.2c-0.8-0.1-0.8-0.7-0.5-1.1c1-1.4,0.2-2.5-0.4-3.7c-0.1-0.2-0.3-0.5-0.6-0.4
			c-0.3,0.1-0.7,0.3-0.6,0.7c0.2,1.3-0.3,2.3-1.1,3.2c-0.1,0.1-0.1,0.3-0.2,0.5c-0.1,0.6-0.4,0.7-1,0.6c-0.7-0.2-1.3-0.2-2-0.2
			c-0.2,0-0.6,0-0.5,0.3c0.3,0.6,0.3,1.3,1.2,1.6c1,0.3,1.9,0.7,2.6,1.5c0.3,0.4,0.4,0.7-0.2,0.9c-0.5,0.2-1,0.3-1.5,0.3
			c-0.2,0-0.4-0.1-0.5,0.2c-0.1,0.2,0.1,0.4,0.2,0.5c0.1,0.1,0.2,0.2,0.2,0.3c0.1,0.2,0.4,0.3,0.2,0.5c-0.1,0.2-0.3,0.3-0.5,0.2
			c-0.3,0-0.5-0.1-0.8-0.1c-0.9-0.2-1.8-0.2-2.7-0.2c-0.3,0-0.5,0-0.6,0.4c-0.3,0.7,0.4,1.8,1.2,1.9c1.1,0.1,2.2,0.5,3.2,1.1
			c-0.1,0.3-0.1,0.6-0.2,0.8c-0.2,0.1-0.5,0.1-0.7,0.2c-0.5,0.2-0.7,0.4-0.2,0.8c0.3,0.2,0.5,0.5,0.8,0.7c0,0.5,0,0.9-0.1,1.3
			c-0.1,0-0.1,0-0.2,0c-0.5,0-1,0-1.5,0c-0.4,0-0.9,0-1.3,0c0-0.2-0.1-0.3-0.1-0.5c-0.4,0.2-0.7,0.4-1.1,0.5c-0.4,0.2-0.9,0.4-1.2,0
			c-0.3-0.5,0.3-0.7,0.6-1c0.5-0.5,0.9-1,1.6-1.2c0.6-0.2,0.8-0.7,0.5-1.3c-0.9,0.3-1.7,0.7-2.6,1c-0.5,0.2-1.1,0.6-1.5-0.1
			c-0.3-0.6,0.4-0.8,0.7-1.2c0.7-0.8,1.6-4.7,1-5c-1.1-0.7-1.1-1.6-0.9-2.6c-0.8,0.1-1.6,1-1.9-0.4c-0.3-1.4-1.3,0.6-1.8-0.3
			c-0.2-0.6,0.7-1.8,0.3-1.8c-1.9,0.2-1.2-1.8-2.3-2.5c-0.4,1.6-1.1,2.9-0.6,4.5c-0.7-0.8-1.7-0.9-2.8-1.3c0.5,0.9,0.4,1.6,0.9,2.1
			c0.1,0.1,0.2,0.2,0.4,0.3c-2.4,0.8,0.5,1.3,0.2,2.2c-0.2,0.4,0.6,1.1,0.6,1.9c-1.3,0.1-2.6-1.2-3.9,0.1c0.4,0.5,0.9,0.9,1.1,1.5
			c0.2,0.8,0.9,0.7,1.4,1.1c0.3,0.2,0.4,0.5,0.2,0.8c-0.1,0.1-0.4,0.3-0.4,0.3c-0.5-0.7-1.2-0.5-1.8-0.5c0.4-0.9,0-1.7-1.6-2.4
			c-0.1,0-0.2-0.1-0.2-0.1c0.3-1.3,0.2-2.2-0.6-2.5c0.1-0.7,0.2-1.5-0.6-1.6c-0.2,0-0.3,0-0.5,0.1c0-0.2,0-0.3-0.1-0.4
			c-2-1-1.8-2.9-2.2-4.5c-0.3-1.1-0.8-2.2-1.2-3.3c-0.1-0.2-0.4-0.4-0.6-0.4c-0.3,0-0.5,0.3-0.4,0.5c0.3,1.6-0.4,3-0.4,4.6
			c0,1.2,1,3.2-1.5,3.3c0.1,0.8,1.1,0.8,0.9,1.4c-0.5,0.8-1.4-0.1-1.7,0.6c0,0.7,1.2,0.8,0.9,1c-1.4,0.9-0.1,1.5,0.2,2.2
			c-0.8,0.4-1.8-0.4-2.4,0.6c0.3,0.6,1.2,0.5,1.2,1.4c-0.5,0.3-1.1-0.4-1.6,0.4c0.3,0.5,1.2,1,0.7,1.6c-0.4,0.5-1.3,0.1-2,0.1
			c-0.2-0.2-0.4-0.4-0.6-0.6c-0.1-1.1-0.9-2-1-3.1c-0.2-1.3-0.8-2.6-1.3-3.9c-0.1-0.2-0.3-0.4-0.5-0.4c-0.1,0-0.1,0-0.2,0.1
			c0-0.1-0.1-0.1-0.2-0.2c-0.2-0.2-0.4-0.4-0.7-0.5c-0.1,0-0.5,0.3-0.4,0.5c0.4,1.4-0.7,2.5-0.7,3.8c0.1,1.6-0.4,2-2.2,1
			c1.8,1.9,1.8,1.8,1.1,3.2c-0.1,0.2,0,0.5,0.2,0.6c0.6,0.6,0.5,0.9-0.1,1.1c-0.1-0.1-0.2-0.2-0.3-0.4c-0.3-0.5-0.4-1-0.5-1.6
			c-0.2-0.6-0.3-1.2-0.5-1.8c-0.1-0.3-0.4-0.6-0.7-0.5c-0.2,0.1-0.4,0.4-0.4,0.5c0.4,1.8-0.8,3.3-0.6,5.1c0.1,0.8,0.6,2.8-1.5,2.8
			c-0.1,0.8,1,0.8,0.8,1.6c-0.4,0.4-1.2-0.1-1.5,0.8c-0.4,0.3,2.1,0.4,0.3,1.1c-0.6,0.2-0.2,0.6,0.1,0.9c0,0.1,0.1,0.1,0.2,0.2
			c-0.3,0-0.6,0.1-0.8,0.1c-0.4-0.9-0.4-2-0.6-3c-0.3-1.2-0.2-2.5-1.1-3.5c-0.4-0.4-1-0.8-1-0.1c0,1.4-0.8,2.5-0.7,4
			c-0.2,0-0.5,0-0.7,0.1c-0.1,0-0.2-0.1-0.3-0.2c-0.4-1.3-1.1-0.7-1.9-0.3c-0.4,0.2-0.9,0.4-1.2,0c-0.4-0.5,0.2-0.7,0.4-1
			c0.3-0.4,0.7-1.4,0-1.2c-2.1,0.7-2.2-0.9-2.6-2c-0.1-0.2-0.1-0.5-0.4-0.6c-0.4-0.1-0.6,0.2-0.6,0.5c-0.1,1.5-2,2.8-0.4,4.6
			c-1.3-1.1-3-0.8-4.4-1.8c0.3,1.7,0.7,3.1,1.5,4.5c-0.1,0-0.2,0.1-0.2,0.3c-0.1,0.8-0.4,1.3-1,1.6c-0.1,0-0.3,0-0.4,0.1
			c-0.2,0-0.4-0.1-0.6-0.2c0.1-0.4,0.2-0.9,0.2-1.3c0-0.9-1.1-1-1.8-1.3c-0.9-0.5-1.4,1-2.4,0.7c0.2-1.2,1-1.8,1.8-2.5
			c1.3-1,1.8-2.2,0.7-3.8c-0.8-1.1-1.8,0.2-2.7-0.4c1.7-1.6,2.1-3-0.4-4.1c-1-0.4-0.8-1.5-0.9-2.3c0-0.7,0.3-1.8-0.7-1.8
			c-0.9-0.1-1.5,0.8-1.5,1.8c-0.1,0.8,0.3,2-0.6,2.4c-2.4,0.9-2.1,2.3-0.7,4c-1,0.5-2.5-0.3-2.8,1c-0.4,1.3,0.2,2.5,1.2,3.3
			c0.5,0.4,0.9,0.8,0.6,1.5c-0.3,0.6-0.8,0.5-1.3,0.4c-1.6-0.1-1.7,0.7-1.4,2.1c0,0.2,0.1,0.3,0.1,0.5c-0.6,0.2-1.2,0.5-1.7,0.7
			c-0.5,0.2-1.1,0.6-1.5-0.1c-0.3-0.6,0.4-0.8,0.7-1.2c0.7-0.8,1.6-4.7,1-5c-1.1-0.7-1.1-1.6-0.9-2.6c-0.8,0.1-1.6,1-1.9-0.4
			c-0.3-1.4-1.3,0.6-1.8-0.3c-0.2-0.6,0.7-1.8,0.3-1.8c-1.9,0.2-1.2-1.8-2.3-2.5c-0.4,1.6-1.1,2.9-0.6,4.5c-0.7-0.8-1.7-0.9-2.8-1.3
			c0.5,0.9,0.4,1.6,0.9,2.1c0.1,0.1,0.2,0.2,0.4,0.3c-2.4,0.8,0.5,1.3,0.2,2.2c-0.2,0.4,0.6,1.1,0.6,1.9c-1.3,0.1-2.6-1.2-3.9,0.1
			c0.4,0.5,0.9,0.9,1.1,1.5c0.2,0.8,0.9,0.7,1.4,1.1c0.3,0.2,0.4,0.5,0.2,0.8c-0.1,0.1-0.4,0.3-0.4,0.3c-0.6-0.9-1.8-0.2-2.4-0.7
			c-0.8-0.5-1.3-2.2-1.3-2.4c0.5-2,0-2.9-2.1-2.6c-0.1-0.8,0.9-1.5,0.3-1.8c-2-1-1.8-2.9-2.2-4.5c-0.3-1.1-0.8-2.2-1.2-3.3
			c-0.1-0.2-0.4-0.4-0.6-0.4c-0.3,0-0.5,0.3-0.4,0.5c0.3,1.6-0.4,3-0.4,4.6c0,1.2,1,3.2-1.5,3.3c0.1,0.8,1.1,0.8,0.9,1.4
			c-0.5,0.8-1.4-0.1-1.7,0.6c0,0.7,1.2,0.8,0.9,1c-0.3,0.2-0.5,0.4-0.6,0.6c-0.2-0.2-0.4-0.4-0.6-0.5c-0.1,0-0.5,0.3-0.4,0.5
			c0.2,0.7,0,1.2-0.2,1.8c-0.1,0.1-0.2,0.2-0.3,0.3c0,0.1,0.1,0.1,0.1,0.1c-0.2,0.5-0.4,1-0.3,1.5c0,0,0,0,0,0c0,0-0.1,0.1-0.1,0.1
			c0,0,0.1,0.1,0.1,0.1c0,1.3-0.5,1.6-2,0.8c-0.2-1-0.9-1.8-1-2.9c-0.2-1.3-0.8-2.6-1.3-3.9c-0.1-0.2-0.3-0.4-0.5-0.4
			c-0.1,0-0.5,0.3-0.5,0.5c0.2,1.6-0.9,3-0.7,4.7c0.1,1.2,0.6,3-1.5,3.3c-0.1,0.7,1.3,0.7,0.5,1.4c-0.5,0.4-1.1-0.1-1.4-0.6
			c-0.3-0.5-0.4-1-0.5-1.6c-0.2-0.6-0.3-1.2-0.5-1.8c-0.1-0.3-0.4-0.6-0.7-0.5c-0.2,0.1-0.4,0.4-0.4,0.5c0.4,1.8-0.8,3.3-0.6,5.1
			c0.1,0.8,0.6,2.8-1.5,2.8c-0.1,0.5,0.3,0.7,0.6,0.9c-1.6,0.4-3.3,0.7-4.9,1.1c-0.3,0-0.6,0-0.9,0.1c-0.1,0-0.2-0.1-0.3-0.2
			c-0.4-1.3-1.1-0.7-1.9-0.3c-0.4,0.2-0.9,0.4-1.2,0c-0.4-0.5,0.2-0.7,0.4-1c0.3-0.4,0.7-1.4,0-1.2c-2.1,0.7-2.2-0.9-2.6-2
			c-0.1-0.2-0.1-0.5-0.4-0.6c-0.4-0.1-0.6,0.2-0.6,0.5c-0.1,1.5-2,2.8-0.4,4.6c-1.3-1.1-3-0.8-4.4-1.8c0.3,1.6,0.7,3.1,1.5,4.4
			c-1,0.2-1.9,0.5-2.9,0.7c0,0,0,0-0.1,0c-0.2-0.1-0.3,0-0.4,0.2c-1.3,0.3-2.6,0.7-4,1.1c-0.3-0.5-0.6-1.1-0.6-1.8
			c0-1.3-0.3-2.8-1.2-4c-0.2-0.2-0.5-0.5-0.7-0.5c-0.4-0.1-0.6,0.4-0.5,0.6c0,0.1,0,0.1,0,0.2c-0.7,0.2-1.4,0.8-1.7-0.4
			c-0.3-1.4-1.3,0.6-1.8-0.3c-0.2-0.6,0.7-1.8,0.3-1.8c-1.9,0.2-1.2-1.8-2.3-2.5c-0.4,1.6-1.1,2.9-0.6,4.5c-0.7-0.8-1.7-0.9-2.8-1.3
			c0.5,0.9,0.4,1.6,0.9,2.1c0.1,0.1,0.2,0.2,0.4,0.3c-2.4,0.8,0.5,1.3,0.2,2.2c-0.2,0.4,0.6,1.1,0.6,1.9c-1.3,0.1-2.6-1.2-3.9,0.1
			c0.4,0.5,0.9,0.9,1.1,1.5c0.2,0.8,0.9,0.7,1.4,1.1c0.3,0.2,0.4,0.5,0.2,0.8c-0.1,0.1-0.4,0.3-0.4,0.3c-0.6-0.9-1.8-0.2-2.4-0.7
			c-0.8-0.5-1.3-2.2-1.3-2.4c0.5-2,0-2.9-2.1-2.6c-0.1-0.8,0.9-1.5,0.3-1.8c-2-1-1.8-2.9-2.2-4.5c-0.3-1.1-0.8-2.2-1.2-3.3
			c-0.1-0.2-0.4-0.4-0.6-0.4c-0.3,0-0.5,0.3-0.4,0.5c0.3,1.6-0.4,3-0.4,4.6c0,1.2,1,3.2-1.5,3.3c0.1,0.8,1.1,0.8,0.9,1.4
			c-0.5,0.8-1.4-0.1-1.7,0.6c0,0.7,1.2,0.8,0.9,1c-1.4,0.9-0.1,1.5,0.2,2.2c-0.8,0.4-1.8-0.4-2.4,0.6c0.3,0.6,1.2,0.5,1.2,1.4
			c-0.5,0.3-1.1-0.4-1.6,0.4c0.3,0.5,1.2,1,0.7,1.6c-0.4,0.5-1.3,0.1-2,0.1c-0.3,0-0.6,0.1-0.6-0.4c0-1.2-0.9-2.1-1.1-3.3
			c-0.2-1.3-0.8-2.6-1.3-3.9c-0.1-0.2-0.3-0.4-0.5-0.4c-0.1,0-0.5,0.3-0.5,0.5c0.2,1.6-0.9,3-0.7,4.7c0.1,1.2,0.6,3-1.5,3.3
			c-0.1,0.7,1.3,0.7,0.5,1.4c-0.5,0.4-1.1-0.1-1.4-0.6c-0.3-0.5-0.4-1-0.5-1.6c-0.2-0.6-0.3-1.2-0.5-1.8c-0.1-0.3-0.4-0.6-0.7-0.5
			c-0.2,0.1-0.4,0.4-0.4,0.5c0.4,1.8-0.8,3.3-0.6,5.1c0.1,0.8,0.6,2.8-1.5,2.8c-0.1,0.5,0.4,0.7,0.6,1c-1.3,0.5-2.7,0.9-4,1.4
			c-0.4-0.4-1-0.5-1.9-0.2c-0.1,0-0.2-0.1-0.3-0.2c-0.4-1.3-1.1-0.7-1.9-0.3c-0.4,0.2-0.9,0.4-1.2,0c-0.4-0.5,0.2-0.7,0.4-1
			c0.3-0.4,0.7-1.4,0-1.2c-2.1,0.7-2.2-0.9-2.6-2c-0.1-0.2-0.1-0.5-0.4-0.6c-0.4-0.1-0.6,0.2-0.6,0.5c-0.1,1.5-2,2.8-0.4,4.6
			c-1.3-1.1-3-0.8-4.4-1.8c0.4,2.2,1,4.1,2.4,5.8c0.1,0.1,0.2,0.2,0.4,0.3c-0.5,0.2-1,0.4-1.6,0.6c-0.6-0.2-1.4,0-2-0.3
			c-0.5-0.3-1,0-1.3,0.4c-0.4,0.6,0.1,0.7,0.4,1.1c-0.7,0.3-1.4,0.5-2.1,0.8c-0.2-0.1-0.4-0.1-0.6-0.1c-0.3,0-0.8,0.2-0.8-0.2
			c0.2-1.5-1.3-2.3-1.3-3.8c0-1.3-0.3-2.8-1.2-4c-0.2-0.2-0.5-0.5-0.7-0.5c-0.4-0.1-0.6,0.4-0.5,0.6c0.2,0.8-0.1,1.5-0.4,2.2
			c0.8,2.1,1.5,4.2,1.9,6.4c-1.2-0.6-2.3,0.1-3.5-0.1c0.4-0.6,0.6-1.2,0.9-1.6c0.6-0.7,1-1.3-0.4-1.3c-0.7,0-0.8-0.4-0.5-0.8
			c0.7-0.9-0.1-1.3-0.6-1.8c-0.4-0.4-0.6-1-0.9-1.5c-0.9-1.8-0.7-4-2.1-5.8c-0.3,2-0.8,3.8-1.5,5.6c0,0.1,0.1,0.2,0.2,0.3
			c1.4,1.3-0.2,1.4-0.8,1.9c1.6,2.1,1.6,2.1-0.8,2.6c-0.1,0.4,0.2,0.6,0.4,0.7c0.3,0.2,0.9,0.3,0.7,0.9c-0.2,0.6-0.8,0.5-1.3,0.5
			c-0.5-0.1-1.1,0-1.4-0.3c-1.9-2-1.4-0.1-1.5,0.9c-0.1,0.4-0.2,0.9-0.3,1.3c-0.4,1.2-0.8,2.3-0.2,3.7c0.1,0.3,0.2,0.6,0.2,1
			c-1.5,0.6-3,1.3-4.5,1.9c-0.2-0.1-0.4-0.3-0.4-0.9c0-1.4-1.4,0.2-1.6-0.8c0-0.7,1.1-1.6,0.8-1.6c-1.9-0.3-0.7-2.1-1.6-3
			c-0.8,1.4-1.8,2.5-1.7,4.2c-0.5-1-1.4-1.3-2.3-2c0.2,1-0.1,1.7,0.3,2.3c0.1,0.1,0.2,0.3,0.3,0.4c-2.6,0.2,0.1,1.4-0.4,2.1
			c-0.3,0.3,0.3,1.2,0.1,2c-1.3-0.3-2.2-1.8-3.8-1c0.2,0.6,0.7,1.1,0.7,1.7c0,0.2,0.1,0.4,0.1,0.5c-0.5,0.2-1,0.5-1.6,0.7
			c0,0-0.1-0.1-0.1-0.1c-0.6-0.7-0.7-2.5-0.6-2.6c1-1.8,0.7-2.8-1.4-3.1c0.1-0.8,1.2-1.2,0.8-1.6c-1.7-1.5-1-3.2-1-4.9
			c0-1.2-0.2-2.3-0.3-3.5c0-0.2-0.2-0.4-0.4-0.5c-0.3-0.1-0.5,0.1-0.5,0.4c-0.1,1.6-1.2,2.8-1.6,4.3c-0.3,1.1,0.2,3.4-2.3,2.8
			c-0.1,0.8,0.9,1.1,0.5,1.6c-0.7,0.6-1.3-0.5-1.7,0.1c-0.2,0.7,1,1.1,0.6,1.2c-1.6,0.5-0.5,1.4-0.3,2.1c-0.9,0.2-1.6-0.9-2.4-0.1
			c0.1,0.6,1.1,0.8,0.8,1.6c-0.5,0.1-1-0.7-1.6,0c0.2,0.5,0.9,1.3,0.3,1.7c-0.5,0.4-1.3-0.2-1.9-0.4c-0.3-0.1-0.6-0.1-0.5-0.6
			c0.3-1.1-0.3-2.2-0.2-3.4c0.2-1.3-0.1-2.8-0.3-4.1c0-0.2-0.2-0.5-0.4-0.6c-0.1,0-0.5,0.2-0.6,0.3c-0.2,1.6-1.6,2.7-1.9,4.3
			c-0.2,1.2-0.2,3.1-2.2,2.8c-0.3,0.6,1.1,1,0.1,1.5c-0.6,0.3-1-0.4-1.2-0.9c-0.1-0.5-0.1-1.1-0.1-1.7c0-0.6,0-1.2-0.1-1.8
			c0-0.3-0.2-0.6-0.6-0.6c-0.2,0-0.5,0.3-0.5,0.4c-0.1,1.8-1.7,3-1.9,4.8c-0.1,0.8-0.1,2.9-2.2,2.3c-0.3,0.8,0.8,1.1,0.4,1.7
			c-0.5,0.3-1.1-0.4-1.7,0.4c-0.5,0.2,1.9,0.9,0,1.1c-0.6,0.1-0.3,0.5-0.1,0.8c0.2,0.3,0.5,0.7-0.1,0.9c-0.4,0.2-0.6-0.3-0.9-0.5
			c-1.4-1-0.5-3.9-3.2-3.7c-0.1,0-0.2-0.2-0.2-0.3c-0.1-1.4-0.9-1-1.7-0.8c-0.4,0.1-1,0.1-1.2-0.3c-0.3-0.6,0.4-0.6,0.7-0.9
			c0.4-0.3,1.1-1.2,0.3-1.1c-2.2,0.1-1.9-1.4-2-2.6c0-0.2,0.1-0.5-0.2-0.6c-0.4-0.1-0.7,0.1-0.8,0.4c-0.5,1.4-2.6,2.2-1.6,4.3
			c-1-1.5-2.7-1.5-3.8-2.8c-0.2,2.3-0.1,4.3,0.8,6.2c0.1,0.3,0.9,0.6,0.4,1c-0.3,0.3-1,0.4-1.4-0.1c-0.5-0.8-1.6-0.6-2.2-1.2
			c-0.2-0.2-0.5-0.3-0.7-0.2c-0.1-0.1-0.1-0.1-0.2-0.2c-0.3-0.1-0.5,0.1-0.5,0.4c0,0.1,0,0.1,0,0.2c-0.2,0.2-0.2,0.3-0.1,0.5
			c-0.2,1-0.8,1.9-1.2,2.9c-0.3,0-0.5-0.1-0.7-0.2c-0.2,1.3-0.4,2.5-0.6,3.8c-0.3,0.1-0.7,0.1-1.3,0c-0.1,0.8,0.9,1.1,0.5,1.6
			c-0.7,0.6-1.3-0.5-1.7,0.1c-0.2,0.7,1,1.1,0.6,1.2c-1.6,0.5-0.5,1.4-0.3,2.1c-0.9,0.2-1.6-0.9-2.4-0.1c0.1,0.6,1.1,0.8,0.8,1.6
			c-0.5,0.1-1-0.7-1.6,0c0.2,0.5,0.9,1.3,0.3,1.7c-0.5,0.4-1.3-0.2-1.9-0.4c-0.3-0.1-0.6-0.1-0.5-0.6c0.3-1.1-0.3-2.2-0.2-3.4
			c0.2-1.3-0.1-2.8-0.3-4.1c0-0.2-0.2-0.5-0.4-0.6c-0.1,0-0.5,0.2-0.6,0.3c-0.2,1.6-1.6,2.7-1.9,4.3c-0.2,1.2-0.2,3.1-2.2,2.8
			c-0.3,0.6,1.1,1,0.1,1.5c-0.6,0.3-1-0.4-1.2-0.9c-0.1-0.5-0.1-1.1-0.1-1.7c0-0.6,0-1.2-0.1-1.8c0-0.3-0.2-0.6-0.6-0.6
			c-0.2,0-0.5,0.3-0.5,0.4c-0.1,1.8-1.7,3-1.9,4.8c-0.1,0.8-0.1,2.9-2.2,2.3c-0.3,0.8,0.8,1.1,0.4,1.7c-0.5,0.3-1.1-0.4-1.7,0.4
			c-0.5,0.2,1.9,0.9,0,1.1c-0.6,0.1-0.3,0.5-0.1,0.8c0.2,0.3,0.5,0.7-0.1,0.9c-0.4,0.2-0.6-0.3-0.9-0.5c-1.4-1-0.5-3.9-3.2-3.7
			c-0.1,0-0.2-0.2-0.2-0.3c-0.1-1.4-0.9-1-1.7-0.8c-0.4,0.1-1,0.1-1.2-0.3c-0.3-0.6,0.4-0.6,0.7-0.9c0.4-0.3,1.1-1.2,0.3-1.1
			c-2.2,0.1-1.9-1.4-2-2.6c0-0.2,0.1-0.5-0.2-0.6c-0.4-0.1-0.7,0.1-0.8,0.4c-0.5,1.4-2.6,2.2-1.6,4.3c-1-1.5-2.7-1.5-3.8-2.8
			c-0.2,2.3-0.1,4.3,0.8,6.2c0.1,0.3,0.9,0.6,0.4,1c-0.3,0.3-1,0.4-1.4-0.1c-0.5-0.8-1.6-0.6-2.2-1.2c-0.4-0.4-1-0.3-1.4,0.1
			c-0.6,0.5,0,0.8,0.2,1.2c0.3,1.1,1.2,1.7,2,2.6c-0.8,0.3-1.6,0.4-2.1,0c-0.5-0.3-1.6-0.2-2.1-0.6c-1,7.6-3.3,15.1-7.6,21.4
			c-0.1,0.2-0.3,0.4-0.5,0.6c-1.2,0.6-2.4,1.3-3.7,1.9C888.3,858.6,732,939.7,575,1020h1345.4V388.3z M1101.9,734.6
			c0-0.1,0-0.3,0-0.4c0-0.2,0-0.5,0-0.7c0.3,0.3,0.6,0.6,0.9,0.9C1102.5,734.5,1102.2,734.6,1101.9,734.6z M1175.1,715
			c0-0.2,0.1-0.4,0.3-0.6c0,0.1,0,0.2,0.1,0.3c0,0.1,0,0.1,0,0.2C1175.3,714.9,1175.2,715,1175.1,715z M1235.3,694.7
			c0-0.1,0-0.1,0.1-0.2c0,0.1,0,0.1,0,0.2C1235.4,694.7,1235.4,694.7,1235.3,694.7z M1271.4,681.9c-0.3,0-0.6,0.1-0.6-0.4
			c0-0.1,0-0.2,0-0.2C1271,681.5,1271.2,681.7,1271.4,681.9C1271.4,681.9,1271.4,681.9,1271.4,681.9z M1275.3,677.8
			c0-0.1,0-0.1,0-0.2C1275.3,677.7,1275.3,677.8,1275.3,677.8C1275.3,677.8,1275.3,677.8,1275.3,677.8z M1296.6,681.9
			c0.5-0.5,0.9-1,1.6-1.2c0.1,0,0.1-0.1,0.2-0.1c0.3,0.3,0.7,0.6,1,0.9C1298.5,681.6,1297.5,681.7,1296.6,681.9z M1313.8,679.4
			c0-0.1-0.1-0.1-0.1-0.2c0.1,0.1,0.2,0.1,0.3,0.2C1313.9,679.3,1313.9,679.3,1313.8,679.4z M1386.5,670.6c-0.9,0-1.7,0.1-2.6,0.3
			c-0.1,0-0.1,0-0.2,0.1c0.4-0.8,0.9-1.6,1.2-2.5c0.3,0.2,1,0.2,1.3,0.4c0.9,0.5,1.8,0.9,3.3,0.5
			C1388.2,670.2,1387.4,670.5,1386.5,670.6z M1396.9,665.2c0.2-0.2,0.4-0.3,0.7-0.4c0,0.2,0,0.3,0,0.4
			C1397.3,665.3,1397.1,665.3,1396.9,665.2z M1407.6,653.4c-0.1-0.1-0.2-0.2-0.3-0.2c0.1-0.1,0.2-0.3,0.3-0.4c0,0.2,0.1,0.4,0.1,0.7
			C1407.7,653.4,1407.6,653.4,1407.6,653.4z M1460.4,625.1c0-0.1,0-0.2,0-0.3C1460.4,624.9,1460.4,625,1460.4,625.1
			C1460.4,625.1,1460.4,625.1,1460.4,625.1z M1464.9,625.9c-0.3-1.4-1.3,0.6-1.8-0.3c-0.1-0.4,0.2-1.1,0.4-1.5
			c0.2,0.2,0.4,0.3,0.5,0.5c0.5,0.9,1.4,1.3,2.3,1.8C1465.7,626.7,1465.2,627,1464.9,625.9z M1702.1,512.4c-0.4,0.2-0.9,0.4-1.2,0
			c-0.3-0.5,0.1-0.7,0.4-0.9c0.3,0.3,0.7,0.5,1.1,0.7C1702.4,512.3,1702.3,512.4,1702.1,512.4z M1725,501.3
			C1725,501.3,1725,501.3,1725,501.3c-0.6-0.3-0.9-0.6-0.2-1.1c0,0,0.1-0.1,0.1-0.1c0.3,0.1,0.7,0.1,0.7,0.4
			C1725.7,500.9,1725.3,501.1,1725,501.3z M1726.7,506.3c0.1-0.1,0.3-0.2,0.4-0.3c0.1,0.1,0.1,0.1,0.2,0.2
			C1727.1,506.3,1726.9,506.3,1726.7,506.3z M1730.5,500.9c0.5-0.7,1.2-0.8,1.7-0.9c0.1,0.2,0.1,0.4,0.2,0.6
			C1731.9,500.4,1731.3,500.7,1730.5,500.9z M1735.1,504c-0.3-0.4-0.7-0.5-1.1-0.6c0.2-0.2,0.5-0.3,0.8-0.4c0.1-0.1,0.1-0.1,0.2-0.2
			c0.3,0.2,0.4,0.5,0.5,1C1735.3,503.8,1735.2,503.9,1735.1,504z M1745.9,489.1C1745.9,489.1,1746,489.1,1745.9,489.1
			c-0.1,0.4,0.1,0.6,0.6,0.5c0.4-0.1,0.5,0.1,0.4,0.5c-0.1,0.3-0.3,0.7,0,0.9c0.3,0.2,0.7,0,1.1-0.2c0.1-0.1,0.2-0.2,0.3-0.2
			c0.7-0.5,1.5-0.2,2.1,0.2c0.6,0.3,0,1,0,1.6c0,0.7-0.7,0.6-1.2,0.6c-0.7,0-1.3,0.1-2,0c0.1-0.5,0.6-0.5,1-0.8
			c0.4-0.3,0.8-0.6,0.5-1.1c-0.3-0.6-0.7-0.1-1,0c-0.4,0.2-0.9,0.3-1-0.2c-0.4-1.6-1.5-1-2.6-0.7
			C1744.5,489.3,1745.3,489.3,1745.9,489.1z M1745.3,499.6c0.1-0.1,0.2-0.2,0.3-0.3c-0.1-0.3-0.1-0.6-0.2-0.8c0-0.1,0-0.1,0-0.2
			c0.7-0.2,1.3-0.3,2-0.3c0,0.3-0.1,0.8,0.3,0.9c0.5,0.1,1.1,0.1,1.6-0.3c0.3-0.3,0.1-1,0.8-1c0.6,0,0.7,0.5,0.9,0.8
			c-0.4-0.4-0.9-0.1-1.2,0.1C1748.2,499.3,1746.8,499.5,1745.3,499.6z M1750.1,499.6c0.1-0.1,0.1-0.1,0.2-0.2c0.3-0.3,0.9-0.5,0.6-1
			c0,0,0.1,0.1,0.1,0.1c0.1,0,0.1,0.1,0.2,0.1c0.3,0.1,0.4,0.3,0.4,0.5C1751.1,499.2,1750.6,499.4,1750.1,499.6z M1763.4,491.4
			c-0.1-0.2-0.2-0.5-0.5-0.3c-0.3,0.1-0.1,0.4-0.1,0.6c-0.2-0.1-0.3-0.2-0.5-0.3c-0.4-0.3-0.7,0.3-1,0.3c-0.4,0.1-0.8,0.2-0.9-0.4
			c-0.1-0.5,0-1.1,0.5-1.1c0.5,0,0.6-0.1,0.7-0.6c0-0.4,0.3-0.4,0.5-0.1c0.4,0.6,1,0.6,1.6,0.7c0.2,0.3,0.5,0.5,0.7,0.7
			c0.6,0.4,1.3,0.6,1.6,1.4C1765,492.5,1764,492.4,1763.4,491.4z M1774.8,487c0.1,0.1,0.1,0.2,0.2,0.2c0,0,0,0-0.1,0
			C1774.8,487.2,1774.8,487.1,1774.8,487z M1774.9,488.2c0,0,0.1-0.1,0.1-0.1c0.1-0.1,0.2-0.2,0.3-0.3c0,0,0,0,0,0.1
			C1775.2,488,1775.1,488.1,1774.9,488.2z M1781.3,483.3c-0.3-0.3,0.1-0.5,0.3-0.7c0.1-0.1,0.2-0.2,0.3-0.3c0,0.3,0.1,0.6,0.2,0.9
			C1781.9,483.2,1781.6,483.6,1781.3,483.3z M1784.9,480.6c0,0.2-0.2,0.4-0.4,0.4c-0.3,0.1-0.6,0-0.8-0.3c0,0-0.1-0.1-0.1-0.1
			c0.1-0.1,0.1-0.2,0-0.4c-0.2-0.3-0.6-0.6-0.9-0.4c-0.6,0.3-1.2,0.1-1.8,0.4c0.7-0.3,0.9-1.1,1.6-1.4c0,0,0,0,0,0
			c0.1,0.1,0.2,0.2,0.3,0.3c0.6,0.4,1,0.9,1.7,1C1784.8,480.2,1785,480.3,1784.9,480.6z M1789.5,471.8c0-0.4,0.2-0.5,0.5-0.7
			c0.1,0,0.1-0.1,0.2-0.2c0,0.1,0,0.1,0,0.1c0.1,0.1,0.2,0.3,0.3,0.4c0,0-0.1,0-0.1,0.1C1790.1,471.7,1789.8,471.9,1789.5,471.8z
			 M1790.6,472c0,0.2,0.1,0.5,0.1,0.7c-0.2,0-0.4,0.2-0.6,0.3C1790.5,472.6,1790.5,472.2,1790.6,472z M1791.8,476.3
			c-0.4,0-0.9-0.1-0.7,0.6c-0.2,0.1-0.3,0.3-0.5,0.4c0.1-0.5,0.4-1,0.6-1.5c0.3,0.1,0.5,0.2,0.8,0.3
			C1792,476.1,1791.9,476.2,1791.8,476.3z M1793.3,475c-0.5-1.1-1.4-1-2.2-1.1c0,0,0,0,0,0c0.3-0.3,0.4-0.3,0.2-0.4
			c0.1,0,0.2,0.1,0.4,0C1792.9,473.1,1793.2,473.8,1793.3,475C1793.3,475,1793.3,475,1793.3,475z M1803.8,464.1
			c-0.6,0.4-1.1,0.6-1.6,0.6c0.1,0,0.2-0.1,0.3-0.2c0.3-0.2,0.6-0.5,0.4-0.9c-0.3-0.4-0.6-0.1-0.8,0.1c-0.3,0.2-0.7,0.3-0.8-0.1
			c-0.4-1.2-1.2-0.7-2.1-0.4c0.4-0.7,1.1-0.7,1.6-0.9c0.2-0.1,0.3-0.2,0.5-0.4c0.1,0.1,0.1,0.1,0.2,0.2
			C1801.8,463,1802.9,463.4,1803.8,464.1C1803.8,464,1803.8,464,1803.8,464.1z M1817.5,446.2c-0.1,0.1-0.3,0.1-0.5-0.1
			c-0.3-0.3,0.1-0.5,0.3-0.7c0.2-0.3,0.6-0.4,0.9-0.6c0.1,0.1,0.1,0.2,0.2,0.2C1818.1,445.4,1817.8,445.8,1817.5,446.2z
			 M1818.4,442.7c-0.6,0.3-1.2,0.1-1.8,0.4c0.7-0.3,0.9-1.1,1.6-1.4c0.2-0.1,0.3-0.3,0.4-0.5c0,0,0,0,0,0c0.5,0.5,0.5,1.2,0.6,1.8
			c0,0,0,0,0,0C1819.1,442.7,1818.7,442.5,1818.4,442.7z M1819.3,443.9c-0.1,0-0.1,0-0.2-0.1c0-0.1,0-0.1,0.1-0.2
			c0-0.2,0.2-0.3,0.2-0.5c0.1,0.1,0.1,0.1,0.2,0.2C1819.6,443.6,1819.4,443.8,1819.3,443.9z M1827.5,433.2c0.1-0.2,0.3-0.3,0.4-0.4
			c0,0.1,0,0.2,0.1,0.3C1827.9,433.1,1827.7,433.2,1827.5,433.2z M1829.8,431.5c0.1-0.2,0.1-0.4,0.1-0.7c0-0.6-0.7-0.4-1-0.6
			c-0.7-0.4-1.3,0.4-2,0.3c0.3-0.7,1.1-0.9,1.5-1.5c0,0,0,0,0,0c0.6,1,1.6,1.3,2.6,2C1830.6,431.2,1830.2,431.4,1829.8,431.5z"/>
	</g>
</g>
</svg>
