<?xml version="1.0" encoding="utf-8"?>
<!-- Generator: Adobe Illustrator 19.2.1, SVG Export Plug-In . SVG Version: 6.00 Build 0)  -->
<!DOCTYPE svg PUBLIC "-//W3C//DTD SVG 1.1//EN" "http://www.w3.org/Graphics/SVG/1.1/DTD/svg11.dtd">
<svg version="1.1" id="Layer_1" xmlns="http://www.w3.org/2000/svg" xmlns:xlink="http://www.w3.org/1999/xlink" x="0px" y="0px"
	 viewBox="0 0 1920 1020" style="enable-background:new 0 0 1920 1020;" xml:space="preserve">
<style type="text/css">
	.st0{fill:none;}
	.st1{fill:#C23E2F;}
</style>
<g>
	<path class="st0" d="M981,730.7c1,0,2,0,3,0c-1-0.5-2-1-3-1.3C981,729.8,981,730.2,981,730.7z"/>
	<path class="st0" d="M981.5,718.4c0,0.2,0,0.4,0,0.5c0.4,0.1,0.8,0.3,1.2,0.4C982.3,718.8,981.9,718.5,981.5,718.4z"/>
	<path class="st0" d="M982.1,713.6c-0.1,0.4-0.1,0.7-0.2,1.1c0.6,0.2,1.1,0.6,1.8,0.5C983.4,714.4,982.7,714.1,982.1,713.6z"/>
	<path class="st0" d="M965.4,740.7c0.1-0.3,0.2-0.5,0.3-0.8c-0.4,0-0.8,0-1.1,0.1C964.8,740.3,965.1,740.5,965.4,740.7z"/>
	<path class="st0" d="M982.8,709.9c0,0.1,0,0.2-0.1,0.3c0.1,0,0.1,0,0.2-0.1C982.9,710,982.8,710,982.8,709.9z"/>
	<path class="st0" d="M777.1,656.7c-0.6,0-0.7,0.6-1,0.9c0.7,0.1,1.4,0.2,2.1,0.3c-0.1,0-0.1-0.1-0.2-0.1
		C777.6,657.5,777.8,656.7,777.1,656.7z"/>
	<path class="st0" d="M787.9,657.5c-1.6-0.2-2.3-1.6-3.5-2.3c0,0,0,0,0,0c0.3,0.5,0.5,1,0.8,1.4c0.1,0.2,0.2,0.6-0.1,0.8
		c-0.3,0.2-0.7,0.2-0.8-0.1c-0.4-0.8-1.1-0.6-1.7-0.5c-0.4,0-0.9,0.3-1.2-0.3c-0.3-0.5-0.7-0.8-1.2-0.6c-0.6,0.2-0.1,0.7-0.2,1.1
		c-0.1,0.4,0.2,1-0.3,1.1c0,0,0,0,0,0c2.5,0.3,4.9,0.6,7.4,1c0.1,0,0.1,0,0.2,0c1-0.1,1.9-0.5,2.6-1.9
		C789,657.7,788.5,657.6,787.9,657.5z"/>
	<path class="st0" d="M986.2,726.1c1.8,0.4,3.2,0.4,4.4-0.8c0.1-0.1,0.3-0.2,0.5-0.2c0.1-0.6,0.2-1.2,0.6-1.7
		c-0.3,0.2-0.6,0.3-0.9,0.4C989.1,724.1,987.5,724.6,986.2,726.1z"/>
	<path class="st0" d="M797,654.1C796.9,654.1,796.9,654.1,797,654.1c0.1,0.2,0.3,0.4,0.5,0.7c0.5,0,1.1,0.2,1.8,0.4
		C798.5,654.3,797.7,654.3,797,654.1z"/>
	<path class="st0" d="M823.9,661.1c0.1,0.8,0.5,1.2,1.3,1.3c0.6,0.1,1.2,0.1,1.8,0.1c0-1.1,0.1-2.2,0.2-3.4
		c-0.6,0.4-1.3,0.7-2.1,0.7C824.4,659.8,823.8,660.2,823.9,661.1z"/>
	<path class="st0" d="M794.2,657.7c0.5,0.3,0.9,0.5,1.3,0.7c0.1-0.1,0.2-0.1,0.3-0.2c0-0.2-0.1-0.3-0.2-0.4
		C795.2,657.9,794.7,657.9,794.2,657.7z"/>
	<path class="st0" d="M1212,789.1c0.1-0.3,0.1-0.6,0.2-0.9c0-0.1,0-0.2,0.1-0.3c-0.5,0.4-1.1,0.8-1.4,1.4c-0.2,0.4-1.2,0.5-0.5,1.3
		c0.3,0.3,0.7,0.6,1,0.6c0,0,0,0,0,0c1.1-0.1,0.9-0.8,0.9-1.5C1212.3,789.4,1212.2,789.2,1212,789.1z"/>
	<path class="st0" d="M1438.7,844.3c-0.7-0.4-1.2-1.2-1.4-2.1c-0.5,0.4-1.1,0.8-1.8,1c-1.3,0.3-2.7,0.8-3.9,1.6c1,0.3,1.9,0.7,2.9,1
		c0.3-0.2,0.6-0.4,0.9-0.7c0.8-0.8,2.7-0.3,2.6,0.5c-0.1,0.6,0,0.9,0.1,1.1c0.1,0,0.2,0.1,0.3,0.1c0,0,0,0,0.1,0
		c0.2,0,0.5-0.1,0.9-0.3c0.5-0.2,1.1-0.5,1.3,0.3c0.1,0.2,0.1,0.3,0.1,0.5c0.7,0,1.3,0.1,2,0.4
		C1440.9,847,1440.3,845.1,1438.7,844.3z"/>
	<path class="st0" d="M1569,892.9c-2-0.2-3.7-2.2-6-1.2c-0.1,0-0.2-0.1-0.4-0.2c-0.3-0.1-0.6,0-0.5,0.4c0,0,0,0.1,0,0.1
		c1.9,0.8,3.7,1.5,5.6,2.3c-0.1-0.1-0.3-0.1-0.4-0.2C1567.6,893.2,1568.8,893.7,1569,892.9z"/>
	<path class="st0" d="M1613.2,914.5c0.5,0.2,1,0.5,1.5,0.7C1614.7,914.2,1613.8,914.3,1613.2,914.5z"/>
	<path class="st0" d="M1568,894.4c0.7,0.3,1.5,0.6,2.2,0.9c0.7-0.1,1.4-0.2,1.9-0.8C1570.7,894.3,1569.3,894.8,1568,894.4z"/>
	<path class="st0" d="M1011.5,749.8c-0.6,0.1-1.1,0.6-1.4,1.6c0.1,0,0.3,0.1,0.4,0.1c0.6-0.4,1-0.1,1.2,0.3c0.4,0.1,0.8,0.1,1.1,0.1
		c-0.3-0.8-0.7-1.5-1-2.2C1011.8,749.7,1011.7,749.7,1011.5,749.8z"/>
	<path class="st0" d="M1336,822.5c-0.7-0.1-1.2-0.3-1.7-0.7c-0.6,0.8,0.3,1.9-0.2,2.7c0.3-0.1,0.7-0.1,1-0.2
		c1.2-0.1,2.2-0.7,3.1-2.3C1337.3,822.7,1336.7,822.5,1336,822.5z"/>
	<path class="st0" d="M1204.4,794.6c-0.1,0.5-0.1,0.9-0.2,1.4c0.5,0.1,1.1,0.2,1.6,0.3c0.1-0.4-0.4-0.7-0.7-1.1
		C1204.9,795,1204.7,794.8,1204.4,794.6z"/>
	<path class="st0" d="M1129.8,773c0.1,0.2,0.3,0.3,0.5,0.4c0.3,0.1,0.4-0.3,0.7-0.2c-0.1,0.2-0.2,0.5-0.1,0.7
		c0.3-0.7,0.5-1.3,0.9-1.9c-0.6,0.1-1.2,0.3-1.7,0.7C1130,772.7,1129.7,772.8,1129.8,773z"/>
	<path class="st0" d="M1205.2,789.3c0,0.2-0.1,0.4-0.1,0.6c0,0.1,0,0.2,0,0.2c0.5,0.1,1.1,0.1,1.6,0.4
		C1206.1,790.3,1205.6,789.8,1205.2,789.3z"/>
	<path class="st0" d="M747.3,647.7c-0.1,0-0.1-0.1-0.2-0.1c-0.1,0.5-0.3,1-0.5,1.4c0.1,0.1,0.1,0.2,0.2,0.3c0.5-1.5,1.6-0.9,2.7-0.6
		C748.9,647.9,748,648,747.3,647.7z"/>
	<path class="st0" d="M1332.6,821c0.3,0.1,0.5,0.1,0.8,0.1c-0.2-0.2-0.4-0.4-0.6-0.6C1332.7,820.7,1332.6,820.8,1332.6,821z"/>
	<path class="st0" d="M979.5,746.9c-0.1,0-0.2,0-0.3,0c-0.2,0.3,0.1,0.6,0.1,1c1,0.3,1.9,0.6,2.9,0.9
		C981.9,747.9,981,747.2,979.5,746.9z"/>
	<path class="st0" d="M460.8,593.9C460.8,593.9,460.8,593.9,460.8,593.9c0.1-0.1,0.1-0.1,0.1-0.1c-0.1,0-0.2,0-0.4-0.1
		C460.6,593.8,460.7,593.9,460.8,593.9z"/>
	<path class="st0" d="M454.7,597.1c0.3,0,0.5,0.1,0.6,0.2c0.1-0.1,0.2-0.1,0.3-0.2c-0.3,0-0.6-0.1-0.9-0.2
		C454.7,597,454.7,597,454.7,597.1z"/>
	<path class="st0" d="M466.8,607.2c-0.2,0-0.5,0-0.8-0.1c0,0,0,0,0,0c0.5,0.2,1.1,0.4,1.6,0.6C467.5,607.4,467.2,607.2,466.8,607.2z
		"/>
	<path class="st0" d="M455.6,593.6c-1-0.1-1.5-0.8-2.1-1.3c-0.5,1.3-0.4,2.2,0.3,2.7c0.2-0.1,0.4-0.1,0.6-0.2c0-0.2,0-0.3-0.1-0.6
		c-0.1-0.3,0.4-0.3,0.7-0.3c0,0.3,0,0.5,0,0.8c0.8-0.1,1.4-0.4,2-1.5C456.5,593.7,456.1,593.7,455.6,593.6z"/>
	<path class="st0" d="M466.2,603.6c-0.6,0-1.1-0.2-1.2-0.8c-0.6,0.2-1.1,0.4-1.7,0.5c-0.2,0.1-0.3,0.3-0.3,0.6
		c0.3,0.2,0.6,0.1,0.9,0c0.3-0.4,0.7-0.1,1,0.1c0,0,0.1,0,0.1,0.1c1.3,0.8,2.6,1,4.1,1c0-0.3,0.1-0.7,0.2-1.1
		C468.3,603.7,467.3,603.5,466.2,603.6z"/>
	<path class="st0" d="M465.5,605.8c-0.3-0.2-0.6-0.5-0.9-0.7c0,0.2,0,0.3,0,0.5c0.5,0.2,0.9,0.5,1.4,0.6c0,0,0,0,0,0
		C465.9,606.1,465.6,605.9,465.5,605.8z"/>
	<path class="st0" d="M367.8,577.7c-0.3,0-0.5,0-0.7-0.2c-0.2,0.1-0.3,0.3-0.4,0.5c0,0,0.1,0.1,0.1,0.1c1.4,0.8,2.8,0.9,4.5,0.8
		c0-0.2-0.1-0.4-0.1-0.6C370.1,577.9,369,577.7,367.8,577.7z"/>
	<path class="st0" d="M679.2,643.4C679.3,643.4,679.3,643.4,679.2,643.4C679.3,643.4,679.3,643.4,679.2,643.4
		C679.3,643.4,679.2,643.4,679.2,643.4z"/>
	<path class="st0" d="M373.5,576c0.5,0.1,1,0.1,1.4,0c0.3-0.5,0.6-0.9,0.7-1.5C374.8,574.8,374.1,575.2,373.5,576z"/>
	<path class="st0" d="M366.7,579.3c0.1,0,0.2,0,0.2,0c-0.1-0.1-0.2-0.1-0.3-0.2C366.7,579.2,366.7,579.3,366.7,579.3z"/>
	<path class="st0" d="M635.1,639.5c-0.4-0.2-0.8-0.3-1.2-0.1c0,0.2,0,0.3,0,0.5c0.4-0.2,0.9-0.4,1.4-0.1
		C635.4,639.6,635.3,639.5,635.1,639.5z"/>
	<path class="st0" d="M666.7,637.5c-0.2,0.1-0.3,0.2-0.5,0.2c-0.2,0-0.3,0.1-0.5,0.1c0,0.1,0,0.1,0,0.2c0.3-0.1,0.6,0.1,0.8,0.3
		c0.2,0.1,0.3,0.2,0.5,0.3c0.2,0,0.4,0.1,0.5,0.3c1.6,0.7,3.3,0.8,5.3,0.7c-1.8-0.9-3.3-1.6-5.1-1.6
		C667.2,638,666.9,637.8,666.7,637.5z"/>
	<path class="st0" d="M667.9,641.4c-0.1,0-0.3-0.1-0.5-0.1c-0.1,0.1-0.2,0.1-0.4,0.2c0.1,0,0.1,0.1,0.2,0.1
		c-0.2,0.7-1.2,0.7-1.2,1.5c0.6,0.3,1.2-0.2,1.9,0.1c0-0.1,0.2-0.3,0.4-0.6C668.9,642,668.6,641.6,667.9,641.4z"/>
	<path class="st0" d="M678.4,639.3c-0.3-0.2-0.5-0.5-0.6-0.8c-0.1,0-0.2,0-0.2,0c-0.5,0-0.9,0.3-0.8,0.9c0,0.2,0.1,0.4,0.2,0.5
		c0.2,0,0.4,0,0.5,0.3c0.1,0,0.1,0,0.2,0.1c0,0,0,0,0,0c0.2-0.1,0.4-0.1,0.5-0.2c0.3-0.2,0.5,0.1,0.8,0.3c0.1,0,0.2,0,0.3-0.1
		C679.1,639.8,678.8,639.6,678.4,639.3z"/>
	<path class="st0" d="M668.3,636.5c-0.1,0-0.2,0.1-0.3,0.2C668.1,636.7,668.2,636.6,668.3,636.5z"/>
	<path class="st0" d="M665.6,639.2c0.1,0,0.1-0.1,0.2-0.1c-0.1-0.1-0.1-0.1-0.2-0.2C665.6,639,665.6,639.1,665.6,639.2z"/>
	<path class="st0" d="M645.6,639.3c0-0.3,0.1-0.7,0.1-1c0,0,0,0,0,0c-0.2,0-0.5,0-0.7,0C645.2,638.6,645.4,638.9,645.6,639.3z"/>
	<path class="st0" d="M645.1,639.6c-0.2-0.4-0.5-0.3-0.9-0.2c-0.2,0-0.4,0.1-0.6-0.1c-0.1-0.2-0.3-0.4-0.6-0.3
		c-0.3,0.1-0.1,0.4-0.1,0.5c0,0.2,0.1,0.5-0.2,0.5c-0.3,0.1-0.6,0.1-0.8-0.1c-0.2-0.2-0.1-0.5-0.4-0.6c-0.4,0-0.4,0.4-0.6,0.5
		c0,0-0.1,0-0.1,0c-0.3,0.1-0.2,0.4-0.1,0.5c0.2,0.3,0.5,0.5,0.9,0.5c0.8,0,1.5,0.1,2.3,0.2c0.1-0.1,0.2-0.1,0.4-0.1
		c0.4,0.1,0.7,0.2,1,0.2c0.1-0.5,0.1-1,0.2-1.5C645.4,639.8,645.2,639.8,645.1,639.6z"/>
	<path class="st0" d="M658.9,641.5c-0.1,0.5-0.1,0.9-0.1,1.1c0.8,0.1,1.6,0.1,2.4,0c0-0.1-0.1-0.1-0.1-0.2
		C660.4,642,659.6,641.7,658.9,641.5z"/>
	<path class="st1" d="M1762,904.3c-50.3-25.2-96.6,35.6-147.2,11c0.1-0.8,0.2-1.6,0.4-2.4c0.2-0.9,0.4-1.8,0.6-2.8
		c0.5-5.1,0.3-10.1,0.5-15.2c0.1-4,0.6-7.9,1.2-11.8c0.4-2.6,1.2-5,2.2-7.4c-0.3-0.8-0.6-1.5-0.4-2.4c0.1-0.2-0.2-0.7-0.6-0.7
		c-0.3,0-0.6,0.3-0.8,0.6c-1,1.2-1.3,2.9-1.3,4.3c0,1.7-1.6,2.5-1.4,4.1c0,0.4-0.5,0.2-0.9,0.2c-0.3,0-0.9,0-0.8,0.3
		c0.5,2.8-1.8,1.3-2.8,1.7c-0.6,0.2-1.4-0.1-2.2-0.6c1-0.7,2.1-1.1,2.7-2.1c0.2-0.4,1-0.6,0.5-1.2c-0.3-0.5-0.9-0.7-1.4-0.4
		c-0.8,0.5-1.9-0.1-2.7,0.7c-0.5,0.4-1.2,0.1-1.4-0.2c-0.4-0.5,0.5-0.7,0.7-1c1.4-1.7,2.1-3.8,2.5-6.2c-1.4,1.1-3.2,0.7-4.7,1.9
		c1.6-1.9-0.4-3.3-0.5-4.9c0-0.3-0.3-0.6-0.7-0.6c-0.3,0-0.3,0.4-0.4,0.6c-0.5,1.2-0.5,2.9-2.8,2.2c-0.8-0.3-0.3,0.8,0,1.2
		c0.2,0.3,0.9,0.6,0.5,1.1c-0.3,0.4-0.9,0.2-1.3,0c-0.8-0.5-1.5-1.1-2,0.3c0,0.1-0.2,0.3-0.3,0.3c-2.8-0.9-2.7,2.4-4.4,3
		c-0.3,0.1-0.6,0.6-1,0.3c-0.5-0.4-0.1-0.7,0.2-1c0.3-0.3,0.7-0.7,0.1-0.9c-2-0.8,0.8-0.8,0.3-1.2c-0.4-1-1.2-0.4-1.7-0.9
		c-0.2-0.8,1-0.8,0.9-1.7c-2.3,0-1.7-2.1-1.6-3c0.2-1.9-1.1-3.6-0.7-5.5c0-0.2-0.2-0.5-0.4-0.6c-0.4-0.1-0.6,0.2-0.8,0.5
		c-0.2,0.6-0.4,1.3-0.6,1.9c-0.2,0.6-0.3,1.2-0.6,1.7c-0.3,0.5-0.9,1.1-1.5,0.7c-0.8-0.7,0.6-0.7,0.6-1.5c-2.2-0.3-1.7-2.2-1.6-3.5
		c0.2-1.8-1-3.3-0.8-5c0-0.2-0.3-0.5-0.5-0.5c-0.2,0-0.5,0.3-0.6,0.5c-0.5,1.4-1.3,2.8-1.4,4.2c-0.2,1.3-1.1,2.3-1.1,3.5
		c0,0.5-0.3,0.5-0.6,0.5c-0.7,0-1.7,0.4-2.1-0.2c-0.5-0.6,0.4-1.2,0.8-1.7c-0.5-0.8-1.2-0.1-1.7-0.4c0-0.9,1-0.8,1.3-1.5
		c-0.6-1-1.7-0.2-2.5-0.6c0.4-0.7,1.7-1.3,0.3-2.3c-0.4-0.2,1-0.3,1-1.1c-0.3-0.7-1.2,0.2-1.8-0.6c-0.2-0.7,0.9-0.7,1-1.6
		c-2.7,0-1.6-2.2-1.6-3.5c0-1.7-0.8-3.3-0.4-4.9c0.1-0.3-0.2-0.6-0.5-0.5c-0.2,0-0.5,0.2-0.6,0.4c-0.5,1.2-1,2.3-1.3,3.5
		c-0.5,1.8-0.2,3.8-2.4,4.9c-0.6,0.3,0.5,1.1,0.3,1.9c-2.3-0.3-2.8,0.6-2.3,2.8c0.1,0.2-0.5,2-1.3,2.6c-0.7,0.5-1.9-0.2-2.6,0.7
		c0,0-0.4-0.1-0.5-0.3c-0.2-0.3-0.1-0.6,0.2-0.9c0.5-0.4,1.2-0.3,1.5-1.2c0.2-0.6,0.7-1,1.2-1.6c-1.3-1.3-2.7,0-4.2-0.1
		c0-0.8,0.8-1.6,0.7-2.1c-0.3-0.9,2.8-1.5,0.2-2.3c0.1-0.1,0.3-0.2,0.4-0.4c0.6-0.5,0.5-1.3,1-2.3c-1.1,0.5-2.2,0.6-3,1.4
		c0.6-1.8-0.2-3.2-0.6-4.9c-1.2,0.7-0.4,2.9-2.5,2.7c-0.4,0,0.6,1.2,0.3,1.9c-0.5,1-1.6-1.1-1.9,0.4c-0.3,1.4-1.2,0.5-2,0.4
		c0.1,1.1,0.2,2.1-1,2.8c-0.7,0.4,0.2,4.6,1,5.4c0.3,0.4,1.1,0.6,0.8,1.2c-0.4,0.7-1.1,0.3-1.6,0.1c-0.9-0.3-1.8-0.7-2.8-1.1
		c-0.3,0.7-0.1,1.2,0.6,1.4c0.8,0.2,1.2,0.8,1.7,1.3c0.3,0.3,1,0.5,0.6,1.1c-0.3,0.5-0.8,0.2-1.3,0c-0.4-0.2-0.7-0.3-1.2-0.6
		c-0.4,0.7,0,1.3,0,2c0,0.1,0.1,0.1,0.1,0.2c0.9,0.7-2.1,0.6-0.3,1.4c0.7,0.3,1.5,0.6,2.2,0.9c0.5,0.3,0.4,1.1,1.3,1.3
		c-2,1-3.6,0.2-5.2-0.3c0-0.7,0.9-0.7,0.8-1.4c-0.4-0.6-1.2,0-1.7-0.5c-0.3-0.9,0.9-0.9,0.9-1.7c-1.8-0.4-1.8-1.8-1.7-3.3
		c0.2-1.8-0.9-3.5-0.7-5.3c0-0.2-0.2-0.6-0.5-0.4c-0.3,0.1-0.5,0.4-0.7,0.7c-0.9,1.4-0.5,3.2-1.3,4.7c-0.4,0.9-0.8,1.8-1.2,2.7
		c-0.2,0.7-0.9,0.8-1.3,0.6c-0.7-0.5,0.6-0.7,0.2-1.4c-0.8-0.3-2.4,0.9-2.6-1.1c0-0.1-0.4-0.2-0.5-0.1c-1.5,0.6-2.8,1.2-1-1.1
		c0.2-0.2,0-0.5-0.3-0.6c-1.2-0.1-1.7-0.8-1.9-1.9c-0.1-0.6-0.8-0.4-0.8,0c-0.2,1.2-1.5,1.9-1.1,3.5c-0.9-0.9-2.1-0.6-2.8-1.4
		c-1.3,2.6,0.6,4.4,1.3,6.6c-2.5,0-4.5-1.3-6.7-2.2c1.4-0.9-0.7-2.6,1.1-3.4c-0.8-0.7-1.6,0.1-2.2-0.3c0.1-0.8,1-0.8,1.2-1.5
		c-2-0.7-1.9-2.6-1.6-4c0.3-1.7-0.7-3.1-0.7-4.7c0-0.8-0.7-0.4-1.1,0.1c-0.9,1.1-0.8,2.5-1.2,3.8c-0.4,1.6-0.2,3.4-1.7,4.6
		c-0.7,0.6,0.7,1,0.3,2c-0.6-1-3.1,1.1-2.4-1.9c0.1-0.5-1.1-0.2-1.6-0.5c0.6-0.9,1.6-1.3,2.6-1.9c-0.7-0.7-1.7,0-2.7-0.9
		c-0.5-0.3,3.2-1.9-0.1-2c-0.2-0.9,1.1-0.7,1-1.5c-1.8-0.5-2.3-1.5-1.5-3.3c0.2-0.4,0.4-0.8-0.2-0.8c-1-0.1-1.2-0.4-0.5-1.2
		c0.1-0.2,0.3-0.5,0.2-0.7c-0.7-1.5-0.7-1.5,1.2-3.5c-2,1.1-2.4,0.7-2.4-1.1c0.1-1.3-1.1-2.5-0.7-4c0-0.1-0.4-0.5-0.5-0.5
		c-0.3,0.1-0.6,0.3-0.8,0.6c-1,1.1-0.8,2.5-1,3.8c-0.5,2.8-2.3,4.4-4.2,5.9c-0.1,0.3-0.1,0.5-0.2,0.8c-0.1,0.2-0.1,0.4-0.2,0.6
		c-0.2,0.1-0.4,0.3-0.6,0.5c-0.3,0.5-1.1,0.4-1.5,0.1c-0.5-0.4,0.3-0.8,0.4-1.1c0.9-2.1,1.1-4.2,0.9-6.6c-1.1,1.4-3,1.5-4,3
		c1.1-2.3-1.2-3.1-1.7-4.6c-0.1-0.3-0.4-0.5-0.8-0.4c-0.3,0.1-0.2,0.4-0.2,0.7c-0.2,1.3,0.2,2.9-2.2,2.8c-0.9,0-0.1,0.8,0.3,1.2
		c0.3,0.3,1,0.3,0.7,0.9c-0.2,0.5-0.8,0.5-1.3,0.3c-0.9-0.3-1.7-0.6-1.8,0.8c0,0.1-0.1,0.3-0.2,0.3c-2.9-0.2-2,3-3.5,4
		c-0.3,0.2-0.4,0.7-0.9,0.6c-0.6-0.2-0.2-0.6-0.1-1c0.2-0.4,0.5-0.8-0.1-0.9c-2.1-0.3,0.5-1,0-1.2c-0.6-0.9-1.3-0.1-1.8-0.4
		c-0.4-0.7,0.8-1,0.4-1.8c-2.2,0.6-2.2-1.6-2.3-2.5c-0.3-1.9-2-3.2-2.1-5.1c0-0.2-0.4-0.4-0.6-0.4c-0.4,0-0.6,0.3-0.6,0.7
		c-0.1,0.7,0,1.3-0.1,2c0,0.6,0,1.2-0.1,1.8c-0.1,0.6-0.6,1.3-1.2,1c-1-0.5,0.4-0.9,0.2-1.6c-2.2,0.3-2.2-1.7-2.4-3
		c-0.3-1.8-1.8-2.9-2.1-4.7c0-0.2-0.4-0.4-0.6-0.4c-0.2,0.1-0.4,0.4-0.4,0.6c-0.1,1.5-0.5,3-0.3,4.4c0.2,1.3-0.5,2.5-0.2,3.7
		c0.1,0.5-0.2,0.5-0.5,0.6c-0.7,0.2-1.5,0.8-2.1,0.4c-0.7-0.5,0.1-1.3,0.3-1.9c-0.7-0.7-1.2,0.2-1.7,0c-0.3-0.9,0.8-1.1,0.9-1.8
		c-0.8-0.9-1.7,0.3-2.6,0.1c0.2-0.8,1.3-1.7-0.3-2.3c-0.4-0.1,0.8-0.5,0.7-1.3c-0.5-0.6-1.1,0.5-1.9-0.1c-0.4-0.6,0.7-0.9,0.6-1.8
		c-2.7,0.7-2.2-1.7-2.5-3c-0.4-1.6-1.6-2.9-1.7-4.7c0-0.3-0.3-0.5-0.6-0.4c-0.2,0.1-0.4,0.4-0.5,0.6c-0.2,1.3-0.4,2.5-0.4,3.8
		c0,1.9,0.8,3.7-1.1,5.3c-0.5,0.4,0.8,0.9,0.8,1.8c-2.3,0.2-2.6,1.3-1.5,3.3c0.1,0.2,0,2-0.6,2.8c-0.5,0.7-1.9,0.3-2.3,1.4
		c0,0-0.4,0-0.5-0.2c-0.3-0.3-0.2-0.6,0-0.9c0.4-0.5,1.1-0.6,1.1-1.5c0-0.6,0.5-1.2,0.7-1.8c-1.6-0.9-2.6,0.7-4,1
		c-0.2-0.8,0.4-1.8,0.1-2.2c-0.6-0.8,2.3-2.1-0.4-2.3c0.1-0.2,0.2-0.3,0.3-0.5c0.4-0.7,0.1-1.4,0.4-2.4c-1,0.8-1.9,1.1-2.5,2.1
		c0.1-1.8-1-3-1.9-4.5c-0.8,0.9,0,2.4-1,3c-0.1,0-0.3,0-0.4,0c-0.6,0.1-1.1,0.2-1.4-0.4c-0.4-0.7,0.1-1.2,0.6-1.6
		c1.1-0.9,1.6-2.2,1.2-3.6c-0.5-1.4-2-0.5-3.1-1c1.5-1.8,1.8-3.3-0.9-4.2c-1.1-0.4-0.7-1.7-0.8-2.6c-0.1-1.1-0.7-2-1.7-1.9
		c-1.1,0.1-0.7,1.2-0.7,2c0,0.9,0.2,2.1-0.8,2.5c-2.7,1.2-2.2,2.7-0.3,4.4c-1,0.7-2.1-0.6-2.9,0.5c-1.1,1.7-0.5,3,0.9,4
		c0.9,0.7,1.8,1.3,2,2.6c-1.1,0.3-1.6-1.3-2.6-0.7c-0.1,0-0.1,0.1-0.2,0.1c-0.3-0.1-0.7,0-1,0.1c-1.3,0.4-2.5,1.1-3.6-0.4
		c-0.4-0.5-1.5-0.9-1.3-1.6c0.2-0.6,1.2-0.5,1.8-0.6c0.6-0.2,1.5,0,1.4-1.1c-0.1-0.9,1-1.9-0.3-2.6c-0.8-0.5-1.6-0.7-2.5,0
		c-0.3,0.2-0.5,0.4-0.8,0.6c-0.5,0.3-1,0.3-1.6,0c-0.6-0.3-0.9-0.7-0.2-1.2c0.9-0.6,1.3-1.6,2.5-1.8c1.2-0.2,1.6-1.6,1.6-2.5
		c0-1.2-1.3-0.8-2.1-0.9c-0.6-0.1-1.4,0.3-1.7-0.3c-0.4-0.8,0.6-0.9,0.9-1.3c0.9-1.1,0.8-2.3-0.4-2.3c-1.4,0-1.9-0.7-2.3-1.8
		c-0.2-0.6-0.6-1-1.2-0.9c-0.9,0.1-0.5,0.8-0.5,1.3c0,0.7-0.1,1-1,1.2c-2.4,0.6-2.5,1.2-0.9,3.2c-1.3,0.5-3.1,0.5-2,3
		c0.3,0.7,0.9,1.2,1.4,1.6c-0.1,0.4-0.2,0.8-0.2,1.2c-0.6-0.2-1.2-0.4-1.9,0c-0.7,0.4-1.9,0.1-1.9,1.2c0,1.1,0.3,2.1,1.5,2.7
		c0.3,0.1,0.6,0.2,1,0.3c-0.1,0.2-0.1,0.4-0.1,0.7c-0.5-0.1-1,0.1-1.3,0.6c-0.2,0-0.4,0.1-0.3,0.3c0,0.1,0,0.2,0,0.3
		c0,0.1-0.1,0.2-0.1,0.3c-0.2,0.8-1,0.5-1.5,0.2c-0.5-0.3-1.1-1-1.5-0.1c-0.2,0.4-0.2,0.8,0,1.1c-0.5,0-1.2-0.2-1.8-0.7
		c1-0.7,2.1-1.1,2.7-2.1c0.2-0.4,1-0.6,0.5-1.2c-0.3-0.5-0.9-0.7-1.4-0.4c-0.8,0.5-1.9-0.1-2.7,0.7c-0.5,0.4-1.2,0.1-1.4-0.2
		c-0.4-0.5,0.5-0.7,0.7-1c1.4-1.7,2.1-3.8,2.5-6.2c-1.4,1.1-3.2,0.7-4.7,1.9c1.6-1.9-0.4-3.3-0.5-4.9c0-0.3-0.3-0.6-0.7-0.6
		c-0.3,0-0.3,0.4-0.4,0.6c-0.5,1.2-0.5,2.9-2.8,2.2c-0.8-0.3-0.3,0.8,0,1.2c0.2,0.3,0.9,0.6,0.5,1.1c-0.3,0.4-0.9,0.2-1.3,0
		c-0.8-0.5-1.5-1.1-2,0.3c0,0.1-0.2,0.3-0.3,0.3c-2.8-0.9-2.7,2.4-4.4,3c-0.3,0.1-0.6,0.6-1,0.3c-0.5-0.4-0.1-0.7,0.2-1
		c0.3-0.3,0.7-0.7,0.1-0.9c-2-0.8,0.8-0.8,0.3-1.2c-0.4-1-1.2-0.4-1.7-0.9c-0.2-0.8,1-0.8,0.9-1.7c-2.3,0-1.7-2.1-1.6-3
		c0.2-1.9-1.1-3.6-0.7-5.5c0-0.2-0.2-0.5-0.4-0.6c-0.4-0.1-0.6,0.2-0.8,0.5c-0.2,0.6-0.4,1.3-0.6,1.9c-0.2,0.6-0.3,1.2-0.6,1.7
		c-0.3,0.5-0.9,1.1-1.5,0.7c-0.8-0.7,0.6-0.7,0.6-1.5c-2.2-0.3-1.7-2.2-1.6-3.5c0.2-1.8-1-3.3-0.8-5c0-0.2-0.3-0.5-0.5-0.5
		c-0.2,0-0.5,0.3-0.6,0.5c-0.5,1.4-1.3,2.8-1.4,4.2c-0.2,1.3-1.1,2.3-1.1,3.5c0,0.5-0.3,0.5-0.6,0.5c-0.7,0-1.7,0.4-2.1-0.2
		c-0.5-0.6,0.4-1.2,0.8-1.7c-0.5-0.8-1.2-0.1-1.7-0.4c0-0.9,1-0.8,1.3-1.5c-0.6-1-1.7-0.2-2.5-0.6c0.4-0.7,1.7-1.3,0.3-2.3
		c-0.4-0.2,1-0.3,1-1.1c-0.3-0.7-1.2,0.2-1.8-0.6c-0.2-0.7,0.9-0.7,1-1.6c-2.7,0-1.6-2.2-1.6-3.5c0-1.7-0.8-3.3-0.4-4.9
		c0.1-0.3-0.2-0.6-0.5-0.5c-0.2,0-0.5,0.2-0.6,0.4c-0.5,1.2-1,2.3-1.3,3.5c-0.5,1.8-0.2,3.8-2.4,4.9c-0.6,0.3,0.5,1.1,0.3,1.9
		c-2.3-0.3-2.8,0.6-2.3,2.8c0.1,0.2-0.5,2-1.3,2.6c-0.7,0.5-1.9-0.2-2.6,0.7c0,0-0.4-0.1-0.5-0.3c-0.2-0.3-0.1-0.6,0.2-0.9
		c0.5-0.4,1.2-0.3,1.5-1.2c0.2-0.6,0.7-1,1.2-1.6c-1.3-1.3-2.7,0-4.2-0.1c0-0.8,0.8-1.6,0.7-2.1c-0.3-0.9,2.8-1.5,0.2-2.3
		c0.1-0.1,0.3-0.2,0.4-0.4c0.6-0.5,0.5-1.3,1-2.3c-1.1,0.5-2.2,0.6-3,1.4c0.6-1.8-0.2-3.2-0.6-4.9c-1.2,0.7-0.4,2.9-2.5,2.7
		c-0.4,0,0.6,1.2,0.3,1.9c-0.5,1-1.6-1.1-1.9,0.4c-0.3,1.4-1.2,0.5-2,0.4c0.1,1.1,0.2,2.1-1,2.8c-0.7,0.4,0.2,4.6,1,5.4
		c0.3,0.4,1.1,0.6,0.8,1.2c-0.4,0.7-1.1,0.3-1.6,0.1c-0.9-0.3-1.8-0.7-2.8-1.1c-0.3,0.7-0.1,1.2,0.6,1.4c0.8,0.2,1.2,0.8,1.7,1.3
		c0.3,0.3,1,0.5,0.6,1.1c-0.3,0.5-0.8,0.2-1.3,0c-0.4-0.2-0.7-0.3-1.2-0.6c-0.4,0.7,0,1.3,0,2c0,0.1,0.1,0.1,0.1,0.2
		c0.9,0.7-2.1,0.6-0.3,1.4c0.7,0.3,1.5,0.6,2.2,0.9c0.5,0.3,0.4,1.1,1.3,1.3c-2,1-3.6,0.2-5.2-0.3c0-0.7,0.9-0.7,0.8-1.4
		c-0.4-0.6-1.2,0-1.7-0.5c-0.3-0.9,0.9-0.9,0.9-1.7c-1.8-0.4-1.8-1.8-1.7-3.3c0.2-1.8-0.9-3.5-0.7-5.3c0-0.2-0.2-0.6-0.5-0.4
		c-0.3,0.1-0.5,0.4-0.7,0.7c-0.9,1.4-0.5,3.2-1.3,4.7c-0.4,0.9-0.8,1.8-1.2,2.7c-0.2,0.6-0.7,0.8-1.1,0.7c-0.1-0.1-0.2-0.3-0.4-0.3
		c-0.1-0.3,0.7-0.6,0.4-1.1c-0.8-0.3-2.4,0.9-2.6-1.1c0,0-0.1-0.1-0.2-0.1c0.8-0.3,2.2-0.2,0.7-2c-1.5-1.7-1.1-2.1-3.4-3.6
		c-1-0.7-1.4-1.2-0.3-2.1c0.8-0.6,0.6-1.1-0.1-1.7c-0.8-0.7-1.7-1.5-2.2-2.5c-0.2-0.5-0.6-1,0.5-1.2c1.1-0.2,1.3-1.2,0.7-1.9
		c-2.1-2.1-1.9-4.7-1.9-7.4c0-0.3-0.1-0.7-0.2-1c0-0.1-0.2-0.1-0.4-0.2c-0.6,1-0.3,2.1-0.3,3.2c0.1,1.7-0.5,3-1.7,4.3
		c-1.4,1.4-1.3,1.9,0.5,3c0.6,0.4,0.2,0.7,0,1c-0.5,1-1.4,1.7-2.3,2.3c-0.7,0.5-1.2,1-0.2,1.8c0.8,0.6,0.4,1.1-0.3,1.4
		c-0.4,0.2-0.7,0.4-1.1,0.6c-0.5,0.3-1.3,0.5-1.3,1.2c0,0.8,1,0.4,1.4,1c-1.2,0.2-2.3,0-3.3-0.1c0,0,0,0,0,0
		c-0.3-0.8-0.2-1.8-0.1-2.6c0.3-1.7-0.7-3.1-0.7-4.7c0-0.8-0.7-0.4-1.1,0.1c-0.9,1.1-0.8,2.5-1.2,3.8c-0.4,1.6-0.2,3.4-1.7,4.6
		c-0.7,0.6,0.7,1,0.3,2c-0.6-1-3.1,1.1-2.4-1.9c0.1-0.4-0.8-0.2-1.4-0.4c0,0,0-0.1,0-0.1c0-0.2,0.1-0.3,0.1-0.5
		c0.6-0.6,1.4-1,2.2-1.5c-0.5-0.5-1.1-0.3-1.8-0.5c0.4-1.7,1-3.4,1.7-5c-0.3-0.8-0.6-1.5-0.4-2.4c0.1-0.2-0.2-0.7-0.6-0.7
		c-0.3,0-0.6,0.3-0.8,0.6c-0.7,0.9-1.1,1.9-1.2,3c-0.6-0.6-0.7-1.4-0.2-2.6c0.2-0.4,0.4-0.8-0.2-0.8c-1-0.1-1.2-0.4-0.5-1.2
		c0.1-0.2,0.3-0.5,0.2-0.7c-0.7-1.5-0.7-1.5,1.2-3.5c-2,1.1-2.4,0.7-2.4-1.1c0.1-1.3-1.1-2.5-0.7-4c0-0.1-0.4-0.5-0.5-0.5
		c-0.3,0.1-0.6,0.3-0.8,0.6c-1,1.1-0.8,2.5-1,3.8c-0.5,2.8-2.3,4.4-4.2,5.9c-0.1,0.3-0.1,0.5-0.2,0.8c-0.1,0.3-0.1,0.5-0.2,0.8
		c-0.8,0.2-1.6,0.4-2.3,1c1.6-1.9-0.4-3.3-0.5-4.9c0-0.3-0.3-0.6-0.7-0.6c-0.3,0-0.3,0.4-0.4,0.6c-0.5,1.2-0.5,2.9-2.8,2.2
		c-0.8-0.3-0.3,0.8,0,1.2c0.2,0.3,0.9,0.6,0.5,1.1c-0.3,0.4-0.9,0.2-1.3,0c-0.8-0.5-1.5-1.1-2,0.3c0,0.1-0.2,0.3-0.3,0.3
		c-2.8-0.9-2.7,2.4-4.4,3c-0.3,0.1-0.6,0.6-1,0.3c-0.5-0.4-0.1-0.7,0.2-1c0.3-0.3,0.7-0.7,0.1-0.9c-2-0.8,0.8-0.8,0.3-1.2
		c-0.4-1-1.2-0.4-1.7-0.9c-0.2-0.8,1-0.8,0.9-1.7c-2.3,0-1.7-2.1-1.6-3c0.2-1.9-1.1-3.6-0.7-5.5c0-0.2-0.2-0.5-0.4-0.6
		c-0.4-0.1-0.6,0.2-0.8,0.5c-0.2,0.6-0.4,1.3-0.6,1.9c-0.2,0.6-0.3,1.2-0.6,1.7c-0.3,0.5-0.9,1.1-1.5,0.7c-0.8-0.7,0.6-0.7,0.6-1.5
		c-2.2-0.3-1.7-2.2-1.6-3.5c0.2-1.8-1-3.3-0.8-5c0-0.2-0.3-0.5-0.5-0.5c-0.2,0-0.5,0.3-0.6,0.5c-0.5,1.4-1.3,2.8-1.4,4.2
		c-0.2,1.3-1.1,2.3-1.1,3.5c0,0.5-0.3,0.5-0.6,0.5c-0.7,0-1.7,0.4-2.1-0.2c-0.5-0.6,0.4-1.2,0.8-1.7c-0.5-0.8-1.2-0.1-1.7-0.4
		c0-0.9,1-0.8,1.3-1.5c-0.6-1-1.7-0.2-2.5-0.6c0.4-0.7,1.7-1.3,0.3-2.3c-0.4-0.2,1-0.3,1-1.1c-0.3-0.7-1.2,0.2-1.8-0.6
		c-0.2-0.7,0.9-0.7,1-1.6c-2.7,0-1.6-2.2-1.6-3.5c0-1.7-0.8-3.3-0.4-4.9c0.1-0.3-0.2-0.6-0.5-0.5c-0.2,0-0.5,0.2-0.6,0.4
		c-0.5,1.2-1,2.3-1.3,3.5c-0.5,1.8-0.2,3.8-2.4,4.9c-0.6,0.3,0.5,1.1,0.3,1.9c-2.3-0.3-2.8,0.6-2.3,2.8c0.1,0.2-0.5,2-1.3,2.6
		c-0.7,0.5-1.9-0.2-2.6,0.7c0,0-0.4-0.1-0.5-0.3c-0.2-0.3-0.1-0.6,0.2-0.9c0.5-0.4,1.2-0.3,1.5-1.2c0.2-0.6,0.7-1,1.2-1.6
		c-1.3-1.3-2.7,0-4.2-0.1c0-0.8,0.8-1.6,0.7-2.1c-0.3-0.9,2.8-1.5,0.2-2.3c0.1-0.1,0.3-0.2,0.4-0.4c0.6-0.5,0.5-1.3,1-2.3
		c-1.1,0.5-2.2,0.6-3,1.4c0.6-1.8-0.2-3.2-0.6-4.9c-1.2,0.7-0.4,2.9-2.5,2.7c-0.4,0,0.6,1.2,0.3,1.9c-0.5,1-1.6-1.1-1.9,0.4
		c-0.3,1.4-1.2,0.5-2,0.4c0.1,1.1,0.2,2.1-1,2.8c-0.7,0.4,0.2,4.6,1,5.4c0.3,0.4,1.1,0.6,0.8,1.2c-0.4,0.7-1.1,0.3-1.6,0.1
		c-0.9-0.3-1.8-0.7-2.8-1.1c-0.3,0.7-0.1,1.2,0.6,1.4c0.8,0.2,1.2,0.8,1.7,1.3c0.3,0.3,1,0.5,0.6,1.1c-0.3,0.5-0.8,0.2-1.3,0
		c-0.4-0.2-0.7-0.3-1.2-0.6c-0.4,0.7,0,1.3,0,2c0,0.1,0.1,0.1,0.1,0.2c0.9,0.7-2.1,0.6-0.3,1.4c0.1,0.1,0.3,0.1,0.4,0.2
		c-1-0.2-2-0.4-3-0.6c0.2-0.4,0.9-0.6,0.9-1.2c-1.8-0.4-1.8-1.8-1.7-3.3c0.2-1.8-0.9-3.5-0.7-5.3c0-0.2-0.2-0.6-0.5-0.4
		c-0.3,0.1-0.5,0.4-0.7,0.7c-0.9,1.4-0.5,3.2-1.3,4.7c-0.4,0.9-0.8,1.8-1.2,2.7c-0.2,0.7-0.9,0.8-1.3,0.6c-0.7-0.5,0.6-0.7,0.2-1.4
		c-0.8-0.3-2.4,0.9-2.6-1.1c0-0.1-0.4-0.2-0.5-0.1c-1.5,0.6-2.8,1.2-1-1.1c0.2-0.2,0-0.5-0.3-0.6c-1.2-0.1-1.7-0.8-1.9-1.9
		c-0.1-0.6-0.8-0.4-0.8,0c-0.2,1.2-1.5,1.9-1.1,3.5c-0.9-0.9-2.1-0.6-2.8-1.4c-0.5,0.9-0.5,1.7-0.4,2.4c-1.5-0.3-3-0.6-4.6-0.9
		c0.1-0.2,0.3-0.4,0.7-0.6c-0.8-0.7-1.6,0.1-2.2-0.3c0.1-0.8,1-0.8,1.2-1.5c-2-0.7-1.9-2.6-1.6-4c0.3-1.7-0.7-3.1-0.7-4.7
		c0-0.8-0.7-0.4-1.1,0.1c-0.9,1.1-0.8,2.5-1.2,3.8c-0.4,1.6-0.2,3.4-1.7,4.6c-0.5,0.4,0.1,0.8,0.3,1.3c-0.8-0.2-1.7-0.3-2.5-0.5
		c0-0.2,0-0.5,0.1-0.8c0.1-0.5-1.1-0.2-1.6-0.5c0.6-0.9,1.6-1.3,2.6-1.9c-0.7-0.7-1.7,0-2.7-0.9c-0.5-0.3,3.2-1.9-0.1-2
		c-0.2-0.9,1.1-0.7,1-1.5c-1.8-0.5-2.3-1.5-1.5-3.3c0.2-0.4,0.4-0.8-0.2-0.8c-1-0.1-1.2-0.4-0.5-1.2c0.1-0.2,0.3-0.5,0.2-0.7
		c-0.7-1.5-0.7-1.5,1.2-3.5c-2,1.1-2.4,0.7-2.4-1.1c0.1-1.3-1.1-2.5-0.7-4c0-0.1-0.4-0.5-0.5-0.5c-0.3,0.1-0.6,0.3-0.8,0.6
		c-1,1.1-0.8,2.5-1,3.8c-0.3,2.1-1.5,3.5-2.8,4.7c0-0.1,0.1-0.2,0.1-0.4c0.2-1.3,0.2-2-1.3-1.9c-0.5,0-0.9,0.2-1.2-0.4
		c-0.3-0.6,0.1-1,0.5-1.3c0.9-0.8,1.4-1.8,1.1-3c-0.4-1.2-1.6-0.4-2.6-0.9c1.3-1.5,1.6-2.7-0.6-3.5c-0.9-0.3-0.5-1.4-0.6-2.2
		c-0.1-0.9-0.5-1.7-1.4-1.6c-0.9,0-0.6,1-0.6,1.6c0,0.8,0.1,1.8-0.8,2.1c-2.3,0.9-1.9,2.2-0.4,3.7c-0.8,0.5-1.7-0.6-2.4,0.4
		c-1,1.4-0.5,2.5,0.6,3.4c0,0,0.1,0.1,0.1,0.1c-0.1,0.5-0.2,0.9-0.2,1.4c-0.1,0-0.2,0-0.4,0.1c-0.6,0.3-1.7,0.4-1.6,1.2
		c0,0.8,0.3,1.7,0.8,2.2c-0.1,0.4-0.2,0.7-0.2,1.2c0,0.4-0.5,0.2-0.9,0.2c-0.3,0-0.9,0-0.8,0.3c0.5,2.8-1.8,1.3-2.8,1.7
		c-0.6,0.2-1.4-0.1-2.2-0.6c1-0.7,2.1-1.1,2.7-2.1c0.2-0.4,1-0.6,0.5-1.2c-0.3-0.5-0.9-0.7-1.4-0.4c-0.8,0.5-1.9-0.1-2.7,0.7
		c-0.5,0.4-1.2,0.1-1.4-0.2c-0.4-0.5,0.5-0.7,0.7-1c1.4-1.7,2.1-3.8,2.5-6.2c-1.4,1.1-3.2,0.7-4.7,1.9c1.6-1.9-0.4-3.3-0.5-4.9
		c0-0.3-0.3-0.6-0.7-0.6c-0.3,0-0.3,0.4-0.4,0.6c-0.5,1.2-0.5,2.9-2.8,2.2c-0.8-0.3-0.3,0.8,0,1.2c0.2,0.3,0.9,0.6,0.5,1.1
		c-0.3,0.4-0.9,0.2-1.3,0c-0.8-0.5-1.5-1.1-2,0.3c0,0.1-0.2,0.3-0.3,0.3c-2.8-0.9-2.7,2.4-4.4,3c-0.3,0.1-0.6,0.6-1,0.3
		c-0.5-0.4-0.1-0.7,0.2-1c0.3-0.3,0.7-0.7,0.1-0.9c-2-0.8,0.8-0.8,0.3-1.2c-0.4-1-1.2-0.4-1.7-0.9c-0.2-0.8,1-0.8,0.9-1.7
		c-2.3,0-1.7-2.1-1.6-3c0.2-1.9-1.1-3.6-0.7-5.5c0-0.2-0.2-0.5-0.4-0.6c-0.4-0.1-0.6,0.2-0.8,0.5c-0.2,0.6-0.4,1.3-0.6,1.9
		c-0.2,0.6-0.3,1.2-0.6,1.7c-0.3,0.5-0.9,1.1-1.5,0.7c-0.8-0.7,0.6-0.7,0.6-1.5c-2.2-0.3-1.7-2.2-1.6-3.5c0.2-1.8-1-3.3-0.8-5
		c0-0.2-0.3-0.5-0.5-0.5c-0.2,0-0.5,0.3-0.6,0.5c-0.5,1.4-1.3,2.8-1.4,4.2c-0.2,1.3-1.1,2.3-1.1,3.5c0,0.5-0.3,0.5-0.6,0.5
		c-0.7,0-1.7,0.4-2.1-0.2c-0.5-0.6,0.4-1.2,0.8-1.7c-0.5-0.8-1.2-0.1-1.7-0.4c0-0.9,1-0.8,1.3-1.5c-0.6-1-1.7-0.2-2.5-0.6
		c0.4-0.7,1.7-1.3,0.3-2.3c-0.4-0.2,1-0.3,1-1.1c-0.3-0.7-1.2,0.2-1.8-0.6c-0.2-0.7,0.9-0.7,1-1.6c-2.7,0-1.6-2.2-1.6-3.5
		c0-1.7-0.8-3.3-0.4-4.9c0.1-0.3-0.2-0.6-0.5-0.5c-0.2,0-0.5,0.2-0.6,0.4c-0.5,1.2-1,2.3-1.3,3.5c-0.5,1.8-0.2,3.8-2.4,4.9
		c-0.6,0.3,0.5,1.1,0.3,1.9c-2.3-0.3-2.8,0.6-2.3,2.8c0.1,0.2-0.5,2-1.3,2.6c-0.7,0.5-1.9-0.2-2.6,0.7c0,0-0.4-0.1-0.5-0.3
		c-0.2-0.3-0.1-0.6,0.2-0.9c0.5-0.4,1.2-0.3,1.5-1.2c0.2-0.6,0.7-1,1.2-1.6c-1.3-1.3-2.7,0-4.2-0.1c0-0.8,0.8-1.6,0.7-2.1
		c-0.3-0.9,2.8-1.5,0.2-2.3c0.1-0.1,0.3-0.2,0.4-0.4c0.6-0.5,0.5-1.3,1-2.3c-1.1,0.5-2.2,0.6-3,1.4c0.6-1.8-0.2-3.2-0.6-4.9
		c-1.2,0.7-0.4,2.9-2.5,2.7c-0.4,0,0.6,1.2,0.3,1.9c-0.5,1-1.6-1.1-1.9,0.4c-0.3,1.4-1.2,0.5-2,0.4c0.1,1.1,0.2,2.1-1,2.8
		c-0.7,0.4,0.2,4.6,1,5.4c0.3,0.4,1.1,0.6,0.8,1.2c-0.4,0.7-1.1,0.3-1.6,0.1c-0.9-0.3-1.8-0.7-2.8-1.1c-0.3,0.7-0.1,1.2,0.6,1.4
		c0.8,0.2,1.2,0.8,1.7,1.3c0.3,0.3,1,0.5,0.6,1.1c-0.3,0.5-0.8,0.2-1.3,0c-0.4-0.2-0.7-0.3-1.2-0.6c-0.4,0.7,0,1.3,0,2
		c0,0.1,0.1,0.1,0.1,0.2c0.9,0.7-2.1,0.6-0.3,1.4c0.7,0.3,1.5,0.6,2.2,0.9c0.5,0.3,0.4,1.1,1.3,1.3c-2,1-3.6,0.2-5.2-0.3
		c0-0.7,0.9-0.7,0.8-1.4c-0.4-0.6-1.2,0-1.7-0.5c-0.3-0.9,0.9-0.9,0.9-1.7c-1.8-0.4-1.8-1.8-1.7-3.3c0.2-1.8-0.9-3.5-0.7-5.3
		c0-0.2-0.2-0.6-0.5-0.4c-0.3,0.1-0.5,0.4-0.7,0.7c-0.6,1-0.6,2.3-0.9,3.4c-0.7-0.1-1.4-0.1-2.1-0.1c-1,0-2,0.1-2.8-0.8
		c-0.5-0.6-1.5-0.5-2.3-0.5c-0.5,0-1.1,0-1.6,0c0,0-0.1,0-0.1,0c0-0.1,0-0.1,0-0.2c-0.1-0.4-0.4-0.4-0.6-0.3c0-0.3,0-0.5,0.2-0.7
		c0.4-0.4,0.7-0.7,1.1-1c0.5-0.4,0.4-0.7-0.2-0.9c-0.5-0.2-1.1-0.3-1.8-0.5c1.3-1,2.7-1.6,4.3-1.8c0.9-0.1,1.5-1.2,1.2-2
		c-0.1-0.3-0.4-0.4-0.7-0.4c-1,0-2,0-2.9,0.2c-0.3,0.1-0.6,0.1-0.8,0.1c-0.2,0-0.5-0.1-0.6-0.3c-0.2-0.3,0.1-0.4,0.2-0.6
		c0.1-0.1,0.2-0.2,0.2-0.3c0.1-0.2,0.4-0.3,0.3-0.6c-0.1-0.3-0.4-0.2-0.6-0.2c-0.6,0-1.1-0.2-1.7-0.3c-0.7-0.2-0.6-0.6-0.2-1
		c0.8-0.9,1.8-1.3,2.8-1.6c1-0.3,0.9-1.1,1.3-1.7c0.2-0.3-0.3-0.3-0.5-0.3c-0.7,0-1.5,0-2.2,0.2c-0.6,0.2-1,0.1-1.1-0.6
		c0-0.2-0.1-0.4-0.2-0.5c-0.9-1-1.3-2.1-1.2-3.4c0.1-0.4-0.3-0.6-0.7-0.7c-0.4-0.1-0.5,0.2-0.6,0.4c-0.7,1.2-1.5,2.4-0.4,3.9
		c0.3,0.5,0.3,1-0.5,1.2c-0.2,0-0.5,0.2-0.7,0.3c-0.7,0.4-0.8,1-0.1,1.3c0.6,0.3,0.8,0.6,0.5,1.2c-0.2,0.4-0.1,0.8,0,1.2
		c0.2,0.7,0.3,1.3-0.8,1.3c-0.6,0-0.5,0.4-0.4,0.8c0.2,1.1,0.2,1.2-0.9,1c-0.5,0-0.9-0.1-1.4-0.2c-0.5-0.1-0.9,0.1-1.2,0.5
		c-0.2,0.2-0.3,0.4-0.2,0.7c0.1,0.3,0.4,0.2,0.6,0.2c0.4,0,0.7,0.2,1,0.5c0.3,0.3,0.6,0.6,1,0.7c1,0.1,1.3,1.2,2.2,1.5
		c0.4,0.1,0,1.4-0.6,1.7c-1,0.4-1.9,0.9-3,0.8c-0.4,0-0.8,0-1.1,0c-0.2,0-0.5,0-0.7,0.1c-0.4-0.8-0.3-1.8-0.1-2.7
		c0.3-1.7-0.7-3.1-0.7-4.7c0-0.8-0.7-0.4-1.1,0.1c-0.9,1.1-0.8,2.5-1.2,3.8c-0.4,1.6-0.2,3.4-1.7,4.6c-0.7,0.6,0.7,1,0.3,2
		c-0.6-1-3.1,1.1-2.4-1.9c0.1-0.5-1.1-0.2-1.6-0.5c0.6-0.9,1.6-1.3,2.6-1.9c-0.7-0.7-1.7,0-2.7-0.9c-0.5-0.3,3.2-1.9-0.1-2
		c-0.2-0.9,1.1-0.7,1-1.5c-1.8-0.5-2.3-1.5-1.5-3.3c0.2-0.4,0.4-0.8-0.2-0.8c-1-0.1-1.2-0.4-0.5-1.2c0.1-0.2,0.3-0.5,0.2-0.7
		c-0.7-1.5-0.7-1.5,1.2-3.5c-2,1.1-2.4,0.7-2.4-1.1c0.1-1.3-1.1-2.5-0.7-4c0-0.1-0.4-0.5-0.5-0.5c-0.3,0.1-0.6,0.3-0.8,0.6
		c-1,1.1-0.8,2.5-1,3.8c-0.5,2.8-2.3,4.4-4.2,5.9c-0.1,0.3-0.1,0.5-0.2,0.8c-0.1,0.3-0.1,0.6-0.2,0.9c0.2,0.1,0.3,0.3,0.4,0.7
		c0,0.7,0.3,1.4-0.9,1.5c-0.1,0.2-0.1,0.5-0.2,0.7c0,0.1,0.1,0.2,0.1,0.2c0.3,0.5,0.2,0.8-0.3,1.1c-0.1,0-0.1,0.1-0.2,0.1
		c0,0.1,0,0.2-0.1,0.3c-0.2,0-0.3,0-0.4,0.1c-0.6,0.2-1.4-0.1-2.2-0.6c1-0.7,2.1-1.1,2.7-2.1c0.2-0.4,1-0.6,0.5-1.2
		c-0.3-0.5-0.9-0.7-1.4-0.4c-0.8,0.5-1.9-0.1-2.7,0.7c-0.5,0.4-1.2,0.1-1.4-0.2c-0.4-0.5,0.5-0.7,0.7-1c1.4-1.7,2.1-3.8,2.5-6.2
		c-1.4,1.1-3.2,0.7-4.7,1.9c1.6-1.9-0.4-3.3-0.5-4.9c0-0.3-0.3-0.6-0.7-0.6c-0.3,0-0.3,0.4-0.4,0.6c-0.5,1.2-0.5,2.9-2.8,2.2
		c-0.8-0.3-0.3,0.8,0,1.2c0.2,0.3,0.9,0.6,0.5,1.1c-0.3,0.4-0.9,0.2-1.3,0c-0.8-0.5-1.5-1.1-2,0.3c0,0.1-0.2,0.3-0.3,0.3
		c-2.8-0.9-2.7,2.4-4.4,3c-0.3,0.1-0.6,0.6-1,0.3c-0.5-0.4-0.1-0.7,0.2-1c0.3-0.3,0.7-0.7,0.1-0.9c-2-0.8,0.8-0.8,0.3-1.2
		c-0.4-1-1.2-0.4-1.7-0.9c-0.2-0.8,1-0.8,0.9-1.7c-2.3,0-1.7-2.1-1.6-3c0.2-1.9-1.1-3.6-0.7-5.5c0-0.2-0.2-0.5-0.4-0.6
		c-0.4-0.1-0.6,0.2-0.8,0.5c-0.2,0.6-0.4,1.3-0.6,1.9c-0.2,0.6-0.3,1.2-0.6,1.7c-0.3,0.5-0.9,1.1-1.5,0.7c-0.8-0.7,0.6-0.7,0.6-1.5
		c-2.2-0.3-1.7-2.2-1.6-3.5c0.2-1.8-1-3.3-0.8-5c0-0.2-0.3-0.5-0.5-0.5c-0.2,0-0.5,0.3-0.6,0.5c-0.5,1.4-1.3,2.8-1.4,4.2
		c-0.2,1.3-1.1,2.3-1.1,3.5c0,0.5-0.3,0.5-0.6,0.5c-0.7,0-1.7,0.4-2.1-0.2c-0.5-0.6,0.4-1.2,0.8-1.7c-0.5-0.8-1.2-0.1-1.7-0.4
		c0-0.9,1-0.8,1.3-1.5c-0.6-1-1.7-0.2-2.5-0.6c0.4-0.7,1.7-1.3,0.3-2.3c-0.4-0.2,1-0.3,1-1.1c-0.3-0.7-1.2,0.2-1.8-0.6
		c-0.2-0.7,0.9-0.7,1-1.6c-2.7,0-1.6-2.2-1.6-3.5c0-1.7-0.8-3.3-0.4-4.9c0.1-0.3-0.2-0.6-0.5-0.5c-0.2,0-0.5,0.2-0.6,0.4
		c-0.5,1.2-1,2.3-1.3,3.5c-0.5,1.8-0.2,3.8-2.4,4.9c-0.6,0.3,0.5,1.1,0.3,1.9c-2.3-0.3-2.8,0.6-2.3,2.8c0.1,0.2-0.5,2-1.3,2.6
		c-0.7,0.5-1.9-0.2-2.6,0.7c0,0-0.4-0.1-0.5-0.3c-0.2-0.3-0.1-0.6,0.2-0.9c0.5-0.4,1.2-0.3,1.5-1.2c0.2-0.6,0.7-1,1.2-1.6
		c-1.3-1.3-2.7,0-4.2-0.1c0-0.8,0.8-1.6,0.7-2.1c-0.3-0.9,2.8-1.5,0.2-2.3c0.1-0.1,0.3-0.2,0.4-0.4c0.6-0.5,0.5-1.3,1-2.3
		c-1.1,0.5-2.2,0.6-3,1.4c0.6-1.8-0.2-3.2-0.6-4.9c-1.2,0.7-0.4,2.9-2.5,2.7c-0.4,0,0.6,1.2,0.3,1.9c-0.5,1-1.6-1.1-1.9,0.4
		c-0.3,1.4-1.2,0.5-2,0.4c0.1,1.1,0.2,2.1-1,2.8c-0.7,0.4,0.2,4.6,1,5.4c0.3,0.4,1.1,0.6,0.8,1.2c-0.4,0.7-1.1,0.3-1.6,0.1
		c-0.9-0.3-1.8-0.7-2.8-1.1c-0.3,0.7-0.1,1.2,0.6,1.4c0.8,0.2,1.2,0.8,1.7,1.3c0.3,0.3,1,0.5,0.6,1.1c-0.3,0.5-0.8,0.2-1.3,0
		c-0.4-0.2-0.7-0.3-1.2-0.6c-0.4,0.7,0,1.3,0,2c0,0.1,0.1,0.1,0.1,0.2c0.9,0.7-2.1,0.6-0.3,1.4c0.7,0.3,1.5,0.6,2.2,0.9
		c0.5,0.3,0.4,1.1,1.3,1.3c-2,1-3.6,0.2-5.2-0.3c0-0.7,0.9-0.7,0.8-1.4c-0.4-0.6-1.2,0-1.7-0.5c-0.3-0.9,0.9-0.9,0.9-1.7
		c-1.8-0.4-1.8-1.8-1.7-3.3c0.2-1.8-0.9-3.5-0.7-5.3c0-0.2-0.2-0.6-0.5-0.4c-0.3,0.1-0.5,0.4-0.7,0.7c-0.9,1.4-0.5,3.2-1.3,4.7
		c-0.4,0.9-0.8,1.8-1.2,2.7c-0.2,0.7-0.9,0.8-1.3,0.6c-0.7-0.5,0.6-0.7,0.2-1.4c-0.8-0.3-2.4,0.9-2.6-1.1c0-0.1-0.4-0.2-0.5-0.1
		c-1.5,0.6-2.8,1.2-1-1.1c0.2-0.2,0-0.5-0.3-0.6c-1.2-0.1-1.7-0.8-1.9-1.9c-0.1-0.6-0.8-0.4-0.8,0c-0.2,1.2-1.5,1.9-1.1,3.5
		c-0.1-0.1-0.1-0.1-0.2-0.1c0.3-1.1-0.3-1.8-1.8-1.8c-0.8,0-1.2,0.5-1.8,1c-0.8,0.7-1.6,0.3-2.3-0.4c-0.9-1,0.3-1.1,0.5-1.6
		c0.8-1.7,3.2-1.9,3.6-4.1c0.3-1.5,0.2-2.4-1.5-2.2c-0.6,0-1.1,0.2-1.4-0.5c-0.3-0.7,0.1-1.2,0.6-1.6c1.1-0.9,1.7-2.2,1.3-3.6
		c-0.4-1.5-1.9-0.5-3-1.1c1.5-1.7,1.9-3.2-0.8-4.2c-1-0.4-0.6-1.7-0.7-2.6c-0.1-1.1-0.6-2-1.7-2c-1.1,0.1-0.7,1.2-0.7,1.9
		c0,0.9,0.1,2.1-0.9,2.5c-2.7,1.1-2.3,2.6-0.5,4.4c-1,0.6-2.1-0.7-2.9,0.4c-1.2,1.7-0.6,3,0.8,4.1c0.5,0.4,0.9,0.7,1.3,1.2
		c-0.2,0.4-0.3,0.8-0.4,1.2c-0.5-0.4-0.9-0.8-1.5-0.5c-0.7,0.4-2,0.5-2,1.4c0,1.1,0.5,2.5,1.5,3.1c0.4,0.2,0.7,0.5,1,0.8
		c-0.2,0.6-0.5,1.2-1.2,1.7c0,0,0,0-0.1,0.1c-0.1,0-0.2-0.1-0.3-0.1c-0.6-0.3-1.2,0-1.8,0.4c0-0.1,0-0.2,0.1-0.3
		c0.1-0.5-1.1-0.2-1.6-0.5c0.6-0.9,1.6-1.3,2.6-1.9c-0.7-0.7-1.7,0-2.7-0.9c-0.5-0.3,3.2-1.9-0.1-2c-0.2-0.9,1.1-0.7,1-1.5
		c-0.2,0-0.3-0.1-0.4-0.2c0.5-0.5,0.9-1.1,0.6-1.7c-0.3-0.6-1-0.3-1.5,0c-0.2,0.1-0.3,0.1-0.5,0.2c0-0.4,0.1-1,0.3-1.6
		c0.2-0.4,0.3-0.7,0-0.8c0.1-0.7,0.2-1.3,0.7-1.9c0.2-0.2,0-0.6-0.2-0.7c-0.4-0.3-0.8-0.1-1.1,0.2c0,0-0.1,0.1-0.1,0.1
		c-0.5-1.1-0.4-1.3,1.4-3.1c-1.5,0.8-2.1,0.8-2.3,0c0.1-0.1,0.3-0.2,0.4-0.2c0.4-0.2,0.8-0.5,0.6-1c-0.2-0.6-0.7-0.4-1.1-0.3
		c-0.2-1.1-1.1-2.2-0.7-3.6c0-0.1-0.2-0.3-0.3-0.4c0.3-0.2,0.6-0.4,1-0.6c0.2-0.1,0.3-0.5,0.1-0.7c-0.3-0.3-0.7-0.3-1.1-0.1
		c-1,0.3-2,0.9-3-0.3c-0.3-0.4-1.2-0.7-1-1.3c0.1-0.5,1-0.4,1.5-0.5c0.5-0.1,1.3,0,1.1-0.9c-0.1-0.7,0.8-1.6-0.2-2.2
		c-0.7-0.4-1.4-0.6-2.1-0.1c-0.2,0.2-0.5,0.3-0.7,0.5c-0.4,0.2-0.8,0.2-1.3,0c-0.5-0.3-0.7-0.5-0.1-1c0.7-0.5,1.1-1.3,2.1-1.5
		c1-0.2,1.3-1.3,1.4-2.1c0-1-1.1-0.6-1.7-0.7c-0.5-0.1-1.2,0.2-1.4-0.3c-0.3-0.6,0.5-0.7,0.8-1.1c0.8-0.9,0.7-1.9-0.3-1.9
		c-1.2,0-1.6-0.6-1.8-1.5c-0.1-0.5-0.4-0.8-1-0.8c-0.7,0.1-0.4,0.6-0.4,1c0,0.6-0.1,0.8-0.8,1c-0.1,0-0.1,0-0.2,0.1
		c0.3-1,0.7-2,1.1-2.9c-0.3-0.8-0.6-1.5-0.4-2.4c0.1-0.2-0.2-0.7-0.6-0.7c-0.3,0-0.6,0.3-0.8,0.6c-1,1.2-1.3,2.9-1.3,4.3
		c0,1.7-1.6,2.5-1.4,4.1c0,0.4-0.5,0.2-0.9,0.2c-0.3,0-0.9,0-0.8,0.3c0.5,2.8-1.8,1.3-2.8,1.7c-0.6,0.2-1.4-0.1-2.2-0.6
		c1-0.7,2.1-1.1,2.7-2.1c0.2-0.4,1-0.6,0.5-1.2c-0.3-0.5-0.9-0.7-1.4-0.4c-0.8,0.5-1.9-0.1-2.7,0.7c-0.5,0.4-1.2,0.1-1.4-0.2
		c-0.4-0.5,0.5-0.7,0.7-1c1.4-1.7,2.1-3.8,2.5-6.2c-1.4,1.1-3.2,0.7-4.7,1.9c1.6-1.9-0.4-3.3-0.5-4.9c0-0.3-0.3-0.6-0.7-0.6
		c-0.3,0-0.3,0.4-0.4,0.6c-0.5,1.2-0.5,2.9-2.8,2.2c-0.8-0.3-0.3,0.8,0,1.2c0.2,0.3,0.9,0.6,0.5,1.1c-0.3,0.4-0.9,0.2-1.3,0
		c-0.8-0.5-1.5-1.1-2,0.3c0,0.1-0.2,0.3-0.3,0.3c-2.8-0.9-2.7,2.4-4.4,3c-0.3,0.1-0.6,0.6-1,0.3c-0.5-0.4-0.1-0.7,0.2-1
		c0.3-0.3,0.7-0.7,0.1-0.9c-2-0.8,0.8-0.8,0.3-1.2c-0.4-1-1.2-0.4-1.7-0.9c-0.2-0.8,1-0.8,0.9-1.7c-2.3,0-1.7-2.1-1.6-3
		c0.2-1.9-1.1-3.6-0.7-5.5c0-0.2-0.2-0.5-0.4-0.6c-0.4-0.1-0.6,0.2-0.8,0.5c-0.2,0.6-0.4,1.3-0.6,1.9c-0.2,0.6-0.3,1.2-0.6,1.7
		c-0.3,0.5-0.9,1.1-1.5,0.7c-0.8-0.7,0.6-0.7,0.6-1.5c-2.2-0.3-1.7-2.2-1.6-3.5c0.2-1.8-1-3.3-0.8-5c0-0.2-0.3-0.5-0.5-0.5
		c-0.2,0-0.5,0.3-0.6,0.5c-0.5,1.4-1.3,2.8-1.4,4.2c-0.2,1.3-1.1,2.3-1.1,3.5c0,0.5-0.3,0.5-0.6,0.5c-0.7,0-1.7,0.4-2.1-0.2
		c-0.5-0.6,0.4-1.2,0.8-1.7c-0.5-0.8-1.2-0.1-1.7-0.4c0-0.9,1-0.8,1.3-1.5c-0.6-1-1.7-0.2-2.5-0.6c0.4-0.7,1.7-1.3,0.3-2.3
		c-0.4-0.2,1-0.3,1-1.1c-0.3-0.7-1.2,0.2-1.8-0.6c-0.2-0.7,0.9-0.7,1-1.6c-2.7,0-1.6-2.2-1.6-3.5c0-1.7-0.8-3.3-0.4-4.9
		c0.1-0.3-0.2-0.6-0.5-0.5c-0.2,0-0.5,0.2-0.6,0.4c-0.5,1.2-1,2.3-1.3,3.5c-0.4,1.4-0.3,2.9-1.3,4c0.3-1.5,0.6-3,0.9-4.4
		c-0.5-0.1-1-0.2-1.3,0c-0.6,0.2-1.4-0.1-2.2-0.6c1-0.7,2.1-1.1,2.7-2.1c0.2-0.4,1-0.6,0.5-1.2c-0.3-0.5-0.9-0.7-1.4-0.4
		c-0.8,0.5-1.9-0.1-2.7,0.7c-0.5,0.4-1.2,0.1-1.4-0.2c-0.4-0.5,0.5-0.7,0.7-1c1.4-1.7,2.1-3.8,2.5-6.2c-1.4,1.1-3.2,0.7-4.7,1.9
		c1.6-1.9-0.4-3.3-0.5-4.9c0-0.3-0.3-0.6-0.7-0.6c-0.3,0-0.3,0.4-0.4,0.6c-0.5,1.2-0.5,2.9-2.8,2.2c-0.8-0.3-0.3,0.8,0,1.2
		c0.2,0.3,0.9,0.6,0.5,1.1c-0.3,0.4-0.9,0.2-1.3,0c-0.8-0.5-1.5-1.1-2,0.3c0,0.1-0.2,0.3-0.3,0.3c-2.8-0.9-2.7,2.4-4.4,3
		c-0.3,0.1-0.6,0.6-1,0.3c-0.5-0.4-0.1-0.7,0.2-1c0.3-0.3,0.7-0.7,0.1-0.9c-2-0.8,0.8-0.8,0.3-1.2c-0.4-1-1.2-0.4-1.7-0.9
		c-0.2-0.8,1-0.8,0.9-1.7c-2.3,0-1.7-2.1-1.6-3c0.2-1.9-1.1-3.6-0.7-5.5c0-0.2-0.2-0.5-0.4-0.6c-0.4-0.1-0.6,0.2-0.8,0.5
		c-0.2,0.6-0.4,1.3-0.6,1.9c-0.2,0.6-0.3,1.2-0.6,1.7c-0.3,0.5-0.9,1.1-1.5,0.7c-0.8-0.7,0.6-0.7,0.6-1.5c-2.2-0.3-1.7-2.2-1.6-3.5
		c0.2-1.8-1-3.3-0.8-5c0-0.2-0.3-0.5-0.5-0.5c-0.2,0-0.5,0.3-0.6,0.5c-0.5,1.4-1.3,2.8-1.4,4.2c-0.2,1.3-1.1,2.3-1.1,3.5
		c0,0.5-0.3,0.5-0.6,0.5c-0.7,0-1.7,0.4-2.1-0.2c-0.5-0.6,0.4-1.2,0.8-1.7c-0.5-0.8-1.2-0.1-1.7-0.4c0-0.9,1-0.8,1.3-1.5
		c-0.6-1-1.7-0.2-2.5-0.6c0.4-0.7,1.7-1.3,0.3-2.3c-0.4-0.2,1-0.3,1-1.1c-0.3-0.7-1.2,0.2-1.8-0.6c-0.2-0.7,0.9-0.7,1-1.6
		c-2.7,0-1.6-2.2-1.6-3.5c0-1.7-0.8-3.3-0.4-4.9c0.1-0.3-0.2-0.6-0.5-0.5c-0.2,0-0.5,0.2-0.6,0.4c-0.5,1.2-1,2.3-1.3,3.5
		c-0.5,1.8-0.2,3.8-2.4,4.9c-0.6,0.3,0.5,1.1,0.3,1.9c-2.3-0.3-2.8,0.6-2.3,2.8c0.1,0.2-0.5,2-1.3,2.6c-0.7,0.5-1.9-0.2-2.6,0.7
		c0,0-0.4-0.1-0.5-0.3c-0.2-0.3-0.1-0.6,0.2-0.9c0.5-0.4,1.2-0.3,1.5-1.2c0.2-0.6,0.7-1,1.2-1.6c-1.3-1.3-2.7,0-4.2-0.1
		c0-0.8,0.8-1.6,0.7-2.1c-0.3-0.9,2.8-1.5,0.2-2.3c0.1-0.1,0.3-0.2,0.4-0.4c0.6-0.5,0.5-1.3,1-2.3c-1.1,0.5-2.2,0.6-3,1.4
		c0.6-1.8-0.2-3.2-0.6-4.9c-1.2,0.7-0.4,2.9-2.5,2.7c-0.4,0,0.6,1.2,0.3,1.9c-0.5,1-1.6-1.1-1.9,0.4c-0.3,1.4-1.2,0.5-2,0.4
		c0.1,1.1,0.2,2.1-1,2.8c-0.7,0.4,0.2,4.6,1,5.4c0.3,0.4,1.1,0.6,0.8,1.2c-0.4,0.7-1.1,0.3-1.6,0.1c-0.9-0.3-1.8-0.7-2.8-1.1
		c-0.3,0.7-0.1,1.2,0.6,1.4c0.8,0.2,1.2,0.8,1.7,1.3c0.3,0.3,1,0.5,0.6,1.1c-0.3,0.5-0.8,0.2-1.3,0c-0.4-0.2-0.7-0.3-1.2-0.6
		c-0.4,0.7,0,1.3,0,2c0,0.1,0.1,0.1,0.1,0.2c0.9,0.7-2.1,0.6-0.3,1.4c0.7,0.3,1.5,0.6,2.2,0.9c0.5,0.3,0.4,1.1,1.3,1.3
		c-2,1-3.6,0.2-5.2-0.3c0-0.7,0.9-0.7,0.8-1.4c-0.4-0.6-1.2,0-1.7-0.5c-0.3-0.9,0.9-0.9,0.9-1.7c-1.8-0.4-1.8-1.8-1.7-3.3
		c0.2-1.8-0.9-3.5-0.7-5.3c0-0.2-0.2-0.6-0.5-0.4c-0.3,0.1-0.5,0.4-0.7,0.7c-0.9,1.4-0.5,3.2-1.3,4.7c-0.4,0.9-0.8,1.8-1.2,2.7
		c-0.3,0.7-0.9,0.8-1.3,0.6c-0.7-0.5,0.6-0.7,0.2-1.4c-0.8-0.3-2.4,0.9-2.6-1.1c0-0.1-0.4-0.2-0.5-0.1c-1.5,0.6-2.8,1.2-1-1.1
		c0.2-0.2,0-0.5-0.3-0.6c-1.2-0.1-1.7-0.8-1.9-1.9c-0.1-0.6-0.8-0.4-0.8,0c-0.2,1.2-1.5,1.9-1.1,3.5c-0.9-0.9-2.1-0.6-2.8-1.4
		c-1.3,2.6,0.6,4.4,1.3,6.6c-2.5,0-4.5-1.3-6.7-2.2c1.4-0.9-0.7-2.6,1.1-3.4c-0.8-0.7-1.6,0.1-2.2-0.3c0.1-0.8,1-0.8,1.2-1.5
		c-2-0.7-1.9-2.6-1.6-4c0.3-1.7-0.7-3.1-0.7-4.7c0-0.8-0.7-0.4-1.1,0.1c-0.9,1.1-0.8,2.5-1.2,3.8c-0.4,1.6-0.2,3.4-1.7,4.6
		c-0.7,0.6,0.7,1,0.3,2c-0.6-1-3.1,1.1-2.4-1.9c0.1-0.5-1.1-0.2-1.6-0.5c0.6-0.9,1.6-1.3,2.6-1.9c-0.7-0.7-1.7,0-2.7-0.9
		c-0.5-0.3,3.2-1.9-0.1-2c-0.2-0.9,1.1-0.7,1-1.5c-1.8-0.5-2.3-1.5-1.5-3.3c0.2-0.4,0.4-0.8-0.2-0.8c-1-0.1-1.2-0.4-0.5-1.2
		c0.1-0.2,0.3-0.5,0.2-0.7c-0.7-1.5-0.7-1.5,1.2-3.5c-2,1.1-2.4,0.7-2.4-1.1c0.1-1.3-1.1-2.5-0.7-4c0-0.1-0.4-0.5-0.5-0.5
		c-0.3,0.1-0.6,0.3-0.8,0.6c-1,1.1-0.8,2.5-1,3.8c-0.5,2.8-2.3,4.4-4.2,5.9c-0.1,0.3-0.1,0.5-0.2,0.8c-0.1,0.3-0.1,0.6-0.2,0.9
		c0.2,0.1,0.3,0.3,0.4,0.7c0,0.7,0.3,1.4-0.9,1.5c-0.1,0.2-0.1,0.5-0.2,0.7c0,0.1,0.1,0.2,0.1,0.2c0.3,0.5,0.2,0.8-0.3,1.1
		c-0.1,0-0.1,0.1-0.2,0.1c-0.2,0.8-0.4,1.6-0.5,2.4c-0.1,0.4-0.1,0.7-0.2,1.1c-0.5,0.1-0.7,0-0.6-1c0.1-0.7-1.5-1.1-2.2-0.4
		c-1.3,1.2-2.7,1.2-4.5,0.8c1.4-1.5,3-2,4.6-2.4c1.2-0.3,1.9-1.4,3-1.8c0.3-0.1,0.4-0.5,0.1-0.7c-0.3-0.4-0.7-0.3-1.1-0.1
		c-1.1,0.3-2.1,0.9-3-0.4c-0.3-0.5-1.2-0.7-1-1.4c0.1-0.5,1-0.4,1.5-0.5c0.5-0.1,1.3,0,1.2-0.9c-0.1-0.7,0.8-1.6-0.2-2.2
		c-0.7-0.4-1.4-0.6-2.1-0.1c-0.2,0.2-0.5,0.3-0.7,0.5c-0.4,0.3-0.9,0.2-1.3,0c-0.5-0.3-0.8-0.6-0.1-1c0.7-0.5,1.1-1.3,2.1-1.5
		c1-0.2,1.3-1.4,1.4-2.1c0-1-1.1-0.7-1.8-0.7c-0.5-0.1-1.2,0.2-1.4-0.3c-0.3-0.6,0.5-0.8,0.8-1.1c0.8-0.9,0.7-1.9-0.3-1.9
		c-1.2,0-1.6-0.6-1.9-1.5c-0.1-0.5-0.5-0.8-1-0.8c-0.8,0.1-0.4,0.6-0.4,1c0,0.6-0.1,0.8-0.8,1c-2,0.5-2.1,1-0.8,2.7
		c-1.1,0.4-2.6,0.4-1.7,2.5c0.6,1.3,2,1.5,2.5,2.7c-1.1,0.1-2-1.1-3.1-0.5c-0.6,0.3-1.6,0.1-1.6,1c0,0.9,0.2,1.8,1.2,2.3
		c0.8,0.4,1.8,0.4,2.5,1.4c-1.4-0.5-2.6-1.3-3.3,0.6c-0.2,0.7-0.8,0.4-1.3,0.2c-0.4-0.2-0.9-0.8-1.3-0.1c-0.3,0.6,0.1,1.1,0.5,1.4
		c0.4,0.3,1.1,0.4,1.2,1.1c-2.1,1-2.1,0.6-1.2,2.8c0.4,1.1,0.2,1.2-0.7,1.1c-0.6-0.1-1.5-0.7-1.6,0.5c-0.1,0.9,0.7,1.4,1.6,1.4
		c2.6,0,4.8,1,7.4,2.3c-3.4,0.2-6.4,0.1-9-1.7c-0.4-0.3-1-0.8-1.5-0.2c-0.1,0.1-0.2,0.3-0.2,0.4c-0.3,0-0.7,0.1-0.9,0.3
		c-1,1.2-2.3,1.2-3.8,1c1.1-1.4,2.5-1.9,3.9-2.4c1.1-0.3,1.6-1.3,2.5-1.7c0.2-0.1,0.3-0.4,0.1-0.6c-0.3-0.3-0.6-0.2-1-0.1
		c-0.9,0.4-1.7,0.9-2.7-0.1c-0.3-0.4-1.1-0.6-1-1.1c0.1-0.5,0.8-0.4,1.3-0.5c0.4-0.1,1.1-0.1,1-0.8c-0.1-0.6,0.6-1.4-0.3-1.9
		c-0.6-0.3-1.2-0.4-1.8,0.1c-0.2,0.2-0.4,0.3-0.6,0.5c-0.4,0.2-0.7,0.2-1.1,0.1c-0.5-0.2-0.7-0.4-0.2-0.8c0.6-0.5,0.9-1.2,1.8-1.4
		c0.9-0.2,1.1-1.3,1.1-1.9c0-0.9-1-0.5-1.6-0.5c-0.4,0-1,0.2-1.3-0.2c-0.3-0.5,0.4-0.7,0.6-1c0.6-0.8,0.5-1.7-0.4-1.6
		c-1,0-1.4-0.4-1.7-1.2c-0.1-0.4-0.4-0.7-0.9-0.6c-0.7,0.1-0.4,0.6-0.3,0.9c0.1,0.5-0.1,0.7-0.6,0.9c-1.7,0.5-1.8,1-0.5,2.4
		c-0.9,0.4-2.3,0.5-1.4,2.2c0.6,1.1,1.8,1.2,2.4,2.2c-0.9,0.2-1.8-0.8-2.8-0.2c-0.5,0.3-1.4,0.1-1.3,0.9c0,0.3,0.1,0.6,0.2,0.9
		c-0.2-0.2-0.5-0.4-0.8-0.6c-0.8-0.5-1.2-1-0.3-1.7c0.7-0.5,0.5-0.9,0-1.4c-0.7-0.6-1.4-1.2-1.8-2.1c-0.2-0.5-0.5-0.8,0.4-1
		c0.9-0.1,1.1-1,0.6-1.5c-1.8-1.8-1.6-3.9-1.6-6.1c0-0.3-0.1-0.6-0.1-0.9c0-0.1-0.1-0.1-0.3-0.2c-0.5,0.9-0.3,1.8-0.3,2.6
		c0,1.4-0.4,2.5-1.4,3.5c-1.2,1.2-1.1,1.5,0.4,2.5c0.5,0.3,0.2,0.6,0,0.8c-0.4,0.9-1.2,1.4-1.9,1.9c-0.6,0.4-1,0.8-0.2,1.5
		c0.7,0.5,0.4,0.9-0.3,1.2c-0.3,0.1-0.6,0.3-0.9,0.5c-0.4,0.3-1.1,0.4-1.1,1c0,0.6,0.8,0.3,1.2,0.8c-0.2,0-0.3,0-0.4,0
		c0-0.2-0.2-0.3-0.4-0.4c-1.4-0.4-2.7-1.1-3.9-2c-0.5-0.3-1.2-0.2-1.7-0.1c-1.1,0.2-2.1,0.2-3.2,0.1c-0.5,0-1.3,0.1-1.3-0.7
		c0-0.6-0.7-1.3,0-1.7c0.6-0.4,1.5-0.7,2.3-0.2c0.1,0.1,0.2,0.2,0.3,0.3c0.4,0.2,0.8,0.5,1.2,0.2c0.3-0.2,0.1-0.6,0-1
		c-0.1-0.4-0.1-0.7,0.4-0.6c0.6,0.1,0.7,0,0.5-0.6c-0.1-0.3,0-0.5,0.2-0.8c0.3-0.3,0.2-0.6-0.1-0.9c-0.3-0.2-0.5-0.1-0.8,0.2
		c-0.7,0.9-1.7,0.3-2.5,0.3c-0.8,0.1-1.7-0.2-2.6-0.3c-0.4-0.1-0.7-0.2-0.7-0.7c0-0.5,0.4-0.5,0.7-0.5c0.7,0,1.5,0.1,2.3-0.1
		c-0.6-1.1-0.5-1.4,0.8-1.8c0.3-0.1,0.7-0.1,1-0.2c0.3-0.1,0.4-0.3,0.4-0.5c0-0.3-0.3-0.2-0.5-0.3c-1.1-0.4-2.3,0.2-3.3-0.6
		c-0.2-0.1-0.6,0.1-0.9,0.2c-0.2,0-0.5,0.2-0.7,0c-0.1-0.2,0-0.6,0.2-0.8c0.7-0.4,1.2-0.8,0.8-1.7c-0.1-0.2,0.1-0.3,0.3-0.4
		c0.5-0.2,0.7-0.5,0.5-1c-0.2-0.6-0.7-0.3-1.1-0.3c-0.2,0-0.4,0-0.6-0.1c-0.3-0.2-0.7-0.2-0.7-0.7c0-0.5,0.4-0.5,0.8-0.5
		c0.4,0,0.6-0.3,0.8-0.6c0.4-0.6,0.4-1-0.5-0.9c-0.1,0-0.2,0-0.3,0c-1.3,0-1.3,0-0.8-1.2c0.1-0.3,0.4-0.5,0.2-0.9
		c-0.1-0.2-0.4-0.2-1.3,0.1c1.2-1.3-0.2-1.9-0.4-2.8c-0.1-0.2-0.3-0.3-0.5-0.2c-0.3,0.1-0.3,0.4-0.3,0.6c0,0.6,0.5,1.1,0.5,1.9
		c-0.6-0.1-1.3-0.5-1.1,0.6c0.1,0.5-0.4,0.3-0.7,0.2c-0.2,0-0.5-0.1-0.6,0.1c-0.1,0.2,0.1,0.4,0.2,0.5c0.3,0.4,0.5,0.7,0.8,1.1
		c-0.4,0.4-0.8,0.2-1.2,0.2c-0.6,0-0.8,0.2-0.4,0.8c0.3,0.5,0.9,1.1,0.6,1.4c-0.4,0.5-1.2,0.7-1.8,1c-0.1,0-0.1,0-0.2,0
		c-0.4,0.1-1,0-0.9,0.7c0.1,0.5,0,1.3,1,1.4c0.2,0,0.5,0,0.6,0.3c0.1,0.4-0.3,0.3-0.5,0.5c-0.9,1.1-2,1.3-3.3,1
		c-0.4-0.1-0.7,0.1-0.8,0.5c-0.2,0.4,0.1,0.5,0.3,0.8c0.6,0.6,1.4,0.9,2.2,0.9c0.3,0,0.7-0.1,1,0.2c0.1,0.2,0.3,0.3,0.1,0.5
		c-0.1,0.2-0.3,0.1-0.5,0c-1.1-0.5-2,0-3,0.4c-0.2,0.1-0.4,0.2-0.5,0.5c-0.1,0.7-0.5,1-1.2,1c-0.7,0-1.3,1.2-1,1.9
		c0.1,0.3,0.3,0.5,0.6,0.4c0.7-0.2,1.5-0.1,2-0.9c0.2-0.3,0.5-0.4,0.5,0.1c0,0.5,0.2,0.6,0.7,0.6c0.6,0,0.7,0.7,0.6,1.2
		c-0.1,0.6-0.6,0.5-1,0.4c-0.4-0.1-0.7-0.7-1.1-0.4c-0.6,0.4-1.2,0.8-1.5,1.5c-0.2,0.6-0.6,0.7-1.2,0.8c-1.1,0-2.2,0.2-3.3,0.3
		c-0.1,0-0.4,0-0.4,0.1c-0.1,0.3-0.3,0.6-0.6,0.8c0,0,0,0,0,0c-0.1,0.1-0.2,0.2-0.2,0.2c-0.1,0.1-0.1,0.1-0.2,0.2
		c-0.9,0.8-2,0.8-3.4,0.6c1.1-1.4,2.5-1.9,3.9-2.4c1.1-0.3,1.6-1.3,2.5-1.7c0.2-0.1,0.3-0.4,0.1-0.6c-0.3-0.3-0.6-0.2-1-0.1
		c-0.9,0.4-1.7,0.9-2.7-0.1c-0.3-0.4-1.1-0.6-1-1.1c0.1-0.5,0.8-0.4,1.3-0.5c0.4-0.1,1.1-0.1,1-0.8c-0.1-0.6,0.6-1.4-0.3-1.9
		c-0.6-0.3-1.2-0.4-1.8,0.1c-0.2,0.2-0.4,0.3-0.6,0.5c-0.4,0.2-0.7,0.2-1.1,0.1c-0.5-0.2-0.7-0.4-0.2-0.8c0.6-0.5,0.9-1.2,1.8-1.4
		c0.9-0.2,1.1-1.3,1.1-1.9c0-0.9-1-0.5-1.6-0.5c-0.4,0-1,0.2-1.3-0.2c-0.3-0.5,0.4-0.7,0.6-1c0.6-0.8,0.5-1.7-0.4-1.6
		c-1,0-1.4-0.4-1.7-1.2c-0.1-0.4-0.4-0.7-0.9-0.6c-0.7,0.1-0.4,0.6-0.3,0.9c0.1,0.5-0.1,0.7-0.6,0.9c-1.7,0.5-1.8,1-0.5,2.4
		c-0.9,0.4-2.3,0.5-1.4,2.2c0.6,1.1,1.8,1.2,2.4,2.2c-0.9,0.2-1.8-0.8-2.8-0.2c-0.5,0.3-1.4,0.1-1.3,0.9c0,0.2,0,0.5,0.1,0.7
		c-0.1,0.1-0.2,0.2-0.4,0.2c0.2-0.8,0.7-1.7,0.1-2.4c-0.8-0.9-1.4,0.6-2.4,0.3c0.4-0.2,0.7-0.4,1-0.6c0.4-0.3,1.2-0.8-0.1-0.9
		c-0.7-0.1-0.1-0.8-0.5-1c-0.5-0.3-0.2-0.4,0-0.9c0.3-0.6,0.3-1.4,0.6-2.1c0.1-0.2-0.2-0.4-0.5-0.4c-1.5,0.1-2.2-0.3-2.6-1.8
		c-0.1-0.3-0.1-0.5-0.4-0.5c-0.3,0-0.2,0.3-0.2,0.5c0,0.5,0.2,1.2-0.3,1.4c-0.7,0.2-1.4,0.8-2.1,0.7c-1-0.1-0.9,0.3-0.5,0.8
		c0.7,0.9-0.3,1.8,0.1,2.7c0,0-0.2,0.1-0.3,0.1c-1.1,0-0.6,0.5-0.2,0.8c0.4,0.3,0.8,0.5,0.8,1.2c-0.5,0.2-0.9-0.2-1.3-0.4
		c-0.2-0.1-0.4-0.2-0.6,0c-0.2,0.2-0.2,0.4,0,0.6c0.4,0.4,0.3,1,0.8,1.7c-0.7-0.3-1.5-1-1.4,0.3c0,0.1,0,0.2-0.1,0.3
		c-0.8,0.4-0.8,0.4-0.1,1c0.1,0.1,0.1,0.1,0.2,0.1c0.5,0.4,0.8,0.9,0.8,1.5c0,0.2-0.1,0.3-0.3,0.3c-0.6,0-0.9-0.5-1.3-1
		c-0.2-0.2-0.3-0.6-0.6-0.4c-0.3,0.2-0.1,0.6,0,0.8c0.6,1,1.2,2,1.7,3.2c-1.1-0.1-2.3-0.3-3.4-0.4c-0.2-0.7,1-0.8,0.9-1.6
		c-2.3,0-1.7-2.1-1.6-3c0.2-1.9-1.1-3.6-0.7-5.5c0-0.2-0.2-0.5-0.4-0.6c-0.4-0.1-0.6,0.2-0.8,0.5c-0.2,0.6-0.4,1.3-0.6,1.9
		c-0.2,0.6-0.3,1.2-0.6,1.7c-0.3,0.5-0.9,1.1-1.5,0.7c-0.8-0.7,0.6-0.7,0.6-1.5c-2.2-0.3-1.7-2.2-1.6-3.5c0.2-1.8-1-3.3-0.8-5
		c0-0.2-0.3-0.5-0.5-0.5c-0.2,0-0.5,0.3-0.6,0.5c-0.5,1.4-1.3,2.8-1.4,4.2c-0.2,1.3-1.1,2.3-1.1,3.5c0,0.5-0.3,0.5-0.6,0.5
		c-0.7,0-1.7,0.4-2.1-0.2c-0.5-0.6,0.4-1.2,0.8-1.7c-0.5-0.8-1.2-0.1-1.7-0.4c0-0.9,1-0.8,1.3-1.5c-0.6-1-1.7-0.2-2.5-0.6
		c0.4-0.7,1.7-1.3,0.3-2.3c-0.4-0.2,1-0.3,1-1.1c-0.3-0.7-1.2,0.2-1.8-0.6c-0.2-0.7,0.9-0.7,1-1.6c-2.7,0-1.6-2.2-1.6-3.5
		c0-1.7-0.8-3.3-0.4-4.9c0.1-0.3-0.2-0.6-0.5-0.5c-0.2,0-0.5,0.2-0.6,0.4c-0.5,1.2-1,2.3-1.3,3.5c-0.5,1.8-0.2,3.8-2.4,4.9
		c-0.6,0.3,0.5,1.1,0.3,1.9c-2.3-0.3-2.8,0.6-2.3,2.8c0.1,0.2-0.5,2-1.3,2.6c-0.7,0.5-1.9-0.2-2.6,0.7c0,0-0.4-0.1-0.5-0.3
		c-0.2-0.3-0.1-0.6,0.2-0.9c0.5-0.4,1.2-0.3,1.5-1.2c0.2-0.6,0.7-1,1.2-1.6c-1.3-1.3-2.7,0-4.2-0.1c0-0.8,0.8-1.6,0.7-2.1
		c-0.3-0.9,2.8-1.5,0.2-2.3c0.1-0.1,0.3-0.2,0.4-0.4c0.6-0.5,0.5-1.3,1-2.3c-1.1,0.5-2.2,0.6-3,1.4c0.6-1.8-0.2-3.2-0.6-4.9
		c-1.2,0.7-0.4,2.9-2.5,2.7c-0.4,0,0.6,1.2,0.3,1.9c-0.5,1-1.6-1.1-1.9,0.4c-0.3,1.4-1.2,0.5-2,0.4c0.1,1.1,0.2,2.1-1,2.8
		c-0.7,0.4,0.2,4.6,1,5.4c0.3,0.4,1.1,0.6,0.8,1.2c-0.4,0.7-1.1,0.3-1.6,0.1c-0.9-0.3-1.8-0.7-2.8-1.1c-0.3,0.7-0.1,1.2,0.6,1.4
		c0.8,0.2,1.2,0.8,1.7,1.3c0.3,0.3,1,0.5,0.6,1.1c-0.3,0.5-0.8,0.2-1.2,0c-0.4-0.2-0.7-0.3-1.2-0.6c-0.4,0.7,0,1.3,0,2
		c0,0.1,0.1,0.1,0.1,0.2c0.4,0.3,0,0.5-0.4,0.6c-0.6-0.1-1.2-0.1-1.8-0.2c0.2-0.2,0.3-0.3,0.3-0.6c-1.8-0.4-1.8-1.8-1.7-3.3
		c0.2-1.8-0.9-3.5-0.7-5.3c0-0.2-0.2-0.6-0.5-0.4c-0.3,0.1-0.5,0.4-0.7,0.7c-0.9,1.4-0.5,3.2-1.3,4.7c-0.4,0.9-0.8,1.8-1.2,2.7
		c-0.3,0.7-0.9,0.8-1.3,0.6c-0.7-0.5,0.6-0.7,0.2-1.4c0,0,0,0,0,0c0.2-0.2,0.3-0.5,0.5-0.8c0.3-0.7,0-1.1-0.7-1
		c-0.4,0-0.5,0.2-0.8,0.5c-0.3,0.3-0.6,0.2-0.8,0c0.1-0.2,0.2-0.5,0-0.7c0,0,0,0,0,0c0,0,0.1-0.1,0.1-0.1c0.3-0.8,1.4-0.9,1.5-1.9
		c0.1-0.7,0.1-1-0.7-1c-0.3,0-0.5,0.1-0.6-0.2c-0.2-0.3,0-0.5,0.3-0.7c0.5-0.4,0.7-1,0.5-1.6c-0.2-0.6-0.9-0.2-1.4-0.5
		c0.6-0.8,0.8-1.4-0.4-1.9c-0.5-0.2-0.3-0.7-0.3-1.1c0-0.5-0.3-0.9-0.8-0.8c-0.5,0-0.3,0.5-0.3,0.9c0,0.4,0.1,0.9-0.4,1.1
		c-0.4,0.2-0.6,0.4-0.7,0.6c-0.2-0.3-1.1-0.5-1.4-0.1c-0.9,0.9-1.8,0.8-3.1,0.6c0.9-1,2.1-1.4,3.2-1.7c0.9-0.2,1.3-0.9,2.1-1.2
		c0.2-0.1,0.2-0.3,0.1-0.5c-0.2-0.2-0.5-0.2-0.8-0.1c-0.7,0.2-1.4,0.6-2.1-0.2c-0.2-0.3-0.8-0.5-0.7-0.9c0.1-0.4,0.7-0.3,1-0.4
		c0.3-0.1,0.9,0,0.8-0.6c-0.1-0.5,0.6-1.1-0.2-1.5c-0.5-0.3-0.9-0.4-1.4,0c-0.2,0.1-0.3,0.2-0.5,0.3c-0.3,0.2-0.6,0.2-0.9,0
		c-0.3-0.2-0.5-0.4-0.1-0.7c0.5-0.3,0.8-0.9,1.5-1c0.7-0.1,0.9-0.9,0.9-1.4c0-0.7-0.7-0.4-1.2-0.5c-0.3,0-0.8,0.1-1-0.2
		c-0.2-0.4,0.3-0.5,0.5-0.8c0.5-0.6,0.5-1.3-0.2-1.3c-0.8,0-1.1-0.4-1.3-1.1c-0.1-0.3-0.3-0.6-0.7-0.5c-0.5,0-0.3,0.4-0.3,0.7
		c0,0.4-0.1,0.6-0.6,0.7c-1.4,0.3-1.4,0.7-0.5,1.8c-0.8,0.3-1.8,0.3-1.2,1.7c0.4,0.9,1.4,1,1.7,1.9c-0.7,0.1-1.4-0.7-2.2-0.3
		c-0.4,0.2-1.1,0-1.1,0.7c0,0.6,0.1,1.2,0.8,1.6c0.5,0.2,1.2,0.2,1.7,1c-1-0.3-1.8-0.9-2.3,0.4c-0.1,0.5-0.6,0.3-0.9,0.1
		c-0.3-0.2-0.6-0.6-0.9-0.1c-0.2,0.4,0,0.7,0.4,1c0.3,0.2,0.7,0.3,0.8,0.8c-1.5,0.7-1.4,0.5-0.8,1.9c-0.2-0.1-0.4,0-0.5,0
		c-0.7,0.2-1.3,0.6-1.9-0.1c-0.1-0.5-0.3-0.9-0.4-1.4c0.2,0,0.4,0,0.6-0.1c0.3-0.1,0.9,0,0.8-0.6c-0.1-0.5,0.6-1.1-0.2-1.5
		c-0.5-0.3-0.9-0.4-1.4,0c-0.1,0.1-0.3,0.2-0.4,0.3c-0.1,0-0.2,0.1-0.3,0.1c-0.2,0.1-0.4,0-0.7-0.1c-0.3-0.2-0.5-0.4-0.1-0.7
		c0.5-0.3,0.8-0.9,1.5-1c0.7-0.1,0.9-0.9,0.9-1.4c0-0.7-0.7-0.4-1.2-0.5c-0.3,0-0.8,0.1-1-0.2c-0.2-0.4,0.3-0.5,0.5-0.8
		c0.5-0.6,0.5-1.3-0.2-1.3c-0.8,0-1.1-0.4-1.3-1.1c-0.1-0.3-0.3-0.6-0.7-0.5c-0.5,0-0.3,0.4-0.3,0.7c0,0.4-0.1,0.6-0.6,0.7
		c-1.4,0.3-1.4,0.7-0.5,1.8c-0.8,0.3-1.8,0.3-1.2,1.7c0.4,0.9,1.4,1,1.7,1.9c-0.7,0.1-1.4-0.7-2.2-0.3c-0.4,0.2-1.1,0-1.1,0.7
		c0,0.6,0.1,1.2,0.8,1.6c0.5,0.2,1.2,0.2,1.7,1c-1-0.3-1.8-0.9-2.3,0.4c-0.1,0.4-0.4,0.3-0.7,0.2c0.3-0.1,0.6-0.3,0.6-0.6
		c-1.8-0.5-2.3-1.5-1.5-3.3c0.2-0.4,0.4-0.8-0.2-0.8c-1-0.1-1.2-0.4-0.5-1.2c0.1-0.2,0.3-0.5,0.2-0.7c-0.7-1.5-0.7-1.5,1.2-3.5
		c-2,1.1-2.4,0.7-2.4-1.1c0.1-1.3-1.1-2.5-0.7-4c0-0.1-0.4-0.5-0.5-0.5c-0.3,0.1-0.6,0.3-0.8,0.6c-1,1.1-0.8,2.5-1,3.8
		c-0.4,2.8-2.3,4.4-4.2,5.9c-0.1,0.3-0.1,0.5-0.2,0.8c-0.1,0.3-0.1,0.6-0.2,0.9c0.2,0.1,0.3,0.3,0.4,0.7c0,0.7,0.3,1.4-0.9,1.5
		c-0.1,0.2-0.1,0.5-0.2,0.7c0,0.1,0.1,0.2,0.1,0.2c0.3,0.5,0.2,0.8-0.3,1.1c-0.1,0-0.1,0.1-0.2,0.1c-0.1,0.6-0.3,1.2-0.4,1.8
		c-0.5-0.2-0.9-0.5-1.3-0.8c-0.3-0.2-0.6-0.1-0.9,0c-0.5,0.1-1.1,0.1-1.6,0.1c-0.3,0-0.6,0-0.7-0.3c0-0.3-0.3-0.7,0-0.8
		c0.3-0.2,0.7-0.3,1.1-0.1c0.1,0,0.1,0.1,0.2,0.1c0.2,0.1,0.4,0.2,0.6,0.1c0.2-0.1,0-0.3,0-0.5c-0.1-0.2,0-0.3,0.2-0.3
		c0.3,0.1,0.3,0,0.3-0.3c0-0.1,0-0.3,0.1-0.4c0.2-0.2,0.1-0.3-0.1-0.4c-0.2-0.1-0.3-0.1-0.4,0.1c-0.4,0.4-0.8,0.1-1.3,0.2
		c-0.4,0-0.9-0.1-1.3-0.2c-0.2,0-0.3-0.1-0.3-0.3c0-0.3,0.2-0.2,0.4-0.3c0.4,0,0.8,0,1.1,0c-0.3-0.6-0.3-0.7,0.4-0.9
		c0.2,0,0.3-0.1,0.5-0.1c0.1,0,0.2-0.1,0.2-0.3c0-0.2-0.1-0.1-0.2-0.1c-0.5-0.2-1.1,0.1-1.6-0.3c-0.1-0.1-0.3,0.1-0.4,0.1
		c-0.1,0-0.3,0.1-0.3,0c-0.1-0.1,0-0.3,0.1-0.4c0.3-0.2,0.6-0.4,0.4-0.9c0-0.1,0.1-0.2,0.1-0.2c0.2-0.1,0.3-0.3,0.3-0.5
		c-0.1-0.3-0.3-0.1-0.5-0.1c-0.1,0-0.2,0-0.3-0.1c-0.1-0.1-0.4-0.1-0.4-0.3c0-0.2,0.2-0.2,0.4-0.3c0.2,0,0.3-0.2,0.4-0.3
		c0.2-0.3,0.2-0.5-0.2-0.5c-0.1,0-0.1,0-0.2,0c-0.6,0-0.6,0-0.4-0.6c0.1-0.1,0.2-0.3,0.1-0.4c-0.1-0.1-0.2-0.1-0.6,0
		c0.6-0.6-0.1-1-0.2-1.4c0-0.1-0.1-0.2-0.3-0.1c-0.1,0-0.1,0.2-0.2,0.3c0,0.3,0.2,0.6,0.2,0.9c-0.3-0.1-0.6-0.3-0.5,0.3
		c0,0.3-0.2,0.1-0.3,0.1c-0.1,0-0.2,0-0.3,0.1c-0.1,0.1,0,0.2,0.1,0.3c0.1,0.2,0.3,0.4,0.4,0.5c-0.2,0.2-0.4,0.1-0.6,0.1
		c-0.3,0-0.4,0.1-0.2,0.4c0.1,0.2,0.5,0.5,0.3,0.7c-0.2,0.3-0.6,0.4-0.9,0.5c0,0-0.1,0-0.1,0c-0.2,0-0.5,0-0.5,0.3
		c0.1,0.3,0,0.7,0.5,0.7c0.1,0,0.3,0,0.3,0.1c0.1,0.2-0.2,0.2-0.2,0.3c-0.4,0.5-1,0.6-1.7,0.5c-0.2-0.1-0.3,0.1-0.4,0.2
		c-0.1,0.2,0.1,0.3,0.2,0.4c0.3,0.3,0.7,0.5,1.1,0.4c0.2,0,0.3,0,0.5,0.1c0.1,0.1,0.1,0.2,0.1,0.3c-0.1,0.1-0.2,0-0.2,0
		c-0.5-0.3-1,0-1.5,0.2c-0.1,0.1-0.2,0.1-0.2,0.3c0,0.4-0.3,0.5-0.6,0.5c-0.4,0-0.7,0.6-0.5,0.9c0.1,0.1,0.2,0.2,0.3,0.2
		c0.4-0.1,0.8,0,1-0.4c0.1-0.2,0.2-0.2,0.3,0c0,0.3,0.1,0.3,0.4,0.3c0.3,0,0.3,0.3,0.3,0.6c-0.1,0.3-0.3,0.2-0.5,0.2
		c-0.2,0-0.4-0.3-0.6-0.2c-0.3,0.2-0.6,0.4-0.7,0.8c-0.1,0.2-0.1,0.2-0.2,0.3c-0.3-1.3-0.9-2.6-0.6-3.9c0-0.2-0.2-0.5-0.4-0.6
		c-0.4-0.1-0.6,0.2-0.8,0.5c-0.2,0.6-0.4,1.3-0.6,1.9c-0.2,0.6-0.3,1.2-0.6,1.7c-0.3,0.5-0.9,1.1-1.4,0.7c-0.8-0.7,0.6-0.7,0.6-1.5
		c-2.2-0.3-1.7-2.2-1.5-3.5c0.2-1.8-1-3.3-0.8-5c0-0.2-0.3-0.5-0.5-0.5c-0.2,0-0.5,0.3-0.6,0.5c-0.5,1.4-1.2,2.8-1.4,4.2
		c-0.2,1.3-1.1,2.3-1.1,3.5c0,0.5-0.3,0.5-0.6,0.5c-0.7,0-1.7,0.4-2.1-0.2c-0.5-0.6,0.4-1.2,0.8-1.7c-0.5-0.8-1.2-0.1-1.7-0.4
		c0-0.9,1-0.8,1.3-1.5c-0.6-1-1.7-0.2-2.5-0.6c0.4-0.7,1.7-1.3,0.3-2.3c-0.3-0.2,0.9-0.3,1-1.1c-0.3-0.7-1.2,0.2-1.8-0.6
		c-0.2-0.7,0.9-0.7,1-1.6c-2.7,0-1.6-2.2-1.6-3.5c0-1.7-0.8-3.3-0.4-4.9c0.1-0.3-0.2-0.6-0.5-0.5c-0.2,0-0.5,0.2-0.6,0.4
		c-0.5,1.2-1,2.3-1.3,3.5c-0.5,1.8-0.2,3.8-2.4,4.9c-0.6,0.3,0.5,1.1,0.3,1.9c-2.2-0.3-2.8,0.6-2.3,2.8c0.1,0.2-0.5,2-1.3,2.6
		c-0.7,0.5-1.9-0.2-2.6,0.7c0,0-0.4-0.1-0.4-0.3c-0.2-0.3-0.1-0.6,0.2-0.9c0.5-0.4,1.2-0.3,1.5-1.2c0.2-0.6,0.7-1,1.2-1.6
		c-1.3-1.3-2.7,0-4.1-0.1c0-0.8,0.8-1.6,0.6-2.1c-0.3-0.9,2.8-1.5,0.2-2.3c0.1-0.1,0.3-0.2,0.4-0.4c0.6-0.5,0.5-1.3,1-2.3
		c-1.1,0.5-2.1,0.6-2.9,1.4c0.6-1.8-0.2-3.2-0.6-4.9c-1.2,0.7-0.4,2.9-2.5,2.7c-0.4,0,0.6,1.2,0.3,1.9c-0.5,1-1.5-1.1-1.9,0.4
		c-0.3,1.4-1.2,0.5-2,0.4c0.1,1.1,0.2,2.1-1,2.8c-0.7,0.4,0.2,4.6,1,5.4c0.3,0.4,1.1,0.6,0.8,1.2c-0.4,0.7-1,0.3-1.6,0.1
		c-0.9-0.3-1.8-0.7-2.8-1.1c-0.3,0.7,0,1.2,0.6,1.4c0.8,0.2,1.2,0.8,1.7,1.3c0.3,0.3,1,0.5,0.6,1.1c-0.3,0.5-0.8,0.2-1.2,0
		c-0.4-0.2-0.7-0.3-1.2-0.6c-0.4,0.7,0,1.3,0,2c0,0.1,0.1,0.1,0.1,0.2c0.9,0.7-2.1,0.6-0.3,1.4c0.7,0.3,1.5,0.6,2.2,0.9
		c0.1,0,0.1,0.1,0.1,0.1c-1.1-0.1-2.2-0.2-3.3-0.2c0-0.1,0-0.2,0-0.3c-0.4-0.6-1.1,0-1.6-0.5c-0.3-0.9,0.9-0.9,0.9-1.7
		c-1.7-0.4-1.8-1.8-1.6-3.3c0.2-1.8-0.9-3.5-0.7-5.3c0-0.2-0.2-0.6-0.5-0.4c-0.3,0.1-0.5,0.4-0.7,0.7c-0.9,1.4-0.5,3.2-1.3,4.7
		c-0.4,0.9-0.8,1.8-1.2,2.7c-0.2,0.7-0.9,0.8-1.3,0.6c-0.7-0.5,0.6-0.7,0.2-1.4c-0.8-0.3-2.4,0.9-2.6-1.1c0-0.1-0.4-0.2-0.5-0.1
		c-1.5,0.6-2.7,1.2-1-1.1c0.2-0.2,0-0.5-0.3-0.6c-1.2-0.1-1.7-0.8-1.9-1.9c-0.1-0.6-0.8-0.4-0.8,0c-0.2,1.2-1.5,1.9-1.1,3.5
		c-0.9-0.9-2.1-0.6-2.8-1.4c-1.1,2.1,0,3.7,0.8,5.4c-1.8-0.2-3.5-0.4-5.3-0.7c-0.3-0.1-0.6-0.2-0.8-0.4c1.4-0.9-0.7-2.6,1.1-3.4
		c-0.8-0.7-1.6,0.1-2.2-0.3c0.1-0.8,1-0.8,1.2-1.5c-2-0.7-1.9-2.6-1.6-4c0.3-1.7-0.7-3.1-0.7-4.7c0-0.8-0.7-0.4-1.1,0.1
		c-0.9,1.1-0.8,2.5-1.1,3.8c-0.4,1.6-0.2,3.4-1.7,4.6c-0.7,0.6,0.7,1,0.3,2c-0.6-1-3.1,1.1-2.4-1.9c0.1-0.5-1-0.2-1.6-0.5
		c0.6-0.9,1.5-1.3,2.6-1.9c-0.7-0.7-1.6,0-2.7-0.9c-0.5-0.3,3.1-1.9-0.1-2c-0.2-0.9,1.1-0.7,1-1.5c-1.8-0.5-2.3-1.5-1.5-3.3
		c0.2-0.4,0.4-0.8-0.2-0.8c-1-0.1-1.2-0.4-0.5-1.2c0.1-0.2,0.3-0.5,0.2-0.7c-0.7-1.5-0.7-1.5,1.2-3.5c-1.9,1.1-2.4,0.7-2.3-1.1
		c0.1-1.3-1.1-2.5-0.7-4c0-0.1-0.4-0.5-0.5-0.5c-0.3,0.1-0.6,0.3-0.8,0.6c-0.9,1.1-0.8,2.5-1,3.8c-0.4,2.8-2.3,4.4-4.2,5.9
		c-0.1,0.3-0.1,0.5-0.2,0.8c-0.1,0.3-0.1,0.6-0.2,0.9c0.1,0.1,0.2,0.2,0.3,0.3c-0.3,0-0.5,0-0.7,0c-0.6,0.2-1.4-0.1-2.2-0.6
		c1-0.7,2.1-1.1,2.7-2.1c0.2-0.4,1-0.6,0.5-1.2c-0.3-0.5-0.9-0.7-1.4-0.4c-0.8,0.5-1.9-0.1-2.7,0.7c-0.5,0.4-1.2,0.1-1.4-0.2
		c-0.4-0.5,0.5-0.7,0.7-1c1.4-1.7,2.1-3.8,2.5-6.2c-1.4,1.1-3.2,0.7-4.7,1.9c1.6-1.9-0.4-3.3-0.5-4.9c0-0.3-0.3-0.6-0.7-0.6
		c-0.3,0-0.3,0.4-0.4,0.6c-0.5,1.2-0.5,2.9-2.8,2.2c-0.8-0.3-0.3,0.8,0,1.2c0.2,0.3,0.9,0.6,0.5,1.1c-0.3,0.4-0.9,0.2-1.3,0
		c-0.8-0.5-1.5-1.1-2,0.3c0,0.1-0.2,0.3-0.3,0.3c-2.8-0.9-2.7,2.4-4.4,3c-0.3,0.1-0.6,0.6-1,0.3c-0.5-0.4-0.1-0.7,0.2-1
		c0.3-0.3,0.7-0.7,0.1-0.9c-2-0.8,0.8-0.8,0.3-1.2c-0.4-1-1.2-0.4-1.7-0.9c-0.2-0.8,1-0.8,0.9-1.7c-2.3,0-1.7-2.1-1.6-3
		c0.2-1.9-1.1-3.6-0.7-5.5c0-0.2-0.2-0.5-0.4-0.6c-0.4-0.1-0.6,0.2-0.8,0.5c-0.2,0.6-0.4,1.3-0.6,1.9c-0.2,0.6-0.3,1.2-0.6,1.7
		c-0.3,0.5-0.9,1.1-1.5,0.7c-0.8-0.7,0.6-0.7,0.6-1.5c-2.2-0.3-1.7-2.2-1.6-3.5c0.2-1.8-1-3.3-0.8-5c0-0.2-0.3-0.5-0.5-0.5
		c-0.2,0-0.5,0.3-0.6,0.5c-0.5,1.4-1.3,2.8-1.4,4.2c-0.2,1.3-1.1,2.3-1.1,3.5c0,0.5-0.3,0.5-0.6,0.5c-0.7,0-1.7,0.4-2.1-0.2
		c-0.5-0.6,0.4-1.2,0.8-1.7c-0.5-0.8-1.2-0.1-1.7-0.4c0-0.9,1-0.8,1.3-1.5c-0.6-1-1.7-0.2-2.5-0.6c0.4-0.7,1.7-1.3,0.3-2.3
		c-0.4-0.2,1-0.3,1-1.1c-0.3-0.7-1.2,0.2-1.8-0.6c-0.2-0.7,0.9-0.7,1-1.6c-2.7,0-1.6-2.2-1.6-3.5c0-1.7-0.8-3.3-0.4-4.9
		c0.1-0.3-0.2-0.6-0.5-0.5c-0.2,0-0.5,0.2-0.6,0.4c-0.5,1.2-1,2.3-1.3,3.5c-0.5,1.8-0.2,3.8-2.4,4.9c-0.6,0.3,0.5,1.1,0.3,1.9
		c-2.3-0.3-2.8,0.6-2.3,2.8c0.1,0.2-0.5,2-1.3,2.6c-0.7,0.5-1.9-0.2-2.6,0.7c0,0-0.4-0.1-0.5-0.3c-0.2-0.3-0.1-0.6,0.2-0.9
		c0.5-0.4,1.2-0.3,1.5-1.2c0.2-0.6,0.7-1,1.2-1.6c-1.3-1.3-2.7,0-4.2-0.1c0-0.8,0.8-1.6,0.7-2.1c-0.3-0.9,2.8-1.5,0.2-2.3
		c0.1-0.1,0.3-0.2,0.4-0.4c0.6-0.5,0.5-1.3,1-2.3c-1.1,0.5-2.2,0.6-3,1.4c0.6-1.8-0.2-3.2-0.6-4.9c-1.2,0.7-0.4,2.9-2.5,2.7
		c-0.4,0,0.6,1.2,0.3,1.9c-0.5,1-1.6-1.1-1.9,0.4c-0.3,1.4-1.2,0.5-2,0.4c0.1,1.1,0.2,2.1-1,2.8c-0.7,0.4,0.2,4.6,1,5.4
		c0.3,0.4,1.1,0.6,0.8,1.2c-0.4,0.7-1.1,0.3-1.6,0.1c-0.9-0.3-1.8-0.7-2.8-1.1c-0.3,0.7-0.1,1.2,0.6,1.4c0.8,0.2,1.2,0.8,1.7,1.3
		c0.3,0.3,1,0.5,0.6,1.1c-0.3,0.5-0.8,0.2-1.3,0c-0.4-0.2-0.7-0.3-1.2-0.6c-0.4,0.7,0,1.3,0,2c0,0.1,0.1,0.1,0.1,0.2
		c0.9,0.7-2.1,0.6-0.3,1.4c0.7,0.3,1.5,0.6,2.2,0.9c0.5,0.3,0.4,1.1,1.3,1.3c-2,1-3.6,0.2-5.2-0.3c0-0.7,0.9-0.7,0.8-1.4
		c-0.4-0.6-1.2,0-1.7-0.5c-0.3-0.9,0.9-0.9,0.9-1.7c-1.8-0.4-1.8-1.8-1.7-3.3c0.2-1.8-0.9-3.5-0.7-5.3c0-0.2-0.2-0.6-0.5-0.4
		c-0.3,0.1-0.5,0.4-0.7,0.7c-0.9,1.4-0.5,3.2-1.3,4.7c-0.4,0.9-0.8,1.8-1.2,2.7c-0.3,0.7-0.9,0.8-1.3,0.6c-0.7-0.5,0.6-0.7,0.2-1.4
		c-0.1-0.1-0.3-0.1-0.5-0.1c0.1-0.4,0.2-0.7,0.4-1.1c0.1-0.2,0-0.4-0.2-0.5c-0.3-0.2-0.6,0-0.8,0.2c-0.5,0.4-1,0.6-1.5,0.7
		c0-0.1-0.1-0.2-0.1-0.4c0-0.1-0.4-0.2-0.5-0.1c-0.4,0.2-0.8,0.4-1.1,0.5c-0.3-0.1-0.4-0.3-0.5-0.6c0.1-0.2,0.3-0.5,0.6-0.9
		c0-0.1,0.1-0.1,0.1-0.2c0,0,0,0,0.1,0c1-0.1,1.6-0.7,2.4-1.2c0.3-0.2,0.6-0.4,0.4-0.8c-0.2-0.5-0.5-0.3-0.8-0.1
		c-0.6,0.3-0.9,0.4-0.8-0.5c0-0.5-1.1-0.7-1.6-0.2c-0.5,0.6-1.1,0.8-1.8,0.9c0-0.1,0-0.2-0.1-0.3c-0.1-0.6-0.8-0.4-0.8,0
		c0,0.1,0,0.2-0.1,0.3c-0.1,0-0.3,0-0.4-0.1c0.9-1.1,2.1-1.6,3.2-2c0.9-0.3,1.3-1.1,2.1-1.4c0.2-0.1,0.2-0.4,0.1-0.5
		c-0.2-0.2-0.5-0.2-0.8,0c-0.7,0.3-1.4,0.7-2.2-0.1c-0.3-0.3-0.9-0.5-0.8-0.9c0.1-0.4,0.7-0.3,1.1-0.4c0.4-0.1,0.9-0.1,0.8-0.7
		c-0.1-0.5,0.5-1.2-0.3-1.6c-0.5-0.2-1-0.3-1.5,0.1c-0.2,0.1-0.3,0.3-0.5,0.4c-0.3,0.2-0.6,0.2-0.9,0.1c-0.4-0.2-0.6-0.4-0.1-0.7
		c0.5-0.4,0.8-1,1.5-1.2c0.7-0.2,0.9-1,0.9-1.6c0-0.7-0.8-0.4-1.3-0.4c-0.4,0-0.8,0.2-1-0.2c-0.3-0.4,0.3-0.6,0.5-0.8
		c0.5-0.7,0.4-1.4-0.3-1.4c-0.8,0-1.2-0.3-1.4-1c-0.1-0.3-0.4-0.6-0.7-0.5c-0.5,0.1-0.3,0.5-0.3,0.8c0.1,0.4-0.1,0.6-0.5,0.8
		c-1.4,0.4-1.5,0.8-0.4,2c-0.8,0.4-1.9,0.4-1.1,1.9c0.5,0.9,1.5,1,1.9,1.8c-0.8,0.1-1.5-0.7-2.3-0.2c-0.4,0.2-1.1,0.1-1.1,0.8
		c0,0.6,0.2,1.3,1,1.6c0.6,0.2,1.3,0.2,1.8,0.9c-1-0.3-2-0.8-2.3,0.6c-0.1,0.5-0.6,0.4-0.9,0.2c-0.3-0.1-0.7-0.6-0.9,0
		c-0.2,0.4,0.1,0.8,0.5,1c0.3,0.2,0.8,0.3,0.9,0.8c-1.5,0.8-1.5,0.6-0.7,2.1c0.4,0.7,0.2,0.9-0.5,0.9c0,0,0,0,0,0
		c0-0.3-0.2-0.4-0.4-0.4c-0.6-0.2-1.3-0.3-1.9-0.5c-0.4-0.1-0.7-0.2-1.1-0.3c-0.1-0.2-0.1-0.5-0.2-0.7c1.1-0.1,1.8-1,2.8-1.3
		c0.2-0.1,0.3-0.2,0.2-0.4c-0.1-0.3-0.3-0.2-0.6-0.3c-0.8-0.1-1.6-0.1-2.3-0.3c0-0.5,0-1-0.2-1.5c0.8-0.2,1.7-0.6,2-1
		c0.3-0.4,0.1-0.6-0.3-0.7c-0.6-0.1-1.2-0.2-1.8-0.2c-0.2,0-0.4,0-0.5-0.1c0-0.2-0.1-0.4-0.1-0.7c0,0,0,0,0,0
		c0.3-0.1,0.6-0.2,0.8-0.4c0.5-0.3,1.7-0.1,0.6-1.3c-0.9-1.1-0.7-1.3-2.2-2.3c-0.6-0.4-0.9-0.8-0.2-1.3c0.5-0.4,0.4-0.7,0-1.1
		c-0.5-0.5-1.1-0.9-1.4-1.6c-0.2-0.3-0.3-0.6,0.3-0.7c0.7-0.1,0.8-0.8,0.4-1.2c-1.3-1.3-1.2-3-1.2-4.7c0-0.2-0.1-0.4-0.1-0.7
		c0,0-0.1-0.1-0.2-0.1c-0.4,0.7-0.2,1.4-0.2,2c0,1.1-0.3,1.9-1,2.7c-0.9,0.9-0.8,1.2,0.3,1.9c0.4,0.2,0.1,0.5,0,0.6
		c-0.3,0.7-0.9,1.1-1.5,1.5c-0.5,0.3-0.7,0.6-0.1,1.1c0.5,0.4,0.3,0.7-0.2,0.9c-0.2,0.1-0.5,0.2-0.7,0.4c-0.3,0.2-0.8,0.3-0.8,0.8
		c0,0.5,0.6,0.2,0.9,0.6c-0.7,0.1-1.4,0-2.1-0.1c-0.3,0-0.6,0-0.7,0.4c-0.3-0.2-0.3-0.5,0.2-1c0.1-0.2,0.3-0.5,0.2-0.7
		c-0.7-1.5-0.7-1.5,1.2-3.5c-2,1.1-2.4,0.7-2.4-1.1c0.1-1.3-1.1-2.5-0.7-4c0-0.1-0.4-0.5-0.5-0.5c-0.3,0.1-0.6,0.3-0.8,0.6
		c-1,1.1-0.8,2.5-1,3.8c-0.1,0.3-0.1,0.6-0.2,0.9c-1,0.2-1.9,0.4-2.8,1.1c1.6-1.9-0.4-3.3-0.5-4.9c0-0.3-0.3-0.6-0.7-0.6
		c-0.3,0-0.3,0.4-0.4,0.6c-0.5,1.2-0.5,2.9-2.8,2.2c-0.8-0.3-0.3,0.8,0,1.2c0.2,0.3,0.9,0.6,0.5,1.1c-0.3,0.4-0.9,0.2-1.3,0
		c-0.8-0.5-1.5-1.1-2,0.3c0,0.1-0.2,0.3-0.3,0.3c-2.8-0.9-2.7,2.4-4.4,3c-0.3,0.1-0.6,0.6-1,0.3c-0.5-0.4-0.1-0.7,0.2-1
		c0.3-0.3,0.7-0.7,0.1-0.9c-2-0.8,0.8-0.8,0.3-1.2c-0.4-1-1.2-0.4-1.7-0.9c-0.2-0.8,1-0.8,0.9-1.7c-2.3,0-1.7-2.1-1.6-3
		c0.2-1.9-1.1-3.6-0.7-5.5c0-0.2-0.2-0.5-0.4-0.6c-0.4-0.1-0.6,0.2-0.8,0.5c-0.2,0.6-0.4,1.3-0.6,1.9c-0.2,0.6-0.3,1.2-0.6,1.7
		c-0.3,0.5-0.9,1.1-1.5,0.7c-0.8-0.7,0.6-0.7,0.6-1.5c-2.2-0.3-1.7-2.2-1.6-3.5c0.2-1.8-1-3.3-0.8-5c0-0.2-0.3-0.5-0.5-0.5
		c-0.2,0-0.5,0.3-0.6,0.5c-0.5,1.4-1.3,2.8-1.4,4.2c-0.2,1.3-1.1,2.3-1.1,3.5c0,0.5-0.3,0.5-0.6,0.5c-0.7,0-1.7,0.4-2.1-0.2
		c-0.5-0.6,0.4-1.2,0.8-1.7c-0.5-0.8-1.2-0.1-1.7-0.4c0-0.9,1-0.8,1.3-1.5c-0.6-1-1.7-0.2-2.5-0.6c0.4-0.7,1.7-1.3,0.3-2.3
		c-0.4-0.2,1-0.3,1-1.1c-0.3-0.7-1.2,0.2-1.8-0.6c-0.2-0.7,0.9-0.7,1-1.6c-2.7,0-1.6-2.2-1.6-3.5c0-1.7-0.8-3.3-0.4-4.9
		c0.1-0.3-0.2-0.6-0.5-0.5c-0.2,0-0.5,0.2-0.6,0.4c-0.5,1.2-1,2.3-1.3,3.5c-0.5,1.8-0.2,3.8-2.4,4.9c-0.6,0.3,0.5,1.1,0.3,1.9
		c-2.3-0.3-2.8,0.6-2.3,2.8c0.1,0.2-0.5,2-1.3,2.6c-0.7,0.5-1.9-0.2-2.6,0.7c0,0-0.4-0.1-0.5-0.3c-0.2-0.3-0.1-0.6,0.2-0.9
		c0.5-0.4,1.2-0.3,1.5-1.2c0.2-0.6,0.7-1,1.2-1.6c-1.3-1.3-2.7,0-4.2-0.1c0-0.8,0.8-1.6,0.7-2.1c-0.3-0.9,2.8-1.5,0.2-2.3
		c0.1-0.1,0.3-0.2,0.4-0.4c0.6-0.5,0.5-1.3,1-2.3c-1.1,0.5-2.2,0.6-3,1.4c0.6-1.8-0.2-3.2-0.6-4.9c-1.2,0.7-0.4,2.9-2.5,2.7
		c-0.4,0,0.6,1.2,0.3,1.9c-0.5,1-1.6-1.1-1.9,0.4c-0.3,1.4-1.2,0.5-2,0.4c0.1,1.1,0.2,2.1-1,2.8c-0.7,0.4,0.2,4.6,1,5.4
		c0.3,0.4,1.1,0.6,0.8,1.2c-0.4,0.7-1.1,0.3-1.6,0.1c-0.9-0.3-1.8-0.7-2.8-1.1c-0.3,0.7-0.1,1.2,0.6,1.4c0.8,0.2,1.2,0.8,1.7,1.3
		c0.3,0.3,1,0.5,0.6,1.1c-0.3,0.5-0.8,0.2-1.2,0c-0.4-0.2-0.7-0.3-1.2-0.6c-0.4,0.7,0,1.3,0,2c0,0.1,0.1,0.1,0.1,0.2
		c0.9,0.7-2.1,0.6-0.3,1.4c0.7,0.3,1.5,0.6,2.2,0.9c0.5,0.3,0.4,1.1,1.3,1.3c-0.5,0.3-1,0.4-1.4,0.5c-1.3-0.3-2.5-0.6-3.8-0.9
		c0.2-0.5,0.8-0.6,0.8-1.2c-0.4-0.6-1.2,0-1.7-0.5c-0.3-0.9,0.9-0.9,0.9-1.7c-1.8-0.4-1.8-1.8-1.7-3.3c0.2-1.8-0.9-3.5-0.7-5.3
		c0-0.2-0.2-0.6-0.5-0.4c-0.3,0.1-0.5,0.4-0.7,0.7c-0.9,1.4-0.5,3.2-1.3,4.7c-0.4,0.9-0.8,1.8-1.2,2.7c-0.3,0.7-0.9,0.8-1.3,0.6
		c-0.7-0.5,0.6-0.7,0.2-1.4c-0.8-0.3-2.4,0.9-2.6-1.1c0-0.1-0.4-0.2-0.5-0.1c-1.5,0.6-2.8,1.2-1-1.1c0.1-0.1,0.1-0.3,0-0.4
		c0.2-0.1,0.3-0.3,0.2-0.6c-0.2-0.4-0.4-0.2-0.7-0.1c-0.5,0.2-0.7,0.3-0.7-0.4c0-0.3-0.5-0.5-0.9-0.4c-0.1-0.2-0.1-0.4-0.1-0.7
		c0-0.1,0-0.1-0.1-0.2c0.6-0.3,1-0.8,1.6-1.1c0.1-0.1,0.2-0.3,0-0.4c-0.2-0.2-0.4-0.1-0.7,0c-0.6,0.3-1.2,0.6-1.8-0.1
		c-0.2-0.3-0.8-0.4-0.7-0.8c0.1-0.3,0.6-0.3,0.9-0.4c0.3-0.1,0.8-0.1,0.7-0.6c-0.1-0.4,0.4-1-0.2-1.3c-0.4-0.2-0.8-0.3-1.3,0
		c-0.1,0.1-0.3,0.2-0.4,0.3c-0.2,0.2-0.5,0.2-0.8,0c-0.3-0.1-0.5-0.3-0.1-0.6c0.4-0.3,0.6-0.8,1.2-1c0.6-0.2,0.8-0.9,0.7-1.3
		c0-0.6-0.7-0.3-1.1-0.4c-0.3,0-0.7,0.2-0.9-0.1c-0.2-0.4,0.3-0.5,0.4-0.7c0.4-0.6,0.3-1.2-0.3-1.1c-0.7,0-1-0.3-1.2-0.9
		c-0.1-0.3-0.3-0.5-0.6-0.4c-0.5,0.1-0.2,0.4-0.2,0.6c0,0.4,0,0.5-0.4,0.6c-1.2,0.4-1.2,0.7-0.4,1.6c-0.6,0.3-1.6,0.3-0.9,1.5
		c0.4,0.8,1.2,0.8,1.6,1.5c-0.6,0.1-1.2-0.6-1.9-0.2c-0.3,0.2-0.9,0.1-0.9,0.6c0,0.5,0.2,1.1,0.8,1.3c0.5,0.2,1.1,0.1,1.5,0.8
		c-0.8-0.2-1.6-0.7-1.9,0.5c-0.1,0.4-0.5,0.3-0.8,0.2c-0.3-0.1-0.6-0.5-0.8,0c-0.2,0.4,0.1,0.6,0.4,0.8c0.3,0.2,0.7,0.2,0.7,0.6
		c-1.3,0.7-1.2,0.5-0.6,1.8c0.3,0.6,0.1,0.7-0.4,0.7c-0.4,0-0.9-0.3-0.9,0.3c0,0.1,0,0.1,0,0.2c-0.6-0.1-1.2,0.3-1.7,0
		c0.1-0.8,1-0.8,1.2-1.5c-2-0.7-1.9-2.6-1.6-4c0.3-1.7-0.7-3.1-0.7-4.7c0-0.8-0.7-0.4-1.1,0.1c-0.9,1.1-0.8,2.5-1.2,3.8
		c-0.4,1.6-0.2,3.4-1.7,4.6c-0.7,0.6,0.7,1,0.3,2c-0.6-1-3.1,1.1-2.4-1.9c0.1-0.5-1.1-0.2-1.6-0.5c0.6-0.9,1.6-1.3,2.6-1.9
		c-0.7-0.7-1.7,0-2.7-0.9c-0.5-0.3,3.2-1.9-0.1-2c-0.2-0.9,1.1-0.7,1-1.5c-1.8-0.5-2.3-1.5-1.5-3.3c0.2-0.4,0.4-0.8-0.2-0.8
		c-1-0.1-1.2-0.4-0.5-1.2c0.1-0.2,0.3-0.5,0.2-0.7c-0.7-1.5-0.7-1.5,1.2-3.5c-2,1.1-2.4,0.7-2.4-1.1c0.1-1.3-1.1-2.5-0.7-4
		c0-0.1-0.4-0.5-0.5-0.5c-0.3,0.1-0.6,0.3-0.8,0.6c-1,1.1-0.8,2.5-1,3.8c-0.4,2.8-2.3,4.4-4.2,5.9c-0.1,0.3-0.1,0.5-0.2,0.8
		c-0.1,0.3-0.1,0.6-0.2,0.9c0.2,0.1,0.3,0.3,0.4,0.7c0,0.7,0.3,1.4-0.9,1.5c-0.1,0.2-0.1,0.5-0.2,0.7c0,0.1,0.1,0.2,0.1,0.2
		c0.3,0.5,0.2,0.8-0.3,1.1c-0.1,0-0.1,0.1-0.2,0.1c-0.2,0.8-0.4,1.6-0.5,2.4c-0.1,0.8-0.2,1.6-0.3,2.4c-5.5-1.1-11-2.2-16.6-3.3
		c-14.1-2.8-28.2-5.5-42.6-6.8c-40.3-3.5-81.7,0.1-122.5-2.4c-38.1-2.4-76.1-4.7-114.2-7.1c-16.2-1-32.4-2-48.6-3V1021h1920.4v-37.3
		C1867.6,957.3,1814.8,930.8,1762,904.3z M366.7,579.3c0-0.1,0-0.1,0-0.2c0.1,0.1,0.2,0.1,0.3,0.2
		C366.9,579.3,366.8,579.3,366.7,579.3z M366.8,578.1c0,0-0.1-0.1-0.1-0.1c0.1-0.2,0.2-0.3,0.4-0.5c0.2,0.1,0.4,0.2,0.7,0.2
		c1.2-0.1,2.3,0.2,3.4,0.6c0,0.2,0,0.4,0.1,0.6C369.7,579.1,368.2,579,366.8,578.1z M374.8,576c-0.4,0.1-0.9,0-1.4,0
		c0.6-0.7,1.3-1.2,2.1-1.4C375.5,575.1,375.1,575.5,374.8,576z M455.1,600.9c0.1-0.1,0.2-0.1,0.3-0.2
		C455.2,600.8,455.1,600.9,455.1,600.9z M455.3,597.3c-0.1-0.1-0.3-0.2-0.6-0.2c0-0.1,0-0.1,0-0.2c0.3,0.1,0.6,0.2,0.9,0.2
		C455.5,597.2,455.4,597.2,455.3,597.3z M455.1,594.8c0-0.3,0-0.5,0-0.8c-0.3,0-0.7,0-0.7,0.3c0,0.2,0.1,0.4,0.1,0.6
		c-0.2,0-0.4,0.1-0.6,0.2c-0.8-0.6-0.9-1.5-0.3-2.7c0.6,0.5,1.2,1.2,2.1,1.3c0.4,0,0.8,0.1,1.4-0.3
		C456.5,594.4,455.9,594.7,455.1,594.8z M460.8,593.9C460.8,593.9,460.8,593.9,460.8,593.9c-0.1,0-0.2,0-0.3-0.1
		C460.6,593.8,460.7,593.8,460.8,593.9C460.8,593.8,460.8,593.9,460.8,593.9z M465.9,606.2c-0.5-0.2-0.9-0.4-1.4-0.6
		c0-0.2,0-0.3,0-0.5c0.3,0.2,0.6,0.5,0.9,0.7C465.6,605.9,465.9,606.1,465.9,606.2C465.9,606.2,465.9,606.2,465.9,606.2z M466,607.1
		C466,607.1,466,607.1,466,607.1c0.3,0,0.6,0,0.8,0.1c0.4,0.1,0.7,0.3,0.8,0.5C467,607.5,466.5,607.3,466,607.1z M469.1,605.1
		c-1.4,0-2.8-0.2-4.1-1c0,0-0.1-0.1-0.1-0.1c-0.3-0.2-0.7-0.4-1-0.1c-0.3,0.1-0.6,0.1-0.9,0c0-0.3,0.1-0.4,0.3-0.6
		c0.6-0.2,1.1-0.3,1.7-0.5c0.1,0.5,0.6,0.8,1.2,0.8c1.1-0.1,2,0.1,3.1,0.4C469.2,604.4,469.1,604.8,469.1,605.1z M635.3,639.8
		c-0.5-0.3-0.9-0.1-1.4,0.1c0-0.2,0-0.3,0-0.5c0.4-0.2,0.8-0.1,1.2,0.1C635.3,639.5,635.4,639.6,635.3,639.8z M645.3,641.2
		c-0.3,0-0.6,0-1-0.2c-0.2-0.1-0.4,0-0.4,0.1c-0.8-0.1-1.5-0.2-2.3-0.2c-0.4,0-0.6-0.3-0.9-0.5c-0.1-0.1-0.2-0.4,0.1-0.5
		c0,0,0.1,0,0.1,0c0.2-0.2,0.2-0.5,0.6-0.5c0.4,0,0.3,0.4,0.4,0.6c0.2,0.2,0.6,0.2,0.8,0.1c0.3-0.1,0.1-0.4,0.2-0.5
		c0-0.2-0.2-0.4,0.1-0.5c0.3-0.1,0.5,0.1,0.6,0.3c0.2,0.3,0.4,0.2,0.6,0.1c0.3,0,0.7-0.2,0.9,0.2c0.1,0.1,0.2,0.1,0.4,0.1
		C645.4,640.2,645.4,640.7,645.3,641.2z M645.7,638.3c-0.1,0.3-0.1,0.7-0.1,1c-0.2-0.3-0.4-0.7-0.6-1.1
		C645.3,638.2,645.5,638.2,645.7,638.3C645.7,638.2,645.7,638.3,645.7,638.3z M658.8,642.6c0-0.3,0-0.6,0.1-1.1
		c0.7,0.2,1.5,0.6,2.2,1c0,0.1,0.1,0.1,0.1,0.2C660.4,642.6,659.6,642.7,658.8,642.6z M668.3,636.5c0,0.1-0.1,0.2-0.3,0.2
		C668,636.6,668.1,636.5,668.3,636.5z M665.6,639.2c0-0.1,0-0.2,0-0.3c0.1,0.1,0.1,0.1,0.2,0.2C665.7,639.1,665.6,639.2,665.6,639.2
		z M668.4,642.6c-0.2,0.2-0.3,0.4-0.4,0.6c-0.7-0.3-1.3,0.2-1.9-0.1c0.1-0.8,1-0.8,1.2-1.5c-0.1,0-0.2-0.1-0.2-0.1
		c0.1,0,0.2-0.1,0.4-0.2c0.2,0,0.3,0,0.5,0.1C668.6,641.6,668.9,642,668.4,642.6z M667.5,638.9c-0.1-0.1-0.3-0.2-0.5-0.3
		c-0.2-0.1-0.3-0.2-0.5-0.3c-0.2-0.2-0.6-0.4-0.8-0.3c0-0.1,0-0.1,0-0.2c0.2,0,0.3-0.1,0.5-0.1c0.2,0,0.3-0.1,0.5-0.2
		c0.2,0.3,0.5,0.5,0.9,0.5c1.8,0,3.3,0.7,5.1,1.6C670.8,639.7,669.1,639.6,667.5,638.9z M678.2,640.1c-0.2,0.1-0.4,0.1-0.5,0.2
		c0,0,0,0,0,0c-0.1,0-0.2,0-0.2-0.1c-0.1-0.3-0.3-0.3-0.5-0.3c-0.1-0.1-0.2-0.3-0.2-0.5c-0.1-0.6,0.3-0.9,0.8-0.9c0.1,0,0.2,0,0.2,0
		c0.1,0.3,0.3,0.5,0.6,0.8c0.4,0.3,0.7,0.5,0.9,1c-0.1,0-0.2,0-0.3,0.1C678.7,640.3,678.5,640,678.2,640.1z M679.2,643.4
		C679.2,643.4,679.3,643.4,679.2,643.4C679.3,643.4,679.3,643.4,679.2,643.4C679.3,643.4,679.3,643.4,679.2,643.4z M746.8,649.4
		c-0.1-0.1-0.1-0.2-0.2-0.3c0.2-0.5,0.3-1,0.5-1.4c0.1,0,0.1,0.1,0.2,0.1c0.7,0.3,1.6,0.2,2.2,1.1
		C748.4,648.5,747.3,647.9,746.8,649.4z M776,657.7c0.3-0.4,0.4-0.9,1-0.9c0.8,0,0.5,0.8,0.9,1.1c0,0,0.1,0.1,0.2,0.1
		C777.4,657.8,776.7,657.7,776,657.7z M787.2,659.1c-0.1,0-0.1,0-0.2,0c-2.5-0.3-4.9-0.6-7.4-1c0,0,0,0,0,0c0.5-0.1,0.2-0.7,0.3-1.1
		c0-0.4-0.4-0.9,0.2-1.1c0.5-0.2,0.9,0.1,1.2,0.6c0.3,0.6,0.8,0.3,1.2,0.3c0.6-0.1,1.3-0.3,1.7,0.5c0.2,0.3,0.6,0.3,0.8,0.1
		c0.3-0.2,0.2-0.5,0.1-0.8c-0.2-0.5-0.5-0.9-0.8-1.4c0,0,0,0,0,0c1.2,0.7,1.9,2.1,3.5,2.3c0.6,0.1,1.1,0.1,1.9-0.4
		C789.1,658.5,788.2,659,787.2,659.1z M795.5,658.4c-0.4-0.2-0.8-0.4-1.3-0.7c0.5,0.1,1,0.2,1.4,0.1c0.1,0.1,0.2,0.2,0.2,0.4
		C795.7,658.3,795.6,658.4,795.5,658.4z M797.4,654.8c-0.2-0.3-0.4-0.5-0.5-0.7c0,0,0,0,0.1,0c0.7,0.3,1.6,0.2,2.2,1.1
		C798.6,655,797.9,654.8,797.4,654.8z M808.5,661c0,0,0.1,0.1,0.1,0.1C808.6,661,808.5,661,808.5,661z M827,662.5
		c-0.6,0.1-1.2,0-1.8-0.1c-0.8-0.1-1.2-0.5-1.3-1.3c-0.1-0.9,0.5-1.3,1.2-1.3c0.8,0,1.5-0.3,2.1-0.7
		C827.2,660.3,827.1,661.4,827,662.5z M965.4,740.7c-0.3-0.2-0.6-0.4-0.8-0.6c0.4-0.1,0.7-0.2,1.1-0.1
		C965.5,740.2,965.4,740.5,965.4,740.7z M982.8,709.9c0,0.1,0.1,0.1,0.1,0.2c-0.1,0-0.1,0-0.2,0.1
		C982.7,710.1,982.8,710,982.8,709.9z M982.1,713.6c0.6,0.5,1.2,0.8,1.6,1.6c-0.6,0.1-1.2-0.3-1.8-0.5
		C982,714.3,982.1,714,982.1,713.6z M981.5,718.4c0.4,0.2,0.8,0.4,1.2,1c-0.4-0.1-0.8-0.3-1.2-0.4
		C981.5,718.7,981.5,718.5,981.5,718.4z M979.4,747.9c-0.1-0.3-0.4-0.6-0.1-1c0.1,0,0.2-0.1,0.3,0c1.5,0.4,2.3,1,2.7,1.9
		C981.3,748.5,980.3,748.2,979.4,747.9z M981,730.7c0-0.5,0-0.9,0-1.4c1,0.4,2,0.8,3,1.3C983,730.7,982,730.7,981,730.7z M991,725
		c-0.2,0.1-0.3,0.1-0.5,0.2c-1.2,1.2-2.6,1.2-4.4,0.8c1.3-1.5,3-2,4.6-2.4c0.3-0.1,0.6-0.2,0.9-0.4C991.3,723.8,991.1,724.4,991,725
		z M1011.8,751.8c-0.3-0.4-0.6-0.7-1.2-0.3c-0.1,0-0.3-0.1-0.4-0.1c0.3-1,0.8-1.4,1.4-1.6c0.1,0,0.2-0.1,0.3-0.1
		c0.4,0.7,0.8,1.4,1,2.2C1012.5,751.9,1012.2,751.8,1011.8,751.8z M1130.9,773.9c-0.2-0.2,0-0.5,0.1-0.7c-0.3-0.1-0.4,0.3-0.7,0.2
		c-0.2-0.1-0.4-0.2-0.5-0.4c-0.1-0.2,0.2-0.3,0.3-0.4c0.5-0.4,1.1-0.5,1.7-0.7C1131.5,772.6,1131.2,773.3,1130.9,773.9z M1204.3,796
		c0-0.5,0.1-0.9,0.2-1.4c0.3,0.2,0.5,0.4,0.7,0.6c0.3,0.3,0.8,0.6,0.7,1.1C1205.3,796.2,1204.8,796.1,1204.3,796z M1205.1,790.2
		c0-0.1,0-0.2,0-0.2c0-0.2,0.1-0.4,0.1-0.6c0.4,0.5,0.8,0.9,1.4,1.2C1206.1,790.3,1205.6,790.2,1205.1,790.2z M1211.5,791.3
		C1211.5,791.3,1211.5,791.3,1211.5,791.3c-0.4,0-0.7-0.3-1-0.6c-0.8-0.8,0.2-0.9,0.5-1.3c0.3-0.6,0.8-1,1.4-1.4
		c0,0.1,0,0.2-0.1,0.3c-0.1,0.3-0.1,0.6-0.2,0.9c0.2,0.1,0.3,0.3,0.4,0.7C1212.4,790.4,1212.6,791.2,1211.5,791.3z M1332.6,821
		c0-0.2,0.1-0.4,0.2-0.5c0.2,0.2,0.4,0.4,0.6,0.6C1333.1,821.1,1332.9,821.2,1332.6,821z M1335.1,824.3c-0.4,0-0.7,0.1-1,0.2
		c0.5-0.8-0.4-1.9,0.2-2.7c0.5,0.3,1,0.6,1.7,0.7c0.7,0.1,1.3,0.2,2.3-0.5C1337.4,823.6,1336.4,824.2,1335.1,824.3z M1440.7,847.3
		c0-0.1,0-0.3-0.1-0.5c-0.3-0.8-0.8-0.5-1.3-0.3c-0.3,0.2-0.6,0.3-0.9,0.3c0,0,0,0-0.1,0c-0.1-0.1-0.2-0.1-0.3-0.1
		c-0.1-0.2-0.2-0.5-0.1-1.1c0.1-0.8-1.8-1.3-2.6-0.5c-0.3,0.3-0.6,0.5-0.9,0.7c-1-0.3-1.9-0.7-2.9-1c1.2-0.8,2.6-1.3,3.9-1.6
		c0.7-0.2,1.3-0.6,1.8-1c0.2,0.9,0.7,1.7,1.4,2.1c1.6,0.8,2.2,2.7,3.9,3.4C1442,847.4,1441.3,847.4,1440.7,847.3z M1562.1,892
		C1562.1,892,1562.1,891.9,1562.1,892c0-0.5,0.2-0.5,0.5-0.4c0.1,0,0.3,0.2,0.4,0.2c2.2-0.9,4,1,6,1.2c-0.2,0.8-1.3,0.3-1.7,1.1
		c0.1,0.1,0.3,0.2,0.4,0.2C1565.8,893.5,1564,892.8,1562.1,892z M1570.2,895.3c-0.7-0.3-1.5-0.6-2.2-0.9c1.3,0.4,2.7-0.1,4.1,0.1
		C1571.6,895.2,1570.9,895.2,1570.2,895.3z M1613.2,914.5c0.6-0.2,1.5-0.3,1.5,0.7C1614.2,915,1613.7,914.8,1613.2,914.5z"/>
</g>
</svg>
