<?xml version="1.0" encoding="utf-8"?>
<!-- Generator: Adobe Illustrator 19.2.1, SVG Export Plug-In . SVG Version: 6.00 Build 0)  -->
<!DOCTYPE svg PUBLIC "-//W3C//DTD SVG 1.1//EN" "http://www.w3.org/Graphics/SVG/1.1/DTD/svg11.dtd">
<svg version="1.1" id="Layer_1" xmlns="http://www.w3.org/2000/svg" xmlns:xlink="http://www.w3.org/1999/xlink" x="0px" y="0px"
	 viewBox="0 0 1920 1020" style="enable-background:new 0 0 1920 1020;" xml:space="preserve">
<style type="text/css">
	.st0{fill:none;}
	.st1{fill:#521223;}
</style>
<g>
	<path class="st0" d="M471.8,689.3c0.9-0.2,1.8-0.4,2.7-0.6c-0.9-0.4-1.8-0.7-2.7-1.1C472.1,688.3,472.1,688.9,471.8,689.3z"/>
	<path class="st0" d="M470.7,666.1c0.2,0,0.4,0.1,0.5,0.1c-0.1-0.1-0.2-0.3-0.3-0.4c0,0-0.1,0-0.1,0
		C470.8,665.9,470.8,666.1,470.7,666.1z"/>
	<path class="st0" d="M476.8,640.4c-0.6-0.7-1.6-1.2-1.9-1.9c-0.4,0.3-0.8,0.5-1.4,0.6c-1,0.1-1.8-0.2-2.2-1.3
		c-0.6-1.8-1.5-1.9-3-0.8c-1.6,1.2-3.4,2.4-5.7,1.1c-0.6-0.3-1.4-0.2-1,0.7c0.5,1.3-0.2,2.2-0.8,3.2c-0.5,0.8-0.7,1.5-0.6,2.4
		c0.2,2.4,0.9,2.9,3.3,3c4.9,0.1,8.9-2.3,13.1-4.3c0.6-0.3,1.2-0.7,1.9-0.9c0.1,0,0.2-0.1,0.4-0.2
		C478.1,641.6,477.4,641.1,476.8,640.4z"/>
	<path class="st0" d="M469.6,677.1c-0.2-0.1-0.4-0.2-0.6-0.3c-1.6-1-3.5-0.3-4.8,1.1c2.4,0.3,4.9,0.5,7.4,0.6
		c-0.1-0.1-0.1-0.2-0.2-0.3C470.2,677.9,469.6,677.7,469.6,677.1z"/>
	<path class="st0" d="M462.8,681.2c-0.1,0.4-0.2,0.9-0.4,1.3c-0.4,1,1.2,1.8,2.5,1.3c0.1,0,0.2-0.1,0.3-0.1
		c-0.3-0.7,0.1-1.4,2.3-2.1C465,681.1,463.7,680.8,462.8,681.2z"/>
	<path class="st0" d="M401.6,644.7c-3.7-0.3-7.2,1.4-10.9,1c-0.7-0.1-1,0.4-1.3,0.9c0.3,4.1,0.8,8,2.7,11.8c0.6-0.3,1.2-0.7,2-1.3
		c3.8-2.4,7.3-5,9.4-9.1C404.9,645.3,404.6,644.9,401.6,644.7z"/>
	<path class="st0" d="M468.4,689.8c-0.3-0.1-0.7-0.2-1.2-0.3c0.1,0.1,0.1,0.2,0.2,0.4C467.7,689.9,468,689.9,468.4,689.8z"/>
	<path class="st0" d="M507.1,605.1c0.4-1.3,0-2.6-1-3.6c-0.4-0.4-0.6-0.8-0.7-1.1c-0.2,1.9,0,3.7,1.7,5.3
		C507,605.4,507,605.3,507.1,605.1z"/>
	<path class="st0" d="M533.8,654.3c-0.3-0.1-0.6-0.3-0.9-0.5c-2.1-1.5-2.1-5.2-5.6-5.1c-0.9,0-1.5,0.2-2,0.6
		c-0.6,2.3-0.5,5.2-2.4,7.3c-1.2,1.3,0.1,2.2,1,2.9c1.3,1,2.7,1.7,4.1,0.2c1.1-1.2,2.3-2.7,3.7-1.1c1.1,1.4-1,2.2-1.8,3.1
		c-0.7,0.8-1.4,1.5-2.1,2.2c3-0.5,5-2.7,6.8-4.8C535.8,657.8,536.7,655.4,533.8,654.3z"/>
	<path class="st0" d="M481.3,637.5c0.3,0.1,0.7,0.1,1,0.1C481.9,637.5,481.6,637.5,481.3,637.5z"/>
	<path class="st0" d="M621,693.5c0.1-0.3,0.2-0.6,0.3-1c-5.8,2.3-10.3-1.2-15.1-3.8c-1.2-0.7-3.2-0.7-5.3-0.3
		c0.2,2.8,0.8,5.5,2.1,8.2c0.6,1.2-0.7,2-1.2,3.2c1,0.2,1.9,0.5,2.9,0.9c1.1-0.1,2.2-0.2,2.7,1c0.1,0.2,0.1,0.3,0.1,0.4
		c1.9,0.9,3.6,1.9,4.2,4.3c-2.1-0.1-3.1,1.7-4.5,2.9c0.6,0.4,1.3,0.8,1.9,1.1c1.1,0.2,2.1,0.6,3.1,0.8c0.9,0.2,1.9,0.6,1.7,1.5
		c0.4,0.1,0.9,0.2,1.3,0.3c0.5-1.5,0.8-3.1,0.5-4.4c-1-4.7,0.9-8,3.2-11.4C619.9,696,620.5,694.8,621,693.5z"/>
	<path class="st0" d="M482.2,644.1c-0.1,0.7-0.4,1.3-0.9,1.9c-0.2,0.2-0.4,0.4-0.7,0.8c0.6,0,1.2,0.1,1.8,0.3
		c0.7-0.1,1.3-0.4,1.9-0.7C483.7,645.4,483,644.7,482.2,644.1z"/>
	<path class="st0" d="M507.1,614.5c1.1,2.5,4.2,4.7,0.8,7.7c-0.4,0.4-0.2,1.7,0.6,1.6c2.8-0.3,3.6,0.3,3.6,1.2
		c3.6,0.3,7.2,0.1,10.8-0.1c2.5-0.1,6.2,0.4,6.4-3.2c0.2-2.8,3.2-6.4,0.1-8.2c-3-1.7-7.1-3.3-10.9-0.8c-0.6,0.4-1,0.9-1.6,1.2
		c-1.7,1-3.7,2.3-5.5,1c-1.6-1.2-0.4-3.1,0.1-4.6c0.7-1.9,0.3-3.2-1.9-2.7c-0.9,0.2-1.6,0.3-2,0.1c0,0-0.1,0.1-0.1,0.1
		C505.2,610.1,506.1,612.3,507.1,614.5z"/>
	<path class="st0" d="M365.9,678.9c-0.2,1.1-0.5,2.1-0.8,3.2c0.9,0.2,1.9,0.3,2.8,0.5c0.2-0.2,0.4-0.4,0.6-0.5
		c-0.4-0.7-1.2-1.3-1.6-2C366.6,679.6,366.2,679.3,365.9,678.9z"/>
	<path class="st0" d="M1916.5,814.7c1.1,0.7,2.7,0.5,3.5,1.5v-4.7C1918.6,812.3,1917.4,813.3,1916.5,814.7z"/>
	<path class="st0" d="M112.7,571c-2.9,5.3-5.3,9.5-7.4,13.9c0,0,0,0.1-0.1,0.2c0.9-0.1,1.7,0.1,2.1,1.3c0.3,0.7-0.4,1.8-1.3,2.9
		c1.6,0,3.2-0.1,4.8-0.2c0-0.1,0.1-0.1,0.1-0.2c2.6-5.1,6.7-3.5,10.6-3.1c2.7,0.3,5.5,1.8,7.4-1.6c1.6-2.9,4.1-4.9,7.4-3.7
		c3,1.1,1.5,3.4,1.1,5.4c5.4-0.6,10.9-1,16.3-0.8c4.8,0.2,7.9-3.1,10.6-6.3c1.5-1.7,2.5-4.8-1.1-6.3c-0.4-0.2-0.8-0.3-1.1-0.6
		c-2.6-1.9-2.7-6.6-7.2-6.6c-4.8,0-3.3,4.9-5.4,6.8c-2.8,2.6-7,2.6-10.4,1.8c-3.2-0.7-1.5-4.3-1.9-6.7c-0.3-2.3,2.6-5.4-1-6.7
		c-3.2-1.2-5.8,0.8-7.4,3.7c-1.9,3.4-4.7,1.9-7.4,1.6c-3.9-0.5-8-2-10.6,3.1c-1,1.9-3.5,1.8-5.2,0.8c-1.8-1.1-1.2-3.2-0.5-4.7
		c2.1-4.3,4.5-8.5,7.4-13.9c-6.5,1.3-11.7,0.3-17-0.2c-0.4,0-0.9-0.1-1.3-0.1c0,0.2,0,0.3,0.1,0.5c0.3,3.5-2.4,8.1,2,11
		c0.8,0.5,0.2,1.3-0.3,1.8c-2.3,2.1-1.4,4.3-0.4,6.5c0.1,0.1,0.1,0.2,0.2,0.4C101.2,571.4,106.3,572.3,112.7,571z"/>
	<path class="st0" d="M675.1,725.5c-5-1.6-5.1-1.6-7.4,3c-0.2,0.5-0.6,0.8-1,1.1c0.5,0.1,1,0.5,1.3,1.3c0.3,0.7,0.1,1.3-0.4,1.9
		c1.1,0.3,2.1,0.5,3.2,0.7c0-0.2-0.1-0.4-0.1-0.7c3.5,0.7,5.3-0.3,6.2-2c-0.7-0.4-1.3-0.8-1.9-1.2
		C673.4,728.5,670.3,726.7,675.1,725.5z"/>
	<path class="st0" d="M56.2,637.6c-5.2-1.1-5.2-1.1-7.1,3.7c-0.7,1.7-2.3,2-4.2,3c6.4,2.5,12.3,1.9,18.4,0.3c-2.3-1-4.7-1.7-6.8-3
		C54.8,640.7,51.5,639.2,56.2,637.6z"/>
	<path class="st0" d="M1915.6,822.5c0.1,0.2-1,1-1.4,1.7c-1,1.3-5.9,0.8-2.5,3.9c1.7,1.5,4.8,5.7,7.9,1.2c0.1-0.2,0.3-0.3,0.4-0.5
		v-11c-0.1,0.1-0.1,0.2-0.2,0.3C1918.3,819.3,1911.2,815.5,1915.6,822.5z"/>
	<path class="st0" d="M1920,848.4v-2.5c-0.1,0.6-0.2,1.3-0.2,1.7C1919.8,847.9,1919.9,848.1,1920,848.4z"/>
	<path class="st0" d="M130.5,638.7c1.9-3.6,4.8-5.7,8.9-4.6c5.3,1.5,7.6-2.2,9.4-5.7c1.8-3.3,2.1-7.3,3.7-10.9
		c1-2.3-0.6-4.3-2.9-2.8c-4.2,2.7-9.9,0.9-13.5,5.1c-1.1,1.3-3.3,1.4-4.7,0c-3.4-3.2-6.6-2.2-9.8,0.3c-0.3,0.3-0.7,0.5-1.1,0.7
		c-2.4,0.8-4.9,2.3-7.4,1.7c-0.2,0.1-0.3,0.2-0.5,0.3c1.3,2.6,3.2,0.9,4.7,1.3c1.2,0.3,3.1-1.2,3.6,0.6c0.5,1.8-1.5,2.4-2.7,3.3
		c-1,0.8-2.7,0.3-3.9,2.7c6.8-1.2,12-4,17.7-7.7c-0.5,3.3-1.8,5-3.2,6.9c-1.2,1.6-4.6,2.5-1.1,5.8c1.6,1.5-1.7,2.4-3.5,2.6
		c-2.7,0.4-5.6-1.1-8.8,1.2c2.2,0.8,4.3,0.9,6.3,0.7c2.8-2.1,5.5-3.2,8.4-1.3C130.1,638.8,130.3,638.8,130.5,638.7
		C130.5,638.8,130.5,638.7,130.5,638.7z"/>
	<path class="st0" d="M273.2,706c-1.9-2.1-4.1-3.8-6.6-5c-0.5-0.2-1.1-0.5-1.7-0.7c-3,3.2-6.8,5.7-10.8,7.3c0,0.5,0.3,1,0.9,1.6
		c0.9,0.8,1.3,1.6,2.9,1.3c3.2-0.5,6.8-0.1,5.4-5.3c-0.2-0.8,1.1-1.1,2-1.2c0.7-0.1,1.8,0.3,1.6,0.8c-1.2,2.8,2.4,4.2,1.6,7
		c-0.5,2,1.4,0.8,2.2,0.8c0.2,0,0.4,0,0.7-0.1c0.6-0.6,1.2-1.2,1.9-1.9c0.8-0.9,1.9-1.8,3.1-2.6C275.1,707.9,274,707,273.2,706z"/>
	<path class="st0" d="M297.5,668.7c1,1.4,1.9,2.9,3.1,4.2c2.5-1.7,3-3.7-0.9-6.7c-5.7-4.3-8.7-11.4-16.9-13.5
		c-2.5-0.6-4.4-1.9-5.9-3.6c-2.5,0.4-4.3,1.8-4.4,5.4c0,1,0,2.1,0.1,3.2c2.9,0.8,5.9,1.3,9.1,1.6C288.5,659.8,293.5,663,297.5,668.7
		z"/>
	<path class="st0" d="M333.5,703.2c2-0.5,3.9-1.1,5.8-1.7c0.2-1.7,1.1-3.2,1.9-4.7C338.5,698.1,335.9,700,333.5,703.2z"/>
	<path class="st0" d="M273.3,642.2c-0.7-2.7-0.9-5.4-0.8-7.6c0.3-8.2,9.4-4.8,15.2-5.1c4.1-0.2,9.6,2.3,12-1.8
		c0.8-1.4,0.9-2.5,0.6-3.5c-1.3,1.5-3,2.5-5.8,2.5c-4.4-0.1-8.5,0.1-11.5-4c-1.3-1.7-3.7-2.9-5.8-1.8c-8.2,4.2-14.4-0.7-20.8-4.2
		c-2.6-1.4-8.2-0.6-12.3,1.3c-0.5,1.6-1.5,3.4-2.8,5.3c-1,1.5-1.8,2.8-2.2,3.9c0.7,1,2,1.8,4.2,2.2c4.4,0.9,8.9,1.3,13,3.5
		c3,1.6,6.4,2.6,7.3,6.5c-0.7,0-1.2,0.1-1.8,0.3C265.3,641.6,269.1,643.1,273.3,642.2z"/>
	<path class="st0" d="M281,697.6c0.4,0.9,0.8,1.8,1.2,2.8c0.2,0.6,0.4,1.1,0.4,1.5c0.1-0.6,0.1-1.2,0-1.8
		C282.4,698.9,281.8,698.1,281,697.6z"/>
	<path class="st0" d="M1917.7,804.2c0.2,1.1,1.2,1.6,2.3,1.7v-3.7C1918.7,802.1,1917.4,802.1,1917.7,804.2z"/>
	<path class="st0" d="M1504.6,837.9c0.1,0.8,0.9,0.9,1.7,1c0.3,0,0.7,0.1,1,0.2c-0.4-0.2-0.9-0.4-1.5-0.6
		C1505.5,838.3,1505,838.1,1504.6,837.9z"/>
	<path class="st0" d="M771.8,786.9C771.8,786.9,771.8,786.9,771.8,786.9c-2.3,5.8,1.5,5.5,4.6,5.8
		C775.7,790.1,773.2,788.9,771.8,786.9z"/>
	<path class="st0" d="M753.7,774.7c-1.3,1.1-4.5,1.1-3.1,3.6c0.5,0.8,1,1.7,1.7,2.5c0,0,0-0.1,0-0.1c-1.3-3.2,2.6-5.5,2.4-6
		c-0.1-0.3-0.1-0.5-0.2-0.8C754.4,774.1,754.1,774.4,753.7,774.7z"/>
	<polygon class="st0" points="1567.7,812.5 1567.7,812.5 1567.7,812.5 	"/>
	<path class="st0" d="M1558.8,822.3c0.6,1.9,1.8,2.1,3.2,1.9c-0.2-0.7-0.3-1.3-0.1-1.7c0.6-1.1-0.8-2.4-1.9-3.5
		C1559,819.7,1558.3,820.7,1558.8,822.3z"/>
	<path class="st0" d="M1330.6,840.9c-0.8-3.5-2.8-5.3-4.7-6.7c0.1,1.5,0.2,3,0.3,4.5C1327.6,839.1,1329.1,839.8,1330.6,840.9z"/>
	<path class="st0" d="M744.1,789.8c0.6,0.8,1.1,1.6,1.3,2.3c0.2,0,0.4,0,0.7-0.1c-0.1-0.7-0.5-1.3-0.9-1.8
		C744.8,790.2,744.5,790,744.1,789.8z"/>
	<path class="st0" d="M1512.3,835.7c-0.2-0.3-0.4-0.6-0.6-0.8C1511.9,835.2,1512.1,835.5,1512.3,835.7z"/>
	<path class="st0" d="M1559.6,807.3c-0.1,0.2-0.2,0.5-0.3,0.7c0.2,0.1,0.4,0.1,0.6,0.2C1559.8,807.9,1559.7,807.6,1559.6,807.3z"/>
	<path class="st0" d="M1473.3,841.2c0.2,0.2,0.4,0.4,0.5,0.5c0.3-1.6,0.9-3.1,1.5-4.5c-0.2,0.2-0.5,0.4-0.7,0.6
		C1473.6,838.6,1472.2,839.6,1473.3,841.2z"/>
	<path class="st0" d="M1328,827.9c1.3,0.2,2.5-0.1,3.2-2c-0.3,0.4-0.8,0.8-1.3,1C1329.3,827.2,1328.7,827.6,1328,827.9z"/>
	<path class="st0" d="M470.8,665.8c0,0,0.1,0,0.1,0c0,0-0.1-0.1-0.1-0.1C470.8,665.7,470.8,665.8,470.8,665.8z"/>
	<path class="st0" d="M96.7,578.2c-0.4,0.4-0.2,1.7,0.6,1.6c6.3-0.7,2.4,3,2,5.2c1,0.2,1.6,0.3,2.3,0.4c1.1,0.3,2.6-0.3,3.8-0.5
		c0,0,0-0.1,0.1-0.2c2.1-4.3,4.5-8.5,7.4-13.9c-6.4,1.3-11.5,0.4-16.7-0.1C97.2,573.2,99.9,575.3,96.7,578.2z"/>
	<path class="st0" d="M136.3,580.4c-3.2-1.2-5.8,0.8-7.4,3.7c-1.9,3.4-4.7,1.9-7.4,1.6c-3.9-0.5-8-2-10.6,3.1c0,0.1-0.1,0.1-0.1,0.2
		c8.9-0.6,17.7-2.1,26.6-3.1C137.9,583.8,139.3,581.5,136.3,580.4z"/>
	<path class="st0" d="M121.6,640.2c2.9-0.3,5.6-1.1,8.4-1.3C127.1,637,124.3,638.1,121.6,640.2z"/>
	<path class="st0" d="M272.5,654.6c0.1-3.6,1.9-5,4.4-5.4c-1.7-2-2.9-4.5-3.5-7c-4.2,0.9-8-0.6-11.6-2.5c-0.2,0.1-0.4,0.2-0.6,0.3
		c-0.1,4.4-6.4,5.2-10.8,6.9c1.1,0.8,2.2,1.5,3.4,2.2c3.3-2.3,6.9-6,10.1-2.2c2,2.5,1.2,5-0.4,7.5c3,1.4,6,2.5,9.2,3.4
		C272.5,656.6,272.4,655.6,272.5,654.6z"/>
	<path class="st0" d="M602.5,710.5c1.3,0.6,3.4-0.4,5-0.4c0.6,0,1.2,0.1,1.8,0.3c-0.6-0.4-1.3-0.7-1.9-1.1c-0.7,0.7-1.5,1.2-2.5,1.2
		C604.1,710.6,603.2,710.4,602.5,710.5z"/>
	<path class="st0" d="M613.9,713.2c-0.8,1.1-1,2.6-1.3,4c0.7,0.2,1.3,0.2,1.6-0.6c0.4-1.1,0.9-2.4,1.3-3.6c-0.4-0.1-0.9-0.2-1.3-0.3
		C614.1,712.8,614,713,613.9,713.2z"/>
	<path class="st1" d="M1920,848.4c-0.1-0.2-0.2-0.5-0.2-0.7c0-0.5,0-1.1,0.2-1.7v-17.1c-0.1,0.2-0.3,0.3-0.4,0.5
		c-3.1,4.5-6.2,0.3-7.9-1.2c-3.4-3.1,1.5-2.6,2.5-3.9c0.5-0.6,1.5-1.5,1.4-1.7c-4.5-7,2.6-3.2,4.1-4.5c0.1-0.1,0.1-0.2,0.2-0.3v-1.5
		c-0.8-1-2.4-0.8-3.5-1.5c0.9-1.4,2.1-2.4,3.5-3.2v-5.6c-1.2-0.1-2.1-0.6-2.3-1.7c-0.3-2.1,1-2.1,2.3-2v-8c-3.9-0.5-7.3,0.1-9.6,4.2
		c-0.6,1-1.9,1.4-3.4,0.1c1-1.8,2.1-3.6,3-5.5c0.8-1.7,2.9-3.4,1.6-5.4c-1.3-2-3.2,1.1-5.4-0.5c2.4-2.5,3.7-5.2,0.5-8.1
		c-1-0.9-1.1-2.4,0.1-3.2c3.2-2.3-0.1-3.5-0.7-5.2c-0.3-0.8-0.8-1.6-1.7-1.4c-2.4,0.8-1,3.2-1.8,4.6c-1.4,2.2,1.2,6.9-1.8,6.8
		c-8.9-0.2-2.3,3.4-1.3,5.9c-2-0.2-3.5-0.5-5.1-0.4c-2.6,0.1-5.4-3.6-7.1-1.3c-1.9,2.4,1.4,4.9,2.8,7.1c1.3,2,1,3.8-0.4,5.5
		c-1.7,1.9-3.5,0.4-4.9-0.4c-1.5-0.9-2.4-2.6-3.7-3.8c-1.3-1.2-3.1-2-4-0.1c-1,2.2-1.8,4.9-1.6,7.3c0.2,2,3.1,1.2,4.5,2.1
		c0.6,0.4,1.1,1,1.8,1.5c-6.1,4-9.1-1.5-13.1-3.7c-1.6-0.9-3.2-3.6-5.1-1.4c-1.9,2.1,1,3.4,2.1,4.8c0.5,0.6,1.3,0.9,1.9,1.4
		c-1.4,1.4-4.5,0.2-5.1,3c4.7,3.4,11.1-0.1,16.8,3.9c-6.2,0.7-11,2.1-15.8-0.3c-0.5-0.2-1.2-0.4-1.6-0.2c-4.2,1.9-4.8,1.7-6-2.8
		c-0.6-2.1-1.2-4.2-2.7-5.9c-1.3-1.4-3.3-1.2-3.2,0.3c0.2,6.2-4.4,10.8-5.4,16.9c-0.6,3.8,2,12.4-7.9,11.4c1.7,3.2,4.3,5.2,4.5,8.5
		c-0.9-0.4-1.6-0.8-2.4-0.9c-1.9-0.1-3.9-2.6-5.4-0.5c-1,1.4,0.3,3.5,1.6,4.8c1.1,1.1,1.5,2-0.4,2.3c-2.8,0.4-1.9,1.1-0.4,2.3
		c1,0.8,2.5,1.5,1.9,3.3c-3.3,1.3-6.8-1.8-10.2,0.4c1,2.3,4.9,2.3,4.2,4.8c-1,3.4-4.8-1.2-6.7,2c3,1.9,2.6,6,6.4,8.2
		c-4.6,0.8-7.8-2.9-12.2-1c3.2,3.1,8.3,3.4,10.1,8.1c-7.1,1.3-12.8-4.1-19.7-2.4c0.7-3.3,4.3-3.1,4.2-5.4c-1-2.7-4.7-0.1-4.4-2.2
		c0.6-4.7-3.3-7.9-3-12.7c0.2-4-0.3-8.9-2.4-13c-0.5-1-0.9-2.5-2.3-2.4c-1.7,0.1-2.1,1.5-2.4,3c-1.2,5.5-4.6,10.4-4.6,16.5
		c0,1.2,1.7,6.8-3.1,6.9c-2.9,0.1-6.1-0.7-8.6-2.1c-1.8-1-0.7-4-0.7-6c0.1-2.4-1.4-4.1-1.9-6.2c-0.3-1-0.9-2.5-2.3-2.3
		c-1.1,0.2-1.8,1.4-2.1,2.6c-3.1,11.1-4,11.8-16.4,13.1c3.2-1.7,4.3-3.7,2.9-5.9c-1.5-2.3-3.1-0.4-4.6,0.3c-1.5,0.7-3.3,1.2-4.3-0.3
		c-1.1-1.6,0.7-2.4,1.7-3.3c0.9-0.8,2-1.8,1.5-3c-0.8-1.8-2.4-0.5-3.7-0.5c-0.9,0-3.1,1.5-2.6-0.8c0.7-3.3-3.5-4.8-2.4-8.1
		c0.2-0.6-1.1-1-1.9-0.9c-1,0.2-2.5,0.6-2.2,1.6c1.9,6-2.3,5.7-6,6.5c-1.9,0.4-2.4-0.5-3.5-1.4c-1.4-1.2-1.5-2.1-0.3-3.5
		c0.7-0.8,2.1-2.5,0.6-2.7c-3.7-0.6-2.6-2.9-2.2-4.8c0.6-3.2,3.6-1.2,5.6-2.3c-1-0.8-1.8-1.3-2.5-2c-5.6-6.5-12-12.2-12.1-22
		c-0.1-3.8,1-8-1.4-11.7c-0.5-0.8-1.2-1.6-2-2c-0.3-0.1-1.7,0.9-1.6,1.3c0.5,4.6-3.6,7.6-3.9,11.6c-0.5,5.2-2.2,6.3-7.5,2.2
		c4.8,6.7,4.7,6.7,1.9,10.8c-0.3,0.5-0.1,1.6,0.3,2.1c1.8,2.7,1,3.5-2,3.3c-1.9-0.1-1.5,1-1.1,2.4c1.5,5.7-0.4,8.5-5.9,9.2
		c-0.4,2.2,3.5,2.2,2.5,4.8c-9.7-1.2,0.3,5.1-1.2,5.8c-3.4,2.1-5.9-0.2-8.3,1.4c2.8,2.2,5.6,3.7,6.9,6.7c-1.9,0.8-5.2-0.6-5.1,0.8
		c0.8,9.4-5.8,1.8-7.9,4.7c-0.5-3,3.8-3.7,1.9-5.7c-4.1-4.3-2.6-9.4-3.2-14.4c-0.4-3.9,0.5-8.1-1.8-11.7c-0.9-1.5-2.9-3-3.3-0.7
		c-0.7,4.7-4.4,8.2-4.2,13.5c0.2,4.2-0.2,9.9-6.6,11.1c0.3,2,3.2,2.5,3,4.8c-2.1,0.8-4-1.8-6.7-0.1c4.9,3.2-2.1,7.5,1.7,10.6
		c-7.1,1.7-13.6,4.8-20.9,3.6c3.3-6.1,9.7-10.6,6.9-19c-2.6,2.2-5.9,0.8-9,3c1.9-4.4-1.8-7.1-1.7-10.7c0-1.2-2-2-2.4-0.3
		c-1,3.4-2.8,5.1-6.4,5c-0.9,0-1.7,0.7-1.3,1.5c4.1,7.6,0.5,5.4-3.5,2.9c-0.4-0.2-1.6,0-1.6,0.2c-1.5,5.7-5.8,1.5-8.3,2.1
		c-1.3,1.9,2.5,3.1,0.1,4.2c-1.2,0.5-3-0.2-3.5-2.3c-0.6-2.9-1.4-5.8-2.3-8.6c-1.6-4.7,0.2-9.9-1.7-14.5c-0.4-0.9-1-1.8-1.8-2.2
		c-0.8-0.5-1.7,0.3-1.8,1c-0.2,5.5-4.3,9.9-4.5,15.3c-0.2,4.5-0.9,8.7-6.3,9.1c-0.3,2.6,3.3,3.1,2,5.5c-1.7,1.1-3.7-0.8-5.1,0.7
		c-0.4,1.9,2.1,2.4,1.9,4.5c-2.6,0.4-5.2,0.9-7.8,0.9c0-0.2-0.1-0.5-0.4-0.8c-3.3-3.8-0.3-4.8,1.5-6.2c0.8-0.2,1.5-0.4,2.3-0.6
		c3.4-0.9,1.8-1.7,0.5-2.5c0.9-1.3,1.8-2.8,2.3-5c-0.6,0.3-1.3,0.6-1.9,1c0.5-1.2,0.9-2.5,0.4-4c-1.4,0.4-2.5,0.8-3.7,1.2
		c-1.3,0.4-3,1-3.7-0.7c-0.7-1.8,1.3-2.2,2.3-2.9c1.8-1.2,3.3-2.8,5.7-3.2c2-0.3,3-1.7,2.3-3.9c-3,0.7-5.9,1.4-8.8,2
		c-1.7,0.3-3.9,1.3-4.7-1c-0.6-1.9,1.7-2.4,2.8-3.3c2.7-2.2,7.3-14,5.4-15.5c-3.2-2.6-2.7-5.5-1.7-8.8c-2.5-0.1-5.4,2.4-5.8-2
		c-0.4-4.5-4.4,1.2-5.5-1.9c-0.3-2.1,3.1-5.4,1.8-5.5c-6.2-0.3-3.1-6.3-6.2-9c-1.5,3.6-3.6,6.8-4.1,10.5c-1.2-0.6-3,0-4.6,0
		c-1.1-0.5-2.2-1.1-3.4-1.8c1.4-2.5,4.6-5.6-2-5.5c-0.9,0-1-1.5-0.5-1.9c4.3-3.1,1-6.1-0.1-9.1c-0.9-2.7-1.7-5.4,1.2-7.5
		c0.6-0.5,1.4-1.3,0.6-2c-4.8-3.9-1.1-8.9-1-13.1c0.1-6.4-2.3-10.8-5.9-16c-1.3,2.4-3.2,4.8-2.8,5.3c3.4,4.2-4.3,6-1.9,9.7
		c-2.3,0.6-4.9,3.5-6.7-0.8c-1.3,2.4,0.8,4.1,0.8,5.7c0,4.3-0.7,8.7-2,12.8c-0.3,1.1-1.5,1.8-0.7,3.2c1.7,3,0.4,4.3-2.3,4.8
		c-0.4-1.9-0.9-3.7-1.4-5.6c-0.2-0.6-1-1.3-1.6-1.5c-0.9-0.3-1.6,0.6-1.6,1.4c0.3,5.1-2.8,9.4-3.5,14.4c0,0.1,0,0.2,0,0.2
		c-0.4-0.1-0.8-0.2-1.2-0.3c-1.9-0.5-3.8-0.7-4.5,1.6c-0.7,2.4,1.8,1.9,2.9,2.8c0.8,0.6,1.8,1,2.6,1.7c-0.4,2.4-1.7,4.2-6.2,3.7
		c-0.1,1.4,0.9,2.2,1.6,3c-0.9-0.3-1.8-0.6-2.7-0.6c-1.3,0.1-2.8-1.7-3.8-0.2c-1.2,1.7,0.7,2.7,1.6,3.9c-0.2,2.4,3.6,3.1,2.5,3.6
		c-2.9,1.3-2.7,2.7-1.9,4.1c-1.6,0-3.3,0.1-5-0.1c0.7,0.9,1.3,1.7,2,2.4c-1.1-0.1-2.1,0-3,1.2c0.6,2,3.7,2.2,3.2,4.9
		c-1.5,0.6-3.3-1.5-5,0.3c0-0.1-0.1-0.2-0.1-0.3c-0.4-2.2-1.7-1-2.6-0.5c-1.2,0.7-3,0.7-4.2,1.4c-0.5-2.6-1.8-5.1-1.7-8
		c0.1-4.4-1.4-8.8-2.4-13.1c-0.1-0.7-0.9-1.5-1.5-1.7c-0.5-0.1-1.7,0.8-1.7,1.3c0,5.3-4.3,9.1-4.5,14.5c-0.2,3.8,0.6,9.9-6.2,9.7
		c-0.6,2.2,3.8,2.8,1,4.6c-1.7,1.1-3.4-0.8-4-2.6c-0.6-1.6-0.7-3.5-0.9-5.2c-0.3-2-0.5-3.9-0.9-5.9c-0.2-1-0.9-2-2-1.8
		c-0.6,0.1-1.6,1-1.6,1.5c0,0.6,0,1.1,0,1.6c-0.1-0.3-0.4-0.6-0.7-0.9c-1.5-1.2-3-0.1-4.4,0.6c-1.9,0.9-3.7,1.5-5.5-0.1
		c0.2-2.7,6.4-3.7,3.6-5.3c-8.1-4.6,0.2-6.4,0.7-9.6c-2.3,0.8-6.9-6.1-7,1.3c-0.1,3.8-2.7,7.8-3.4,8.1c-5.7,2.4-2,6.7-2.5,10
		c-0.2,1.6,1.5,3.1,0.6,5.1c-4.5-4-7.3-9.6-13.9-11.8c-0.1,5,5.4,10.2,1.4,13.2c-5.2,4-1,6,0.3,8.6c0.6,1.2,2.4,2.4,1.5,3.6
		c-0.2,0.2-0.4,0.5-0.5,0.7c-1.2-1.1-2.9-0.1-4.7,0.6c-1.3,0.5-3,0.8-3.9-0.5c-1.1-1.8,1-2.1,1.9-3.1c1.2-1.2,3-4.1,0.5-3.7
		c-7.1,1.1-6.4-3.8-7.4-7.7c-0.2-0.8,0-1.7-1-2c-1.2-0.3-2.1,0.5-2.3,1.4c-0.7,3-3.6,5.4-4.5,8.4c-0.9-0.2-1.9-0.5-2.9-0.5
		c-2.4-0.1-5.9,2-7-0.9c-1-2.6,3.1-3,4.4-4.8c1-1.4,3.4-2.4,2.6-4.3c-0.8-2-3.2-0.9-4.9-1.1c-0.6,0-1.1-0.3-1.8-0.5
		c0.1-1.7,2.4-2.7,1.6-4.4c-3.4-6.9-2.6-14.1-2.4-21.4c0.1-4.4-0.3-9-2.5-13.2c-1.3-2.6-3.3-3.2-3.9-0.3c-1,4.5-1.6,8.8-5.7,11.6
		c2.7,3.7-4.6,6.1-1.2,9.9c-3.9,1,3.8,9.7-4.9,7c-1.1,2.6,3.4,3.8,1.1,6.1c-1.7,1.7-3.7,0.7-5.6,0c-0.9-0.3-2.1-0.8-2.7,0.2
		c-0.8,1.2,0.1,2.4,0.9,3.2c2.1,2.3,4.3,4.6,4.1,8.2c-3.4-1.7-7.6-4.4-9.7-2.6c-0.9,0.8-0.7,1.5-0.1,2.3c-0.4,0.4-0.6,0.9-0.5,1.3
		c0.1,1.6-0.3,3.1-0.9,4.6c-0.1,0-0.2,0-0.2,0c0,0.2-0.1,0.4-0.1,0.6c-1.2,2.3-2.9,4.5-3.8,7c-1.8-0.3-3.6-0.2-5.7,0.5
		c1.5,1.4,3.3,2.4,4.6,3.7c-0.2,0.2-0.4,0.3-0.6,0.5c-1.8,1.6-3.3,0.6-4.7-0.7c-1-1-2.4-2.1-0.8-3.5c3.2-2.9,2.7-8.1,4.9-10.3
		c6.5-7-0.3-5.9-3.5-7.2c-1.6-0.7-3.6,0.4-4.6-0.1c-0.8-0.4-1.6-0.4-2.5-0.2c0-0.5,0-1-0.1-1.5c-0.9,0.7-1.7,1.3-2.4,2.1
		c-1.6,0.3-3,0.3-3.6-1.8c-1.2-3.7,3.7-4,5.5-6.2c1.6-1.9,4.7-4.3,4.4-5.8c-0.8-3.2-4.5-0.8-6.8-1.6c-0.7-0.3-1.5-0.4-2.6-0.8
		c0.8-2.5,5.7-6.4-1.7-6.3c-0.9,0-1-1.5-0.5-1.9c4.3-3.1,1-6.1-0.1-9.1c-0.9-2.7-1.7-5.4,1.2-7.5c0.6-0.5,1.4-1.3,0.6-2
		c-4.8-3.9-1.1-8.9-1-13.1c0.1-6.4-2.3-10.8-5.9-16c-1.3,2.4-3.2,4.8-2.8,5.3c3.4,4.2-4.3,6-1.9,9.7c-2.3,0.6-4.9,3.5-6.7-0.8
		c-1.3,2.4,0.8,4.1,0.8,5.7c0,4.3-0.7,8.7-2,12.8c-0.3,1.1-1.5,1.8-0.7,3.2c1.8,3.1,0.3,4.4-2.7,4.9c-2.5,0.4-3.9,1.9-2.3,4
		c1.1,1.5,3.9,2.3,2.4,4.6c-1.5,2.3-4,0.6-6.1,0.5c-1-0.1-2-0.3-3-0.5c-1.9-0.5-3.8-0.7-4.5,1.6c-0.7,2.4,1.8,1.9,2.9,2.8
		c1.2,1,3,1.3,3.4,3.1c-0.6-0.7-1.7-0.7-2.6-0.8c-1.3-0.2-2.4-0.6-3.4-1.3c-0.4-1.7-1-3.3-1.3-5c-0.1-0.2-0.1-0.5-0.2-0.7
		c1.2-1,2.2-2.6,4.4-1.7c2.9,1.1,3.5-2.5,4.5-4.5c0.5-1.1,1.2-2.5,0.1-3.3c-1.9-1.4-3.8,0-5.7,0.6c-1.3,0.4-2.5,1.2-3.8,1.8
		c-4.9,2.3-10,3.5-15.3,4.5c-0.2-3.3,0.2-6.7-1-9.9c-0.3-0.7-0.7-1.5-1.3-1.8c-0.8-0.4-1.8,0.3-1.8,1c0.2,3.1-1.2,5.7-2.4,8.4
		c-1.4-1.1-2.8-2.1-4.9-1.6c-1.6,0.4-4.1-0.6-4.1-2.6c0-1.8,1.6-5.2,2.3-5.2c6.1,0.5,9.3-3.8,13.8-6.4c2.6-1.5,4.5-2.6,3.8-5
		c-0.9-2.8-3.2-5.3-6.9-3.5c-2.4,1.2-4.6,1.1-7,0.4c-1.9-0.5-3.3-0.5-4.7,1.3c-3.4,4.3-6.2-0.1-7.7-1.8c-3.2-3.4,1.7-2.5,2.8-3.7
		c0.5-0.6,1.7-1.4,1.6-1.5c-3.9-7.3,2.9-2.9,4.5-4.1c0.3-0.2,0.5-0.6,0.7-0.8c-0.3-2.2-2.4-1.7-3.7-2.7c3-4.1,9.2-3.4,11.8-8.1
		c-1.8-1.4-3.6-0.4-5.3-0.3c-1.9,0.1-4.3-0.1-4.5-2c-0.2-3.1,2.6-1.6,4-1.5c4,0.2,3.4-3.6,4.2-5.5c0.8-1.9-2.2-2-3.8-2.4
		c-4.3-1.2-8.2-1.1-11.1,3.1c-0.6,0.9-2.1,1.3-3.4-0.2c1.1-1.7,2.4-3.4,3.5-5.3c1-1.6,3.1-3.1,2-5.3c-1.1-2.1-3.3,0.8-5.3-0.9
		c2.6-2.3,4.2-4.9,1.1-8c-1-1-0.9-2.4,0.3-3.1c3.4-2,0.2-3.5-0.3-5.2c-0.2-0.8-0.6-1.7-1.5-1.5c-2.5,0.6-1.2,3.1-2.2,4.4
		c-1.5,2.1,0.6,6.9-2.4,6.6c-8.9-0.9-2.6,3.2-1.8,5.8c-1.9-0.3-3.5-0.7-5.1-0.8c-2.6-0.2-5.1-4-7-1.9c-2.1,2.3,1,5,2.3,7.3
		c1.1,2.1,0.7,3.8-0.8,5.3c-0.3-0.6-0.6-1.2-0.9-1.8c-0.3,0.9-0.5,1.8-0.8,2.6c-1.2,0-2.3-0.9-3.2-1.5c-1.4-1-2.2-2.8-3.4-4.1
		c-1.2-1.3-2.9-2.3-4-0.4c-1.2,2.2-2.1,4.8-2.1,7.2c0,2.1,3,1.4,4.4,2.5c0.6,0.4,1,1,1.7,1.7c-6.4,3.5-9-2.2-12.8-4.7
		c-1.5-1-2.9-3.8-4.9-1.8c-2.1,2,0.7,3.4,1.7,5c0.4,0.6,1.2,1,1.8,1.5c-1.5,1.3-4.5-0.2-5.3,2.6c4.4,3.8,11,0.8,16.4,5.2
		c-6.2,0.2-11.2,1.2-15.8-1.6c-0.4-0.3-1.2-0.5-1.6-0.3c-4.3,1.5-4.9,1.3-5.8-3.3c-0.4-2.2-0.9-4.3-2.3-6.1c-1.1-1.5-3.1-1.5-3.2,0
		c-0.3,6.2-5.3,10.4-6.7,16.4c-0.9,3.7,1,12.5-8.8,10.7c1.4,3.4,3.8,5.5,3.8,8.8c-0.9-0.4-1.6-1-2.3-1c-1.9-0.2-3.7-2.9-5.4-0.9
		c-1.2,1.3,0.1,3.5,1.2,4.9c1,1.2,1.4,2.1-0.6,2.3c-2.8,0.2-1.9,1-0.6,2.3c0.9,0.9,2.4,1.7,1.6,3.5c-3.4,1.1-6.6-2.3-10.2-0.4
		c0.8,2.4,4.7,2.7,3.8,5.1c-1.2,3.3-4.7-1.6-6.9,1.4c2.8,2.1,2.1,6.2,5.7,8.7c-4.6,0.4-7.6-3.6-12.1-2c3,3.3,8,4.1,9.4,8.9
		c-7.2,0.7-12.4-5.1-19.5-3.9c1-3.2,4.5-2.7,4.6-5c-0.8-2.7-4.7-0.5-4.2-2.5c1-4.6-2.6-8.1-2-12.9c0.5-4,0.4-8.9-1.4-13.1
		c-0.5-1.1-0.7-2.6-2.1-2.6c-1.7-0.1-2.2,1.3-2.6,2.8c-1.7,5.4-5.4,10-5.9,16.1c-0.1,1.2,1.1,7-3.6,6.7c-2.9-0.2-6.1-1.2-8.5-2.7
		c-1.7-1.1-0.4-4-0.2-6c0.3-2.4-1-4.2-1.4-6.3c-0.2-1-0.7-2.6-2.1-2.4c-1.2,0.1-1.9,1.2-2.3,2.5c-4,10.8-4.9,11.5-17.4,11.8
		c3.4-1.4,4.5-3.3,3.3-5.7c-1.3-2.4-3-0.6-4.6,0c-1.6,0.6-3.4,1-4.3-0.7c-0.9-1.7,0.9-2.3,2-3.2c0.9-0.7,2.2-1.6,1.7-2.9
		c-0.7-1.8-2.3-0.7-3.6-0.8c-0.9,0-3.2,1.2-2.5-1c1-3.2-3.1-5.1-1.7-8.2c0.3-0.6-1-1.1-1.8-1c-1,0.1-2.6,0.4-2.4,1.4
		c1.4,6.1-2.8,5.5-6.5,6c-1.9,0.3-2.3-0.7-3.3-1.6c-1.3-1.3-1.4-2.3-0.1-3.5c0.8-0.8,2.3-2.3,0.8-2.7c-3.6-0.9-2.3-3.1-1.8-5
		c0.8-3.1,3.7-0.9,5.7-1.9c-0.9-0.9-1.7-1.4-2.3-2.2c-5-6.9-11-13.2-10.3-22.8c0.3-3.8,1.6-7.9-0.4-11.7c-0.4-0.8-1.1-1.7-1.9-2.1
		c-0.3-0.2-1.7,0.7-1.7,1.1c0.2,4.6-4.2,7.3-4.9,11.3c-0.9,5.1-2.7,6.1-7.6,1.6c4.2,7.1,4.2,7.1,1.1,10.9c-0.3,0.4-0.2,1.6,0.1,2.1
		c1.6,2.8,0.8,3.6-2.3,3.1c-1.8-0.3-1.5,0.9-1.3,2.3c1,5.8-1,8.4-6.7,8.7c-0.6,2.2,3.4,2.5,2.1,5c-9.6-2-0.1,5.2-1.6,5.7
		c-3.5,1.8-5.8-0.7-8.4,0.8c2.7,2.4,5.3,4.1,6.3,7.2c-1.9,0.6-5.1-1-5.1,0.4c0.1,9.4-5.9,1.3-8.3,4c-0.3-3,4.1-3.4,2.3-5.5
		c-3.7-4.6-1.8-9.6-2-14.6c-0.1-3.9,1.1-8-0.8-11.8c-0.8-1.6-2.7-3.2-3.2-0.9c-1.1,4.7-5.1,7.8-5.2,13.1c-0.1,4.2-1,9.8-7.4,10.6
		c0.1,2.1,2.9,2.8,2.6,5.1c-2.2,0.6-3.9-2.2-6.7-0.6c4.7,3.6-2.7,7.3,0.8,10.7c-7.2,1.2-13.9,3.7-21.1,2c3.8-5.9,10.5-9.8,8.4-18.4
		c-2.7,2-5.9,0.3-9.2,2.2c2.2-4.2-1.2-7.2-0.8-10.8c0.1-1.2-1.8-2.1-2.4-0.5c-1.2,3.4-3.2,4.9-6.8,4.4c-0.9-0.1-1.8,0.6-1.4,1.4
		c3.5,7.9,0.1,5.5-3.8,2.6c-0.4-0.3-1.5-0.1-1.6,0c-1.9,5.6-5.9,1-8.4,1.4c-1.5,1.8,2.2,3.3-0.3,4.2c-1.2,0.5-3-0.5-3.3-2.6
		c-0.4-2.9-0.9-5.9-1.6-8.7c-1.2-4.9,1-9.8-0.5-14.6c-0.3-0.9-0.9-1.8-1.6-2.4c-0.8-0.6-1.8,0.1-1.8,0.9c-0.7,5.5-5.1,9.5-5.7,14.9
		c-0.5,4.5-1.6,8.6-7.1,8.6c-0.5,2.5,3,3.4,1.5,5.6c-1.8,1-3.6-1.1-5.1,0.3c-0.6,1.9,1.9,2.5,1.5,4.6c-5.2,0.3-10.4,1.5-15.5-2.8
		c2.8,0.3,3-2.4,4.6-2.8c2.3-0.7,4.7-0.8,7-1.3c6-1.2-3-3.1,0.2-4.4c0.2-0.1,0.4-0.2,0.5-0.4c0.5-1.8,2-3.4,1.4-5.7
		c-1.4,0.3-2.6,0.6-3.8,0.9c-1.4,0.3-3.1,0.7-3.6-1c-0.6-1.9,1.4-2,2.6-2.7c1.9-1.1,3.5-2.5,5.9-2.7c2-0.2,3.1-1.5,2.6-3.7
		c-3.1,0.4-6,0.9-8.9,1.3c-1.7,0.2-4,1-4.6-1.4c-0.5-1.9,1.8-2.3,3.1-3.1c2.9-1.9,8.4-13.4,6.6-15c-3-2.9-2.2-5.7-1-8.9
		c-2.5-0.3-5.6,2-5.6-2.5c0-4.5-4.4,0.8-5.3-2.3c-0.2-2.2,3.5-5.2,2.3-5.3c-6.2-0.8-2.6-6.5-5.5-9.5c-2.4,4.6-5.6,8.3-5.1,13.8
		c-1.8-3-4.7-3.9-7.7-6.1c0.8,3-0.1,5.3,1.3,7.3c0.3,0.4,0.6,0.9,0.9,1.3c-8.2,0.8,0.6,4.5-1,6.9c-0.8,1.1,1,3.9,0.5,6.4
		c-4.2-0.8-7.4-5.6-12.2-2.6c0.8,1.8,2.2,3.6,2.3,5.4c0.1,2.6,2.4,3,3.6,4.4c0.8,0.9,0.8,1.8,0.1,2.7c-0.3,0.4-1.5,0.6-1.5,0.5
		c-1.3-3.3-5.3-2-7-3.9c-2-2.3-2.5-7.8-2.2-8.4c3-5.9,2-9.1-4.8-9.6c0.1-2.5,3.8-4.1,2.3-5.4c-5.6-4.5-3.6-10.2-3.7-15.8
		c-0.1-3.8-0.9-7.5-1.5-11.2c-0.1-0.6-0.8-1.4-1.5-1.7c-0.9-0.3-1.7,0.4-1.7,1.2c-0.1,5.2-3.6,9.2-4.6,14.1
		c-0.8,3.7,0.9,10.9-7.1,9.1c-0.3,2.5,2.9,3.4,1.9,5.2c-2.1,2.1-4.2-1.3-5.6,0.6c-0.4,2.3,3.3,3.4,2.2,3.8c-5,1.9-1.4,4.5-0.8,6.9
		c-2.8,0.6-5.4-2.6-7.8,0.1c0.4,2,3.5,2.5,2.8,5.2c-1.6,0.5-3.3-2-5.2,0.2c0.7,1.7,3,4,1.1,5.5c-1.6,1.3-4.2-0.5-6.3-1
		c-1-0.2-1.9-0.2-1.6-1.8c0.8-3.7-1.3-7.1-0.9-11c0.4-4.3-0.7-8.8-1.3-13.3c-0.1-0.7-0.8-1.6-1.3-1.8c-0.5-0.1-1.7,0.7-1.8,1.2
		c-0.5,5.2-5,8.7-5.7,14.1c-0.5,3.8-0.2,9.9-6.9,9.2c-0.8,2.1,3.6,3.1,0.6,4.7c-1.8,0.9-3.3-1.1-3.8-2.9c-0.5-1.7-0.4-3.5-0.5-5.3
		c-0.1-2-0.2-4-0.4-5.9c-0.1-1-0.7-2.1-1.9-1.9c-0.6,0.1-1.7,0.9-1.7,1.4c-0.1,5.8-5,9.7-5.7,15.5c-0.3,2.6-0.1,9.2-6.7,7.6
		c-1,2.4,2.6,3.4,1.4,5.5c-1.6,1.1-3.6-1.2-5.4,1.5c-1.6,0.6,6.3,2.6,0.1,3.6c-1.9,0.3-0.9,1.7-0.3,2.7c0.5,1,1.7,2.2-0.1,2.9
		c-1.4,0.6-1.9-1-2.8-1.6c-4.6-2.9-2.2-12.5-10.8-11.6c-0.2,0-0.6-0.6-0.6-0.9c-0.4-4.4-3-3.1-5.6-2.3c-1.3,0.4-3.1,0.6-3.8-0.9
		c-1-1.9,1.2-2.1,2.1-2.9c1.2-1.1,3.3-3.8,0.8-3.6c-7.2,0.6-6.1-4.3-6.8-8.2c-0.1-0.8,0.1-1.7-0.8-2c-1.2-0.4-2.1,0.3-2.4,1.2
		c-1.4,4.7-8.2,7.3-4.7,14c-1.4-1.9-3.1-3-5-3.9c-0.6-3.1,0.4-6.5-0.1-9.8c-0.7-4.6,0.8-9.6-1.1-14.2c-0.5-1.1-1.1-2.9-2.8-2.4
		c-1.1,0.3-2.1,1.5-1.7,2.8c1.7,5.9-6.6,9.3-3.8,15.5c0,0.1-0.1,0.3-0.2,0.5c-1.6,1.7-3.3,5.4-2.8,6.5c1.3,2.5,1.8,4-2.3,3.6
		c-2.2-0.2-1.2,1.9-0.5,3c0.9,1.3,1.8,2.6,0.6,4.1c-1.3,1.6-2.8,0.7-4.2,0.3c-0.9-0.2-1.9-0.9-3,0.7c0.9,1.3,2.1,2.6,2.9,4.1
		c-1.9,1.6,0.3,2.6,0.7,3.9c0,0.2,0.1,0.3,0.2,0.5c-2-0.5-3.8-1-5.5-1.5c-1-0.3-2.1-1.1-2.8-0.2c-0.4,0.5-0.4,1-0.3,1.4
		c-0.3-0.1-0.6-0.1-0.8-0.2c-0.9-0.2-2.7,0-2.4-1.1c1.5-4.5-2.5-8.1-1.3-13c0.9-3.9,1.3-9-1-13.3c-0.4-0.8-1.1-1.8-1.9-2.1
		c-1.1-0.4-2.1,0.9-2.1,1.6c0,5.6-6.3,9-6.7,14.6c-0.6-0.6-1.6-0.9-2.1-0.9c-3.1-0.2-4.7-1.3-4.9-4.6c-0.1-1.3-0.9-0.9-2.2-0.6
		c-5.1,1.2-10.4,2.5-16-1c5.7-0.6,10-4.2,15.3-3.7c6.7,0.7,7.4-5.9,11.4-8.5c-4.8-0.3-9.5,2.3-13.5-1.6c-0.2-0.1-0.7,0-1,0.1
		c-4.1,1.4-8.1,0.2-12.4-0.2c5.8,0.1,0.3-4.1,2.1-5.5c4.7,3.5,6.4,3.6,10,0.7c-1-1.6-3.8-0.8-4.3-3.2c8.1,2.4,9.8-6.6,15.7-8.2
		c-6.1-2.1-12.4,1.7-18.9-1.5c3.4-1.9,6.1-0.2,8.8-0.3c1.8-0.1,5.1-0.6,3.7-2.3c-3.1-3.6,0.4-4.2,1.7-5.7c1.6-1.7,3.1-3.3,3.9-6.5
		c-6.1,3.1-11.5,5.4-18.4,5.9c1.5-2.2,3.1-1.6,4.2-2.3c1.3-0.8,3.3-1.2,3-3c-0.3-1.9-2.3-0.6-3.5-1c-1.4-0.5-3.5,0.9-4.5-1.7
		c2.5-1,4.6-2.7,6.5-4.5c0.9-0.9,3.1-1.4,2.1-2.9c-1.2-1.8-2.6-0.4-3.8,0.7c-1.5,1.4-2.8,0.5-4-0.6c-0.9-0.8-2-1.8-0.7-3
		c2.8-2.5,2.3-6.9,4.1-8.9c5.5-6-0.2-5-3-6.1c-1.4-0.6-3.1,0.3-3.9-0.1c-2.5-1.3-6.1,2.4-7.3-1.2c-1-3.1,3.1-3.4,4.7-5.3
		c1.4-1.7,4-3.7,3.7-5c-0.6-2.7-3.8-0.7-5.8-1.4c-0.6-0.2-1.3-0.4-2.2-0.6c0.7-2.2,4.9-5.5-1.4-5.4c-0.8,0-0.9-1.3-0.4-1.6
		c3.7-2.7,0.8-5.2-0.1-7.8c-0.8-2.3-1.5-4.6,1-6.4c0.5-0.4,1.2-1.1,0.5-1.7c-4.1-3.4-1-7.6-0.9-11.2c0.1-5.5-2-9.3-5-13.7
		c-1.1,2.1-2.8,4.1-2.4,4.5c2.9,3.6-3.6,5.1-1.6,8.3c-2,0.5-4.1,3-5.8-0.7c-1.1,2,0.7,3.5,0.7,4.8c0,3.7-0.5,7.5-1.6,11
		c-0.3,0.9-1.3,1.6-0.6,2.8c1.5,2.6,0.3,3.8-2.3,4.2c-2.1,0.3-3.3,1.6-1.9,3.4c1,1.3,3.4,1.9,2.1,3.9c-1.2,1.9-3.5,0.6-5.2,0.5
		c-0.8,0-1.7-0.2-2.5-0.4c-1.6-0.4-3.3-0.6-3.8,1.3c-0.6,2.1,1.6,1.6,2.5,2.4c1.3,1.1,3.6,1.3,2.9,4.4c-1.1,5.4-4.4,2.1-6.8,2.2
		c-1.1,0.1-2.4-1.5-3.3-0.2c-1,1.5,0.7,2.3,1.4,3.4c2,2.8,6.4,3.3,7.7,8.7c-3.9-3-7.4-2-11.6-2.3c2.2,2.7,4,4.7,5.5,6.9
		c1,1.4,1.5,4.1-0.8,3.6c-2.3-0.5-6.3,1.1-7.1-3.2c-0.4-1.9-1.5-0.9-2.2-0.4c-1.4,0.9-3.7,0.4-4.4,2.3c-0.5,1.4,0.9,2.2,2,2.5
		c3.1,0.9,4.4,3.3,5.9,5.6c-0.1,0.1-0.1,0.2-0.1,0.3c0,0.5-0.1,0.9-0.1,1.3c-3.1-0.1-5.7-1.3-8.3-2.4c-1-0.4-2.1-0.4-2.7,0.7
		c-0.6,1,0.1,1.6,0.9,2.1c1.7,1,5.8,0.9,1.8,4.4c-0.6,0.5,0.8,1.3,1.3,1.9c0.8,1.1,1.6,2.3,2.4,3.7c-0.2,0.4-0.3,0.8-0.4,1.3
		c-5.9-1-11.6-2.1-16.8-5.2c0.1-0.6,0.2-1.2,0.3-1.8c2-1.1,4.6-1.9,3.3-4.1c-1.2-2.2-3.2-0.2-5.1,1c-0.5-0.2-1.2-0.4-2.1-0.6
		c0.1-0.5,0.1-1.2,0.4-1.5c2.5-2.2,1.7-6,4.4-7.9c-2.8-2.5-6.2-1.9-9.4-2.6c0-0.2,0-0.3,0.1-0.5c0-0.9,0.7-1.9,0.7-2.9
		c0.5-0.5,1-1,1.6-1.5c2.6-1.9,4.1-3.4-0.4-4.3c-2.3-0.5-2.2-1.9-1.1-2.9c2.8-2.5,0.7-4.2-0.5-6.1c-1-1.6-1.3-3.4-1.7-5.3
		c-1.5-6.4,0.9-13.1-2.5-19.8c-2.2,6-5.2,11.5-8.8,16.6c-0.1,0.2,0.1,0.8,0.4,1.1c1.8,2.6,1.3,3.7,0.2,4.2c-1.4-1.7-3.2-2.9-6.2-2.9
		c-3.7,0-8.4,0.4-10.7-3c-3-4.4-6.1-8.3-11.1-10.5c-1.1-0.5-1.6-2.1-2.4-3.1c-0.7-0.9-1.5-2.4-2.3-2.5c-7-0.8-12.9-7.8-20.7-3.5
		c-0.6-2.3,0.7-2.8,1.9-3.4c3.7-1.7,7.5-2.7,11.4-0.4c2.6,1.5,4.7,1.2,5.8-2.1c0.8-2.3,2-4.4,5.1-3.6c3.1,0.7,2.7,3.4,2.8,5.7
		c0,0.8,0,1.7,0,2.5c0,2.5,1.2,2.5,3.3,2.1c3.5-0.8,4.2-3.6,5.2-7.6c1.4,1.9,2.2,3,3.1,4c1,1.2,2.3,1.9,3,0c1.2-3.5,3.7-2.4,5.9-1.8
		c0.8-1.5,0.3-2.6-0.1-3.6c-2.4-6.7-10.2-8.7-12.9-15.2c-0.1-0.3-1.2-0.3-1.9-0.4c-5.3-0.5-10.6-1.1-15.9-1.3
		c-2.9-0.1-4.7-0.8-5.7-3.7c-1.2-3.5-4.4-5.4-7.1-7.4c-1.9-1.4-3.5,1.4-5.4,1.7c-1.9,0.4-4.3,1.1-4.8-1.8c-0.4-2.4,0-5.5,2.7-5.5
		c2.8,0,3.4-0.5,3.6-3c0.2-2.3,1.6-1.8,2.5-0.4c2.3,3.7,6.4,3.1,9.8,4.1c1.6,0.5,2.5-0.5,3.1-1.8c1.5-3.2-1.3-8.9-4.9-9.1
		c-3.3-0.2-5.4-1.3-5.8-4.8c-0.1-1.3-1.1-2-2.2-2.5c-4.6-2.1-9.1-4.3-14.3-1.9c-0.8,0.4-1.7,0.7-2.3,0c-0.7-1,0-1.8,0.6-2.6
		c1.2-1.6,2.9-1.3,4.6-1.2c4.3,0.4,7.8-1.1,10.8-4.1c1-1,2.7-1.7,1.6-3.6c-0.9-1.5-2.2-2.7-4.1-2.2c-6.2,1.6-11.6,0.5-15.9-4.6
		c-0.7-0.9-3-0.5-2.4-2.5c0.4-1.4,1.8-1.2,3-1.3c4.4-0.1,4.1-3.9,4.6-6.5c0.6-3.2-2.4-3-4.4-3.3c-0.3-0.1-0.7,0-1-0.1
		c-3-1.6-6.9-2.6-8.8-5c-1.4-1.7,1.8-4.6,3-6.8c1.6-2.7,0.6-3.7-2.2-3.6c-1.9,0.1-3.9,1.1-5.9-1c1.2-1.6,2.5-3.4,3.8-5
		c0.6-0.8,1.6-1.6,1-2.6c-0.6-0.9-1.8-0.6-2.8-0.5c-1.3,0.1-3.7,1.3-3.3-1.2c1-5.6-2.6-3.6-5.3-3.1c0-3.5,2.6-5.9,2.4-9
		c-0.1-1.2-0.1-2.5-1.5-2.9c-1.1-0.4-2.2,0.2-2.5,1.2c-1.2,4.3-8,7.4-2.1,13.5c-4-1.3-5.5-1.3-6-0.4c-1,1.6,0.2,2.8,0.8,4.1
		c2.5,5.6,2.6,5.6-3.7,5.6c-0.5,0-1,0-1.5,0c-4.3-0.2-3.9,1.8-2.2,4.5c0.9,1.4,2,2.7,3.8,2.9c1.6,0.2,3.6,0.2,3.6,2.5
		c0,2.1-2.1,2.3-3.4,3.2c-0.7,0.5-1.9,0.5-2.9,0.5c-1.9-0.1-4.2-1.4-5.2,1.3c-0.8,2.2,0.3,3.8,2.4,4.8c0.8,0.3,1.6,1.1,1.3,1.9
		c-1.7,4.3,0.7,6.4,4,8.4c1.1,0.6,1.5,2.5,0.9,3.6c-0.6,1.3-2.1,0.3-3.2,0.1c-1.5-0.2-3.5-1.4-4.3-0.8c-4.8,3.9-10.8,0.9-15.8,2.8
		c-0.8,0.3-2.2-0.3-2.2,1.2c0,1.2,0.8,2.2,2.1,2.5c1.6,0.3,3.3,0.4,4.9,0.9c6.2,1.8,6.8,3.2,3.7,8.6c3.7,0.9,7.3,0.2,10.9,0.5
		c1.7,0.1,3.5,0,3.5,2.5c0,2-1.3,2.9-3.2,3.1c-4.1,0.5-8.3,1.7-12.4,1.5c-4.1-0.3-8.7,2.7-12.2-1.6c-1.1-1.4-2.2-2.1-3.7-0.9
		c-0.5,0.4-0.8,0.8-1.1,1.2c0.2-1.1,0.3-2.2,0.2-3.2c-0.4-5.5-2.9-9-6.4-13.1c-0.9,2.2-2.3,4.3-1.9,4.8c3.2,3.3-3.1,5.4-0.8,8.4
		c-1.9,0.7-3.8,3.4-5.8-0.1c-0.9,2.1,1,3.4,1.2,4.7c0.4,3.7,0.2,7.5-0.5,11.1c-0.2,0.9-1.1,1.7-0.3,2.8c1.8,2.5,0.6,3.7-1.9,4.4
		c-2.1,0.6-3.1,1.9-1.6,3.6c1.1,1.2,3.5,1.6,2.5,3.7c-1,2.1-3.4,0.9-5.2,1c-0.8,0-1.7-0.1-2.6-0.2c-1.6-0.3-3.3-0.2-3.7,1.7
		c-0.4,2.1,1.7,1.5,2.7,2.1c1.2,0.8,3,0.9,3.3,2.8c-1.4,0.5-2.8,1-4.3,1.4c-0.9,0.2-2.1,0.8-1.8,2c0.1,0.4,0.3,0.7,0.6,0.8
		c-0.4-0.1-0.7-0.1-1.1,0c-0.7,0.1-1.6-0.5-2.4-0.5c0.1-0.7-0.2-1.2-0.9-1.6c-1.3-0.8-1.2-1.8-0.3-2.8c0.5-0.5,0.9-1,1.4-1.5
		c0.9-1,2.5-2.1,1.6-3.4c-0.9-1.3-2.7-0.4-4,0c-0.4,0.1-0.7,0.4-1,0.6c-1.3,0.7-2.6,1.3-3.9,2c-0.5,0.2-1.2,0.6-1.5,0
		c-1.8-3.5-3.9-1.1-5.9-0.4c-0.5,0.2-1,0.8-1.7,0.5c-2.2-0.7-4.5-0.9-6.5-2.2c-0.6-0.4-1.8-0.7-1.3-1.5c0.6-0.9,1.6-0.4,2.4,0.3
		c0.5,0.4,0.9,0.8,1.5,1.1c2,1,3.4-0.4,4.5-1.7c1.4-1.6-0.4-2-1.2-2.8c-0.5-0.5-1-1-1.4-1.5c-0.4-0.4-0.2-0.9,0.2-1.2
		c0.3-0.3,0.7-0.6,1-0.3c1.4,1.4,3.5,2.2,4,4.4c0.2,0.7-0.6,1.9,0.8,1.9c1.3,0,1.3-1.1,1.3-2c0.2-3.2,0.7-3.6,4-3.7
		c0.7,0,1.7,0.4,1.9-0.3c0.5-1.6-0.1-3.4,1.9-4.7c0.6-0.4-1-1.5-2.1-1.6c-4.6-0.6-9-1.6-12.9-4.2c-0.8-0.5-1.7-0.8-2-2
		c1.1-0.3,1.9,0.3,2.7,0.7c1.1,0.5,1.9,0.1,2.7-0.7c0.6-0.7,0.9-1.5,0.5-2.3c-0.5-1.1-1.6-1-2.6-1.1c-1-0.1-1.7,0.5-2.4,1.2
		c-0.7,0.7-1.4,1.2-2.4,1c-1.4-0.2-2.9-0.3-4.3-0.4c-1.1-0.1-1.6-0.5-1-1.6c0.4-0.6,1-1.3,0.2-2c-0.6-0.6-1.4-0.5-2.1-0.1
		c-2.2,1.1-3.4-0.1-4.4-1.8c-0.7-1.2-0.5-2,0.9-2.3c2.3-0.6,2.3-0.6,1.2-2.6c1.2-0.6,2-0.1,2.8,0.7c1.1,1.1,2.1,2.2,3.7,2.5
		c0.8,0.2,1.8,0.3,2.4-0.4c1.5-1.8,0.3-5.6-1.9-6.5c-0.8-0.3-1.5-0.8-1.6-1.7c0-0.3,0.2-0.6,0.5-0.6c0.9-0.2,1.4,0.3,1.9,1
		c0.4,0.5,0.9,1.2,1.7,0.8c1-0.4,0.6-1.2,0.4-2c-0.5-1.6,0.7-1.4,1.6-1.2c1,0.3,1.1,1.2,1.1,2.1c0,0.9-0.1,2,1.2,2.1
		c1.3,0.2,2-0.6,2.3-1.8c0.4-1.7,1.3-2.1,2.8-1.3c0.8,0.4,1.8,1.4,2.7,0.5c0.9-0.9,0.4-2.2-0.1-3.2c-0.3-0.6-0.7-1.2-1.1-1.7
		c-0.3-0.5-1.2-0.9-0.7-1.8c0.4-0.7,1.2-0.6,1.9-0.5c2.1,0.2,3.4-0.6,3.7-2.8c0.1-0.9,0.5-1.7,1.1-2.5c0.6-0.8,0.2-1.2-0.6-1.2
		c-2.8,0-5.2-1.1-7.5-2.4c-0.6-0.3-1.3-0.6-1.9,0.1c-0.5,0.6-0.5,1.2-0.3,1.9c0.2,0.5,0.8,0.8,0.4,1.6c-2,0-4,0.1-5.8,1.2
		c-0.8,0.4-1.4-0.1-1.7-0.9c-0.8-2.2-2.1-2.2-4-1.2c-1.3,0.8-2.8,1.5-4.3,0.6c-1.8-1-2.8-0.7-3.9,1.1c-1.4,2.4-3.9,3.1-5.8,2
		c-4.5-2.6-8.7-5.7-12.5-9.2c-0.8-0.8-1.4-1.6-1.1-3c1.6,1.2,3.5,1.2,5.3,1.2c2.3,0.1,4.1,0.9,5.3,2.9c0.8,1.2,2.1,1.8,3.5,1.6
		c1.2-0.2,2.3,0,3.4,0.3c0.8,0.2,1.8,0.8,2.4,0.2c2-2,4.4-1.2,6.6-1.4c4.2-0.4,8.2-1.4,12.4-1.7c3.1-0.2,3.1-0.4,2.6-3.5
		c-0.1-0.4-0.1-0.8,0-1.1c0.3-0.9-0.2-1.5-0.9-1.9c-2.8-1.5-5.4-3.7-9-2.3c-0.7,0.3-1.6,0.2-2.1-0.4c-0.4-0.4,0-0.8,0.2-1.2
		c0.5-0.9,1.1-0.6,1.9-0.5c1,0.2,2.6,0.2,2.4-1.2c-0.3-2.3,1.2-2.2,2.6-2.5c1-0.2,2-0.3,2.9-0.5c0.8-0.2,1.8-0.5,1.8-1.5
		c-0.1-1-1.2-1.3-2-1.6c-0.9-0.4-1.4,0.4-1.8,1c-1.2,2-2.4,1.7-3.7,0.1c-0.5-0.7-1-1.3-1.9-1.6c-1-0.4-2.2-0.8-2.9,0.3
		c-1.2,2.1-3.2,3.5-4.5,5.5c-0.4,0.6-0.6,2-1.6,1.6c-1-0.5-0.3-1.8-0.2-2.7c0.1-0.7,0.7-0.9,1.2-1.2c1.6-0.9,2.1-3,1.1-4.5
		c-1-1.6-2.1-1.8-3.5-0.5c-0.7,0.6-1.6,0.3-2.4,0.2c-4.8-0.6-8-3.8-11-7.2c-0.4-0.4-1.1-0.8-0.8-1.5c0.3-0.6,1.1-0.5,1.7-0.5
		c2.8,0.2,5.5,1,8.4,1c0.9,0,1.2,0.7,1.4,1.5c0.4,2,1.7,2.5,3,0.9c1.2-1.3,2.2-1.3,3.6-0.7c1.8,0.7,3.6,1.2,5.6,0.9
		c1.9-0.3,2.3-1.1,1.4-2.9c-0.3-0.6-0.4-1.3-0.7-1.9c-0.7-2-1.9-2.4-3.7-1.3c-0.6,0.3-1.1,1.1-1.8,0.8c-2.8-1.1-5.4-0.9-8.4-0.3
		c-2.8,0.6-6-0.2-9-0.5c-1.8-0.2-3.6-0.8-5.1-1.9c-0.7-0.5-1.2-1.2,0.1-1.6c2-0.7,3.6-2,5.2-3.3c2.4-1.9,4-1.7,6,0.6
		c1.2,1.3,2.3,2.7,3.9,3.4c1.1,0.5,1.5,0.3,1.6-1c0.2-2.4,1.2-3,3.5-1.8c2.8,1.4,5.5,0.9,8.1-0.3c0.5-0.2,1.1-0.5,1-1.1
		c-0.1-0.6-0.8-0.6-1.3-0.8c-2.2-0.5-4.1-1.7-6.1-3.1c1.3-0.5,2.3-0.2,3.3-0.1c2.2,0.4,4.4,0.7,6.6,1c0.7,0.1,1.6,0.2,1.7-0.9
		c0.1-1.2-2.4-3.5-3.6-3.3c-2.6,0.4-5,0.1-7.4-0.9c-1.7-0.7-3.4-0.9-5.1-0.2c-0.7,0.3-1.5,0.7-2-0.2c-0.5-0.9-0.5-1.9,0.4-2.5
		c1.7-1.1,1.8-2.7,1.7-4.4c0-0.5,0-1.1,0.2-1.6c0.7-1.7,0.2-2.6-1.7-2.9c-1.5-0.2-2.8,0.4-4.2,0.9c-0.9,0.3-2.1,0.9-2.6,0.2
		c-1.1-1.9-3.1-1.8-4.6-2.7c-0.7-0.4-1.6-0.9-1.4-1.9c0.2-0.9,1.1-1,1.9-1.1c4.4-0.7,8.7-1.8,13.1-1.5c1.4,0.1,1.9-0.3,1.1-1.6
		c-1.1-1.9-2.3-3.8-4.2-5c-0.9-0.6-2.3-1-1.3-2.5c0.8-1.2,1.7-2.4,3.5-1.4c0.6,0.3,1.3,0.5,1.9,0.7c1.1,0.3,2-0.3,2.4-1.3
		c0.4-1-0.4-1.5-1.2-1.9c-1.4-0.7-2.9-1.3-4.3-2c-0.8-0.4-1.5-0.9-0.8-1.9c0.9-1.3,1.9-2.6,2.7-3.9c0.4-0.5,1.6-0.5,1.2-1.4
		c-0.3-0.8-1.3-0.6-2-0.8c-1.9-0.4-3.6-1.2-4.4-2.9c-0.5-0.9-0.7-1.7-1.7-2c-1.3-0.5-1.2-1.2-0.1-1.9c0.5-0.3,0.9-0.5,1.4-0.8
		c0.8-0.4,1.2-1,0.9-1.9c-0.3-0.9-1.1-0.6-1.8-0.5c-0.4,0.1-0.7,0.2-1.1,0.3c-1.1,0.2-2.2,0.3-2.5-1.2c-0.3-1.4,0.5-2.2,1.8-2.4
		c1.2-0.2,2.4-0.1,3.6-0.2c1,0,2-0.2,2.3-1.4c0.3-1.2,0-2.1-0.9-2.8c-1.2-0.9-2.4-1.6-3.8-2.1c-1.6-0.6-3.3-1.2-4.9-1.9
		c-6-2.7-8-7-6-13.1c0.8-2.5,0.4-3.7-1.8-5.2c-0.5-0.3-1-0.7-1.5-1c-4.1-3.1-4.5-5.7-1.2-9.8c0.3-0.4,0.8-0.7,0.8-1.3
		c0.1-1.6-2-4.2-3.9-5c-2-0.8-3,0.6-3.7,1.9c-1.7,2.9-3.8,5.1-6.7,6.9c-2.2,1.4-2.4,3.2-1.1,5.5c0.9,1.6,2.3,2.8,3.9,3.8
		c4.2,2.9,4.5,7.5,0.6,10.9c-0.6,0.5-1.1,1.2-1.8,1.4c-2.2,0.7-2.1,2.4-2,4.2c0.1,3.7-1.4,5.6-4.8,6.8c-2.1,0.8-4.2,0.6-6.3,0.8
		c-1,0.1-2.4,0.2-1.9,1.6c0.8,1.9,0.6,3.6,0.3,5.6c-0.3,2.1-1,3.6-2.3,4.9c-0.7,0.7-1.4,1.5-1.6,2.5c-0.3,1.3-0.3,2.4,1.7,1.8
		c1.7-0.5,3,0,3.9,1.4c0.4,0.6,0.8,1.1,1.7,0.9c0.7-0.1,1.6-0.7,1.8,0.6c0.1,0.9-0.6,1.3-1.3,1.6c-0.9,0.4-2,1-2.8,0.7
		c-2.6-1.2-5,0.3-7.4,0.5c-1.6,0.1-2.2,1.1-1.5,2.7c0.6,1.3,1.5,2.3,2.3,3.4c1.6,2.1,1.6,2.2,3.2,0c1.4-1.8,2.1-1.9,3.2-0.1
		c1,1.6,2.5,1.8,4.2,1.7c3.1-0.2,6.2-0.6,9.2-1.7c0.7-0.2,1.5-0.7,2,0.3c0.4,0.8,0,1.5-0.6,2c-0.9,0.9-1.6,1.8-1.6,3.2
		c0,0.8-0.7,1.1-1.3,1.5c-3.4,2.5-7.1,3.2-11.2,2.9c-0.9-0.1-2.2-0.5-2.6,0.7c-0.9,2.4-3,2.6-5,2.9c-1.2,0.2-2.4,0.3-3.6,0.8
		c-0.5,0.2-1.4,0.6-1.2,1.2c1,2.5-1,3.4-2.2,4.7c-0.5,0.5-0.9,1.4-1.9,0.8c-0.8-0.5-0.7-1.2-0.5-2c0.5-2.9,0.1-3.3-2.8-3.5
		c-0.8-0.1-1.7,0-2.5,0c-0.7,0-1.4,0.1-1.7,0.9c-0.3,0.8,0,1.6,0.7,2c1,0.5,1.5,1.4,1.6,2.4c0.2,2.2,1.3,2.7,3.3,2.1
		c1.7-0.5,2.5,0,2,1.9c-0.2,0.9,0,2.2,1.2,2c3.6-0.4,7.1,1.3,10.7,0.8c2.6-0.3,5.7-0.2,6.9-3.6c0.4-1.1,1.6-1,2.6-0.7
		c1,0.3,1.6,0.9,1.4,2c-0.1,0.6-0.2,1.2-0.4,1.7c-1.6,2.9-4.5,4.5-7.2,6.1c-0.3,0.2-0.9,0.1-1.3,0c-2.1-0.5-4.1-0.1-6,0.6
		c-1.7,0.6-3.5,1.3-5.3,0.2c-2.5-1.6-4.7-1-7,0.4c-1.1,0.7-2.3,1.5-3.8,1.1c-1.7-0.4-1.7,0.5-1,1.6c0.6,1,1.4,1.9,0.9,3.1
		c-0.7,1.8,0.2,1.8,1.5,1.5c1.2-0.3,2.4-0.6,3.1,1c0.4,0.8,1.3,1,2,0.6c2.2-1.2,4.7-1.2,7.1-1.6c0.7-0.1,1.7-0.2,1.6-1.3
		c-0.1-0.9-0.9-1.4-1.8-1.4c-1.1,0-2.3,0.2-3.4,0.3c-0.4,0-0.8,0-0.9-0.5c-0.1-0.5,0.3-0.6,0.6-0.8c2.9-2,5.7-1,7.1,2.4
		c0.7,1.8,0.5,2.5-1.5,2.4c-0.6,0-1.3,0.2-1.2,1c0.1,0.7,0.7,0.9,1.3,1c2.9,0.5,6.6-1.4,7.9-4c0.8-1.7,1-1.8,2.8-1.5
		c-2,2.4-1.4,4.3,1.7,5.1c1.2,0.3,2.4,0.5,3.6,0.7c0.8,0.2,1.3,0.5,0.5,1.4c-2.2,2.6-4.3,5.4-7.2,7.3c-1.8,1.2-3.9,2-6,0.7
		c-4.1-2.5-8.4-0.4-10.9,2.3c-1.6,1.7-3.4,3.3-5.6,4.3c-1.2,0.6-2.1,0.5-2.7-1c-0.4-1.1-0.9-2.4-2.3-1.9c-1.5,0.5-1.1,1.8-0.8,2.9
		c0.3,0.8,0.2,1.6-0.8,1.3c-3.2-0.8-5,1.7-7.5,2.6c-1,0.4-2.1,0.9-2,2.2c0.2,1.3,1.2,2,2.5,2.4c2.2,0.7,4.2,0.2,6.3-0.4
		c2.4-0.8,4.7-0.8,7.2-0.4c-0.2,0.4-0.3,0.6-0.4,0.7c-2,2.3-4.6,2.3-7.4,1.8c-0.9-0.2-1.7-0.3-2.1,0.8c-0.4,1,0.2,1.8,1.1,2.3
		c0.4,0.2,0.8,0.4,1.2,0.6c0.6,0.2,0.7,0.6,0.3,1c-1.5,1.5-0.6,2.9,0.1,4.4c0.5,1,1,2-0.4,2.7c-0.6,0.3-1.4,0.6-1,1.5
		c0.4,0.8,1.2,0.9,2,0.8c1.2-0.1,2.4-0.3,3.6-0.4c0.4,0,0.9,0,0.9,0.5c0,0.3-0.4,0.6-0.6,0.9c-0.5,0.4-1,0.3-1.5,0.2
		c-0.8-0.2-1.6-0.4-2.1,0.4c-0.5,0.9,0.3,1.6,0.9,2.1c1.3,1.3,2.3,2.5,1.8,4.5c-0.2,1,0.4,2.1,1.2,2.5c1.6,0.8,3.2,1.6,4.7,3.2
		c-0.1-1.5-2.3-2-1.1-3.1c1.4-1.3,3.3-2.3,5.4-2c0.7,0.1,1.3,0.5,1.6,1.2c0.5,1.3-1.9,5.4-3.2,5.2c-2.9-0.3-1.8,1.2-1.1,2.3
		c0.9,1.3,0.5,2-0.5,3.1c-2,2-4.5,3.2-6.8,4.5c-2,1.1-2.9,0.3-2.8-1.9c0.1-1.4-0.1-2.5-1.8-2.3c-2.1,0.3-3.8-0.5-5.1-2.8
		c0.2,1.2,0.4,1.8,0.4,2.4c0,0.6-0.2,1.2,0.1,1.8c0.2,0.5,1.2,0.8,0.5,1.5c-0.5,0.5-1.3,0.5-2,0.4c-1-0.1-1.6-0.8-2.2-1.6
		c-1.7-2.1-2.4-2.1-4,0.2c-0.7,1-1.5,2-2.6,2.5c-1.2,0.5-2.4,1.1-1.7,2.6c0.8,1.7,0.3,4.4,3.4,4.3c1.9-0.1,3.9-1,5.8,0.4
		c0.6,0.4,1.7-0.1,2.2-0.8c2-2.7,3.7,0,5.4,0.4c1.6,0.4,0.4,1.9,0.2,2.9c-0.4,1.9,0.5,3.3,2,2.8c1.6-0.5,2.2,0.2,3.1,1.1
		c1.4,1.3,2.8,0.8,3.1-1.1c0.1-0.6,0.1-1.2,0.1-1.8c0-1.5,0.6-1.5,1.7-0.8c1,0.7,2,1.5,3.3,1.2c1-0.2,1.8-0.1,2.7,0.5
		c0.9,0.6,2.6,0.7,2.6-0.9c0-1.9,1.1-3.8,0.3-5.8c-0.4-1.1,0.3-1.5,1.4-1.3c1.5,0.2,3,0.5,5,0.8c-0.9,0.6-1.3,0.9-1.7,1.1
		c-0.9,0.5-1.9,0.7-1.9,2c0,1.3,1.2,1.4,2.1,1.8c1.1,0.6,2.2,1,3.1,1.9c1.5,1.5,1.8,4.2,0.5,4.8c-11.1,4.6-22.4,6.8-34.2,3
		c-1.1-0.3-2.1-0.4-2.9,0.6c-0.7,0.9-0.6,2-0.3,3c0.4,1.2,1.3,1.7,2.5,1.5c1.2-0.2,2,0.2,2.8,1.1c1.5,1.8,3.9,2.7,4.8,5.1
		c0.3,0.8,1.2,0.8,2,0.7c1-0.2,1.9-0.4,2.9-0.6c2.5-0.3,4.5,1.6,4.4,4.1c-0.1,1-0.2,2.2,1.1,2.4c0.9,0.2,1.8,0,2.4-0.7
		c-0.1,2.3-3.4,4.5-0.8,6.8c-3.2,1.1,3.9,7.8-3.3,6.4c-1.6-1.7-3.3-2.4-5.6-0.9c-0.6,0.4-1.4,0.4-2.2,0.6c-2.3,0.4-2.6,1.3-1.2,3.1
		c0.6,0.8,1.4,1.3,2.4,1.8c0.7,0.3,1.5,0.6,2.3,0.8c-0.6-0.1-1.2,0-1.5,0.6c-0.6,1.1,0.3,2,1,2.6c1.5,1.3,3,2.6,3.7,4.4
		c-0.2,0.1-0.4,0.3-0.6,0.4c-0.5,0.4-1,0.6-1.5,0.7c-0.9-0.4-1.9-0.7-2.7-0.9c-0.1-0.1-0.2-0.2-0.3-0.2c-0.8-0.8-1.5-1.7-2.2-2.6
		c-1.2-1.4-2.7-1.6-4.3-0.7c-0.8,0.5-1.4,1.1-1.8,1.8c-2.4-0.7-5.1-1.1-7.1-2.4c-9.2-5.8-17.4,3.6-26.4,2.1
		c5.3-10,17.1-10.6,22.5-21.2c8.6-16.7-4.3-17.2-13.2-21.4c12-13.1,11.2-17.6-5-22.7c-5.6-1.8-6.8-3.9-6.2-8.8c0.4-3.4,3.3-8-3-9
		c-4.3-0.6-7.2,2-8.6,6c-2.5,7.3-6.1,11.5-14.4,11.8c-1.6-1.4-3.7-2.3-6.6-2.3c-4.8,0-10.8,0.5-13.8-3.8
		c-3.9-5.7-7.9-10.6-14.3-13.5c-1.4-0.6-2-2.7-3.1-4c-0.9-1.2-1.9-3-3-3.2c-9.1-1.1-16.6-10.1-26.6-4.5c-0.8-2.9,0.9-3.6,2.4-4.3
		c4.8-2.2,9.6-3.4,14.7-0.5c3.4,2,6,1.5,7.4-2.7c1-3,2.6-5.6,6.5-4.7c4,1,3.4,4.3,3.6,7.3c0.1,1.1,0,2.1,0,3.2
		c0,3.1,1.5,3.2,4.2,2.6c4.5-1,5.5-4.6,6.7-9.7c1.9,2.4,2.9,3.8,3.9,5.1c1.3,1.6,3,2.5,3.9,0c1.6-4.4,4.7-3.1,7.6-2.3
		c1-1.9,0.4-3.4-0.1-4.7c-3-8.6-13.1-11.2-16.6-19.5c-0.2-0.4-1.6-0.4-2.4-0.5c-6.8-0.6-13.6-1.4-20.4-1.6c-3.7-0.1-6-1-7.3-4.7
		c-1.6-4.4-5.6-7-9.2-9.5c-2.5-1.8-4.5,1.8-6.9,2.2c-2.4,0.5-5.5,1.4-6.2-2.4c-0.6-3.1,0-7.1,3.5-7.1c3.6,0,4.3-0.6,4.6-3.9
		c0.2-2.9,2-2.3,3.2-0.5c3,4.8,8.2,4,12.5,5.3c2,0.6,3.1-0.6,4-2.3c1.9-4.1-1.7-11.4-6.3-11.7c-4.3-0.3-7-1.6-7.5-6.2
		c-0.2-1.7-1.4-2.5-2.8-3.2c-5.9-2.7-11.7-5.6-18.4-2.4c-1,0.5-2.2,1-2.9-0.1c-1-1.3,0-2.4,0.8-3.4c1.6-2,3.7-1.7,5.9-1.5
		c5.5,0.5,10-1.4,13.9-5.3c1.3-1.3,3.5-2.2,2.1-4.7c-1.1-2-2.8-3.4-5.3-2.8c-8,2.1-14.9,0.6-20.4-5.9c-0.9-1.1-3.8-0.7-3.1-3.2
		c0.5-1.8,2.3-1.6,3.8-1.6c5.7-0.1,5.3-5,5.9-8.4c0.8-4.1-3-3.8-5.7-4.3c-0.4-0.1-0.9,0-1.3-0.2c-3.9-2-8.8-3.3-11.3-6.5
		c-1.8-2.2,2.3-5.9,3.9-8.8c2-3.5,0.8-4.8-2.8-4.7c-2.5,0.1-5.1,1.4-7.6-1.3c1.6-2.1,3.2-4.3,4.8-6.5c0.8-1,2-2,1.2-3.3
		c-0.8-1.2-2.3-0.7-3.6-0.6c-1.7,0.1-4.8,1.7-4.3-1.5c1.2-7.2-3.4-4.7-6.8-4c0-4.5,3.3-7.6,3.1-11.6c-0.1-1.5-0.2-3.1-1.9-3.7
		c-1.4-0.5-2.8,0.3-3.2,1.5c-1.6,5.6-10.2,9.5-2.7,17.3c-5.2-1.6-7-1.7-7.8-0.5c-1.3,2,0.3,3.7,1.1,5.3c3.3,7.1,3.3,7.2-4.7,7.2
		c-0.6,0-1.3,0-1.9,0c-5.5-0.3-5,2.3-2.8,5.8c1.2,1.8,2.5,3.5,4.9,3.8c2.1,0.3,4.6,0.3,4.6,3.3c0,2.7-2.7,3-4.4,4.1
		c-1,0.6-2.4,0.7-3.7,0.7c-2.4-0.1-5.4-1.8-6.6,1.7c-1,2.9,0.3,4.9,3.1,6.1c1,0.4,2.1,1.4,1.6,2.5c-2.1,5.5,0.9,8.3,5.2,10.7
		c1.4,0.8,1.9,3.2,1.1,4.7c-0.8,1.7-2.7,0.4-4.1,0.2c-1.9-0.3-4.5-1.7-5.5-1c-6.2,5.1-13.8,1.1-20.4,3.6c-1.1,0.4-2.9-0.3-2.9,1.5
		c0,1.6,1,2.8,2.7,3.2c2.1,0.4,4.3,0.5,6.3,1.1c8,2.3,8.8,4.2,4.8,11c4.8,1.2,9.4,0.3,14,0.6c2.2,0.1,4.6,0,4.5,3.2
		c0,2.6-1.6,3.7-4.1,4c-5.3,0.7-10.7,2.2-15.9,1.9c-5.2-0.3-11.2,3.5-15.7-2c-1.5-1.8-2.9-2.6-4.8-1.1c-1.9,1.5-2.8,3.4-0.8,5.4
		c1.4,1.4,1.8,3,1.3,4.7c-0.9,3.2-0.2,4.2,3.3,3.4c2.8-0.7,3.2,1,2.4,3.4c-0.7,1.9-2.3,4.4-0.2,5.9c2.3,1.7,4.9,0.1,7.1-1.3
		c0.7-0.4,1.3-1.1,2-1.6c4.9-3.2,10.1-1.2,14,1c4,2.2,0,6.9-0.2,10.5c-0.3,4.6-5,3.9-8.2,4.1c-6.6,0.4-13.2,0.7-19.9-0.7
		c-3.5-0.7-7.6-1.5-10.7,0.6c-7.5,5-15,9.9-23.9,12.1c-0.4,0.1-0.8,0.2-1.1,0.4c-1.1-3.4-3-6.1-5.6-9c-0.9,2.2-2.3,4.3-1.9,4.7
		c3.2,3.3-3.1,5.4-0.8,8.4c-1.9,0.7-3.8,3.4-5.8-0.1c-0.9,2.1,1,3.4,1.2,4.7c0.4,3.7,0.2,7.5-0.5,11.1c-0.2,0.9-1.1,1.7-0.3,2.8
		c1.8,2.5,0.6,3.7-1.9,4.4c-2.1,0.6-3.1,1.9-1.6,3.6c1.1,1.2,3.5,1.6,2.5,3.7c-1,2.1-3.4,0.9-5.2,1c-0.8,0-1.7-0.1-2.6-0.2
		c-1.6-0.3-3.3-0.2-3.7,1.7c-0.4,2.1,1.7,1.5,2.7,2.1c1.4,1,3.7,0.9,3.3,4.1c-0.6,5.5-4.2,2.5-6.6,2.9c-1.1,0.2-2.5-1.2-3.3,0.1
		c-0.9,1.6,0.9,2.3,1.7,3.2c2.3,2.6,6.7,2.7,8.5,8c-4.2-2.6-7.5-1.2-11.7-1.1c2.5,2.5,4.4,4.3,6.2,6.3c1.2,1.3,1.9,3.9-0.4,3.7
		c-2.4-0.2-6.2,1.8-7.4-2.5c-0.5-1.8-1.6-0.7-2.3-0.2c-1.3,1-3.6,0.8-4.1,2.7c-0.4,1.4,1.2,2.1,2.2,2.3c3.9,0.8,5.4,4,7.7,6.6
		c-3.7,0.7-6.7-0.5-9.8-1.4c-1-0.3-2.1-0.2-2.7,0.9c-0.5,1,0.3,1.6,1.1,2c1.8,0.8,5.8,0.3,2.2,4.2c-0.5,0.6,1,1.2,1.5,1.8
		c1.2,1.4,2.4,3,3.8,4.8c-7-0.4-13.7-0.9-19.9-4.2c1.7-1.9,6.2-2.9,4.3-5.6c-1.8-2.6-4.1,1.5-6.3,2.3c-1.2,0.4-1.8,2.7-3.4,1.5
		c-1.9-1.5,0.1-2.4,0.8-3.7c1.1-1.9,1.4-4.9,0.1-6.2c-2-2-2.1,1.6-3.6,2.1c-1.2,0.4-2.4,1.1-3.3,0.1c-1.1-1.2,0-2.2,0.8-3
		c1.2-1.1,2-2.3,1.9-4c-0.1-1.4,1.3-3.1-0.4-4.2c-1.4-0.9-2.6,0.2-3.7,0.9c-1.5,1-3,1.6-4.7,0.4c-0.1-2.3,5.1-3.7,2.6-4.8
		c-7.3-3.2-0.4-5.4-0.3-8.2c-1.9,0.9-6.3-4.6-5.8,1.7c0.3,3.2-1.6,6.8-2.2,7.1c-4.6,2.6-1.1,5.9-1.3,8.7c-0.1,1.4,1.5,2.5,0.9,4.3
		c-4.2-3-7.1-7.5-12.8-8.8c0.4,4.3,5.4,8.2,2.3,11.1c-4.1,3.9-0.3,5.2,1,7.3c0.6,1,2.3,1.8,1.5,2.9c-3.1,4.7,1.6,3.3,3.5,4.2
		c-1.6,1.7-3.9,3.1-0.9,5.3c1.9,1.4,0.6,2.1-0.9,2.7c-1.2,0.5-1.9,3.3-3.8,0.2c-1.5-2.4-4.3-2.5-6.9-3.4V1022h1920V848.4z
		 M44.8,664.3c1.9-0.9,3.6-1.3,4.2-3c1.9-4.8,1.9-4.8,7.1-3.7c-4.6,1.6-1.4,3.1,0.3,4.1c2.1,1.2,4.5,2,6.8,3
		C57.1,666.2,51.2,666.8,44.8,664.3z M44.8,644.3c1.9-0.9,3.6-1.3,4.2-3c1.9-4.8,1.9-4.8,7.1-3.7c-4.6,1.6-1.4,3.1,0.3,4.1
		c2.1,1.2,4.5,2,6.8,3C57.1,646.2,51.2,646.8,44.8,644.3z M131.4,639.9c1.4,1.4,3.6,1.3,4.7,0c3.6-4.2,9.3-2.4,13.5-5.1
		c2.3-1.5,4,0.6,2.9,2.8c-1.6,3.5-1.9,7.5-3.7,10.9c-1.9,3.4-4.1,7.1-9.4,5.7c-4.1-1.1-7,1-8.9,4.6c0,0,0,0,0,0.1
		c-4.9,0.3-9.7,2.7-15.2,0.6c3.2-2.2,6.1-0.8,8.8-1.2c1.7-0.3,5.1-1.1,3.5-2.6c-3.5-3.3-0.1-4.2,1.1-5.8c1.4-1.8,2.7-3.6,3.2-6.9
		c-5.7,3.7-10.9,6.5-17.7,7.7c1.2-2.4,2.9-1.9,3.9-2.7c1.2-0.9,3.2-1.5,2.7-3.3c-0.5-1.8-2.4-0.4-3.6-0.6c-1.5-0.3-3.4,1.3-4.7-1.3
		c0.2-0.1,0.4-0.2,0.5-0.3c2.5,0.6,5-0.8,7.4-1.7c0.4-0.1,0.8-0.4,1.1-0.7l0,0c-2,0.2-4.1,0.1-6.3-0.7c3.2-2.2,6.1-0.8,8.8-1.2
		c1.7-0.3,5.1-1.1,3.5-2.6c-3.5-3.3-0.1-4.2,1.1-5.8c1.4-1.8,2.7-3.6,3.2-6.9c-5.7,3.7-10.9,6.5-17.7,7.7c1.2-2.4,2.9-1.9,3.9-2.7
		c1.2-0.9,3.2-1.5,2.7-3.3c-0.5-1.8-2.4-0.4-3.6-0.6c-1.5-0.3-3.4,1.3-4.7-1.3c0.2-0.1,0.4-0.2,0.5-0.3c2.5,0.6,5-0.8,7.4-1.7
		c0.4-0.1,0.8-0.4,1.1-0.7c3.2-2.4,6.3-3.5,9.8-0.3c1.4,1.4,3.6,1.3,4.7,0c3.6-4.2,9.3-2.4,13.5-5.1c2.3-1.5,4,0.6,2.9,2.8
		c-1.6,3.5-1.9,7.5-3.7,10.9c-1.9,3.4-4.1,7.1-9.4,5.7c-4.1-1.1-7,1-8.9,4.6c0,0,0,0,0,0.1c-0.2,0-0.3,0-0.5,0
		C130.4,639.1,130.9,639.5,131.4,639.9z M137.3,587.1c0.3,2.4-1.3,6,1.9,6.7c3.4,0.8,7.5,0.8,10.4-1.8c2.1-1.9,0.6-6.8,5.4-6.8
		c4.5,0,4.5,4.7,7.2,6.6c0.3,0.2,0.7,0.4,1.1,0.6c3.7,1.5,2.6,4.6,1.1,6.3c-2.7,3.2-5.8,6.5-10.6,6.3c-16.1-0.6-31.7,3.9-47.7,4.1
		c0.9-1.1,1.6-2.2,1.3-2.9c-0.9-2.6-3.9-0.3-5.9-0.8c-0.6-0.2-1.3-0.2-2.3-0.4c0.5-2.2,4.3-6-2-5.2c-0.8,0.1-1-1.2-0.6-1.6
		c3.4-3,0.3-5.3-0.8-7.7c-1-2.2-1.9-4.4,0.4-6.5c0.5-0.4,1-1.3,0.3-1.8c-4.4-2.9-1.7-7.5-2-11c0-0.2,0-0.3-0.1-0.5
		c0.4,0.1,0.9,0.1,1.3,0.1c0.1,0,0.2,0,0.3,0c-0.1-0.1-0.1-0.2-0.2-0.4c-1-2.2-1.9-4.4,0.4-6.5c0.5-0.4,1-1.3,0.3-1.8
		c-4.4-2.9-1.7-7.5-2-11c0-0.2,0-0.3-0.1-0.5c0.4,0.1,0.9,0.1,1.3,0.1c5.2,0.5,10.5,1.5,17,0.2c-2.9,5.3-5.3,9.5-7.4,13.9
		c-0.7,1.5-1.3,3.6,0.5,4.7c1.7,1.1,4.2,1.1,5.2-0.8c2.6-5.1,6.7-3.5,10.6-3.1c2.7,0.3,5.5,1.8,7.4-1.6c1.6-2.9,4.1-4.9,7.4-3.7
		c3.6,1.3,0.7,4.5,1,6.7c0.3,2.4-1.3,6,1.9,6.7c3.4,0.8,7.5,0.8,10.4-1.8c2.1-1.9,0.6-6.8,5.4-6.8c4.5,0,4.5,4.7,7.2,6.6
		c0.3,0.2,0.7,0.4,1.1,0.6c3.7,1.5,2.6,4.6,1.1,6.3c-2.7,3.2-5.8,6.5-10.6,6.3c-5.5-0.2-10.9,0.2-16.3,0.8
		C137.3,586.3,137.3,586.7,137.3,587.1z M273.1,730.7c-0.6,0.7-1.3,1.4-1.9,1.9c-0.2,0-0.4,0.1-0.7,0.1c-0.8,0-2.7,1.1-2.2-0.8
		c0.8-2.8-2.8-4.2-1.6-7c0.2-0.5-0.9-0.9-1.6-0.8c-0.8,0.1-2.2,0.4-2,1.2c1.4,5.2-2.2,4.7-5.4,5.3c-1.6,0.3-2-0.5-2.9-1.3
		c-0.6-0.6-0.9-1.1-0.9-1.6c4-1.5,7.8-4.1,10.8-7.3c0.6,0.2,1.2,0.5,1.7,0.7c2.6,1.2,4.7,2.8,6.6,5c0.9,1,1.9,1.9,3.1,2.1
		C275.1,729,273.9,729.8,273.1,730.7z M282.6,721.9c-0.1-0.5-0.2-1-0.4-1.5c-0.4-0.9-0.8-1.8-1.2-2.8c0.8,0.6,1.4,1.4,1.6,2.5
		C282.7,720.7,282.7,721.3,282.6,721.9z M282.6,701.9c-0.1-0.5-0.2-1-0.4-1.5c-0.4-0.9-0.8-1.8-1.2-2.8c0.8,0.6,1.4,1.4,1.6,2.5
		C282.7,700.7,282.7,701.3,282.6,701.9z M282.8,672.8c8.2,2.1,11.2,9.2,16.9,13.5c4,3,3.4,5,0.9,6.7c-1.1-1.4-2.1-2.9-3.1-4.2
		c-4-5.8-9-8.9-15.9-9.4c-6.6-0.5-12.6-2.3-18.3-4.9c1.6-2.4,2.4-5,0.4-7.5c-3.1-3.9-6.8-0.1-10.1,2.2c-1.1-0.7-2.2-1.5-3.4-2.2
		c4.4-1.7,10.7-2.5,10.8-6.9c0.7-0.4,1.4-0.7,2.4-0.6c-0.9-3.9-4.3-4.9-7.3-6.5c-4.1-2.2-8.6-2.6-13-3.5c-2.2-0.4-3.5-1.2-4.2-2.2
		c0.5-1.1,1.2-2.4,2.2-3.9c1.3-1.9,2.3-3.7,2.8-5.3c4.1-1.9,9.7-2.7,12.3-1.3c1.8,1,3.6,2.1,5.4,3.1c0.5-0.2,1.1-0.4,1.8-0.3
		c-0.9-3.9-4.3-4.9-7.3-6.5c-4.1-2.2-8.6-2.6-13-3.5c-2.2-0.4-3.5-1.2-4.2-2.2c0.5-1.1,1.2-2.4,2.2-3.9c1.3-1.9,2.3-3.7,2.8-5.3
		c4.1-1.9,9.7-2.7,12.3-1.3c6.5,3.6,12.7,8.4,20.8,4.2c2.1-1.1,4.5,0.1,5.8,1.8c3,4.1,7.2,3.8,11.5,4c2.8,0.1,4.5-0.9,5.8-2.5
		c0.3,1,0.2,2.1-0.6,3.5c-2.4,4.1-7.9,1.6-12,1.8c-5.8,0.3-14.9-3.1-15.2,5.1c-0.1,2.2,0.1,4.9,0.8,7.6c1.2-0.2,2.5-0.7,3.8-1.3
		c2.1-1.1,4.5,0.1,5.8,1.8c3,4.1,7.2,3.8,11.5,4c2.8,0.1,4.5-0.9,5.8-2.5c0.3,1,0.2,2.1-0.6,3.5c-2.4,4.1-7.9,1.6-12,1.8
		c-3.3,0.2-7.6-0.8-10.8-0.3c1.5,1.7,3.4,3,5.9,3.6c8.2,2.1,11.2,9.2,16.9,13.5c4,3,3.4,5,0.9,6.7c-1.1-1.4-2.1-2.9-3.1-4.2
		c-4-5.8-9-8.9-15.9-9.4c-3.1-0.2-6.2-0.8-9.1-1.6C273.1,663.7,275.6,671,282.8,672.8z M339.3,721.4c-1.9,0.6-3.8,1.2-5.8,1.7
		c2.3-3.2,4.9-5.1,7.6-6.4C340.4,718.3,339.5,719.7,339.3,721.4z M339.3,701.4c-1.9,0.6-3.8,1.2-5.8,1.7c2.3-3.2,4.9-5.1,7.6-6.4
		C340.4,698.3,339.5,699.7,339.3,701.4z M367.9,702.5c-0.9-0.1-1.9-0.3-2.8-0.5c0.3-1,0.6-2.1,0.8-3.2c0.3,0.4,0.7,0.7,1,1.1
		c0.4,0.7,1.2,1.3,1.6,2C368.3,702.1,368.1,702.3,367.9,702.5z M367.9,682.5c-0.9-0.1-1.9-0.3-2.8-0.5c0.3-1,0.6-2.1,0.8-3.2
		c0.3,0.4,0.7,0.7,1,1.1c0.4,0.7,1.2,1.3,1.6,2C368.3,682.1,368.1,682.3,367.9,682.5z M403.5,647.9c-2.1,4.1-5.6,6.7-9.4,9.1
		c-0.8,0.5-1.5,0.9-2,1.3c-1.9-3.7-2.4-7.7-2.7-11.8c0.3-0.5,0.6-0.9,1.3-0.9c3.7,0.4,7.2-1.2,10.9-1
		C404.6,644.9,404.9,645.3,403.5,647.9z M465.2,703.8c-0.1,0-0.2,0.1-0.3,0.1c-1.2,0.5-2.8-0.3-2.5-1.3c0.2-0.4,0.3-0.9,0.4-1.3
		c0.9-0.4,2.2-0.1,4.7,0.4C465.3,702.4,464.9,703.1,465.2,703.8z M465.2,683.8c-0.1,0-0.2,0.1-0.3,0.1c-1.2,0.5-2.8-0.3-2.5-1.3
		c0.2-0.4,0.3-0.9,0.4-1.3c0.9-0.4,2.2-0.1,4.7,0.4C465.3,682.4,464.9,683.1,465.2,683.8z M468.4,689.8c-0.4,0-0.7,0.1-1.1,0.1
		c-0.1-0.1-0.1-0.2-0.2-0.4C467.7,689.7,468,689.8,468.4,689.8z M467.3,709.9c-0.1-0.1-0.1-0.2-0.2-0.4c0.5,0.1,0.9,0.2,1.2,0.3
		C468,709.9,467.7,709.9,467.3,709.9z M464.3,697.8c1.3-1.4,3.2-2.1,4.8-1.1c0.2,0.1,0.4,0.2,0.6,0.3c0,0.6,0.5,0.9,1.8,1.1
		c0.1,0.1,0.1,0.2,0.2,0.3C469.1,698.3,466.7,698.1,464.3,697.8z M470.7,686.1c0-0.1,0.1-0.3,0.1-0.5c0.1,0.2,0.3,0.4,0.4,0.6
		C471.1,686.2,470.9,686.2,470.7,686.1z M464.3,677.8c1.3-1.4,3.2-2.1,4.8-1.1c0.2,0.1,0.4,0.2,0.6,0.3c0,0.6,0.5,0.9,1.8,1.1
		c0.1,0.1,0.1,0.2,0.2,0.3C469.1,678.3,466.7,678.1,464.3,677.8z M471.8,709.3c0.2-0.4,0.2-0.9,0-1.7c0.9,0.4,1.8,0.7,2.7,1.1
		C473.6,708.9,472.7,709.1,471.8,709.3z M471.8,689.3c0.2-0.4,0.2-0.9,0-1.7c0.9,0.4,1.8,0.7,2.7,1.1
		C473.6,688.9,472.7,689.1,471.8,689.3z M478.5,662.2c-0.6,0.2-1.2,0.6-1.9,0.9c-1.9,0.9-3.8,1.9-5.7,2.7c0.1,0.2,0.2,0.3,0.3,0.4
		c-0.2,0-0.4-0.1-0.5-0.1c0-0.1,0.1-0.2,0.1-0.3c-2.3,0.9-4.7,1.6-7.3,1.5c-2.4,0-3.1-0.5-3.3-3c-0.1-0.9,0.1-1.6,0.6-2.4
		c0.6-0.9,1.3-1.8,0.8-3.2c-0.4-1,0.4-1.1,1-0.7c2.3,1.3,4,0,5.7-1.1c1.5-1.1,2.4-1,3,0.8c0.3,1,1.1,1.4,2.2,1.3
		c0.6-0.1,1-0.3,1.4-0.6c0.3,0.7,1.3,1.3,1.9,1.9c0.6,0.7,1.3,1.2,2.1,1.6C478.7,662.1,478.6,662.2,478.5,662.2z M478.5,642.2
		c-0.6,0.2-1.2,0.6-1.9,0.9c-4.2,2-8.2,4.4-13.1,4.3c-2.4,0-3.1-0.5-3.3-3c-0.1-0.9,0.1-1.6,0.6-2.4c0.6-0.9,1.3-1.8,0.8-3.2
		c-0.4-1,0.4-1.1,1-0.7c2.3,1.3,4,0,5.7-1.1c1.5-1.1,2.4-1,3,0.8c0.3,1,1.1,1.4,2.2,1.3c0.6-0.1,1-0.3,1.4-0.6
		c0.3,0.7,1.3,1.3,1.9,1.9c0.6,0.7,1.3,1.2,2.1,1.6C478.7,642.1,478.6,642.2,478.5,642.2z M482.3,637.6c-0.3,0-0.6,0-1-0.1
		C481.6,637.5,481.9,637.5,482.3,637.6z M482.4,667.1c-0.6-0.2-1.2-0.2-1.8-0.3c0.3-0.4,0.5-0.6,0.7-0.8c0.5-0.6,0.8-1.3,0.9-1.9
		c0.8,0.6,1.5,1.3,2.1,2.3C483.8,666.7,483.1,667,482.4,667.1z M481.3,657.5c0.3,0,0.6,0.1,1,0.1C482,657.6,481.6,657.5,481.3,657.5
		z M482.4,647.1c-0.6-0.2-1.2-0.2-1.8-0.3c0.3-0.4,0.5-0.6,0.7-0.8c0.5-0.6,0.8-1.3,0.9-1.9c0.8,0.6,1.5,1.3,2.1,2.3
		C483.8,646.7,483.1,647,482.4,647.1z M507.6,607.9c0.5,0.1,1.1,0.1,2-0.1c2.2-0.5,2.5,0.8,1.9,2.7c-0.5,1.5-1.8,3.4-0.1,4.6
		c1.8,1.3,3.8,0.1,5.5-1c0.6-0.3,1-0.9,1.6-1.2c3.8-2.5,7.9-0.9,10.9,0.8c3.1,1.7,0,5.4-0.1,8.2c-0.2,3.6-3.9,3.1-6.4,3.2
		c-3.6,0.2-7.2,0.4-10.8,0.1c0-0.9-0.7-1.5-3.6-1.2c-0.8,0.1-1-1.2-0.6-1.6c3.4-3,0.3-5.3-0.8-7.7c-1-2.2-1.9-4.4,0.4-6.5
		C507.5,608,507.6,607.9,507.6,607.9z M505.3,600.3c0.1,0.4,0.4,0.7,0.7,1.1c1.1,1.1,1.4,2.3,1,3.6c-0.1,0.2-0.1,0.3-0.1,0.5
		C505.3,604.1,505.1,602.2,505.3,600.3z M505.3,620.3c0.1,0.4,0.4,0.7,0.7,1.1c1.1,1.1,1.4,2.3,1,3.6c-0.1,0.2-0.1,0.3-0.1,0.5
		C505.3,624.1,505.1,622.2,505.3,620.3z M512.1,645.1c0-0.9-0.7-1.5-3.6-1.2c-0.8,0.1-1-1.2-0.6-1.6c3.4-3,0.3-5.3-0.8-7.7
		c-1-2.2-1.9-4.4,0.4-6.5c0,0,0.1-0.1,0.1-0.1c0.5,0.1,1.1,0.1,2-0.1c2.2-0.5,2.5,0.8,1.9,2.7c-0.5,1.5-1.8,3.4-0.1,4.6
		c1.8,1.3,3.8,0.1,5.5-1c0.6-0.3,1-0.9,1.6-1.2c3.8-2.5,7.9-0.9,10.9,0.8c3.1,1.7,0,5.4-0.1,8.2c-0.2,3.6-3.9,3.1-6.4,3.2
		C519.3,645.2,515.7,645.4,512.1,645.1z M534.7,679.2c-1.8,2.1-3.9,4.4-6.8,4.8c0.7-0.7,1.4-1.5,2.1-2.2c0.8-1,2.9-1.7,1.8-3.1
		c-1.3-1.7-2.6-0.1-3.7,1.1c-1.4,1.5-2.8,0.8-4.1-0.2c-0.9-0.7-2.2-1.6-1-2.9c1.9-2.1,1.9-5,2.4-7.3c0.4-0.4,1.1-0.6,2-0.6
		c3.5,0,3.5,3.6,5.6,5.1c0.3,0.2,0.6,0.3,0.9,0.5C536.7,675.4,535.8,677.8,534.7,679.2z M534.7,659.2c-1.8,2.1-3.9,4.4-6.8,4.8
		c0.7-0.7,1.4-1.5,2.1-2.2c0.8-1,2.9-1.7,1.8-3.1c-1.3-1.7-2.6-0.1-3.7,1.1c-1.4,1.5-2.8,0.8-4.1-0.2c-0.9-0.7-2.2-1.6-1-2.9
		c1.9-2.1,1.9-5,2.4-7.3c0.4-0.4,1.1-0.6,2-0.6c3.5,0,3.5,3.6,5.6,5.1c0.3,0.2,0.6,0.3,0.9,0.5C536.7,655.4,535.8,657.8,534.7,659.2
		z M616,708.6c0.3,1.3-0.1,2.9-0.5,4.4c1.8,0.4,3.8,0.3,5.9-0.5c-0.1,0.4-0.2,0.7-0.3,1c-0.5,1.3-1.1,2.5-1.9,3.7
		c-2.3,3.5-4.1,6.8-3.2,11.4c0.5,2.4-1,5.5-1.8,8c-0.3,0.8-0.8,0.8-1.6,0.6c0.3-1.4,0.5-2.9,1.3-4c0.8-1.1-0.3-1.8-1.5-2
		c-1.7-0.3-3.2-1-5-1c-1.6,0-3.7,1-5,0.4c0.8-0.1,1.6,0,2.3,0c3.1-0.2,3.8-4.3,7-4.2c-0.5-2.4-2.3-3.4-4.2-4.3
		c0-0.1-0.1-0.3-0.1-0.4c-0.5-1.2-1.6-1.1-2.7-1c-0.9-0.4-1.9-0.7-2.9-0.9c0.5-1.1,1.8-2,1.2-3.2c-1.3-2.7-1.9-5.4-2.1-8.2
		c2.1-0.4,4.1-0.3,5.3,0.3c0.4,0.2,0.7,0.4,1.1,0.6c1.3-1.3,2.4-3,4.5-2.9c-0.5-2.4-2.3-3.4-4.2-4.3c0-0.1-0.1-0.3-0.1-0.4
		c-0.5-1.2-1.6-1.1-2.7-1c-0.9-0.4-1.9-0.7-2.9-0.9c0.5-1.1,1.8-2,1.2-3.2c-1.3-2.7-1.9-5.4-2.1-8.2c2.1-0.4,4.1-0.3,5.3,0.3
		c4.7,2.6,9.3,6.1,15.1,3.8c-0.1,0.4-0.2,0.7-0.3,1c-0.5,1.3-1.1,2.5-1.9,3.7C616.8,700.7,615,703.9,616,708.6z M670.7,752.9
		c0,0.2,0,0.4,0.1,0.7c-1.1-0.2-2.1-0.4-3.2-0.7c0.5-0.6,0.7-1.2,0.4-1.9c-0.3-0.8-0.8-1.1-1.3-1.3c0.4-0.3,0.7-0.6,1-1.1
		c2.4-4.6,2.4-4.6,7.4-3c-4.8,1.2-1.7,2.9-0.1,4.1c0.6,0.5,1.3,0.9,1.9,1.2C676,752.6,674.2,753.6,670.7,752.9z M670.7,732.9
		c0,0.2,0,0.4,0.1,0.7c-1.1-0.2-2.1-0.4-3.2-0.7c0.5-0.6,0.7-1.2,0.4-1.9c-0.3-0.8-0.8-1.1-1.3-1.3c0.4-0.3,0.7-0.6,1-1.1
		c2.4-4.6,2.4-4.6,7.4-3c-4.8,1.2-1.7,2.9-0.1,4.1c0.6,0.5,1.3,0.9,1.9,1.2C676,732.6,674.2,733.6,670.7,732.9z M745.4,812.1
		c-0.2-0.7-0.6-1.5-1.3-2.3c0.3,0.1,0.7,0.3,1,0.5c0.4,0.5,0.8,1,0.9,1.8C745.8,812.1,745.6,812.1,745.4,812.1z M745.4,792.1
		c-0.2-0.7-0.6-1.5-1.3-2.3c0.3,0.1,0.7,0.3,1,0.5c0.4,0.5,0.8,1,0.9,1.8C745.8,792.1,745.6,792.1,745.4,792.1z M752.3,800.7
		c0,0,0,0.1,0,0.1c-0.7-0.8-1.2-1.6-1.7-2.5c-1.4-2.5,1.9-2.5,3.1-3.6c0.4-0.3,0.6-0.6,0.8-0.9c0,0.3,0.1,0.5,0.2,0.8
		C754.9,795.2,751,797.4,752.3,800.7z M752.3,780.7c0,0,0,0.1,0,0.1c-0.7-0.8-1.2-1.6-1.7-2.5c-1.4-2.5,1.9-2.5,3.1-3.6
		c0.4-0.3,0.6-0.6,0.8-0.9c0,0.3,0.1,0.5,0.2,0.8C754.9,775.2,751,777.4,752.3,780.7z M771.8,806.9
		C771.8,806.9,771.8,806.9,771.8,806.9c1.5,1.9,3.9,3.2,4.7,5.9C773.3,812.4,769.4,812.7,771.8,806.9z M771.8,786.9
		C771.8,786.9,771.8,786.9,771.8,786.9c1.5,1.9,3.9,3.2,4.7,5.9C773.3,792.4,769.4,792.7,771.8,786.9z M1330.6,840.9
		c-1.5-1.2-3-1.8-4.4-2.2c-0.1-1.5-0.2-3-0.3-4.5C1327.8,835.7,1329.8,837.4,1330.6,840.9z M1326.2,858.7c-0.1-1.5-0.2-3-0.3-4.5
		c2,1.4,3.9,3.2,4.7,6.7C1329.1,859.8,1327.6,859.1,1326.2,858.7z M1328,847.9c0.6-0.4,1.3-0.7,2-1c0.5-0.2,0.9-0.6,1.3-1
		C1330.5,847.9,1329.3,848.1,1328,847.9z M1328,827.9c0.6-0.4,1.3-0.7,2-1c0.5-0.2,0.9-0.6,1.3-1
		C1330.5,827.9,1329.3,828.1,1328,827.9z M1473.9,861.6c-0.2-0.1-0.4-0.3-0.5-0.5c-1.2-1.5,0.2-2.6,1.3-3.4c0.3-0.2,0.5-0.4,0.7-0.6
		C1474.8,858.6,1474.2,860.1,1473.9,861.6z M1473.9,841.6c-0.2-0.1-0.4-0.3-0.5-0.5c-1.2-1.5,0.2-2.6,1.3-3.4
		c0.3-0.2,0.5-0.4,0.7-0.6C1474.8,838.6,1474.2,840.1,1473.9,841.6z M1506.3,858.8c-0.8-0.1-1.6-0.1-1.7-1c0.4,0.3,0.9,0.4,1.3,0.6
		c0.5,0.2,1,0.4,1.5,0.6C1507,859,1506.6,858.9,1506.3,858.8z M1506.3,838.8c-0.8-0.1-1.6-0.1-1.7-1c0.4,0.3,0.9,0.4,1.3,0.6
		c0.5,0.2,1,0.4,1.5,0.6C1507,839,1506.6,838.9,1506.3,838.8z M1511.8,854.9c0.2,0.3,0.4,0.5,0.6,0.8
		C1512.1,855.5,1511.9,855.2,1511.8,854.9z M1511.8,834.9c0.2,0.3,0.4,0.5,0.6,0.8C1512.1,835.5,1511.9,835.2,1511.8,834.9z
		 M1559.6,807.3c0.1,0.3,0.2,0.6,0.2,0.9c-0.2-0.1-0.4-0.1-0.6-0.2C1559.4,807.8,1559.5,807.5,1559.6,807.3z M1562,844.2
		c-1.4,0.2-2.6,0-3.2-1.9c-0.5-1.7,0.2-2.6,1.2-3.4c1.1,1.1,2.6,2.4,1.9,3.5C1561.7,842.9,1561.8,843.5,1562,844.2z M1559.3,828
		c0.1-0.2,0.2-0.5,0.3-0.7c0.1,0.3,0.2,0.6,0.2,0.9C1559.7,828.1,1559.5,828,1559.3,828z M1562,822.5c-0.2,0.4-0.1,1,0.1,1.7
		c-1.4,0.2-2.6,0-3.2-1.9c-0.5-1.7,0.2-2.6,1.2-3.4C1561.1,820.1,1562.6,821.3,1562,822.5z M1567.7,832.5L1567.7,832.5
		C1567.7,832.5,1567.7,832.5,1567.7,832.5L1567.7,832.5z M1567.7,812.5L1567.7,812.5C1567.7,812.5,1567.7,812.5,1567.7,812.5
		L1567.7,812.5z"/>
</g>
</svg>
