<?xml version="1.0" encoding="utf-8"?>
<!-- Generator: Adobe Illustrator 18.1.0, SVG Export Plug-In . SVG Version: 6.00 Build 0)  -->
<!DOCTYPE svg PUBLIC "-//W3C//DTD SVG 1.1//EN" "http://www.w3.org/Graphics/SVG/1.1/DTD/svg11.dtd">
<svg version="1.1" id="Layer_1" xmlns="http://www.w3.org/2000/svg" xmlns:xlink="http://www.w3.org/1999/xlink" x="0px" y="0px"
	 viewBox="0 0 100 75" enable-background="new 0 0 100 75" xml:space="preserve">
<g>
	<g>
		<path fill="#521624" d="M78.6,35.1C78.6,35.1,78.6,35.1,78.6,35.1C78.6,35.1,78.7,35.1,78.6,35.1c0.1,0,0.2-0.1,0.2-0.1
			c0.1-0.1,0.1-0.1,0.2-0.2c0.1-0.2,0.2-0.4,0.3-0.6c0.1-0.3,0.3-0.6,0.6-0.7c0.1,0,0.1,0,0.2,0c0.1,0,0.1,0,0.2,0.1
			c0,0,0,0.1,0,0.2c0,0.1-0.1,0.2-0.1,0.3c0,0.1-0.1,0.2-0.1,0.2c-0.1,0.1-0.1,0.3-0.2,0.4c-0.2,0.3-0.3,0.6-0.6,0.8
			c-0.1,0.1-0.1,0.2-0.2,0.2c-0.3,0.3-0.6,0.5-1,0.4C78,36,78,35.9,77.9,35.8c-0.3-0.4-0.6-0.9-0.8-1.3c0-0.1-0.2-0.1-0.2,0
			c-0.4,0.4-1,0.9-1.6,0.9c-0.3,0-0.6,0-0.9,0c-0.6-0.1-1.3-0.1-1.8-0.5c-0.4-0.3-0.6-0.6-0.8-0.9c-0.1-0.1-0.2-0.1-0.3,0
			c-0.3,0.4-0.5,0.8-0.9,1.1c-0.1,0.1-0.2,0.2-0.3,0.2c-0.1,0-0.3,0-0.4,0c-0.4-0.1-0.7-0.2-1.1-0.4c-0.1-0.1-0.4-0.3-0.5-0.3
			c-0.2,0-0.3,0.2-0.4,0.3c-0.9,1-2.5,1.3-3.7,0.7c-0.7-0.4-1.1-1.2-1.3-1.9c0-0.1-0.1-0.2-0.1-0.4c-0.1-0.1-0.2-0.1-0.3,0
			c-0.1,0.2-0.1,0.5-0.2,0.7c-0.3,1-1,1.9-2.1,2c-0.6,0-1.1-0.2-1.6-0.5c-1.4-0.8-2.3-2.1-2.8-3.6c-0.5-1.5-0.4-3.1-0.1-4.6
			c0.4-1.7,1.1-3.4,2.4-4.7c0.5-0.5,1.2-1,1.9-0.8c0.3,0.1,0.6,0.3,0.9,0.5c1.1,1,1.8,2.5,1.9,4c0,0.3,0,0.6-0.1,0.9
			c-0.2,0.3-0.5,0.6-0.8,0.8c-1.3,0.8-2.6,1.5-4,2.1c-0.1,0-0.1,0.1-0.1,0.2c0.1,0.8,0.2,1.6,0.5,2.4c0.3,0.8,0.8,1.6,1.4,2.1
			c0.3,0.2,0.6,0.4,0.9,0.3c0.3-0.1,0.5-0.3,0.7-0.5c1.1-1.5,1.3-3.3,1.5-5.1c0.2-1.9,0.6-3.7,1.4-5.4c0.3-0.6,0.6-1.1,1.1-1.5
			s1.2-0.5,1.8-0.2c0.4,0.2,0.7,0.6,1,0.8c0,0,0.1,0,0.1,0c0.2,0.1,0.3-0.2,0.4-0.3c0.3-0.7,0.8-1.2,1.5-1.5c0.1,0,0.1,0,0.2,0
			c0.3,0.1,0.3,0.3,0.3,0.4c-0.2,3.2-0.4,6.5-0.6,9.7c0,0.6-0.2,1.2,0.1,1.7c0.1,0.2,0.3,0.4,0.4,0.6c0.1,0.1,0.1,0.1,0.2,0.2
			c0,0,0.1,0,0.1,0c0,0,0,0,0.1-0.1c0.5-0.5,0.4-1.3,0.3-1.9c-0.1-0.7-0.1-1.5-0.1-2.2c0.1-1.5,0.4-5,1.2-6.3c0.4-0.5,0.8-1,1.4-1.2
			c0.5-0.1,1.1,0,1.7,0.2c0.1,0,0.2,0,0.2-0.1c0.3-2.8,0.8-5.5,1.4-8.3c0-0.1,0-0.1,0.1-0.2c0.2-0.2,0.4-0.1,0.6,0
			c0.6,0.3,1.2,0.7,1.7,1c0.1,0.1,0.2,0.1,0.2,0.3c0,0.1,0,0.2-0.1,0.2c-1.2,2.1-1.6,4.5-1.8,6.9c-0.2,2.1-0.2,4.2-0.1,6.3
			c0,0.6,0.1,3.3,0.2,4c0.1,0.6,0.2,1.3,0.5,1.9c0,0.1,0.1,0.2,0.1,0.3c0,0.1,0.1,0.2,0.1,0.3C78.5,35,78.6,35,78.6,35.1
			C78.6,35,78.6,35.1,78.6,35.1z M67,23.4c-0.1,0-0.1,0.1-0.2,0.2c-1.5,2.2-1.8,4.9-2,7.4c-0.1,0.8-0.1,1.6,0,2.3
			c0.1,0.6,0.4,1.3,0.9,1.8c0.1,0.1,0.2,0.2,0.3,0.2c0.2,0,0.4-0.2,0.6-0.3c0.8-1.1,1.2-2.3,1.4-3.7c0.1-1.4,0.2-2.7,0.1-4.1
			c0-0.7-0.1-1.5-0.2-2.2C67.7,24.7,67.5,23.2,67,23.4z M74.6,23.2c-0.1,0-0.1,0.1-0.2,0.2c-1.1,1.9-1.6,6.2-1.3,8.3
			c0.1,0.8,0.4,1.7,0.9,2.4c0.2,0.3,0.5,0.8,0.9,0.5c0.4-0.3,0.6-0.7,0.8-1.1c0.5-1.2,0.4-4.6,0.4-5.9c-0.1-1.3-0.3-2.7-0.8-3.9
			c-0.1-0.1-0.1-0.3-0.2-0.4C74.8,23.2,74.7,23.2,74.6,23.2z M57.7,29.3C57.7,29.3,57.8,29.3,57.7,29.3c0.1,0.1,0.1,0.1,0.2,0
			c0.7-0.4,1.4-0.9,2-1.4c0.2-0.2,0.5-0.5,0.6-0.8c0.5-1,0.1-2.5-0.3-3.5c-0.1-0.2-0.1-0.4-0.2-0.5c-0.1-0.1-0.2-0.1-0.2,0
			c-1.5,1.4-1.9,4.2-2.1,6.1C57.7,29.2,57.7,29.2,57.7,29.3z"/>
		<path fill="#521624" d="M28.8,31.9c0.1-0.5,0.1-0.9,0.1-1.4c0-0.4,0.1-0.8,0.1-1.2c0-0.9,0-1.8,0.1-2.7c0-1.3,0-2.5,0.1-3.8
			c0-0.1,0-0.1-0.1-0.1c0,0,0,0-0.1,0.1c-0.2,0.4-0.4,0.7-0.5,1.1c-0.3,0.7-0.4,1.2-0.4,1.9c0,0.6,0,1.2-0.1,1.8
			c-0.2,1.8-0.7,3.8-2.2,4.9c-1.2,0.9-3.2,0.7-4.5-0.1c-1.6-1-2.2-3.4-2.4-5.1c-0.2-2.1,0.2-4.2,1-6.2c0.6-1.4,1.4-2.6,2.7-3.3
			c0.5-0.3,1-0.5,1.6-0.5c0.5,0,1,0.1,1.4,0.4c0.7,0.4,1.3,1.1,1.2,2c0,0.2-0.3,0.3-0.6,0.1c-0.6-0.5-1.2-1.1-2.1-0.9
			c-0.4,0.1-0.8,0.3-1.1,0.7c-0.8,1-0.9,2.4-1,3.6c-0.2,1.5-0.2,3-0.1,4.4c0,1.3,0.2,2.7,1,3.8c0.4,0.6,1.3,0.4,1.7-0.1
			c0.3-0.4,0.5-0.8,0.6-1.3c0.2-0.8,0.3-1.7,0.4-2.6c0-0.2,0.2-2.3,0.1-2.3c-1.2-0.5-2-0.9-2.3-2.3c-0.2-0.7-0.1-1.5,0.1-2.2
			c0.1-0.4,0.5-0.7,0.8-0.9c0.3-0.2,0.6-0.2,0.9-0.2c0.9,0.2,1.7,0.9,2.2,1.7c0.2,0.4,0.3,0.8,0.5,1.2c0.1,0.2,0.1,0.4,0.2,0.6
			c0,0.1,0.1,0.2,0.1,0.3c0,0,0,0.2,0.1,0.2c0,0,0,0,0.1-0.1c0.1-0.2,0.2-0.4,0.2-0.7c0.2-0.6,0.3-1.3,0.3-1.9c0-0.4,0-0.8,0-1.1
			c0-0.3,0-0.6,0.2-0.8c0.1-0.1,0.2-0.2,0.3-0.2c0.1,0,0.2,0,0.4,0.1c0.6,0.2,1,0.7,1.4,1.2c0,0.1,0.1,0.1,0.2,0.2
			c0.2,0.2,0.6-0.1,0.7-0.2c0.2-0.2,0.5-0.3,0.7-0.4c0.5-0.2,1-0.4,1.6-0.4c0.3,0,0.6,0,0.9,0.1c0.3,0.1,0.5,0.3,0.7,0.6
			c1.1,1.4,0.4,3.4,0,5c-0.1,0.2-0.1,0.4-0.2,0.5c-0.3,1-0.5,2.1-0.4,3.2c0,0.3,0.1,0.6,0.3,0.9c0.1,0.1,0.2,0.3,0.4,0.3
			c0.2,0,0.5-0.1,0.6-0.3c0.3-0.3,0.4-0.7,0.6-1c0-0.1,0.1-0.3,0.1-0.4c0-0.1-0.1-0.3-0.1-0.5c-0.1-0.3-0.1-0.6-0.1-0.9
			c-0.1-0.6-0.1-1.2-0.1-1.8c0-0.7,0.1-1.4,0.2-2.1c0.2-0.7,0.4-1.3,0.7-1.9c0.1-0.1,0.1-0.3,0.2-0.4c0.4-0.7,1-1.4,1.7-1.9
			c0.4-0.2,0.8-0.4,1.2-0.3c0.3,0.1,0.5,0.3,0.7,0.4c0.5,0.4,0.8,0.9,1.2,1.4c0.6,0.9,1.1,2,0.9,3.2c-0.1,0.5-0.4,1-0.8,1.4
			c-0.4,0.3-0.9,0.6-1.4,0.7c-0.6,0.2-1.2,0.4-1.7,0.5c-0.1,0-0.1,0-0.2,0.1c0,0.1,0,0.1,0,0.2c0,0.9,0.2,1.9,0.6,2.7
			c0.1,0.3,0.3,0.6,0.6,0.8c0.4,0.2,0.8,0.2,1.2,0c0.4-0.2,0.7-0.5,1-0.8c0.2-0.3,0.4-0.6,0.5-0.9c0.1-0.2,0.1-0.4,0.3-0.6
			c0,0,0.1,0,0.1,0c0.2,0,0.3,0.1,0.3,0.2c0,0.3-0.2,0.6-0.3,0.8c-0.2,0.3-0.3,0.5-0.5,0.8c-0.2,0.2-0.4,0.5-0.6,0.7
			c0,0-0.1,0.1-0.1,0.1c-0.5,0.4-1.1,0.7-1.8,0.7c-1.2,0.1-2.1-0.8-2.8-1.7c-0.1-0.1-0.3-0.1-0.4,0c-0.1,0.1-0.1,0.2-0.2,0.3
			c-0.2,0.3-0.5,0.7-0.7,1c-0.3,0.3-0.7,0.5-1.1,0.5c-0.6,0-1.1-0.3-1.4-0.7c-0.3-0.4-0.5-1-0.6-1.5c-0.3-1.2-0.2-2.5,0-3.8
			c0.2-0.9,0.4-1.8,0.7-2.7c0.1-0.4,0.7-1.9-0.3-1.7c-0.2,0-0.4,0.1-0.5,0.3c-1.2,1.2-1.7,2.8-1.9,4.5c-0.1,1-0.1,2-0.1,3
			c0,0.4,0,0.9,0.1,1.3c0,0.4,0.2,0.9-0.1,1.3c-0.2,0.5-0.8,0.6-1.3,0.8L28.9,32C28.8,32,28.8,32,28.8,31.9z M40.6,19.8
			c-0.1,0-0.1,0.1-0.2,0.2c-0.5,0.7-0.8,1.5-1,2.4c-0.1,0.8-0.1,1.5-0.1,2.3c0,0.1,0,0.5,0.1,0.5c0,0,0.1,0,0.1,0
			c0.5-0.3,0.9-0.7,1.3-1.1c0.3-0.4,0.6-1,0.7-1.5c0.1-0.5,0-1-0.2-1.5C41.2,20.6,41,20.1,40.6,19.8C40.6,19.8,40.6,19.8,40.6,19.8z
			 M25.3,24.3c0.1,0,0.2-0.1,0.3-0.2c0.2-2-0.4-3.2-1-3.5c-0.1,0-0.2,0-0.2,0l0,0c-0.3,0.1-0.4,0.4-0.5,0.7
			c-0.1,0.7-0.1,1.5,0.3,2.1C24.4,23.9,24.8,24.2,25.3,24.3z"/>
		<path fill="#521624" d="M63.1,50.6c-0.2,1-0.3,2-0.1,3c0.2,1.2,0.7,2.4,1.7,3.1c0.4,0.3,1,0.6,1.5,0.5c0.6-0.1,1.1-0.6,1-1.1
			c-0.1-0.6-0.8-0.9-1.2-0.5c-0.2-0.4-0.1-0.9,0.3-1.2c0.4-0.2,0.9-0.2,1.3,0.1c0.4,0.3,0.6,0.7,0.6,1.2c0.2,1.3-0.9,2.5-2.1,2.8
			c-1.3,0.3-2.6-0.3-3.4-1.3c-0.8-1-1.2-2.3-1.2-3.6c0-1.3,0.3-2.6,0.7-3.8c0.1-0.4,0.3-0.9,0.3-1.3c0-0.4-0.2-0.6-0.5-0.9
			c-0.3-0.4-3.3-3.3-3.6-3.7c-0.6-0.8-1.3-1.5-1.9-2.3c-0.6-0.8-1.3-1.5-2-2.3c-0.5-0.6-1.1-1.2-1.7-1.8c-0.1-0.1-0.3-0.1-0.3,0.1
			c-0.3,1.6-1.2,3.2-2.5,4.2c-2.7,2-6,1.3-8.2-1c-0.4-0.5-0.8-1-1.1-1.5c-0.9-1.6-0.9-3.6,0.2-5.1c0.7-1,1.8-1.7,3-2.1
			c1.7-0.6,3.7-0.8,5.3,0.1c0.3,0.2,0.6,0.1,0.6-0.3c0.2-1.8,0.4-3.5,0.5-5.3c0-0.4,0.1-0.8,0.1-1.3c0-0.4,0.2-1,0.1-1.4
			c-0.1-0.6-0.8-0.3-1.3-0.4c-2-0.1-3.8-1.3-4.9-3c-1.1-1.8-1-4.2,0.2-6c0.4-0.6,1.1-1.2,1.9-1.1c0.3,0,0.6,0.2,0.9,0.3
			c0.1,0.1,0.2,0.2,0.2,0.3c0.1,0.4-0.5,0.3-0.7,0.4c-0.1,0.1-0.3,0.2-0.4,0.3c-0.9,0.9-1.3,2.3-0.8,3.4c0.4,0.9,1.2,1.5,2.1,1.8
			c0.8,0.3,1.7,0.6,2.6,0.5c0.2,0,0.3,0,0.5-0.2c0.2-0.2,0.2-0.7,0.2-1c0.3-1.8,0.8-3.7,1.4-5.4c0.6-1.6,1.6-3.5,3.1-4.5
			c0.7-0.5,1.6-1,2.5-0.9c0.9,0.1,1.7,0.6,2.1,1.4c0.5,0.9,0.4,1.9,0.3,2.8c-0.1,0.9-0.3,1.8-0.5,2.6c-0.6,2-1.8,3.8-3.4,5.2
			c-0.5,0.4-1,0.8-1.5,1.2c-0.6,0.4-1.5,0.6-1.5,1.5c-0.1,1.1-0.1,2.3-0.2,3.4c-0.1,2.2-0.2,4.4-0.2,6.7c0,0.3,0,0.6,0.1,0.9
			c0.2,0.5,0.6,0.8,0.9,1.2c0.5,0.5,1,1,1.4,1.5c1,1,1.9,2.1,2.9,3.1c0.3,0.2,5.8,5.3,5.8,5.3c1.3-2.2,3.2-4.1,5.5-5.2
			c1.8-1,4-1.5,6-1c1.9,0.4,3.8,2,4.2,3.9c0.2,1.1,0,2.2-0.4,3.2c-0.7,2-1.7,3.9-3.5,5.1c-1.8,1.2-4.1,1.5-6.3,1.1
			c-2.2-0.5-4.1-1.6-5.8-3c0,0-0.1-0.1-0.2-0.1c-0.3-0.1-0.4,0.2-0.5,0.5C63.2,50.2,63.1,50.4,63.1,50.6z M72.4,48.8
			c0.6-0.1,1.1-0.2,1.7-0.3c2.4-0.7,4.6-4.1,3.2-6.5c-0.4-0.7-1.2-1.3-2-1.4c-1.2-0.2-2.4,0.2-3.5,0.6c-1.1,0.4-2.1,1-3.1,1.6
			c-1.3,0.9-2.4,2.1-3.4,3.3c-0.1,0.1-0.1,0.2-0.1,0.3c0,0.1,0.1,0.1,0.1,0.2C67.3,48.3,69.9,49.1,72.4,48.8z M45.7,40.1
			c0.1,0,0.2,0,0.3,0c1.2-0.2,2.3-0.7,2.9-1.7c0.3-0.5,0.5-1.2,0.7-1.8c0.1-0.7,0.4-1.9-0.2-2.5c-0.9-1.1-2.8-1.6-4.1-1.4
			c-0.7,0.1-1.4,0.3-2,0.6c-1.1,0.6-1.8,1.5-1.8,2.8c0,1.3,0.6,2.4,1.6,3.1C43.8,39.7,44.7,40.1,45.7,40.1z M59.6,12
			c0-0.9-0.3-1.7-1-2.2c-0.8-0.5-1.9-0.2-2.7,0.4c-0.7,0.6-1.1,1.6-1.4,2.5c-0.5,1.5-0.8,3.1-0.9,4.7c0,0.4-0.3,2.1,0,2.3
			c0.3,0.2,1.3-0.5,1.6-0.7c2.1-1.4,3.8-3.5,4.3-6C59.6,12.7,59.6,12.3,59.6,12z"/>
		<path fill="#521624" d="M59.4,55.2c0-0.1-0.1-0.2-0.2-0.2c0,0,0,0-0.1,0c-0.2,0.1-0.2,0.3-0.3,0.5c-0.1,0.3-0.2,0.5-0.4,0.7
			c-0.2,0.3-0.5,0.5-0.8,0.6c-0.3,0.1-0.7,0.1-1,0c-0.2-0.1-0.4-0.4-0.5-0.6c-0.3-0.7-0.5-1.5-0.5-2.2c0-0.1,0-0.1,0-0.2
			c0,0,0.1-0.1,0.1-0.1c0.5-0.2,1-0.3,1.4-0.4c0.4-0.1,0.8-0.3,1.2-0.6c0.3-0.3,0.6-0.7,0.7-1.2c0.2-0.9-0.2-1.9-0.7-2.6
			c-0.3-0.4-0.6-0.8-1-1.2c-0.2-0.2-0.4-0.3-0.6-0.4c-0.3-0.1-0.7,0.1-1,0.3c-0.6,0.4-1.1,0.9-1.4,1.5c-0.1,0.1-0.1,0.2-0.2,0.3
			c-0.2,0.5-0.4,1-0.5,1.6c-0.1,0.6-0.2,1.1-0.2,1.7c0,0.7,0.1,1.4-0.1,2c-0.1,0.5-0.4,1.4-0.8,1.7c-0.1,0.1-0.2,0.1-0.3,0.1
			c-0.3,0-0.4-0.4-0.4-0.7c0.2-2.3,0.5-4.6,0.9-6.9c0.1-0.5,0.2-1.2-0.3-1.5c-0.3-0.2-0.6-0.2-0.9-0.1c-0.6,0.2-1,0.8-1.3,1.3
			c-0.8,1.7-1.2,3.8-2.5,5.2c0-1.5,0.1-3,0.4-4.5c0.2-0.8,0.3-1.9-0.5-2.2c-0.3-0.1-0.7-0.1-0.9,0.1c-0.5,0.3-0.8,0.9-1,1.5
			c-0.9,2.3-1.8,4.6-3.1,6.7c-0.3,0.4-0.5,0.8-0.9,1.1c-0.1,0.1-0.2,0.1-0.3,0c-0.3-0.1-0.2-0.6-0.1-0.8c0.2-1.6,0.5-3.3,0.9-4.9
			c0.2-0.6,0.3-1.3-0.2-1.7c-0.3-0.3-0.8-0.3-1.1-0.1c-0.7,0.4-0.9,1.2-1,1.9c-0.4,2.1-0.9,4.4-2.5,6c-0.1,0.2-0.3,0.3-0.5,0.3
			c-0.3,0-0.5-0.1-0.7-0.3c-0.5-0.6-0.6-1.4-0.6-2.2c0-3.2,0.5-6.3,1.6-9.3c0.1-0.2,0.1-0.4,0.3-0.5c0.2-0.1,0.4-0.1,0.5-0.1
			c1.5,0,2.9-0.5,4.2-1.3c0.7-0.4,1.3-1,1.4-1.7c0.2-0.8-0.6-1.9-1.5-1.5c-0.2,0.1-0.3,0.3-0.2,0.5c0.1,0.2,0.3,0.2,0.5,0.3
			c0.3,0.2,0.3,0.6,0,0.9c-0.2,0.2-0.6,0.3-0.9,0.4c-1.1,0.2-2.3,0.3-3.5,0.1c0.2-0.9,0.3-1,0.5-1.9c0.1-0.3,0.1-0.5,0.1-0.8
			c-0.1-0.5-0.7-0.8-1.2-1c-0.4-0.1-0.8-0.3-1.2,0c-0.2,0.1-0.2,0.3-0.3,0.5c-0.3,1-0.5,1.2-0.8,2.1c-0.1,0.2-0.2,0.5-0.3,0.6
			c-0.3,0.3-0.7,0.3-1.1,0.3c-1.8,0.1-3.6,0.3-5.1,1.2c-1.5,0.9-2.7,2.6-2.3,4.4c1.7-2.3,4.7-3.5,7.5-3c-0.9,3.3-1.8,6.8-1.1,10.2
			c0.3,1.6,1.2,3.3,3,3.4c0.3,0,0.6-0.1,0.9-0.2c0.3-0.1,0.6-0.3,0.9-0.5c0.5-0.3,0.8-0.6,1.2-0.8c0,0,0,0,0.1,0
			c0.4-0.3,1-0.3,1.3,0.1c0.3,0.4,0.7,0.6,1.1,0.7c0.9,0.1,1.7-0.4,2.3-1c1.6-1.5,2.1-3.8,3.3-5.6c-0.2,1.7-0.4,3.4-0.6,5.1
			c-0.1,0.6-0.1,1.4,0.5,1.6c0.3,0.1,0.6,0.1,0.8-0.1c0.4-0.2,0.7-0.7,0.9-1.1c0.9-1.7,1.7-3.3,2.6-5c0,1.2,0,2.4,0,3.7
			c0,0.7,0.1,1.6,0.8,1.8c0.6,0.1,1.1-0.3,1.4-0.9c0-0.1,0.1-0.2,0.1-0.2c0-0.1,0.1-0.2,0.1-0.3c0.2-0.4,0.4,0,0.6,0.2
			c0.3,0.4,0.6,0.8,1,1c0.4,0.3,0.8,0.4,1.3,0.4c0.6,0,1.1-0.2,1.5-0.6c0,0,0.1-0.1,0.1-0.1c0.2-0.2,0.4-0.4,0.5-0.6
			c0.2-0.2,0.3-0.4,0.4-0.6C59.3,55.7,59.5,55.5,59.4,55.2z M55.6,52.9c0-0.6,0-1.3,0.1-1.9c0.1-0.7,0.4-1.4,0.8-2
			c0,0,0.1-0.2,0.1-0.1c0,0,0,0,0,0c0.3,0.3,0.4,0.6,0.5,1c0.1,0.4,0.2,0.8,0.1,1.2c-0.1,0.5-0.3,0.9-0.5,1.2
			c-0.3,0.4-0.6,0.7-1,0.9c0,0-0.1,0-0.1,0C55.6,53.3,55.6,53,55.6,52.9z"/>
		<path fill="#521624" d="M23.3,39.7c0.1-0.7,0.2-1.4,0.3-2.1c0-0.1,0-0.3-0.1-0.4c-0.1,0-0.1-0.1-0.2-0.1c-0.9-0.2-1.8-0.2-2.7,0.1
			c-1,0.3-1.7,1.1-2.1,2.1c-0.1,0.2-0.1,0.3-0.2,0.4c-0.1,0.1-0.2,0.2-0.4,0.2c-0.3,0-0.4-0.4-0.3-0.6c0.1-1.1,0.7-2,1.6-2.7
			c0.9-0.6,1.9-0.9,3-0.9c0.4,0,0.8,0.1,1.2,0.1c0.1,0,0.2,0,0.3-0.1c0.2-0.1,0.2-0.3,0.2-0.5s-0.1-0.4,0-0.6c0-0.2,0.2-0.4,0.4-0.4
			c0.1,0,0.2,0,0.2,0.1c0.4,0.2,0.7,0.4,0.7,0.8c0,0.2-0.2,0.8,0.2,0.8c0.3,0,0.5-0.1,0.8-0.1c0.2,0,0.4-0.1,0.5-0.2
			c0.1-0.1,0.1-0.2,0.1-0.3c0-0.2-0.2-0.3-0.4-0.3c-0.3,0-0.6,0.2-0.8,0c0,0,0-0.1-0.1-0.1c0,0,0-0.1,0-0.1c0.2-0.4,0.6-0.6,1-0.6
			c0.4,0,0.8,0.2,1.1,0.5c0,0,0,0,0,0.1c0.1,0.1,0.2,0.3,0.2,0.5c0,0.2,0,0.4,0,0.6c0,0.2-0.1,0.4-0.2,0.6c-0.2,0.2-0.4,0.3-0.6,0.4
			c-0.5,0.2-1,0.2-1.5,0.3c-0.3,0.1-0.5,0.1-0.5,0.4c0,0.7-0.1,1.4-0.1,2.1c0,0.5,0,1.2,0.3,1.6c0.1,0.1,0.1,0.2,0.3,0.2
			c0.3,0.1,0.6-0.1,0.7-0.3c0.2-0.3,0.1-0.6,0-1c0,0,0-0.1,0-0.1c0-0.1,0.1-0.1,0.1-0.1c0.1-0.1,0.2-0.1,0.3,0
			c0.3,0.1,0.3,0.4,0.4,0.6c0.1,0.3,0.1,0.6,0,0.8c-0.2,1.1-1.6,1.4-2.4,0.7c-0.1-0.1-0.2-0.2-0.3-0.2c-0.1,0-0.3,0.1-0.3,0.2
			c-0.1,0.1-0.1,0.3-0.2,0.4c-0.1,0.3-0.4,0.6-0.7,0.8c-0.3,0.1-0.6,0.2-0.9,0.1c-0.3-0.1-0.5-0.5-0.8-0.4c-0.4,0-0.8,0.4-1.1,0.5
			c-0.4,0.1-0.8,0.1-1.2,0c-0.6-0.2-0.8-0.8-0.8-1.4c0-0.3,0-0.6,0-0.8c0.1-0.6,0.3-1.1,0.5-1.6c0.3-0.4,0.6-0.8,1-1.1
			c0.5-0.4,1-0.4,1.6-0.5c0.4,0,0.8,0,1,0.3c0.3,0.3,0.3,0.8,0.2,1.3c0,0.5-0.1,1-0.1,1.4c0,0.2-0.2,1.1,0,1.3c0.1,0.1,0.2,0,0.3,0
			c0.1-0.1,0.1-0.2,0.1-0.3C23.1,41.3,23.1,40.5,23.3,39.7z M21,41.9C21,41.9,21,41.8,21,41.9c0.3-0.5,0.4-0.9,0.4-1.4
			c0-0.4,0.1-1.2-0.5-1.2c-0.2,0-0.5,0.1-0.7,0.3c-0.3,0.2-0.6,0.6-0.7,1c-0.1,0.3-0.2,0.5-0.3,0.8s-0.1,0.6,0,0.8
			c0,0.1,0.1,0.2,0.1,0.3c0.3,0.3,0.8,0.2,1.1,0C20.7,42.3,20.9,42.1,21,41.9z"/>
		<path fill="#521624" d="M32.2,40.4C32.2,40.4,32.2,40.4,32.2,40.4c-0.4,0.4-0.7,0.8-1.3,0.9c-0.4,0.1-0.9,0-1.2-0.3
			c-0.2-0.2-0.3-0.4-0.4-0.6c-0.5-1.3-0.3-3.1,0.9-4c0.4-0.3,0.8-0.4,1.2-0.5c0.4-0.1,0.9,0.1,1.1-0.3c0,0,0-0.1,0.1-0.1
			c0,0,0.1,0,0.1,0c0.4,0.2,0.4,0.6,0.4,1c0,0.9,0,1.7,0.1,2.6c0,0.2,0,1.1,0.2,1.2c0.3,0.2,0.5-0.7,0.8-0.3c0.1,0.1,0.1,0.2,0,0.3
			c-0.1,0.3-0.4,0.7-0.7,0.9c-0.3,0.1-0.6,0.1-0.8-0.1C32.5,40.8,32.4,40.6,32.2,40.4z M30.4,40.1c0,0.1,0.1,0.2,0.1,0.3
			c0.4,0.9,1.1-1.1,1.2-1.4c0.1-0.5,0.2-1.1,0.2-1.7c0-0.2,0-1-0.4-0.7c-0.5,0.3-0.7,0.9-0.9,1.5c-0.1,0.3-0.2,0.6-0.2,0.9
			C30.3,39.4,30.3,39.8,30.4,40.1z"/>
		<path fill="#521624" d="M43.5,46.2c-0.2,0.5-0.4,1-0.6,1.6c-0.1,0.2-0.1,0.6-0.3,0.7c-0.1,0.1-0.4,0-0.6,0
			c-0.5-0.1-0.9-0.1-1.4-0.2c-0.1,0-0.2-0.1-0.2-0.2c0-0.6,0-1.2,0-1.8c0-0.3,0.1-0.5,0.5-0.5c0.5-0.1,1,0,1.5,0.1
			C42.8,46,43.2,46.1,43.5,46.2z"/>
	</g>
	<g>
		<g>
			<path fill="#521624" d="M10.8,2.3h1v3.5h2.2v0.9h-3.1V2.3z"/>
			<path fill="#521624" d="M15.1,2.3h3.3v0.8H16V4h2v0.8h-2v0.9h2.4v0.8h-3.3V2.3z"/>
			<path fill="#521624" d="M21.2,2.2h0.9l1.9,4.4h-1l-0.4-1h-1.8l-0.4,1h-1L21.2,2.2z M22.2,4.8l-0.6-1.4L21,4.8H22.2z"/>
			<path fill="#521624" d="M25.1,2.3h1.7c1.4,0,2.3,0.9,2.3,2.2v0c0,1.2-0.9,2.2-2.3,2.2h-1.7V2.3z M26,3.1v2.6h0.7
				c0.8,0,1.3-0.5,1.3-1.3v0c0-0.8-0.5-1.3-1.3-1.3H26z"/>
			<path fill="#521624" d="M30.4,2.3h1v4.3h-1V2.3z"/>
			<path fill="#521624" d="M32.9,2.3h0.9l2,2.7V2.3h0.9v4.3H36l-2.1-2.8v2.8h-0.9V2.3z"/>
			<path fill="#521624" d="M38.1,4.4L38.1,4.4c0-1.2,1-2.3,2.3-2.3c0.8,0,1.3,0.2,1.7,0.6l-0.6,0.7c-0.3-0.3-0.6-0.4-1.1-0.4
				c-0.7,0-1.2,0.6-1.2,1.4v0c0,0.8,0.5,1.4,1.3,1.4c0.3,0,0.7-0.1,0.9-0.3V4.9h-1V4.1h1.9V6c-0.4,0.4-1.1,0.7-1.9,0.7
				C39,6.7,38.1,5.7,38.1,4.4z"/>
			<path fill="#521624" d="M46.9,3.1h-1.3V2.3h3.6v0.9h-1.3v3.5h-1V3.1z"/>
			<path fill="#521624" d="M50.4,2.3h1V4h1.8V2.3h1v4.3h-1V4.8h-1.8v1.7h-1V2.3z"/>
			<path fill="#521624" d="M55.6,2.3h3.3v0.8h-2.3V4h2v0.8h-2v0.9h2.4v0.8h-3.3V2.3z"/>
			<path fill="#521624" d="M62.5,2.3h0.9l2,2.7V2.3h0.9v4.3h-0.8l-2.1-2.8v2.8h-0.9V2.3z"/>
			<path fill="#521624" d="M69.3,2.2h0.9l1.9,4.4h-1l-0.4-1h-1.8l-0.4,1h-1L69.3,2.2z M70.4,4.8l-0.6-1.4l-0.6,1.4H70.4z"/>
			<path fill="#521624" d="M73.7,3.1h-1.3V2.3h3.6v0.9h-1.3v3.5h-1V3.1z"/>
			<path fill="#521624" d="M77.2,2.3h1v4.3h-1V2.3z"/>
			<path fill="#521624" d="M79.5,4.4L79.5,4.4c0-1.2,1-2.3,2.3-2.3s2.3,1,2.3,2.2v0c0,1.2-1,2.2-2.3,2.2C80.5,6.7,79.5,5.7,79.5,4.4
				z M83.1,4.4L83.1,4.4c0-0.8-0.5-1.4-1.3-1.4c-0.8,0-1.3,0.6-1.3,1.4v0c0,0.7,0.5,1.4,1.3,1.4C82.6,5.8,83.1,5.2,83.1,4.4z"/>
			<path fill="#521624" d="M85.4,2.3h0.9l2,2.7V2.3h0.9v4.3h-0.8l-2.1-2.8v2.8h-0.9V2.3z"/>
		</g>
		<rect x="92.7" y="4" fill="#521624" width="6" height="0.9"/>
		<rect x="1.3" y="3.9" fill="#521624" width="6" height="0.9"/>
	</g>
</g>
</svg>
